<svg version="1.2" xmlns="http://www.w3.org/2000/svg" viewBox="0 0 1000 1000" width="1000" height="1000">
	<title>10259340_4401279-ai</title>
	<defs>
		<clipPath clipPathUnits="userSpaceOnUse" id="cp1">
			<path d="m695.34 776.96l0.24-88.41c0.96-3.57 1.73-16.69 3.79-25.83 3.46-15.32-10.21-33.79-11.17-34.39-3.84-2.4-11.99-2.36-11.99-2.36 0 0-7.94-9.13-15.13-12.02-7.17-2.87-15.32-1.91-15.32-1.91 0 0-9.1-7.66-18.19-11.02-9.1-3.34-15.33 2.89-15.33 2.89l-8.94 13.93c-2.63 4.11-2.27 9.61 1.22 13.03 4.28 4.22 9.76 2.25 12.52 2.25 3.83 0 5.26-4.32 5.26-4.32 0 0 0.94 22.51 0 25.38l-0.02 0.02c-0.98 2.87-8.13 9.57-8.13 9.57l-23.93-31.68c-6.93-9.16-16.75-25.1-21.55-35.54-0.7-1.52-1.56-2.96-2.7-4.2-4.19-4.75-13.18-6.14-15.51 2.66-0.62 2.35-0.41 6.18 0.38 8.47 10.02 29.56 22.75 51.9 34.37 75.18 6.92 13.83 4.35 13.66 7.79 19.91-0.4 0.27-0.21 0.79-0.64 1.04-1.69 6.72-2.87 13.47-4.56 20.19-1.62-8.07-3.81-17.08-7.66-24.36 0.77-4.71 1.52-9.48 1.05-14.23-0.45-4.75-2.29-9.55-5.93-12.63-1.88-1.58-4.43-2.54-6.97-2.72-3.79-0.27-7.13 2.49-7.69 6.23-0.53 3.56-1.02 7.88-2.01 10.83-3.02 9.12-5.52 13.27-5.52 13.59 0 8.93 5.52 7.47 9.54 43.36 3.13 27.95 39.13 46.42 58.73 66.6l20.89 65.7c24.24-9.72 47.44-22.15 69.7-36.6z"/>
		</clipPath>
		<clipPath clipPathUnits="userSpaceOnUse" id="cp2">
			<path d="m474.4 672.84c-0.86-3.96-6.48-3.38-6.48-3.38-18.9 1.11-21.45 30.73-21.45 30.73l-6.76 20.29-2.12-30.52 0.21-39.33c0 0 5.72-37.65 3.17-43.55-2.52-5.93-7.81-5.72-7.81-5.72-11-2.76-11.64 13.1-11.64 13.1l-9.29 32.36-3.81 34.9-3.17-1.69c0 0-1.49-37.02-0.85-37.64 0.64-0.64 4.45-25.6 4.45-25.6 0 0 2.1-4.64 4.64-10.57 2.53-5.93 0-10.57 0-10.57-4.45-9.1-13.74-4.86-15.64 0-1.91 4.86-7.62 14.38-7.62 14.38l-10.59 28.98c0.4 6.55-3.36 38.9-3.36 38.9l-3.81-1.73-6.14-19 4.66-19.46c0 0 10.14-11.19 8.45-17.76-1.69-6.55-10.35-4.64-10.35-4.64l-17.34 20.71h-5.09l-12.05 15.24c-3.25 9.84-4.9 20.1-4.9 30.39 0 6.74 0.7 13.52 2.14 20.18l2.76 12.86v83.12c0 0-8.24 13.31-8.24 14.58 0 0.57-3.4 11.08-8.15 24.18 20.73 12.2 38.6 21.64 51.25 26.62q8.94 3.53 18 6.74c7.6-21.33 16.48-44.17 21.38-49.5 9.72-10.57 28.74-30.88 28.74-30.88 0 0 21.64-34.73 24.16-46.29 2.1-9.48 7.17-26.68 8.93-32.59 0.4-1.33 0.57-2.74 0.49-4.13-0.15-3.13-0.45-9.18-0.45-14.53 0-7.62 4.51-15.24 3.68-19.18z"/>
		</clipPath>
		<clipPath clipPathUnits="userSpaceOnUse" id="cp3">
			<path d="m900.07 634.23c0 8.24-0.69 16.23-1.95 23.74-5.8 34.6-23.99 59.86-45.52 59.86-1.93 0-3.85-0.22-5.72-0.6-23.49-4.99-41.73-40.24-41.73-83 0-46.16 21.25-62.49 47.45-62.49 26.21 0 47.47 16.33 47.47 62.49z"/>
		</clipPath>
	</defs>
	<style>
		.s0 { fill: #92e3a9 } 
		.s1 { fill: #ffffff } 
		.s2 { opacity: .2;fill: #263238 } 
		.s3 { opacity: .2;fill: #000000 } 
		.s4 { fill: #ffffff;stroke: #263238;stroke-miterlimit:10;stroke-width: 2 } 
		.s5 { fill: #263238;stroke: #ffffff;stroke-miterlimit:10;stroke-width: 2 } 
		.s6 { fill: #92e3a9;stroke: #263238;stroke-linecap: round;stroke-linejoin: round;stroke-width: 2 } 
		.s7 { fill: #263238 } 
		.s8 { opacity: .5;fill: #ffffff } 
		.s9 { fill: none;stroke: #263238;stroke-miterlimit:10;stroke-width: 2 } 
		.s10 { fill: none;stroke: #263238;stroke-linecap: round;stroke-linejoin: round;stroke-width: 2 } 
		.s11 { fill: #ffffff;stroke: #263238;stroke-linecap: round;stroke-linejoin: round;stroke-width: 2 } 
		.s12 { fill: #757575;stroke: #263238;stroke-linecap: round;stroke-linejoin: round;stroke-width: 2 } 
		.s13 { fill: #999999;stroke: #263238;stroke-linecap: round;stroke-linejoin: round;stroke-width: 2 } 
		.s14 { fill: #bfbfbf;stroke: #263238;stroke-linecap: round;stroke-linejoin: round;stroke-width: 2 } 
		.s15 { opacity: .1;fill: #ffffff } 
	</style>
	<g id="Background Simple">
		<g id="&lt;Group&gt;">
			<path id="&lt;Path&gt;" class="s0" d="m963.4 491.7c0 19.2-2.1 38.3-6.6 56.9-1.5 6.1-3.3 12.2-5.4 18.2q-0.9 2.6-1.8 5.2-0.8 2.1-1.6 4.2-0.2 0.5-0.5 1.1-0.8 2.2-1.8 4.3-0.1 0.3-0.3 0.7-0.9 2.1-1.8 4.2-0.4 0.9-0.8 1.8-0.9 1.9-1.8 3.7-0.9 1.9-1.9 3.8-0.3 0.7-0.7 1.4-0.8 1.6-1.7 3.3-0.7 1.3-1.4 2.5-3.1 5.9-6.6 11.6-1.4 2.4-2.9 4.7-0.3 0.6-0.7 1.1-1.7 2.7-3.4 5.3-1.4 2.1-2.9 4.3-1.2 1.8-2.5 3.7-0.3 0.4-0.6 0.8-1.3 1.9-2.7 3.8c-1.1 1.6-2.2 3.1-3.4 4.7q-0.3 0.5-0.7 0.9-1.9 2.7-3.9 5.3-1.2 1.6-2.5 3.1-2.1 2.9-4.4 5.7-2.1 2.7-4.3 5.3-0.2 0.3-0.5 0.6-2.1 2.7-4.3 5.3-0.7 0.8-1.4 1.6-2 2.5-4 4.9-5.9 6.9-11.9 13.8-12.1 13.9-24.8 27.7c-7 7.6-14.1 15.2-21.4 22.6-34.8 35.8-72.6 69.2-113.6 95.8-5.1 3.3-10.2 6.5-15.4 9.6q-2.9 1.6-5.7 3.3-0.5 0.3-1 0.6-2.9 1.6-5.9 3.3-3 1.6-6.1 3.2-1.4 0.8-2.7 1.5-6 3.1-12.1 6-3.3 1.5-6.6 3-3 1.4-6.1 2.7-1.2 0.5-2.5 1.1-2.8 1.1-5.6 2.3-5.4 2.2-10.9 4.2-2.1 0.7-4.3 1.5-1.2 0.4-2.4 0.8-2 0.7-3.9 1.3-1.8 0.6-3.5 1.1 0 0-0.1 0-3.4 1.1-6.8 2.1-5.3 1.5-10.7 2.9-3.6 0.9-7.2 1.7-3.4 0.8-6.8 1.5-0.3 0-0.5 0.1-3.6 0.7-7.2 1.3-1.8 0.4-3.6 0.7-1.8 0.3-3.7 0.5-1.6 0.3-3.3 0.5-2 0.3-4 0.6c-14.3 1.8-28.5 2.6-42.8 2.4q-1.3 0-2.5 0c-13-0.3-25.9-1.3-38.7-2.9q-1.5-0.2-2.9-0.4-2.4-0.3-4.8-0.7-1.9-0.3-3.8-0.6-8-1.3-15.9-2.9-1.8-0.3-3.5-0.7c-3.6-0.7-7.2-1.5-10.7-2.4q-3.6-0.8-7.1-1.7-1.8-0.5-3.6-0.9-1.7-0.5-3.5-1-7-1.9-14-4-8.2-2.5-16.2-5.2-2.9-1-5.8-2.1c-6.1-2.1-12.1-4.4-18-6.7q-1.6-0.6-3.3-1.3-1.3-0.6-2.6-1.2-0.9-0.3-1.8-0.8-5.8-2.6-12.6-6.1-1.1-0.6-2.3-1.2-4.2-2.2-8.7-4.6c-6.2-3.5-12.9-7.3-20-11.4-80-47.1-202.5-135.5-231.3-169q-2.1-2.5-4.3-5.1-1.6-2.1-3.2-4.2-1.5-1.8-2.9-3.8-1.3-1.7-2.5-3.4-1.1-1.6-2.2-3.2-0.1-0.1-0.2-0.3-1.3-2-2.7-4-1.2-1.9-2.4-3.9-0.6-1-1.2-1.9-1.3-2.2-2.6-4.5 0 0-0.1 0-1.3-2.5-2.7-4.9-2.3-4.4-4.5-8.8-0.5-1.2-1-2.3-4.3-9.1-7.5-18.6-1.2-3.3-2.2-6.6-1.3-4.3-2.3-8.7-0.3-0.8-0.4-1.7-0.6-2.2-1-4.5c-0.5-2.1-0.9-4.3-1.2-6.4q-0.2-0.8-0.3-1.6-0.2-1.6-0.5-3.3-0.2-2-0.4-4-0.1-0.6-0.2-1.3c-0.1-1.1-0.2-2.3-0.3-3.4q0-0.2 0-0.3-0.2-2-0.2-4 0-0.2 0-0.4-0.1-2.1-0.2-4.3 0-0.8 0-1.5 0-1.3 0-2.5 0.1-3.2 0.3-6.3 0.1-2 0.3-4.1 0.3-4 0.9-8 0.3-2 0.7-4 0.7-4.1 1.7-8.1 2.7-10.7 6.9-20.5c2.2-5.1 4.6-10 7.2-14.7q0.3-0.6 0.7-1.2c10.8-19 25.4-35.9 42-51.5q2.6-2.5 5.3-4.9 2.9-2.6 5.8-5.2 0.2-0.1 0.3-0.3 4.7-4.1 9.5-8c4.9-4.1 9.8-8.2 14.9-12.2q0.2-0.2 0.5-0.4 6.4-5.1 12.9-10.1c6.8-5.3 13.6-10.5 20.3-15.7q2.7-2.1 5.3-4.2 2.9-2.2 5.7-4.5c18-14.4 33.4-29.7 47.8-45.3q4.1-4.6 8.2-9.2 2-2.2 3.9-4.4c18.3-20.8 35.3-41.8 54.2-61.7q6.7-7.1 13.8-14c4-3.8 8.1-7.6 12.3-11.2 4.8-4.3 9.8-8.4 15-12.4 7.1-5.5 14.5-10.8 22.5-15.9q3-1.9 5.9-3.7c199.4-123.9 346.2-83.5 444.1 0 7.4 6.3 14.5 12.8 21.3 19.6 4.2 4 8.2 8.2 12.1 12.4q0.7 0.6 1.3 1.3 4.1 4.4 8 8.9 1.1 1.3 2.3 2.6 1.7 2 3.4 4 2 2.4 4.1 4.9 1.3 1.5 2.5 3.1c5.5 6.7 10.7 13.5 15.6 20.4q1.5 2 3 4.1c6.8 9.6 13.2 19.3 19.1 29q1.3 2 2.5 4.1 1.3 2.1 2.5 4.1 1.2 2.1 2.3 4.1 1.2 2.1 2.4 4.1 1.1 2.1 2.3 4.1 1.1 2.1 2.2 4.1 1.1 2 2.2 4 1 2.1 2.1 4.1 1 2 2 4 1.1 2 2 4 4 7.9 7.5 15.6 1.8 3.9 3.4 7.7c5 11.5 9.3 22.4 12.7 32.6q0.1 0.1 0.1 0.1 0.5 1.5 1 2.9 0.5 1.5 0.9 3c0.3 0.8 0.5 1.5 0.8 2.3q0.5 1.6 1 3.3 0.6 1.9 1.1 3.7 1 3.4 1.9 6.7 0.8 2.9 1.5 5.8 0.2 0.5 0.3 1 0.1 0.5 0.2 0.9 0.4 1.7 0.8 3.4 1.1 4.5 2 9 0.5 2.4 1 4.9 0.1 0.4 0.2 0.9 0.4 2.3 0.8 4.6 0.6 3.1 1 6.2 0.4 2.4 0.7 4.7 0.1 0.4 0.1 0.7 0.2 1.6 0.4 3.2 0.2 1.3 0.3 2.6 0.6 4.8 1 9.5 0.1 1.1 0.2 2.2 0.1 1.8 0.2 3.6 0.1 2 0.2 4.1 0.1 1.5 0.2 3.1 0 2.3 0.1 4.5 0 2.7 0 5.4z"/>
			<g id="&lt;Group&gt;" style="opacity: .7">
				<path id="&lt;Path&gt;" class="s1" d="m963.4 491.7c0 19.2-2.1 38.3-6.6 56.9-1.5 6.1-3.3 12.2-5.4 18.2q-0.9 2.6-1.8 5.2-0.8 2.1-1.6 4.2-0.2 0.5-0.5 1.1-0.8 2.2-1.8 4.3-0.1 0.3-0.3 0.7-0.9 2.1-1.8 4.2-0.4 0.9-0.8 1.8-0.9 1.9-1.8 3.7-0.9 1.9-1.9 3.8-0.3 0.7-0.7 1.4-0.8 1.6-1.7 3.3-0.7 1.3-1.4 2.5-3.1 5.9-6.6 11.6-1.4 2.4-2.9 4.7-0.3 0.6-0.7 1.1-1.7 2.7-3.4 5.3-1.4 2.1-2.9 4.3-1.2 1.8-2.5 3.7-0.3 0.4-0.6 0.8-1.3 1.9-2.7 3.8c-1.1 1.6-2.2 3.1-3.4 4.7q-0.3 0.5-0.7 0.9-1.9 2.7-3.9 5.3-1.2 1.6-2.5 3.1-2.1 2.9-4.4 5.7-2.1 2.7-4.3 5.3-0.2 0.3-0.5 0.6-2.1 2.7-4.3 5.3-0.7 0.8-1.4 1.6-2 2.5-4 4.9-5.9 6.9-11.9 13.8-12.1 13.9-24.8 27.7c-7 7.6-14.1 15.2-21.4 22.6-34.8 35.8-72.6 69.2-113.6 95.8-5.1 3.3-10.2 6.5-15.4 9.6q-2.9 1.6-5.7 3.3-0.5 0.3-1 0.6-2.9 1.6-5.9 3.3-3 1.6-6.1 3.2-1.4 0.8-2.7 1.5-6 3.1-12.1 6-3.3 1.5-6.6 3-3 1.4-6.1 2.7-1.2 0.5-2.5 1.1-2.8 1.1-5.6 2.3-5.4 2.2-10.9 4.2-2.1 0.7-4.3 1.5-1.2 0.4-2.4 0.8-2 0.7-3.9 1.3-1.8 0.6-3.5 1.1 0 0-0.1 0-3.4 1.1-6.8 2.1-5.3 1.5-10.7 2.9-3.6 0.9-7.2 1.7-3.4 0.8-6.8 1.5-0.3 0-0.5 0.1-3.6 0.7-7.2 1.3-1.8 0.4-3.6 0.7-1.8 0.3-3.7 0.5-1.6 0.3-3.3 0.5-2 0.3-4 0.6c-14.3 1.8-28.5 2.6-42.8 2.4q-1.3 0-2.5 0c-13-0.3-25.9-1.3-38.7-2.9q-1.5-0.2-2.9-0.4-2.4-0.3-4.8-0.7-1.9-0.3-3.8-0.6-8-1.3-15.9-2.9-1.8-0.3-3.5-0.7c-3.6-0.7-7.2-1.5-10.7-2.4q-3.6-0.8-7.1-1.7-1.8-0.5-3.6-0.9-1.7-0.5-3.5-1-7-1.9-14-4-8.2-2.5-16.2-5.2-2.9-1-5.8-2.1c-6.1-2.1-12.1-4.4-18-6.7q-1.6-0.6-3.3-1.3-1.3-0.6-2.6-1.2-0.9-0.3-1.8-0.8-5.8-2.6-12.6-6.1-1.1-0.6-2.3-1.2-4.2-2.2-8.7-4.6c-6.2-3.5-12.9-7.3-20-11.4-80-47.1-202.5-135.5-231.3-169q-2.1-2.5-4.3-5.1-1.6-2.1-3.2-4.2-1.5-1.8-2.9-3.8-1.3-1.7-2.5-3.4-1.1-1.6-2.2-3.2-0.1-0.1-0.2-0.3-1.3-2-2.7-4-1.2-1.9-2.4-3.9-0.6-1-1.2-1.9-1.3-2.2-2.6-4.5 0 0-0.1 0-1.3-2.5-2.7-4.9-2.3-4.4-4.5-8.8-0.5-1.2-1-2.3-4.3-9.1-7.5-18.6-1.2-3.3-2.2-6.6-1.3-4.3-2.3-8.7-0.3-0.8-0.4-1.7-0.6-2.2-1-4.5-0.7-3.2-1.2-6.4-0.2-0.8-0.3-1.6-0.2-1.6-0.5-3.3-0.2-2-0.4-4-0.1-0.6-0.2-1.3c-0.1-1.1-0.2-2.3-0.3-3.4q0-0.2 0-0.3-0.2-2-0.2-4 0-0.2 0-0.4-0.1-2.1-0.2-4.3 0-5.1 0.3-10.3 0.1-2 0.3-4.1 0.3-4 0.9-8 0.3-2 0.7-4 0.7-4.1 1.7-8.1 2.7-10.7 6.9-20.5c2.2-5.1 4.6-10 7.2-14.7q0.3-0.6 0.7-1.2c10.8-19 25.4-35.9 42-51.5q1.4-1.3 2.8-2.6 1.3-1.2 2.5-2.3 2.9-2.6 5.8-5.2 0.2-0.1 0.3-0.3 4.7-4.1 9.5-8c4.9-4.1 9.8-8.2 14.9-12.2q0.2-0.2 0.5-0.4 6.4-5.1 12.9-10.1 3.3-2.5 6.5-5c4.7-3.6 9.3-7.2 13.8-10.7q2.7-2.1 5.3-4.2 2.9-2.2 5.7-4.5c18-14.4 33.4-29.7 47.8-45.3q4.1-4.6 8.2-9.2 2-2.2 3.9-4.4c18.3-20.8 35.3-41.8 54.2-61.7q6.7-7.1 13.8-14c4-3.8 8.1-7.6 12.3-11.2 4.8-4.3 9.8-8.4 15-12.4 7.1-5.5 14.5-10.8 22.5-15.9q3-1.9 5.9-3.7c199.4-123.9 346.2-83.5 444.1 0 7.4 6.3 14.5 12.8 21.3 19.6 4.2 4 8.2 8.2 12.1 12.4q0.7 0.6 1.3 1.3 4.1 4.4 8 8.9 1.1 1.3 2.3 2.6 1.7 2 3.4 4 2 2.4 4.1 4.9 1.3 1.5 2.5 3.1c5.5 6.7 10.7 13.5 15.6 20.4q1.5 2 3 4.1c6.8 9.6 13.2 19.3 19.1 29q1.3 2 2.5 4.1 1.3 2.1 2.5 4.1 1.2 2.1 2.3 4.1 1.2 2.1 2.4 4.1 1.1 2.1 2.3 4.1 1.1 2.1 2.2 4.1 1.1 2 2.2 4 1 2.1 2.1 4.1 1 2 2 4 1.1 2 2 4 4 7.9 7.5 15.6 1.8 3.9 3.4 7.7c5 11.5 9.3 22.4 12.7 32.6q0.1 0.1 0.1 0.1 0.5 1.5 1 2.9 0.5 1.5 0.9 3c0.3 0.8 0.5 1.5 0.8 2.3q0.5 1.6 1 3.3 0.6 1.9 1.1 3.7 1 3.4 1.9 6.7 0.8 2.9 1.5 5.8 0.2 0.5 0.3 1 0.1 0.5 0.2 0.9 0.4 1.7 0.8 3.4 1.1 4.5 2 9 0.5 2.4 1 4.9 0.1 0.4 0.2 0.9 0.4 2.3 0.8 4.6 0.6 3.1 1 6.2 0.4 2.4 0.7 4.7 0.1 0.4 0.1 0.7 0.2 1.6 0.4 3.2 0.2 1.3 0.3 2.6 0.6 4.8 1 9.5 0.1 1.1 0.2 2.2 0.1 1.8 0.2 3.6 0.1 2 0.2 4.1 0.1 1.5 0.2 3.1 0 2.3 0.1 4.5 0 2.7 0 5.4z"/>
			</g>
		</g>
	</g>
	<g id="Plants">
		<path id="&lt;Path&gt;" class="s2" d="m64.3 524.5c-0.4-0.2-0.3-0.4 0 0z"/>
		<g id="&lt;Group&gt;">
			<path id="&lt;Path&gt;" class="s3" d="m251.3 506.9c-2 13.6-12 24.6-25.1 28.9l-5 1.6c-17.8 25.3-49.1 36.1-75.7 20.4l-7.8-4.6-21.9-25.9q-0.1 0-0.2 0c-7 1.5-14.8 0.4-19.9-4.5-0.8 4.3-6.4 6.8-10.1 4.6-3.8-2.2-4.3-8.3-0.9-11.1-4.4 3.9-11.2 2.1-15.5-2.1-0.1-11.6 1.1-23.2 3.9-34.6q2.7-10.6 6.9-20.5c2.2-5 4.6-9.9 7.2-14.7q0.3-0.6 0.7-1.2c3.9-6.9 8.4-13.6 13.3-20q1.3-1.2 2.5-2.3 2.9-2.6 5.8-5.2 0.2-0.1 0.3-0.3 4.7-4.1 9.5-8c4.9-4.1 9.8-8.2 14.9-12.2q0.2-0.2 0.5-0.4 6.4-5.1 12.9-10.1 3.3-2.5 6.5-5 2 0.2 3.9 0.9c5.3 1.8 6.2 6.7 9.9 10.1 5 4.5 9.7-3.1 17.3-2.8 23.3 0.7 14.2 24.6 25.6 21.6 49.1-13 40.9 49.9 19.5 63.7 12.6 10.4 23.5 17.3 21 33.7z"/>
			<g id="&lt;Group&gt;">
				<path id="&lt;Path&gt;" class="s4" d="m228.6 484.8c0 45.2-37.2 81.8-82.9 81.8-45.8 0-82.9-36.6-82.9-81.8 0-45.2 37.1-81.9 82.9-81.9 45.7 0 82.9 36.7 82.9 81.9z"/>
				<path id="&lt;Path&gt;" class="s5" d="m221.2 481.5c0 41.2-33.8 74.6-75.5 74.6-41.8 0-75.6-33.4-75.6-74.6 0-41.3 33.8-74.7 75.6-74.7 41.7 0 75.5 33.4 75.5 74.7z"/>
			</g>
			<g id="&lt;Group&gt;">
				<g id="&lt;Group&gt;">
					<g id="&lt;Group&gt;">
						<g id="&lt;Group&gt;">
							<g id="&lt;Group&gt;">
								<g id="&lt;Group&gt;">
									<path id="&lt;Path&gt;" class="s0" d="m64.5 510.9c-4.8 2.9-6.1 12.9-2.4 17.2 3.8 4.3 10.9 1 12.4-5.7 0.7 1.8 2.9 2.1 4 0.5 0.8-1.1 0.9-2.9 0.3-4.2-0.4-0.3-0.2-0.5 0 0 2.4 1.9 6.6-0.2 7.2-4.3-1.8 11 8.2 20.6 15.6 15-2.2 4.7 0.7 10.8 4.5 12 3.8 1.2 7.9-1.1 11.5-3.5 3.7-2.5 7.4-5.4 11.4-5.6 3.4-0.1 6.6 1.8 9.9 3 10.6 3.7 22.9-1.2 30.9-12.2 5.3 9.1 18.4 5.7 22-5.6 0.7 5.3 4.3 9.3 8.4 9.4 4 0 8.1-3.9 9.5-9.2v0.1c0.1 5 4.6 7.5 7.8 4.3 4-4.2 6.6-11.7 4.6-17.8 5.4-0.2 10.7-6.5 11.5-13.8 0.9-7.4-2.8-14.7-8.1-16.2 9-3.7 16.1-16 16.4-28.5 0.4-12.6-6.1-24.2-14.9-27.1-3.4-1.2-7.4-0.9-10.2 2.1-1.1-7.2-4.3-13.5-9.1-16.7-7.6-5.2-18.2-1.7-23.8 7.9 2.7-4.9 2.9-12.1 0.4-16.8-2.5-4.6-7.5-6.5-11.7-4.3-0.9-7.7-6.9-13.1-12.6-11.6-5.8 1.5-10.5 9.7-10 17.4-0.5-6.2-7.9-7.8-10.5-2.5 0.2 0.4-0.2 0.2 0 0-3.7-7.8-11.2-11.7-18.1-9.5-7.4 2.5-13.6 11.7-14.6 21.8-5.1-4.6-12.5-4.4-18 0.5-5.4 5-8.6 14.3-7.6 22.7-5.8-5.7-15.4-2.6-19.4 6.2-3.9 8.7-1.2 21.1 5.5 24.8-4.6 0.7-8.7 6.8-8.7 13 0 6.1 4.1 11.4 8.7 11.2-4.6 0.4-9 5.9-9.7 12.1-0.7 6.3 2.4 12.5 6.9 13.9z"/>
								</g>
							</g>
							<g id="&lt;Group&gt;" style="opacity: .2">
								<g id="&lt;Group&gt;">
									<path id="&lt;Path&gt;" class="s1" d="m140.7 482.2c-2.4-1.9-5.3-2.9-8.1-2-2.9 0.9-5.5 3.8-6.1 7.4-0.6 3.7 1 7.7 3.8 8.3 3.4 0.9 6.8-2.9 10.3-2.5 1.2 0.2 2.3 0.8 3.5 1.2 5 1.4 10-3.1 14.1-7.2 1.5-1.5 3-3 4-5 1-2 1.4-4.7 0.6-6.6-1.2-2.7-4.2-2.9-6.8-2.4-5 1-9.9 3.9-13.9 8.2q0.2-1.5 0.5-3z"/>
								</g>
								<g id="&lt;Group&gt;">
									<path id="&lt;Path&gt;" class="s1" d="m212.9 472.3c-1.3-1.1-2.7-2.2-4.3-2.6-1.6-0.4-3.5 0.2-4.5 1.9-1.4 2.3-0.6 5.8 1.1 7.5 1.7 1.7 4.1 2.1 6.3 2.4 2.3 0.3 5.1 0.2 6.3-2.5 0.9-1.9 0.3-4.3-0.9-5.7-1.2-1.4-2.9-2-4.5-2.6z"/>
								</g>
								<g id="&lt;Group&gt;">
									<path id="&lt;Path&gt;" class="s1" d="m99.8 431.5c-4.6 2.7-8.3 8.4-9.5 14.6-0.3 1.9-0.3 4.3 1 5.2 0.9 0.6 2 0.3 3.1-0.1q6.6-2.4 13.2-4.8c-2.1 1.1-4.3 2.3-6 4.4-1.7 2-2.9 5-2.4 7.8 0.6 3.2 3.4 5.1 6 4.9 2.7-0.2 5.2-2.1 7.4-4.2 2.3-2.2 4.6-5.3 4.7-8.9 0.1-3.6-3.4-6.7-5.6-4.3 5.1-2 9.9-5.1 14.4-9.1 1.5-1.4 3.1-3 4.1-5.1 1.1-2.1 1.5-4.9 0.6-6.9-4.3-10.2-10.3 5.5-13.1 7-5.3 3-11.1-4.5-17.9-0.5z"/>
									<path id="&lt;Path&gt;" class="s1" d="m78.5 477.4c-0.5 2.1-0.3 4.5 1 5.7 1.3 1.3 3.6 0.7 4.3-1.3-3 1.3-6.2 2.9-8.1 6.2-1.9 3.2-1.5 8.7 1.4 9.8 1.8 0.6 3.8-0.6 5.5-1.9 4.8-3.6 9.5-7.8 13.9-12.3-1.4 3.9 1.6 8.1 4.9 8.3 3.3 0.1 6.4-2.3 9.3-4.7 3.5-2.9 7.5-7.2 6.7-12.2-0.7-4.3-5.1-6-8.5-4.5-3.4 1.5-6 5.1-8.4 8.6 1.9-3.5-0.6-8.5-3.8-8.8-3.2-0.4-6.4 2.2-8.4 5.3 3.7-2.8 4.7-9.5-0.2-10-3.2-0.3-8.8 8.3-9.6 11.8z"/>
									<path id="&lt;Path&gt;" class="s1" d="m179.5 456.2c-2.7-1.2-6.2 1.3-7.1 5-0.8 3.7 1.3 7.8 4.2 8.2-2.1 0.3-4.2 1.8-5.6 4-0.8 1.3-1.4 2.8-1.3 4.3 0.2 2.3 2.1 3.6 3.9 3.6 1.8 0 3.5-1.1 5.2-2.2-1.8 0.4-3.7 0.7-5.1 2.2-1.5 1.5-2.1 4.5-0.9 6 1 1.3 2.8 0.9 4.2 0.3 3.3-1.3 6.3-3.6 8.8-6.7 1.8 2.5 4.5 4.2 7.2 3.5 2.7-0.8 5-4.6 4.2-7.8-0.5-2.4-2.4-3.7-4.4-3.9-1.9-0.2-3.8 0.6-5.7 1.5 1.9-1.9 4-3.9 4.7-6.8 0.8-2.9-0.7-6.6-3-6.2-2.6 0.4-4 5-6.1 6.8-2.5-2.9 2.4-9.5-3.2-11.8z"/>
									<g id="&lt;Group&gt;">
										<path id="&lt;Path&gt;" class="s1" d="m132.7 445.2c-3 2.7-4.1 7.9-4 12.4 0.1 5.1 1.8 10.3 5.4 12.1 4.8 2.4 10.8-3 11.8-9.6 1-6.6-2.2-13.1-6.8-15.9 0 0-3.4-1.7-6.4 1z"/>
									</g>
									<g id="&lt;Group&gt;">
										<path id="&lt;Path&gt;" class="s1" d="m166.2 437.7q0.6 0.7 1.2 1.3c-2-3.1-6.3-3.3-8.7-0.3-2.5 2.9-2.6 8.4-0.3 11.1 2.4 2.7 6.7 2 8.8-1.3 3.4 1.8 7.9 0.7 10.4-3.2 2.5-3.8 2.1-10.3-1.2-12.5-3.2-2.2-8.3 1.7-8.1 6.5q-0.7-1-1.4-1.9z"/>
									</g>
									<g id="&lt;Group&gt;">
										<path id="&lt;Path&gt;" class="s1" d="m202.8 443c-2.4 3.1-4.9 6.5-5.8 10.6-1 4.1 0.3 9.2 3.5 10.1 3.2 0.8 6.3-2.7 8.2-6.3 1.7-3.3 3-7.3 2.1-10.8-0.9-3.6-4.9-5.5-7-2.6z"/>
									</g>
									<path id="&lt;Path&gt;" class="s1" d="m150.2 421.7c-1.1-3.4-4.9-4.3-7.4-2.2-2.5 2.1-3.5 6.6-2.5 10.1 1 3.4 3.8 5.6 6.7 5.8 3.6 0.3 7.9-3.7 7.2-8.2 1.5 2.5 4.3 3.4 6.9 2.9 2.5-0.5 5-2.1 7.2-3.9 3.1-2.4 6.4-6 6.2-10.5-0.2-3.5-2.9-6-5.6-6.2-2.8-0.2-5.6 1.6-7.8 4.1-1.7 1.9-3.1 4.2-4.9 5.9-1.8 1.7-4.3 2.7-6.2 1.5z"/>
								</g>
							</g>
						</g>
					</g>
				</g>
			</g>
		</g>
	</g>
	<g id="Keyboard">
		<g id="&lt;Group&gt;">
			<g id="&lt;Group&gt;">
				<path id="&lt;Path&gt;" class="s6" d="m752.7 739.8h-461.3v-194.3h461.3z"/>
				<g id="&lt;Group&gt;">
					<path id="&lt;Path&gt;" class="s4" d="m344.4 581.3h-43.4v-24h43.4z"/>
					<path id="&lt;Path&gt;" class="s4" d="m742 698.4h-68.3v-24h68.3z"/>
					<path id="&lt;Path&gt;" class="s4" d="m742 611.3h-42.2v-24h42.2z"/>
					<path id="&lt;Path&gt;" class="s4" d="m344.4 668.8h-43.4v-24h43.4z"/>
					<path id="&lt;Path&gt;" class="s4" d="m336.1 639.9h-35.1v-24.1h35.1z"/>
					<g id="&lt;Group&gt;">
						<path id="&lt;Path&gt;" class="s4" d="m325 610.6h-24v-24h24z"/>
						<path id="&lt;Path&gt;" class="s4" d="m355.7 610.6h-24v-24h24z"/>
						<path id="&lt;Path&gt;" class="s4" d="m386.4 610.6h-24.1v-24h24.1z"/>
						<path id="&lt;Path&gt;" class="s4" d="m417 610.6h-24v-24h24z"/>
						<path id="&lt;Path&gt;" class="s4" d="m447.7 610.6h-24v-24h24z"/>
						<path id="&lt;Path&gt;" class="s4" d="m478.4 610.6h-24.1v-24h24.1z"/>
						<path id="&lt;Path&gt;" class="s4" d="m509 610.6h-24v-24h24z"/>
						<path id="&lt;Path&gt;" class="s4" d="m539.7 610.6h-24v-24h24z"/>
						<path id="&lt;Path&gt;" class="s4" d="m570.4 610.6h-24.1v-24h24.1z"/>
						<path id="&lt;Path&gt;" class="s4" d="m601 610.6h-24v-24h24z"/>
						<path id="&lt;Path&gt;" class="s4" d="m631.7 610.6h-24v-24h24z"/>
						<path id="&lt;Path&gt;" class="s4" d="m662.4 610.6h-24.1v-24h24.1z"/>
						<path id="&lt;Path&gt;" class="s4" d="m693 610.6h-24v-24h24z"/>
					</g>
					<g id="&lt;Group&gt;">
						<path id="&lt;Path&gt;" class="s4" d="m325 728.1h-24v-24.1h24z"/>
						<path id="&lt;Path&gt;" class="s4" d="m355.7 728.1h-24v-24.1h24z"/>
						<path id="&lt;Path&gt;" class="s4" d="m386.4 728.1h-24.1v-24.1h24.1z"/>
						<path id="&lt;Path&gt;" class="s4" d="m422.3 728.1h-29.3v-24.1h29.3z"/>
						<path id="&lt;Path&gt;" class="s4" d="m575.7 728.1h-146.7v-24.1h146.7z"/>
						<path id="&lt;Path&gt;" class="s4" d="m649 728.1h-24v-24.1h24z"/>
						<path id="&lt;Path&gt;" class="s4" d="m679.7 728.1h-24.1v-24.1h24.1z"/>
						<path id="&lt;Path&gt;" class="s4" d="m710.4 728.1h-24v-24.1h24z"/>
						<path id="&lt;Path&gt;" class="s4" d="m619 728.1h-37.3v-24.1h37.3z"/>
						<path id="&lt;Path&gt;" class="s4" d="m742 728.1h-24v-24.1h24z"/>
					</g>
					<g id="&lt;Group&gt;">
						<path id="&lt;Path&gt;" class="s4" d="m367 639.9h-24v-24.1h24z"/>
						<path id="&lt;Path&gt;" class="s4" d="m397.7 639.9h-24.1v-24.1h24.1z"/>
						<path id="&lt;Path&gt;" class="s4" d="m428.3 639.9h-24v-24.1h24z"/>
						<path id="&lt;Path&gt;" class="s4" d="m459 639.9h-24v-24.1h24z"/>
						<path id="&lt;Path&gt;" class="s4" d="m489.7 639.9h-24.1v-24.1h24.1z"/>
						<path id="&lt;Path&gt;" class="s4" d="m520.3 639.9h-24v-24.1h24z"/>
						<path id="&lt;Path&gt;" class="s4" d="m551 639.9h-24v-24.1h24z"/>
						<path id="&lt;Path&gt;" class="s4" d="m581.7 639.9h-24.1v-24.1h24.1z"/>
						<path id="&lt;Path&gt;" class="s4" d="m612.3 639.9h-24v-24.1h24z"/>
						<path id="&lt;Path&gt;" class="s4" d="m643 639.9h-24v-24.1h24z"/>
						<path id="&lt;Path&gt;" class="s4" d="m673.7 639.9h-24.1v-24.1h24.1z"/>
						<path id="&lt;Path&gt;" class="s4" d="m704.3 639.9h-24v-24.1h24z"/>
						<path id="&lt;Path&gt;" class="s4" d="m742 615.8v53.4h-24v-29.3h-7v-24.1z"/>
					</g>
					<g id="&lt;Group&gt;">
						<path id="&lt;Path&gt;" class="s4" d="m374 669.2h-24v-24.1h24z"/>
						<path id="&lt;Path&gt;" class="s4" d="m404.7 669.2h-24v-24.1h24z"/>
						<path id="&lt;Path&gt;" class="s4" d="m435.4 669.2h-24.1v-24.1h24.1z"/>
						<path id="&lt;Path&gt;" class="s4" d="m466 669.2h-24v-24.1h24z"/>
						<path id="&lt;Path&gt;" class="s4" d="m496.7 669.2h-24v-24.1h24z"/>
						<path id="&lt;Path&gt;" class="s4" d="m527.4 669.2h-24.1v-24.1h24.1z"/>
						<path id="&lt;Path&gt;" class="s4" d="m558 669.2h-24v-24.1h24z"/>
						<path id="&lt;Path&gt;" class="s4" d="m588.7 669.2h-24v-24.1h24z"/>
						<path id="&lt;Path&gt;" class="s4" d="m619.4 669.2h-24.1v-24.1h24.1z"/>
						<path id="&lt;Path&gt;" class="s4" d="m650 669.2h-24v-24.1h24z"/>
						<path id="&lt;Path&gt;" class="s4" d="m680.7 669.2h-24v-24.1h24z"/>
						<path id="&lt;Path&gt;" class="s4" d="m711.4 669.2h-24.1v-24.1h24.1z"/>
					</g>
					<g id="&lt;Group&gt;">
						<path id="&lt;Path&gt;" class="s4" d="m361 698.4h-24v-24h24z"/>
						<path id="&lt;Path&gt;" class="s4" d="m391.7 698.4h-24.1v-24h24.1z"/>
						<path id="&lt;Path&gt;" class="s4" d="m422.3 698.4h-24v-24h24z"/>
						<path id="&lt;Path&gt;" class="s4" d="m453 698.4h-24v-24h24z"/>
						<path id="&lt;Path&gt;" class="s4" d="m483.7 698.4h-24.1v-24h24.1z"/>
						<path id="&lt;Path&gt;" class="s4" d="m514.3 698.4h-24v-24h24z"/>
						<path id="&lt;Path&gt;" class="s4" d="m545 698.4h-24v-24h24z"/>
						<path id="&lt;Path&gt;" class="s4" d="m575.7 698.4h-24.1v-24h24.1z"/>
						<path id="&lt;Path&gt;" class="s4" d="m606.3 698.4h-24v-24h24z"/>
						<path id="&lt;Path&gt;" class="s4" d="m637 698.4h-24v-24h24z"/>
						<path id="&lt;Path&gt;" class="s4" d="m667.7 698.4h-24.1v-24h24.1z"/>
					</g>
					<g id="&lt;Group&gt;">
						<path id="&lt;Path&gt;" class="s4" d="m374 582.8h-24v-24.1h24z"/>
						<path id="&lt;Path&gt;" class="s4" d="m404.7 582.8h-24v-24.1h24z"/>
						<path id="&lt;Path&gt;" class="s4" d="m435.4 582.8h-24.1v-24.1h24.1z"/>
						<path id="&lt;Path&gt;" class="s4" d="m466 582.8h-24v-24.1h24z"/>
						<path id="&lt;Path&gt;" class="s4" d="m496.7 582.8h-24v-24.1h24z"/>
						<path id="&lt;Path&gt;" class="s4" d="m527.4 582.8h-24.1v-24.1h24.1z"/>
						<path id="&lt;Path&gt;" class="s4" d="m558 582.8h-24v-24.1h24z"/>
						<path id="&lt;Path&gt;" class="s4" d="m588.7 582.8h-24v-24.1h24z"/>
						<path id="&lt;Path&gt;" class="s4" d="m619.4 582.8h-24.1v-24.1h24.1z"/>
						<path id="&lt;Path&gt;" class="s4" d="m650 582.8h-24v-24.1h24z"/>
						<path id="&lt;Path&gt;" class="s4" d="m680.7 582.8h-24v-24.1h24z"/>
						<path id="&lt;Path&gt;" class="s4" d="m711.4 582.8h-24.1v-24.1h24.1z"/>
						<path id="&lt;Path&gt;" class="s4" d="m742 582.8h-24v-24.1h24z"/>
					</g>
					<path id="&lt;Path&gt;" class="s4" d="m330.1 698.4h-29.1v-24h29.1z"/>
				</g>
			</g>
			<path id="&lt;Path&gt;" class="s7" d="m291.4 546.8l9.6-3.2h445.4l6.4 3.1z"/>
		</g>
	</g>
	<g id="Hands">
		<g id="&lt;Group&gt;">
			<path id="&lt;Path&gt;" class="s3" d="m620.7 880l-9.4-56.5c-2.1-8.4-6.5-16.1-12.7-22.1-18.7-18-43.3-36.5-44.4-60.1-1.6-36.1-7.2-35-6.6-43.9 0-0.3 2.8-4.3 6.4-13.2 1.1-2.9 1.9-7.1 2.7-10.7 0.8-3.7 4.3-6.2 8.1-5.7 2.5 0.4 5 1.5 6.8 3.2 3.4 3.3 4.9 8.2 5 13 0.2 4.8-0.9 9.5-2 14.1 3.4 7.6 5 16.7 6.1 24.9 2.1-6.6 3.7-13.3 5.9-19.9 0.4-0.2 0.2-0.7 0.7-1-3.1-6.5-0.5-6.1-6.5-20.4-10-24-21.3-47.1-29.3-77.3-0.6-2.3-0.6-6.1 0.2-8.4 2.9-8.7 11.8-6.7 15.7-1.7 1 1.4 1.8 2.8 2.4 4.4 4.1 10.7 12.8 27.3 19.1 36.9l21.8 33.2c0 0 7.6-6.2 8.7-9 1.2-2.8 1.7-25.4 1.7-25.4 0 0-1.7 4.3-5.5 4-2.8-0.2-8.4 1.4-12.3-3.1-3.3-3.6-3.3-9.1-0.4-13l9.9-13.4c0 0 6.6-5.8 15.4-1.8 8.9 3.9 17.5 12.2 17.5 12.2 0 0 8.2-0.4 15.1 2.9 7 3.4 14.3 13 14.3 13 0 0 8.2 0.5 11.8 3.2 0.9 0.6 13.4 20 8.9 35-2.7 9-4.3 22-5.5 25.5l-6.1 88.2 12.3 58.1-26.3 14.6c-9.7 5.4-19.8 9.9-30.3 13.6z"/>
			<g id="&lt;Group&gt;">
				<g id="&lt;Group&gt;">
					<g id="&lt;Group&gt;">
						<g id="&lt;Group&gt;">
							<g id="&lt;Clip Group&gt;" clip-path="url(#cp1)">
								<g id="&lt;Group&gt;">
									<g id="&lt;Group&gt;">
										<path id="&lt;Path&gt;" class="s0" d="m685.1 656.8c1.1-2.6 2.3-5.2 4.6-6.9 2.3-1.7 5.8-1.9 7.6 0.3q-2.2-6.9-4.7-13.7c-1.3-3.4-2.7-7-5.6-9.4-2.8-2.3-7.5-2.8-9.9 0 1.7 10.4 1.9 21.1 0.5 31.6-0.7 5.7-1.7 12.2 2.1 16.5 1.1 0.8 2.9-0.7 2.3-1.9-0.4-0.6-1.5-0.6-2-0.6 1.3-5.4 3-10.7 5.1-15.9z"/>
										<path id="&lt;Path&gt;" class="s0" d="m685.1 656.8c1.1-2.6 2.3-5.2 4.6-6.9 2.3-1.7 5.8-1.9 7.6 0.3q-2.2-6.9-4.7-13.7c-1.3-3.4-2.7-7-5.6-9.4-2.8-2.3-7.5-2.8-9.9 0 1.7 10.4 1.9 21.1 0.5 31.6-0.7 5.7-1.7 12.2 2.1 16.5 1.1 0.8 2.9-0.7 2.3-1.9-0.4-0.6-1.5-0.6-2-0.6 1.3-5.4 3-10.7 5.1-15.9z"/>
										<path id="&lt;Path&gt;" class="s8" d="m685.1 656.8c1.1-2.6 2.3-5.2 4.6-6.9 2.3-1.7 5.8-1.9 7.6 0.3q-2.2-6.9-4.7-13.7c-1.3-3.4-2.7-7-5.6-9.4-2.8-2.3-7.5-2.8-9.9 0 1.7 10.4 1.9 21.1 0.5 31.6-0.7 5.7-1.7 12.2 2.1 16.5 1.1 0.8 2.9-0.7 2.3-1.9-0.4-0.6-1.5-0.6-2-0.6 1.3-5.4 3-10.7 5.1-15.9z"/>
									</g>
									<g id="&lt;Group&gt;">
										<path id="&lt;Path&gt;" class="s0" d="m653.2 647.3c0.1 3.9 0.1 7.8 1.1 11.5 0.9 3.7 3 7.4 6.3 9.2-1.9-7.4-0.9-15.3 0.2-22.9q1-7 2-13.9c0.2-1.7 0.5-3.3 1.4-4.7 0.9-1.3 2.8-2.2 4.2-1.5-1.9 1.2-4.5-0.4-5.7-2.4-1.2-1.9-1.7-4.3-3.1-6.1-2.6-3.5-8.4-4.2-12.3-3.3 1.2 11.4 5.4 22.3 5.9 34.1z"/>
										<g id="&lt;Group&gt;">
											<path id="&lt;Path&gt;" class="s0" d="m653.2 647.3c0.1 3.9 0.1 7.8 1.1 11.5 0.9 3.7 3 7.4 6.3 9.2-1.9-7.4-0.9-15.3 0.2-22.9q1-7 2-13.9c0.2-1.7 0.5-3.3 1.4-4.7 0.9-1.3 2.8-2.2 4.2-1.5-1.9 1.2-4.5-0.4-5.7-2.4-1.2-1.9-1.7-4.3-3.1-6.1-2.6-3.5-8.4-4.2-12.3-3.3 1.2 11.4 5.4 22.3 5.9 34.1z"/>
										</g>
										<g id="&lt;Group&gt;" style="opacity: .5">
											<path id="&lt;Path&gt;" class="s1" d="m653.2 647.3c0.1 3.9 0.1 7.8 1.1 11.5 0.9 3.7 3 7.4 6.3 9.2-1.9-7.4-0.9-15.3 0.2-22.9q1-7 2-13.9c0.2-1.7 0.5-3.3 1.4-4.7 0.9-1.3 2.8-2.2 4.2-1.5-1.9 1.2-4.5-0.4-5.7-2.4-1.2-1.9-1.7-4.3-3.1-6.1-2.6-3.5-8.4-4.2-12.3-3.3 1.2 11.4 5.4 22.3 5.9 34.1z"/>
										</g>
									</g>
									<g id="&lt;Group&gt;">
										<g id="&lt;Group&gt;">
											<path id="&lt;Path&gt;" class="s0" d="m620.5 616.5c-1.3-0.9-1.7-2.6-2.1-4.2-0.4-1.6-0.9-3.3-2.3-4-6.2 3.9-2.8 15.3-9 19.1-1.2 0.7-2.8 1.1-3.4 2.4-0.6 1.1-0.2 2.5 0.6 3.5 0.9 0.9 2.2 1.4 3.4 1.6 5 0.9 10.2-1.6 13.1-5.7 2.5-3.4 4.1-8.8 2.9-12.7-0.9 0.5-2.2 0.7-3.2 0z"/>
											<path id="&lt;Path&gt;" class="s0" d="m556.7 691.3c-0.1 0.4-0.2 0.9 0.1 1.2 0.6 0.5 1.3-0.2 1.7-0.8 2.5-3.6 7.6-5.3 11.9-3.8 1.6-0.1 2.1-2.5 1.1-3.8-1.1-1.2-2.9-1.4-4.5-1.4-1.6 0-3.4 0.1-4.7-0.8-1.7-1-2.4-3.2-1.9-5-1.1 4.8-2.5 9.6-3.7 14.4z"/>
										</g>
										<g id="&lt;Group&gt;" style="opacity: .5">
											<path id="&lt;Path&gt;" class="s1" d="m620.5 616.5c-1.3-0.9-1.7-2.6-2.1-4.2-0.4-1.6-0.9-3.3-2.3-4-6.2 3.9-2.8 15.3-9 19.1-1.2 0.7-2.8 1.1-3.4 2.4-0.6 1.1-0.2 2.5 0.6 3.5 0.9 0.9 2.2 1.4 3.4 1.6 5 0.9 10.2-1.6 13.1-5.7 2.5-3.4 4.1-8.8 2.9-12.7-0.9 0.5-2.2 0.7-3.2 0z"/>
											<path id="&lt;Path&gt;" class="s1" d="m556.7 691.3c-0.1 0.4-0.2 0.9 0.1 1.2 0.6 0.5 1.3-0.2 1.7-0.8 2.5-3.6 7.6-5.3 11.9-3.8 1.6-0.1 2.1-2.5 1.1-3.8-1.1-1.2-2.9-1.4-4.5-1.4-1.6 0-3.4 0.1-4.7-0.8-1.7-1-2.4-3.2-1.9-5-1.1 4.8-2.5 9.6-3.7 14.4z"/>
										</g>
									</g>
									<g id="&lt;Group&gt;">
										<path id="&lt;Path&gt;" class="s0" d="m638.1 615c-3.5-0.5-7.2-0.6-10.2-2.4-3.8-2.2-6.5-7-10.9-7.2-3.9-0.1-6.8 3.5-9.1 6.7-0.2-4.9 3.4-9.4 7.9-11.3 4.5-1.8 9.8-1.2 14.3 0.6 4.6 1.8 8.5 4.8 12.4 7.7 1.6 1.2 3.2 2.5 4.2 4.1 5 7.8-5.5 2.2-8.6 1.8z"/>
										<path id="&lt;Path&gt;" class="s8" d="m638.1 615c-3.5-0.5-7.2-0.6-10.2-2.4-3.8-2.2-6.5-7-10.9-7.2-3.9-0.1-6.8 3.5-9.1 6.7-0.2-4.9 3.4-9.4 7.9-11.3 4.5-1.8 9.8-1.2 14.3 0.6 4.6 1.8 8.5 4.8 12.4 7.7 1.6 1.2 3.2 2.5 4.2 4.1 5 7.8-5.5 2.2-8.6 1.8z"/>
									</g>
								</g>
								<g id="&lt;Group&gt;">
									<path id="&lt;Path&gt;" class="s0" d="m575.6 728.6q0.3-0.7 0.6-1.4c-0.4 0.3-0.7 0.8-0.6 1.4z"/>
									<path id="&lt;Path&gt;" class="s0" d="m581.5 697.6c-0.4-4.9 0.3-9.9 0.1-14.8-0.2-5-1.5-10.2-5.1-13.6-5.2-4.8-19.3-2.4-14.6 6.9 1.4 2.5 4.7 3.9 7.4 2.7 2.6-1.1 3.9-4.7 2.5-7.2 5.7 8.7 5.2 21-1.2 29.1 7.3 6.4 9.6 17.7 5.6 26.5 0.9-0.6 2.4-0.7 3.3 0 1.4 1.1 1.9 2.9 2.5 4.5 0.7 1.6 2.1 3.3 3.8 3.2 2.4-5.9 1.6-12.6 0-18.8-1.5-6.1-3.8-12.2-4.3-18.5z"/>
									<path id="&lt;Path&gt;" class="s0" d="m633.2 604.8c-2.7-2.1-6-3.5-9.4-3.9z"/>
									<path id="&lt;Path&gt;" class="s0" d="m656.8 667.4c-0.8-3.4-2.4-6.5-3.3-9.9-2.2-7.8-0.8-16.2-1.8-24.2-1.3-10.5-6.8-20.3-14.9-26.9l-3.6-1.6c3.5 2.7 6.1 6.4 7.2 10.5 2.8 9.6 3.7 19.5 4.9 29.4 1.9 15.2 4.7 30.3 8.3 45.2 2.4-7.3 4.8-15 3.2-22.5z"/>
									<path id="&lt;Path&gt;" class="s0" d="m618.7 631.9c2.4-2 3.8-5.1 4.2-8.3 0.4-2.8 0.1-5.6-0.2-8.4-0.3 1.2-1.8 2.2-3.2 1.9-1.7-0.4-2.8-2-3.8-3.4q-0.3 1.2-0.7 2.5-0.1-0.7-0.3-1.4l-0.9 1.2c1.4 4 2.8 8.7 0.6 12.3-1.1 1.8-2.8 3-4.5 4.2 2.5 1.8 6.3 1.3 8.8-0.6z"/>
									<path id="&lt;Path&gt;" class="s0" d="m622.6 614.2q0 0.5 0.1 1c0-0.3 0-0.7-0.1-1z"/>
									<path id="&lt;Path&gt;" class="s0" d="m612.1 654.7c-7-13.8-14-27.6-21.7-41-4.5-7.8-9.3-15.6-15.3-22.3-2.7-3-10.3-9.9-14.6-5.4-2.8 3.1 0.9 8.6-2.5 11.9 0.8 0 4.7-0.4 5.1 0.1 8.8 10.9 13.6 24.9 13.4 38.8 2.8-2.2 6.7 0.9 8.9 3.7 13.5 17.4 26.2 35.5 37.9 54.2-2.2-8.2-2.3-17-4.7-25.2-1.6-5.2-4-10-6.5-14.8z"/>
									<path id="&lt;Path&gt;" class="s0" d="m693.6 688.3c3.3-9 5.9-18.2 6.2-27.7 0.3-8.7-1.7-17.7-6.2-25.1-1.2-1.8-6-9.5-8.6-8.9-4.7 1.1 1.4 9.3 2.5 11.3 4.1 7.7 8.2 15.9 8 24.6-0.2 6.7-3 13-5.3 19.3-1.6 4.4-2.8 9.1-2.8 13.7-0.4 0.5-0.7 1-1.1 1.5-3.1 4.1-7.4 7.5-12.5 8.3q2.9-8.9 5.8-17.9c0.7-2.1 0.9-5-0.3-6.5 0.4-0.8 0.6-1.7 0.6-2.6-0.1-1.7-1-3.1-1.7-4.6-2.7-5.8-1.8-12.5-1.1-18.8 0.8-7.8 1.1-15.8-1.2-23.3-2.3-7.5-7.6-14.5-15-17q0.9 1.1 1.9 2.1l-2.5-1.8q2.3 4.8 4.7 9.7-0.9 1.2-1.8 2.5c2.6-1.4 5.9 0.6 7.1 3.2 1.2 2.7 0.9 5.8 0.6 8.7-1.5 16.1-0.7 32.5 2.3 48.5-0.2 3.7-0.9 7.5-2.8 10.6-2.1 3.5-6.1 6.1-10 5.5 0.8-3.9-0.6-8.4-3.9-10.7-4 5.6-1.6 14.3-1 20.7 0.9 9.6 2.4 19.2 4.6 28.7 0.6-8.2 2.4-16.3 5.1-24.1q3.3 11.9 6.5 23.7c0.1-2.2 0.2-4.5 1.3-6.4 1-2 3.4-3.4 5.5-2.6 1.7 0.6 2.6 2.4 3.3 4.1 5.7 13.6 7.1 28.9 4 43.3 2.7 1.5 6.3-0.3 7.8-3 1.4-2.7 1.4-5.9 1.4-9q-0.7-40-1.4-80z"/>
									<path id="&lt;Path&gt;" class="s0" d="m625.8 696.7c-1.3 2.3 3.9 11.2 4.8 13.3q6.6 16.1 13.2 32.3c-1.4-14.2-4.9-28.1-10.2-41.4-0.9-2.2-5.3-8.6-7.8-4.2z"/>
									<path id="&lt;Path&gt;" class="s0" d="m632.6 639.7c-0.7 1.1-1.8 2.5-3.1 2.1-1.2-0.4-1.4-2-1.4-3.2q0.2-11.3 0.4-22.5c-6.1 4.3-5.3 10-5.7 16.5-0.3 3.7 0.8 21.6-1.8 23.8 6-5.1 11.1-11.3 14.9-18.2-1-0.8-2.5 0.3-3.3 1.5z"/>
									<g id="&lt;Group&gt;" style="opacity: .5">
										<path id="&lt;Path&gt;" class="s1" d="m575.6 728.6q0.3-0.7 0.6-1.4c-0.4 0.3-0.7 0.8-0.6 1.4z"/>
										<path id="&lt;Path&gt;" class="s1" d="m581.5 697.6c-0.4-4.9 0.3-9.9 0.1-14.8-0.2-5-1.5-10.2-5.1-13.6-5.2-4.8-19.3-2.4-14.6 6.9 1.4 2.5 4.7 3.9 7.4 2.7 2.6-1.1 3.9-4.7 2.5-7.2 5.7 8.7 5.2 21-1.2 29.1 7.3 6.4 9.6 17.7 5.6 26.5 0.9-0.6 2.4-0.7 3.3 0 1.4 1.1 1.9 2.9 2.5 4.5 0.7 1.6 2.1 3.3 3.8 3.2 2.4-5.9 1.6-12.6 0-18.8-1.5-6.1-3.8-12.2-4.3-18.5z"/>
										<path id="&lt;Path&gt;" class="s1" d="m633.2 604.8c-2.7-2.1-6-3.5-9.4-3.9z"/>
										<path id="&lt;Path&gt;" class="s1" d="m656.8 667.4c-0.8-3.4-2.4-6.5-3.3-9.9-2.2-7.8-0.8-16.2-1.8-24.2-1.3-10.5-6.8-20.3-14.9-26.9l-3.6-1.6c3.5 2.7 6.1 6.4 7.2 10.5 2.8 9.6 3.7 19.5 4.9 29.4 1.9 15.2 4.7 30.3 8.3 45.2 2.4-7.3 4.8-15 3.2-22.5z"/>
										<path id="&lt;Path&gt;" class="s1" d="m618.7 631.9c2.4-2 3.8-5.1 4.2-8.3 0.4-2.8 0.1-5.6-0.2-8.4-0.3 1.2-1.8 2.2-3.2 1.9-1.7-0.4-2.8-2-3.8-3.4q-0.3 1.2-0.7 2.5-0.1-0.7-0.3-1.4l-0.9 1.2c1.4 4 2.8 8.7 0.6 12.3-1.1 1.8-2.8 3-4.5 4.2 2.5 1.8 6.3 1.3 8.8-0.6z"/>
										<path id="&lt;Path&gt;" class="s1" d="m622.6 614.2q0 0.5 0.1 1c0-0.3 0-0.7-0.1-1z"/>
										<path id="&lt;Path&gt;" class="s1" d="m612.1 654.7c-7-13.8-14-27.6-21.7-41-4.5-7.8-9.3-15.6-15.3-22.3-2.7-3-10.3-9.9-14.6-5.4-2.8 3.1 0.9 8.6-2.5 11.9 0.8 0 4.7-0.4 5.1 0.1 8.8 10.9 13.6 24.9 13.4 38.8 2.8-2.2 6.7 0.9 8.9 3.7 13.5 17.4 26.2 35.5 37.9 54.2-2.2-8.2-2.3-17-4.7-25.2-1.6-5.2-4-10-6.5-14.8z"/>
										<path id="&lt;Path&gt;" class="s1" d="m693.6 688.3c3.3-9 5.9-18.2 6.2-27.7 0.3-8.7-1.7-17.7-6.2-25.1-1.2-1.8-6-9.5-8.6-8.9-4.7 1.1 1.4 9.3 2.5 11.3 4.1 7.7 8.2 15.9 8 24.6-0.2 6.7-3 13-5.3 19.3-1.6 4.4-2.8 9.1-2.8 13.7-0.4 0.5-0.7 1-1.1 1.5-3.1 4.1-7.4 7.5-12.5 8.3q2.9-8.9 5.8-17.9c0.7-2.1 0.9-5-0.3-6.5 0.4-0.8 0.6-1.7 0.6-2.6-0.1-1.7-1-3.1-1.7-4.6-2.7-5.8-1.8-12.5-1.1-18.8 0.8-7.8 1.1-15.8-1.2-23.3-2.3-7.5-7.6-14.5-15-17q0.9 1.1 1.9 2.1l-2.5-1.8q2.3 4.8 4.7 9.7-0.9 1.2-1.8 2.5c2.6-1.4 5.9 0.6 7.1 3.2 1.2 2.7 0.9 5.8 0.6 8.7-1.5 16.1-0.7 32.5 2.3 48.5-0.2 3.7-0.9 7.5-2.8 10.6-2.1 3.5-6.1 6.1-10 5.5 0.8-3.9-0.6-8.4-3.9-10.7-4 5.6-1.6 14.3-1 20.7 0.9 9.6 2.4 19.2 4.6 28.7 0.6-8.2 2.4-16.3 5.1-24.1q3.3 11.9 6.5 23.7c0.1-2.2 0.2-4.5 1.3-6.4 1-2 3.4-3.4 5.5-2.6 1.7 0.6 2.6 2.4 3.3 4.1 5.7 13.6 7.1 28.9 4 43.3 2.7 1.5 6.3-0.3 7.8-3 1.4-2.7 1.4-5.9 1.4-9q-0.7-40-1.4-80z"/>
										<path id="&lt;Path&gt;" class="s1" d="m625.8 696.7c-1.3 2.3 3.9 11.2 4.8 13.3q6.6 16.1 13.2 32.3c-1.4-14.2-4.9-28.1-10.2-41.4-0.9-2.2-5.3-8.6-7.8-4.2z"/>
										<path id="&lt;Path&gt;" class="s1" d="m632.6 639.7c-0.7 1.1-1.8 2.5-3.1 2.1-1.2-0.4-1.4-2-1.4-3.2q0.2-11.3 0.4-22.5c-6.1 4.3-5.3 10-5.7 16.5-0.3 3.7 0.8 21.6-1.8 23.8 6-5.1 11.1-11.3 14.9-18.2-1-0.8-2.5 0.3-3.3 1.5z"/>
									</g>
								</g>
								<path id="&lt;Path&gt;" class="s1" d="m695.3 777l0.3-88.5c0.9-3.5 1.7-16.6 3.8-25.8 3.4-15.3-10.2-33.8-11.2-34.4-3.8-2.4-12-2.3-12-2.3 0 0-7.9-9.2-15.1-12.1-7.2-2.8-15.3-1.9-15.3-1.9 0 0-9.1-7.6-18.2-11-9.1-3.3-15.4 2.9-15.4 2.9l-8.9 13.9c-2.6 4.2-2.3 9.7 1.2 13.1 4.3 4.2 9.8 2.2 12.5 2.2 3.9 0 5.3-4.3 5.3-4.3 0 0 0.9 22.5 0 25.4-1 2.9-8.2 9.6-8.2 9.6l-23.9-31.7c-6.9-9.2-16.7-25.1-21.5-35.6-0.7-1.5-1.6-2.9-2.7-4.1-4.2-4.8-13.2-6.2-15.5 2.6-0.7 2.4-0.4 6.2 0.3 8.5 10.1 29.5 22.8 51.9 34.4 75.2 6.9 13.8 4.4 13.6 7.8 19.9-0.4 0.2-0.2 0.8-0.6 1-1.7 6.7-2.9 13.5-4.6 20.2-1.6-8.1-3.8-17.1-7.7-24.4 0.8-4.7 1.6-9.4 1.1-14.2-0.5-4.7-2.3-9.5-5.9-12.6-1.9-1.6-4.5-2.6-7-2.7-3.8-0.3-7.1 2.4-7.7 6.2-0.5 3.5-1 7.9-2 10.8-3 9.1-5.5 13.3-5.5 13.6 0 8.9 5.5 7.5 9.5 43.4 3.1 27.9 39.1 46.4 58.7 66.6l20.9 65.7c24.3-9.7 47.5-22.2 69.7-36.6z"/>
							</g>
							<g id="&lt;Group&gt;">
								<g id="&lt;Group&gt;">
									<g id="&lt;Group&gt;">
										<g id="&lt;Group&gt;">
										</g>
									</g>
									<path id="&lt;Path&gt;" class="s1" d="m559.1 690.2c-2.3 1.8-4.3 4.1-5.8 6.6z"/>
								</g>
							</g>
						</g>
					</g>
				</g>
			</g>
			<g id="&lt;Group&gt;">
				<g id="&lt;Group&gt;">
					<g id="&lt;Group&gt;">
						<g id="&lt;Group&gt;">
							<g id="&lt;Group&gt;">
								<path id="&lt;Path&gt;" class="s9" d="m642.2 872.2l-20.9-65.7c-19.6-20.2-55.6-38.7-58.7-66.6-4-35.9-9.5-34.5-9.5-43.4 0-0.3 2.5-4.5 5.5-13.6 1-2.9 1.5-7.3 2-10.8 0.6-3.8 3.9-6.5 7.7-6.2 2.5 0.1 5.1 1.1 7 2.7 3.6 3.1 5.4 7.9 5.9 12.6 0.5 4.8-0.3 9.5-1.1 14.2 3.9 7.3 6.1 16.3 7.7 24.4 1.7-6.7 2.9-13.5 4.6-20.2 0.4-0.2 0.2-0.8 0.6-1-3.4-6.3-0.9-6.1-7.8-19.9-11.6-23.3-24.3-45.7-34.4-75.2-0.7-2.3-1-6.1-0.3-8.5 2.3-8.8 11.3-7.4 15.5-2.6 1.1 1.2 2 2.6 2.7 4.1 4.8 10.5 14.6 26.4 21.5 35.6l23.9 31.7c0 0 7.2-6.7 8.2-9.6 0.9-2.9 0-25.4 0-25.4 0 0-1.4 4.3-5.3 4.3-2.7 0-8.2 2-12.5-2.2-3.5-3.4-3.8-8.9-1.2-13.1l8.9-13.9c0 0 6.3-6.2 15.4-2.9 9.1 3.4 18.2 11 18.2 11 0 0 8.1-0.9 15.3 1.9 7.2 2.9 15.1 12.1 15.1 12.1 0 0 8.2-0.1 12 2.3 1 0.6 14.6 19.1 11.2 34.4-2.1 9.2-2.9 22.3-3.8 25.8l-0.3 88.5 16.6 58.6"/>
							</g>
							<g id="&lt;Group&gt;">
								<g id="&lt;Group&gt;">
									<g id="&lt;Group&gt;">
										<path id="&lt;Path&gt;" class="s9" d="m647.9 615.2c3.6 13 5.4 26.5 5.5 40 0 2.3 0 4.6 0.7 6.7 0.7 2.2 2.4 4.2 4.6 4.6"/>
										<path id="&lt;Path&gt;" class="s9" d="m676.2 628.3c6 12.5-0.1 40.5 0.3 42.5 0.5 2 1.6 3.9 3.4 4.8"/>
										<g id="&lt;Group&gt;">
											<path id="&lt;Path&gt;" class="s9" d="m624.7 613.5c-0.7 4-1.3 8.6-2 12.5-4.7-3.9-7.6-9.8-8-15.9"/>
											<path id="&lt;Path&gt;" class="s9" d="m586.3 720.2q-2.1 0.9-4.3 1.9"/>
											<path id="&lt;Path&gt;" class="s9" d="m587.4 723.6c-0.7 3.4-0.7 6.8 0 10.2"/>
											<path id="&lt;Path&gt;" class="s9" d="m612.7 686.3q2.4 4.3 4.8 8.6"/>
											<path id="&lt;Path&gt;" class="s9" d="m621.9 654.7q2.4-3.3 4.8-6.7"/>
											<path id="&lt;Path&gt;" class="s9" d="m688.9 686.3q-0.8 2.6-1.5 5.2"/>
											<path id="&lt;Path&gt;" class="s9" d="m677.2 671.9q2.1-6.8 4.2-13.5"/>
											<path id="&lt;Path&gt;" class="s9" d="m691.3 648c2.5-1.4 6.1-0.3 7.3 2.3"/>
											<path id="&lt;Path&gt;" class="s9" d="m662.6 625.1c3.3-1 7-0.1 9.6 2.2"/>
											<path id="&lt;Path&gt;" class="s9" d="m573.5 638.4c3-3.4 7.8-5.2 12.4-4.7"/>
										</g>
									</g>
									<path id="&lt;Path&gt;" class="s9" d="m555.4 600.7c2.9-2.1 6.6-3 10.1-2.4"/>
									<path id="&lt;Path&gt;" class="s9" d="m559.1 690.2c-2.3 1.8-4.3 4.1-5.8 6.6"/>
								</g>
								<path id="&lt;Path&gt;" class="s9" d="m561.1 681.1c3.1-2.3 8.2 2.8 11.1 0.2 1.1-1 1.2-2.8 0.9-4.3-0.2-1.5-0.8-3.1-0.5-4.6"/>
							</g>
						</g>
					</g>
					<path id="&lt;Path&gt;" class="s9" d="m650.2 667.2c3.9 7.9 4.7 17.2 2.2 25.7"/>
					<path id="&lt;Path&gt;" class="s9" d="m673.5 679.6c0.6 3.7-0.1 7.7-2 11"/>
				</g>
			</g>
			<path id="&lt;Path&gt;" class="s3" d="m480.1 709.6c0.2 1.4 0.1 2.8-0.2 4.1-1.3 6.1-5 23.6-6.4 33.2-1.7 11.7-20.6 48-20.6 48 0 0-17.4 21.7-26.3 33-4.4 5.5-11.3 27.9-17.1 49.3q-11.1-3.4-22-7.3c-6.1-2.1-12.1-4.4-18-6.7-8.4-3.3-19-8.5-31.3-15.2 3.3-12.1 5.6-21.4 5.5-21.9-0.1-1.3 7.1-15.2 7.1-15.2l-6.3-82.9-3.7-12.6c-1.9-6.5-3.1-13.2-3.6-19.9-0.8-10.3 0-20.6 2.5-30.7l10.9-16.1 5.1-0.4 15.7-22c0 0 8.5-2.5 10.7 3.9 2.2 6.4-7.1 18.3-7.1 18.3l-3.2 19.8 7.6 18.5 3.9 1.4c0 0 1.3-32.5 0.4-39l8.4-29.7c0 0 5-10 6.5-15 1.5-4.9 10.5-9.9 15.6-1.1 0 0 2.9 4.4 0.8 10.5-2.1 6.1-3.8 10.9-3.8 10.9 0 0-1.9 25.2-2.5 25.9-0.6 0.6 3.7 37.4 3.7 37.4l3.2 1.5 1.2-35.1 6.8-33c0 0-0.5-15.9 10.6-13.9 0 0 5.3-0.6 8.3 5.1 2.9 5.7 0.1 43.6 0.1 43.6l2.8 39.3 4.4 30.2 5.2-20.7c0 0 0.3-29.7 19-32.3 0 0 5.6-1 6.8 2.9 1.1 3.9-2.8 11.8-2.3 19.4 0.5 5.4 1.2 11.4 1.6 14.5z"/>
			<g id="&lt;Group&gt;">
				<g id="&lt;Clip Group&gt;" clip-path="url(#cp2)">
					<path id="&lt;Path&gt;" class="s0" d="m344.6 664.5c3.2-4.1 9.9-5.6 13.6-2.1 2.2 2.1 2.9 5.2 3.5 8.1 0.5 2.9 1.1 6 3 8.2 1.9 2.3 5.8 3.1 7.8 1q0.4 6.5 0.8 13.1c4.7-8.1 7.1-17.5 6.9-26.9-0.1-4.5-0.8-9.1 0.3-13.6 1-4.4 4.4-8.7 9-8.9 5-0.2 9 4.7 10 9.6 1 5-0.2 10.1-0.5 15.1-0.5 7.7 1 15.5 4.3 22.4q1.6-3.2 3.2-6.4 1.5 6.5 2.9 12.9 1.2-14.2 2.5-28.4c0.2-2.7 0.5-5.4 1.7-7.8 1.2-2.4 3.7-4.3 6.4-4 3.6 0.3 5.7 4.2 6.9 7.6 9 25.5 5.3 53.4 1.5 80.2 2.5 0.5 4.6-2.1 5.2-4.5 0.6-2.5 0.4-5.2 1.4-7.5 0.9-2.4 3.8-4.3 5.9-3 3.2 2 1 8.1 4.3 9.8 1-7.9 4.2-15.5 9.1-21.8 2.2-2.9 5.5-5.8 9-4.8 2.7 0.6 4.4 3.3 4.8 6 0.3 2.7 4.2-8.4 3.5-5.8 1.6-15.4-1.5-17 0-32.5 0.3-2.7 4.8-7.6 2.9-9.6-1.8-1.9-7.3-4.8-9.7-3.7-2.4 1.1-10.2 5.1-11.8 7.2-9.8 13.6-9.2 33.2-12.2 49.7-2.6-25.1-5.2-50.7-0.6-75.5 2.5-13.7 7.2-28 2.8-41.2-2-6-7.4-12-13.7-10.9-5 0.9-8.1 6-10.1 10.7-6.9 15.8-9.9 33-13 50q5.7-25.6 11.3-51.3c1-4.4 2-9 1.2-13.5-0.8-4.4-3.9-8.8-8.3-9.8-4.5-0.9-8.8 1.7-12.2 4.8-11.9 10.8-16.3 27.4-20.2 43.1 1.4-4.1 2.8-8.3 2.4-12.6-0.5-4.3-3.2-8.7-7.4-9.6-5.4-1.2-10.4 3.7-12.8 8.7-2.4 5-3.5 10.8-7.4 14.9-2.7-3.1-8-3-11.4-0.6-3.5 2.3-5.6 6.1-7.3 10-6.3 14-9 29.6-7.8 44.9 2.8-6.1 9.8-10.1 16.4-9.3q-0.6-5.1-1.1-10.3"/>
					<g id="&lt;Group&gt;">
						<g id="&lt;Group&gt;">
							<path id="&lt;Path&gt;" class="s0" d="m357.8 697q-0.3 3.8-0.5 7.6c0.7-2.1 3.8-2.9 5.5-1.4-0.4-1.6 0.6-3.2 1.3-4.7 0.6-1.5 0.7-3.7-0.8-4.4-1.8-0.9-3.5 1.2-4.4 2.9q-0.1-1-0.3-1.9z"/>
						</g>
						<g id="&lt;Group&gt;">
							<path id="&lt;Path&gt;" class="s0" d="m386.5 692.5c-2.1 2.3-3.5 5.3-4.1 8.4 0.9-0.9 1.8-1.8 3-2.2 1.1-0.4 2.6-0.2 3.3 0.8 0.4 0.6 0.6 1.4 1.3 1.8 0.6 0.3 1.5-0.1 1.9-0.7 0.4-0.7 0.5-1.5 0.5-2.2 0.1-1.5 0.2-3-0.2-4.4-0.4-1.4-1.5-2.7-2.9-3-1.4-0.3-3.1 0.7-3.1 2.2z"/>
						</g>
						<g id="&lt;Group&gt;">
							<path id="&lt;Path&gt;" class="s0" d="m414.2 699.4c-2.2 2.9-3.6 6.4-4.2 10.1 1.5-0.3 2.8-1.2 3.9-2.1 1.2-0.9 2.5-1.9 4-2 1.5-0.1 3.1 1 3.1 2.5-0.3-1.7 0-3.4 0.1-5.1 0.2-1.7 0.3-3.5-0.3-5.1-0.7-1.5-2.2-2.9-3.9-2.8-1.7 0.1-3.1 2.1-2.3 3.6z"/>
						</g>
						<g id="&lt;Group&gt;">
							<path id="&lt;Path&gt;" class="s0" d="m337.8 709.4c-1.5 2.9-2.3 6.2-2.3 9.4 0-1.5 1.4-2.7 2.9-2.9 1.5-0.2 3 0.4 4.3 1.1 0.3-1.5 0.6-3 0.3-4.6-0.4-1.5-1.4-2.9-3-3.2-1.5-0.2-3.2 1.3-2.8 2.7q-0.2-0.5-0.4-1.1z"/>
						</g>
					</g>
					<path id="&lt;Path&gt;" class="s8" d="m344.6 664.5c3.2-4.1 9.9-5.6 13.6-2.1 2.2 2.1 2.9 5.2 3.5 8.1 0.5 2.9 1.1 6 3 8.2 1.9 2.3 5.8 3.1 7.8 1q0.4 6.5 0.8 13.1c4.7-8.1 7.1-17.5 6.9-26.9-0.1-4.5-0.8-9.1 0.3-13.6 1-4.4 4.4-8.7 9-8.9 5-0.2 9 4.7 10 9.6 1 5-0.2 10.1-0.5 15.1-0.5 7.7 1 15.5 4.3 22.4q1.6-3.2 3.2-6.4 1.5 6.5 2.9 12.9 1.2-14.2 2.5-28.4c0.2-2.7 0.5-5.4 1.7-7.8 1.2-2.4 3.7-4.3 6.4-4 3.6 0.3 5.7 4.2 6.9 7.6 9 25.5 5.3 53.4 1.5 80.2 2.5 0.5 4.6-2.1 5.2-4.5 0.6-2.5 0.4-5.2 1.4-7.5 0.9-2.4 3.8-4.3 5.9-3 3.2 2 1 8.1 4.3 9.8 1-7.9 4.2-15.5 9.1-21.8 2.2-2.9 5.5-5.8 9-4.8 2.7 0.6 4.4 3.3 4.8 6 0.3 2.7 4.2-8.4 3.5-5.8 1.6-15.4-1.5-17 0-32.5 0.3-2.7 4.8-7.6 2.9-9.6-1.8-1.9-7.3-4.8-9.7-3.7-2.4 1.1-10.2 5.1-11.8 7.2-9.8 13.6-9.2 33.2-12.2 49.7-2.6-25.1-5.2-50.7-0.6-75.5 2.5-13.7 7.2-28 2.8-41.2-2-6-7.4-12-13.7-10.9-5 0.9-8.1 6-10.1 10.7-6.9 15.8-9.9 33-13 50q5.7-25.6 11.3-51.3c1-4.4 2-9 1.2-13.5-0.8-4.4-3.9-8.8-8.3-9.8-4.5-0.9-8.8 1.7-12.2 4.8-11.9 10.8-16.3 27.4-20.2 43.1 1.4-4.1 2.8-8.3 2.4-12.6-0.5-4.3-3.2-8.7-7.4-9.6-5.4-1.2-10.4 3.7-12.8 8.7-2.4 5-3.5 10.8-7.4 14.9-2.7-3.1-8-3-11.4-0.6-3.5 2.3-5.6 6.1-7.3 10-6.3 14-9 29.6-7.8 44.9 2.8-6.1 9.8-10.1 16.4-9.3q-0.6-5.1-1.1-10.3"/>
					<g id="&lt;Group&gt;" style="opacity: .5">
						<g id="&lt;Group&gt;">
							<path id="&lt;Path&gt;" class="s1" d="m357.8 697q-0.3 3.8-0.5 7.6c0.7-2.1 3.8-2.9 5.5-1.4-0.4-1.6 0.6-3.2 1.3-4.7 0.6-1.5 0.7-3.7-0.8-4.4-1.8-0.9-3.5 1.2-4.4 2.9q-0.1-1-0.3-1.9z"/>
						</g>
						<g id="&lt;Group&gt;">
							<path id="&lt;Path&gt;" class="s1" d="m386.5 692.5c-2.1 2.3-3.5 5.3-4.1 8.4 0.9-0.9 1.8-1.8 3-2.2 1.1-0.4 2.6-0.2 3.3 0.8 0.4 0.6 0.6 1.4 1.3 1.8 0.6 0.3 1.5-0.1 1.9-0.7 0.4-0.7 0.5-1.5 0.5-2.2 0.1-1.5 0.2-3-0.2-4.4-0.4-1.4-1.5-2.7-2.9-3-1.4-0.3-3.1 0.7-3.1 2.2z"/>
						</g>
						<g id="&lt;Group&gt;">
							<path id="&lt;Path&gt;" class="s1" d="m414.2 699.4c-2.2 2.9-3.6 6.4-4.2 10.1 1.5-0.3 2.8-1.2 3.9-2.1 1.2-0.9 2.5-1.9 4-2 1.5-0.1 3.1 1 3.1 2.5-0.3-1.7 0-3.4 0.1-5.1 0.2-1.7 0.3-3.5-0.3-5.1-0.7-1.5-2.2-2.9-3.9-2.8-1.7 0.1-3.1 2.1-2.3 3.6z"/>
						</g>
						<g id="&lt;Group&gt;">
							<path id="&lt;Path&gt;" class="s1" d="m337.8 709.4c-1.5 2.9-2.3 6.2-2.3 9.4 0-1.5 1.4-2.7 2.9-2.9 1.5-0.2 3 0.4 4.3 1.1 0.3-1.5 0.6-3 0.3-4.6-0.4-1.5-1.4-2.9-3-3.2-1.5-0.2-3.2 1.3-2.8 2.7q-0.2-0.5-0.4-1.1z"/>
						</g>
					</g>
					<path id="&lt;Path&gt;" class="s1" d="m474.4 672.8c-0.9-3.9-6.5-3.3-6.5-3.3-18.9 1.1-21.4 30.7-21.4 30.7l-6.8 20.3-2.1-30.5 0.2-39.4c0 0 5.7-37.6 3.2-43.5-2.6-6-7.8-5.7-7.8-5.7-11-2.8-11.7 13.1-11.7 13.1l-9.3 32.3-3.8 34.9-3.1-1.7c0 0-1.5-37-0.9-37.6 0.6-0.7 4.4-25.6 4.4-25.6 0 0 2.1-4.7 4.7-10.6 2.5-5.9 0-10.6 0-10.6-4.5-9-13.7-4.8-15.7 0-1.9 4.9-7.6 14.4-7.6 14.4l-10.6 29c0.4 6.6-3.3 38.9-3.3 38.9l-3.8-1.7-6.2-19 4.7-19.5c0 0 10.1-11.2 8.4-17.7-1.6-6.6-10.3-4.7-10.3-4.7l-17.3 20.7h-5.1l-12.1 15.3c-3.2 9.8-4.9 20.1-4.9 30.4 0 6.7 0.7 13.5 2.1 20.1l2.8 12.9v83.1c0 0-8.2 13.3-8.2 14.6 0 0.6-3.4 11.1-8.2 24.2 20.8 12.2 38.6 21.6 51.3 26.6q8.9 3.5 18 6.7c7.6-21.3 16.4-44.1 21.3-49.5 9.8-10.5 28.8-30.8 28.8-30.8 0 0 21.6-34.8 24.2-46.3 2-9.5 7.1-26.7 8.9-32.6 0.4-1.3 0.6-2.8 0.5-4.2-0.2-3.1-0.5-9.1-0.5-14.5 0-7.6 4.5-15.2 3.7-19.2z"/>
				</g>
				<g id="&lt;Group&gt;">
					<path id="&lt;Path&gt;" class="s9" d="m318.2 836.6c4.8-13.1 8.2-23.6 8.2-24.2 0-1.3 8.2-14.6 8.2-14.6v-83.1l-2.8-12.9c-1.4-6.6-2.1-13.4-2.1-20.1 0-10.3 1.7-20.6 4.9-30.4l12.1-15.3h5.1l17.3-20.7c0 0 8.7-1.9 10.3 4.7 1.7 6.5-8.4 17.7-8.4 17.7l-4.7 19.5 6.2 19 3.8 1.7c0 0 3.7-32.3 3.3-38.9l10.6-29c0 0 5.7-9.5 7.6-14.4 2-4.8 11.2-9 15.7 0 0 0 2.5 4.7 0 10.6-2.6 5.9-4.7 10.6-4.7 10.6 0 0-3.8 24.9-4.4 25.6-0.6 0.6 0.9 37.6 0.9 37.6l3.1 1.7 3.8-34.9 9.3-32.3c0 0 0.7-15.9 11.7-13.1 0 0 5.2-0.3 7.8 5.7 2.5 5.9-3.2 43.5-3.2 43.5l-0.2 39.4 2.1 30.5 6.8-20.3c0 0 2.5-29.6 21.4-30.7 0 0 5.6-0.6 6.5 3.3 0.8 4-3.7 11.6-3.7 19.2 0 5.4 0.3 11.4 0.5 14.5 0.1 1.4-0.1 2.9-0.5 4.2-1.8 5.9-6.9 23.1-8.9 32.6-2.6 11.5-24.2 46.3-24.2 46.3 0 0-19 20.3-28.8 30.8-4.9 5.4-13.7 28.2-21.3 49.5"/>
				</g>
				<path id="&lt;Path&gt;" class="s4" d="m375.9 681c1.1 4 0 8.5-2.8 11.4"/>
				<path id="&lt;Path&gt;" class="s4" d="m343.7 709c2.7-4.2 5.4-10.1 4.7-15.1-1.5-9.8-6-21.1-3.9-30.8q1.9-9.3 3.8-18.7"/>
				<path id="&lt;Path&gt;" class="s9" d="m423.4 616.2c3.3-0.8 6.7-0.8 10 0.1q0-1.4 0.1-2.8"/>
				<path id="&lt;Path&gt;" class="s9" d="m397.2 603.8c1.9 1.3 4.6 1.5 6.7 0.4 2-1.1 3.4-3.4 3.4-5.8"/>
				<path id="&lt;Path&gt;" class="s9" d="m469.4 673.2c-5.5 1.2-9.7 7-9.1 12.6q2.4 0.8 4.9 1.5"/>
				<path id="&lt;Path&gt;" class="s4" d="m405.1 675.6c0.2 3.4-0.2 11.4 0 14.8"/>
				<path id="&lt;Path&gt;" class="s4" d="m408.8 680.3q-0.6 8.2-1.3 16.5 0.1-1.1 0.1-2.1"/>
				<path id="&lt;Path&gt;" class="s4" d="m439.3 726.6c1.4 6 0.8 12.6-1.9 18.1"/>
				<path id="&lt;Path&gt;" class="s9" d="m388.6 697.8c-4.4 4.8-3.7 16.3-0.7 22.6"/>
				<path id="&lt;Path&gt;" class="s9" d="m420.8 705.7c0.1 5.2-1.8 10.3-5.3 14.7"/>
				<path id="&lt;Path&gt;" class="s9" d="m356.8 700.1c-0.7 4.8 0.4 9.8 3 13.9"/>
				<path id="&lt;Path&gt;" class="s9" d="m338.3 715c-0.2 3.8 0.9 7.6 3 10.7"/>
				<path id="&lt;Path&gt;" class="s9" d="m363.7 622.8c2.3-1.1 5.2-0.6 7 1.1q1.2-1.6 2.5-3.2"/>
				<path id="&lt;Path&gt;" class="s9" d="m384.2 637.5c3.3-2.1 8.2-1.3 10.6 1.8"/>
				<path id="&lt;Path&gt;" class="s9" d="m416.3 647.5c3.5-1.6 7.8-1.5 11.3 0.2"/>
				<path id="&lt;Path&gt;" class="s9" d="m345 664.3c2-3.6 6.3-5.7 10.4-5.2"/>
				<path id="&lt;Path&gt;" class="s9" d="m331.5 683.4c0.1-2.6 2.2-5 4.8-5.3"/>
			</g>
		</g>
	</g>
	<g id="Coffee">
		<g id="&lt;Group&gt;">
			<path id="&lt;Path&gt;" class="s10" d="m929.8 456.8c0 45.8-37.1 82.9-82.9 82.9-45.8 0-82.9-37.1-82.9-82.9 0-45.8 37.1-82.9 82.9-82.9 45.8 0 82.9 37.1 82.9 82.9z"/>
			<g id="&lt;Group&gt;">
				<g id="&lt;Group&gt;">
					<g id="&lt;Group&gt;">
						<path id="&lt;Path&gt;" class="s3" d="m940.7 459c-17.7 28.9-23.9 25-84.2 53.9-30.6 14.7-60.2-32.5-40.2-80.8 1-2.4 9.6-14.3 9.6-14.3 3.7-16 16.9-29.4 32.9-33.2 16-3.8 33.9 2.2 44.3 14.9 11.3-10 27.7-13.7 42.3-10.1q1.1 3.1 2 6c0.3 0.8 0.5 1.5 0.8 2.3q1.1 3.5 2.1 7 2 6.7 3.7 13.5c-6.7-1.8-13.4-1.9-19.7 1.2-4.4 2.2-8.1 5.7-12.7 7.5-4.6 1.7-11 0.7-12.7-3.9 2.2 9.3 11.9 6.5 21.2 8.3 14.4 2.9 18.1 15.5 10.6 27.7z"/>
					</g>
					<g id="&lt;Group&gt;">
						<path id="&lt;Path&gt;" class="s11" d="m913.5 444.7c0 0 14.8-2 21.9-1 4.5 0.7 7.2 3.3 8.5 4.9 0.6 0.8 1 1.7 1 2.7l0.8 11.6c0.1 1.3-0.3 2.6-1.2 3.5-2.9 3.1-11.7 8.6-37.6 10.5-36.3 2.8 6.6-32.2 6.6-32.2z"/>
						<g id="&lt;Group&gt;">
							<path id="&lt;Path&gt;" class="s11" d="m902.6 414.7c4.2 5.2 12.2 17 12.2 35.2 0 13.9-16 61.1-57 66.8-43.4 6.1-78.2-31-70.8-75.7 5.2-30.9 80.8-69.6 115.6-26.3z"/>
							<path id="&lt;Path&gt;" class="s1" d="m786.7 446.8c0 32.9 28.2 59.6 62.9 59.6 34.8 0 63-26.7 63-59.6 0-32.9-28.2-59.5-63-59.5-34.7 0-62.9 26.6-62.9 59.5z"/>
							<path id="&lt;Path&gt;" class="s7" d="m797.8 449.9c0 27.1 23.2 49 51.7 49 28.6 0 51.7-21.9 51.7-49 0-27-23.1-48.9-51.7-48.9-28.5 0-51.7 21.9-51.7 48.9z"/>
							<path id="&lt;Path&gt;" class="s10" d="m912.6 446.8c0-32.9-28.2-59.5-63-59.5-34.7 0-62.9 26.6-62.9 59.5"/>
							<path id="&lt;Path&gt;" class="s10" d="m896 487.1c10.3-10.6 16.6-24.7 16.6-40.3"/>
							<path id="&lt;Path&gt;" class="s10" d="m805.6 489.3c11.3 10.6 26.9 17.1 44 17.1 10.6 0 20.5-2.5 29.3-6.8"/>
							<path id="&lt;Path&gt;" class="s10" d="m796.5 478.7q1.2 1.9 2.6 3.6"/>
							<path id="&lt;Path&gt;" class="s10" d="m786.7 446.8c0 9.1 2.2 17.7 6 25.4"/>
						</g>
						<path id="&lt;Path&gt;" class="s11" d="m942 463.1c0 0-11.2-7.8-29.4-0.7"/>
						<path id="&lt;Path&gt;" class="s11" d="m932.4 468.6c-4.3 1.3-11.5 2.7-23.3 3.6"/>
						<path id="&lt;Path&gt;" class="s11" d="m938.2 466.1c0 0-0.7 0.6-2.8 1.5"/>
					</g>
				</g>
				<g id="&lt;Group&gt;">
					<g id="&lt;Group&gt;">
						<path id="&lt;Compound Path&gt;" class="s1" d="m948.2 397.7c-0.3-0.8-0.5-1.5-0.8-2.3-3.8-11.8-8.7-24.8-14.7-38.6q-1.6-3.8-3.4-7.7-0.7 0.1-1.3 0.1c-5.8 0.6-11.8 1.3-16.5 4.6-4.8 3.3-7.6 10.1-4.5 15 3 4.9 10.8 7.6 9.6 13.1-12.8 7.3-28.5 6.4-42.7 10.1-8.6 2.1-16.7 6-23.8 11.2q-0.1 0-0.1 0c-2.2 1.7-4.4 3.5-6.5 5.5-0.9 0.8-1.8 1.8-2.6 2.8q0 0 0 0c-1.2 1.5-2.1 3.2-2.3 5.1-0.5 5.4 4.4 9 9.6 11.3 0.9 0.5 0.9 1.8-0.1 2.2-3.4 1.3-6.7 2.9-9.4 5.4q0 0 0 0c-1.7 1.5-0.3 4.3 1.9 4 0.3-0.1 0.6-0.1 0.8-0.1 2.2-0.2 4.3 0.1 6.1 0.7 3 1.1 5.2 3.2 5.4 5.7 0.3 4.1-4.3 7.8-10.3 8.2-1.5 0.2-0.4 1.9 1.8 2.3 4.2 0.7 8.6-0.1 12.8-1.1 5-1.2 10.4-2.9 13.2-7.2 1.2-1.8 1.6-4.2 1.2-6.4-0.5-2.9-2.4-5.5-5.3-5.8 9.3-1.1 18.5-3 27.4-5.5l2.9-0.9c2.6-0.8 5.5-1.8 7.7-3.4 1.4-1 2.6-2.1 3.4-3.7 2.1-4-0.9-10.4-5.3-9.5 12.9-5.1 26.5-8 39.6-12.7q3.1-1.1 6.2-2.4z"/>
					</g>
				</g>
			</g>
		</g>
	</g>
	<g id="Monitor">
		<g id="&lt;Group&gt;">
			<path id="&lt;Path&gt;" class="s3" d="m849.3 224.7c-12.1 10.7-25.9 19.8-39.8 28-72.8 43.1-155.1 68.9-238.8 81.5-83.6 12.6-168.9 12.2-253.2 5.3-16.5-1.4-33.4-3.1-48.6-9.8-12.9-5.6-24.6-15.5-30.1-28.3 18.3-20.8 35.3-41.8 54.2-61.7q6.7-7.1 13.8-14c4-3.8 8.1-7.6 12.3-11.2 4.8-4.3 9.8-8.4 15-12.4 7.1-5.5 14.5-10.8 22.5-15.9q3-1.9 5.9-3.7c199.4-123.9 346.2-83.5 444.1 0 7.4 6.3 14.5 12.8 21.3 19.6 4.2 4 8.2 8.2 12.1 12.4q0.7 0.6 1.3 1.3 4.1 4.4 8 8.9z"/>
			<path id="&lt;Path&gt;" class="s11" d="m857.2 204.8l-671 3 10.2-15.2c4.8-7.3 13.1-11.7 21.8-11.7h607.2c7.9 0 15.5 3.6 20.4 9.8z"/>
			<g id="&lt;Group&gt;">
				<g id="&lt;Group&gt;">
					<path id="&lt;Path&gt;" class="s12" d="m533.4 478.7h-36.8c-37.7 0-68.3-30.6-68.3-68.3v-36.7c0-37.8 30.6-68.4 68.3-68.4h36.8c37.7 0 68.3 30.6 68.3 68.4v36.7c0 37.7-30.6 68.3-68.3 68.3z"/>
					<path id="&lt;Path&gt;" class="s13" d="m459.8 406.7v24.6c0 7.8 6.3 14 14 14h84.6c7.7 0 13.9-6.2 14-13.9 0.1-11.1 0.7-24.7 0.7-24.7z"/>
					<g id="&lt;Group&gt;">
						<g id="&lt;Group&gt;">
							<path id="&lt;Path&gt;" class="s14" d="m769.2 414.9h-494.4c-5.2 0-9.9-3.2-11.8-8.1l-76.2-195.7c-2-5.1 1.7-10.6 7.2-10.6h656c5.5 0 9.3 5.5 7.3 10.6l-76.3 195.7c-1.9 4.9-6.5 8.1-11.8 8.1z"/>
							<path id="&lt;Path&gt;" class="s7" d="m772.9 397.9h-502.9l-69.2-185h641z"/>
						</g>
					</g>
				</g>
				<path id="&lt;Path&gt;" class="s7" d="m460.4 414.6v7.7h112.1v-7.7z"/>
				<g id="&lt;Group&gt;">
					<g id="&lt;Group&gt;">
						<path id="&lt;Path&gt;" class="s0" d="m699.4 389.9h-355.1c-2 0-3.8-0.9-4.2-2l-50.5-160.5c-0.6-1.8 1-3.2 3.5-3.2h457.5c2.5 0 4.1 1.4 3.5 3.2l-50.5 160.5c-0.4 1.1-2.2 2-4.2 2z"/>
						<path id="&lt;Path&gt;" class="s7" d="m698.1 386.3h-352.5l-42.9-141.1h438.4z"/>
						<g id="&lt;Group&gt;">
							<path id="&lt;Path&gt;" class="s1" d="m396.2 280.3h-66.7c-1.7 0-2.8 0.8-2.5 1.9 0.3 1.1 1.9 2 3.6 2h66.3c1.7 0 2.8-0.9 2.6-2-0.2-1.1-1.7-1.9-3.3-1.9z"/>
							<path id="&lt;Path&gt;" class="s1" d="m398.4 292.4h-56.7c-1.7 0-2.7 0.9-2.4 2 0.2 1 1.8 1.9 3.4 1.9h56.4c1.6 0 2.8-0.9 2.6-1.9-0.2-1.1-1.7-2-3.3-2z"/>
							<path id="&lt;Path&gt;" class="s8" d="m400.6 304.2h-64.4c-1.6 0-2.7 0.8-2.4 1.8 0.3 1.1 1.8 1.9 3.4 1.9h64.1c1.5 0 2.7-0.8 2.5-1.9-0.2-1-1.6-1.8-3.2-1.8z"/>
							<path id="&lt;Path&gt;" class="s1" d="m402.7 315.6h-37.9c-1.5 0-2.6 0.8-2.4 1.7 0.3 1 1.7 1.8 3.3 1.8h37.6c1.6 0 2.7-0.8 2.5-1.8-0.2-0.9-1.6-1.7-3.1-1.7z"/>
							<path id="&lt;Path&gt;" class="s1" d="m404.7 326.5h-62.3c-1.5 0-2.5 0.8-2.2 1.8 0.2 0.9 1.7 1.7 3.2 1.7h61.9c1.5 0 2.6-0.8 2.5-1.7-0.2-1-1.6-1.8-3.1-1.8z"/>
							<path id="&lt;Path&gt;" class="s1" d="m406.6 337.1h-50.2c-1.5 0-2.6 0.8-2.3 1.7 0.2 0.9 1.6 1.7 3.1 1.7h50c1.5 0 2.6-0.8 2.5-1.7-0.2-0.9-1.6-1.7-3.1-1.7z"/>
							<path id="&lt;Path&gt;" class="s1" d="m408.5 347.4h-49.4c-1.5 0-2.5 0.7-2.3 1.6 0.3 0.9 1.6 1.6 3.1 1.6h49.2c1.5 0 2.5-0.7 2.4-1.6-0.2-0.9-1.5-1.6-3-1.6z"/>
							<path id="&lt;Path&gt;" class="s1" d="m410.3 357.3h-53.9c-1.5 0-2.5 0.7-2.2 1.6 0.2 0.8 1.6 1.5 3 1.5h53.7c1.5 0 2.5-0.7 2.4-1.5-0.2-0.9-1.5-1.6-3-1.6z"/>
							<path id="&lt;Path&gt;" class="s8" d="m412.1 366.9h-34.8c-1.5 0-2.5 0.7-2.3 1.6 0.2 0.8 1.6 1.5 3 1.5h34.6c1.5 0 2.5-0.7 2.4-1.5-0.2-0.9-1.5-1.6-2.9-1.6z"/>
							<path id="&lt;Path&gt;" class="s8" d="m393.9 267.6h-49.8c-1.6 0-2.8 0.9-2.5 2.1 0.3 1.1 1.9 2 3.6 2h49.4c1.7 0 2.9-0.9 2.7-2-0.2-1.2-1.7-2.1-3.4-2.1z"/>
							<path id="&lt;Path&gt;" class="s1" d="m391.5 254.5h-69.3c-1.7 0-2.8 1-2.5 2.2 0.4 1.1 2 2.1 3.7 2.1h68.8c1.7 0 3-1 2.7-2.1-0.2-1.2-1.7-2.2-3.4-2.2z"/>
							<path id="&lt;Path&gt;" class="s1" d="m413.8 376.3h-57.4c-1.4 0-2.4 0.6-2.1 1.4 0.2 0.8 1.5 1.5 2.9 1.5h57.1c1.4 0 2.5-0.7 2.3-1.5-0.1-0.8-1.4-1.4-2.8-1.4z"/>
							<path id="&lt;Path&gt;" class="s8" d="m419.6 284.7h13l-0.7-4.9h-13z"/>
							<path id="&lt;Path&gt;" class="s8" d="m421.4 296.7h12.8l-0.7-4.7h-12.8z"/>
							<path id="&lt;Path&gt;" class="s8" d="m423.2 308.3h12.5l-0.6-4.6h-12.6z"/>
							<path id="&lt;Path&gt;" class="s8" d="m424.9 319.6h12.3l-0.6-4.5h-12.4z"/>
							<path id="&lt;Path&gt;" class="s8" d="m426.5 330.4h12.1l-0.6-4.3h-12.1z"/>
							<path id="&lt;Path&gt;" class="s8" d="m428.1 340.9h11.8l-0.5-4.2h-12z"/>
							<path id="&lt;Path&gt;" class="s8" d="m429.6 351h11.7l-0.5-4h-11.8z"/>
							<path id="&lt;Path&gt;" class="s8" d="m431.1 360.8h11.5l-0.5-3.9h-11.6z"/>
							<path id="&lt;Path&gt;" class="s8" d="m432.5 370.3h11.3l-0.5-3.7h-11.4z"/>
							<path id="&lt;Path&gt;" class="s8" d="m417.8 272.2h13.1l-0.6-5.1h-13.3z"/>
							<path id="&lt;Path&gt;" class="s8" d="m415.8 259.3h13.4l-0.7-5.3h-13.5z"/>
							<path id="&lt;Path&gt;" class="s8" d="m433.9 379.5h11.1l-0.5-3.6h-11.2z"/>
							<path id="&lt;Path&gt;" class="s1" d="m502.1 358.9c0-0.9 1.1-1.6 2.6-1.6h191.6c1.5 0 2.5 0.7 2.2 1.6-0.2 0.8-1.6 1.5-3.1 1.5h-190.6c-1.5 0-2.7-0.7-2.7-1.5z"/>
							<path id="&lt;Path&gt;" class="s1" d="m698.3 350.6h-106.2c-1.4 0-2.6-0.7-2.5-1.6 0.1-0.9 1.4-1.6 2.9-1.6h106.7c1.5 0 2.5 0.7 2.2 1.6-0.3 0.9-1.7 1.6-3.1 1.6z"/>
							<path id="&lt;Path&gt;" class="s8" d="m567 350.6h-33c-1.5 0-2.7-0.7-2.7-1.6 0-0.9 1.2-1.6 2.7-1.6h33.2c1.5 0 2.6 0.7 2.6 1.6-0.1 0.9-1.4 1.6-2.8 1.6z"/>
							<path id="&lt;Path&gt;" class="s1" d="m635.8 340.5h-149.6c-1.5 0-2.8-0.8-2.9-1.7 0-0.9 1.2-1.7 2.7-1.7h150.5c1.5 0 2.6 0.8 2.4 1.7-0.2 0.9-1.5 1.7-3.1 1.7z"/>
							<path id="&lt;Path&gt;" class="s8" d="m454.9 337.1h10.6c1.5 0 2.8 0.8 2.9 1.7 0.1 0.9-1.1 1.7-2.6 1.7h-10.6c-1.5 0-2.8-0.8-2.9-1.7-0.1-0.9 1.1-1.7 2.6-1.7z"/>
							<path id="&lt;Path&gt;" class="s1" d="m657.5 328.3c-0.2 0.9-1.6 1.7-3.1 1.7h-141.1c-1.5 0-2.8-0.8-2.8-1.7 0-1 1.2-1.8 2.8-1.8h141.8c1.5 0 2.6 0.8 2.4 1.8z"/>
							<path id="&lt;Path&gt;" class="s1" d="m453.7 326.5h40.1c1.5 0 2.8 0.8 2.8 1.8 0.1 0.9-1.2 1.7-2.7 1.7h-39.8c-1.5 0-2.8-0.8-3-1.7-0.1-1 1.1-1.8 2.6-1.8z"/>
							<path id="&lt;Path&gt;" class="s1" d="m452.6 315.6h153.8c1.6 0 2.8 0.8 2.6 1.7-0.1 1-1.5 1.8-3 1.8h-153.1c-1.5 0-2.9-0.8-3-1.8-0.1-0.9 1.1-1.7 2.7-1.7z"/>
							<path id="&lt;Path&gt;" class="s1" d="m552.5 307.9c-1.6 0-2.9-0.8-2.8-1.9 0-1 1.3-1.8 2.9-1.8h81.2c1.6 0 2.8 0.8 2.6 1.8-0.2 1.1-1.6 1.9-3.2 1.9z"/>
							<path id="&lt;Path&gt;" class="s1" d="m451.4 304.2h70.2c1.6 0 2.9 0.8 2.9 1.8 0 1.1-1.3 1.9-2.9 1.9h-69.8c-1.6 0-3-0.8-3.1-1.9-0.1-1 1.1-1.8 2.7-1.8z"/>
							<path id="&lt;Path&gt;" class="s1" d="m713.9 296.3h-193.5c-1.6 0-2.9-0.9-2.9-1.9 0-1.1 1.3-2 2.9-2h194.5c1.7 0 2.7 0.9 2.4 2-0.3 1-1.8 1.9-3.4 1.9z"/>
							<path id="&lt;Path&gt;" class="s1" d="m717.3 284.2h-170.2c-1.6 0-2.9-0.9-2.9-2 0.1-1.1 1.4-1.9 3.1-1.9h171.1c1.7 0 2.8 0.8 2.4 1.9-0.3 1.1-1.9 2-3.5 2z"/>
							<path id="&lt;Path&gt;" class="s8" d="m720.9 271.7h-35.6c-1.7 0-2.9-0.9-2.6-2 0.3-1.2 1.8-2.1 3.5-2.1h35.9c1.6 0 2.7 0.9 2.4 2.1-0.3 1.1-1.9 2-3.6 2z"/>
							<path id="&lt;Path&gt;" class="s1" d="m660.3 271.7h-130.8c-1.7 0-3.1-0.9-3-2 0-1.2 1.3-2.1 3-2.1h131.6c1.7 0 2.9 0.9 2.7 2.1-0.3 1.1-1.8 2-3.5 2z"/>
							<path id="&lt;Path&gt;" class="s1" d="m458 366.9h120.9c1.4 0 2.5 0.7 2.4 1.6 0 0.8-1.3 1.5-2.7 1.5h-120.2c-1.5 0-2.7-0.7-2.8-1.5-0.1-0.9 1-1.6 2.4-1.6z"/>
							<path id="&lt;Path&gt;" class="s1" d="m459 376.3h185.7c1.4 0 2.4 0.6 2.3 1.4-0.2 0.8-1.5 1.5-2.9 1.5h-184.7c-1.5 0-2.7-0.7-2.8-1.5-0.1-0.8 1-1.4 2.4-1.4z"/>
							<path id="&lt;Path&gt;" class="s1" d="m653.8 258.8h-94.5c-1.7 0-3-1-3-2.1 0.1-1.2 1.5-2.2 3.2-2.2h95.1c1.7 0 2.9 1 2.7 2.2-0.2 1.1-1.8 2.1-3.5 2.1z"/>
							<path id="&lt;Path&gt;" class="s8" d="m532.5 258.8h-86c-1.7 0-3.2-1-3.3-2.1-0.1-1.2 1.1-2.2 2.9-2.2h86.5c1.7 0 3 1 3 2.2 0 1.1-1.4 2.1-3.1 2.1z"/>
							<path id="&lt;Path&gt;" class="s8" d="m605.7 366.9c1.4 0 2.5 0.7 2.4 1.6-0.1 0.8-1.4 1.5-2.8 1.5h-9.4c-1.4 0-2.5-0.7-2.4-1.5 0.1-0.9 1.4-1.6 2.8-1.6z"/>
							<path id="&lt;Path&gt;" class="s8" d="m491.1 358.9c0 0.8-1.1 1.5-2.6 1.5h-12.7c-1.5 0-2.7-0.7-2.8-1.5 0-0.9 1.1-1.6 2.6-1.6h12.7c1.5 0 2.7 0.7 2.8 1.6z"/>
							<path id="&lt;Path&gt;" class="s8" d="m644.6 317.3c-0.2 1-1.6 1.8-3.2 1.8h-14.8c-1.6 0-2.7-0.8-2.6-1.8 0.2-0.9 1.6-1.7 3.1-1.7h15c1.6 0 2.7 0.8 2.5 1.7z"/>
							<path id="&lt;Path&gt;" class="s8" d="m691 326.5c1.5 0 2.6 0.8 2.3 1.8-0.2 0.9-1.7 1.7-3.2 1.7h-11.9c-1.5 0-2.5-0.8-2.3-1.7 0.2-1 1.6-1.8 3.2-1.8z"/>
							<path id="&lt;Path&gt;" class="s8" d="m497 296.3c-1.6 0-2.9-0.9-3-1.9 0-1.1 1.3-2 2.9-2h12.6c1.6 0 2.9 0.9 3 2 0 1-1.3 1.9-2.9 1.9z"/>
						</g>
					</g>
					<g id="&lt;Group&gt;">
						<path id="&lt;Path&gt;" class="s1" d="m325.1 234.7c1 3.3-0.9 5.9-4.2 5.9-3.3 0-6.8-2.6-7.8-5.9-1.1-3.3 0.7-6.1 4.1-6.1 3.4 0 7 2.8 7.9 6.1z"/>
						<path id="&lt;Path&gt;" class="s1" d="m341.4 234.8c0.9 3.2-1.1 5.9-4.4 5.9-3.3 0-6.7-2.7-7.7-5.9-0.9-3.3 1-6.1 4.4-6.1 3.4 0 6.8 2.8 7.7 6.1z"/>
						<path id="&lt;Path&gt;" class="s1" d="m357.9 234.7c0.8 3.3-1.3 5.9-4.6 5.9-3.3 0-6.7-2.6-7.5-5.9-0.9-3.3 1.2-6.1 4.6-6.1 3.3 0 6.7 2.8 7.5 6.1z"/>
					</g>
				</g>
				<g id="&lt;Group&gt;">
					<path id="&lt;Path&gt;" class="s15" d="m200.8 212.9l53.9 144 65-144z"/>
					<path id="&lt;Path&gt;" class="s15" d="m291.7 397.9l107.9-185h112.9l-158.8 185z"/>
					<path id="&lt;Path&gt;" class="s15" d="m561.1 212l-168.1 185.9h25.9l174.1-185z"/>
					<path id="&lt;Path&gt;" class="s15" d="m594.3 397.9l184.8-185h26.1l-190.5 185z"/>
				</g>
			</g>
		</g>
	</g>
	<g id="Code">
		<g id="&lt;Group&gt;">
			<g id="&lt;Group&gt;">
				<g id="&lt;Group&gt;">
					<g id="&lt;Group&gt;">
						<path id="&lt;Path&gt;" class="s11" d="m343.8 478.1h-42.2c-5.5 0-9.9 4.5-9.9 10v20.5c0 5.5 4.4 9.9 9.9 9.9h11l8.4 18.9 11.8-18.9h11c5.5 0 9.9-4.4 9.9-9.9v-20.5c0-5.5-4.4-10-9.9-10z"/>
					</g>
				</g>
				<g id="&lt;Group&gt;">
					<path id="&lt;Compound Path&gt;" class="s7" d="m316.8 489.9c0-1.1 0.9-2 2.1-2 1.2 0 2.1 0.8 2.1 1.9 0 1.1-0.9 2-2.1 2-1.2 0-2.1-0.8-2.1-1.9zm0.5 4.2h3.2v13.7h-3.2z"/>
					<path id="&lt;Compound Path&gt;" class="s7" d="m328.2 493.3v0.9h3.8v2.5h-3.6v11.1h-3.3v-11.1h-2.2v-2.5h2.2v-0.9c0-2.9 1.8-4.8 4.9-4.8 1.2 0 2.2 0.3 3 0.8l-0.9 2.4c-0.5-0.3-1.2-0.6-1.8-0.6q-2 0-2.1 2.2z"/>
				</g>
			</g>
			<g id="&lt;Group&gt;">
				<g id="&lt;Group&gt;">
					<g id="&lt;Group&gt;">
						<path id="&lt;Path&gt;" class="s11" d="m472.2 481h-42.2c-5.4 0-9.9 4.4-9.9 9.9v20.6c0 5.4 4.5 9.9 9.9 9.9h11.1l8.3 18.9 11.8-18.9h11c5.5 0 10-4.5 10-9.9v-20.6c0-5.5-4.5-9.9-10-9.9z"/>
					</g>
				</g>
				<g id="&lt;Group&gt;">
					<path id="&lt;Compound Path&gt;" fill-rule="evenodd" class="s7" d="m438.9 504.8h-10.8c0.4 2 2.1 3.3 4.5 3.3 1.5 0 2.7-0.5 3.7-1.5l1.7 2c-1.2 1.5-3.1 2.2-5.5 2.2-4.6 0-7.6-2.9-7.6-7 0-4.1 3-7 7.1-7 4 0 7 2.8 7 7.1 0 0.2-0.1 0.6-0.1 0.9zm-10.8-2.1h7.8c-0.3-2-1.8-3.3-3.9-3.3-2.1 0-3.6 1.3-3.9 3.3z"/>
					<path id="&lt;Compound Path&gt;" class="s7" d="m442 491.6h3.3v19.1h-3.3z"/>
					<path id="&lt;Compound Path&gt;" class="s7" d="m447.9 509.3l1.2-2.4c1.2 0.8 3.1 1.3 4.8 1.3 2 0 2.9-0.5 2.9-1.5 0-2.6-8.5-0.2-8.5-5.6 0-2.6 2.3-4.3 6-4.3 1.9 0 3.9 0.4 5.2 1.2l-1.3 2.4c-1.3-0.8-2.6-1-3.9-1-1.9 0-2.9 0.6-2.9 1.5 0 2.8 8.5 0.3 8.5 5.7 0 2.6-2.3 4.2-6.2 4.2-2.3 0-4.6-0.6-5.8-1.5z"/>
					<path id="&lt;Compound Path&gt;" fill-rule="evenodd" class="s7" d="m475.5 504.8h-10.7c0.4 2 2 3.3 4.4 3.3 1.6 0 2.8-0.5 3.7-1.5l1.8 2c-1.3 1.5-3.2 2.2-5.6 2.2-4.6 0-7.5-2.9-7.5-7 0-4.1 3-7 7-7 4.1 0 7 2.8 7 7.1 0 0.2 0 0.6-0.1 0.9zm-10.8-2.1h7.8c-0.2-2-1.7-3.3-3.9-3.3-2 0-3.6 1.3-3.9 3.3z"/>
				</g>
			</g>
			<g id="&lt;Group&gt;">
				<g id="&lt;Group&gt;">
					<g id="&lt;Group&gt;">
						<path id="&lt;Path&gt;" class="s11" d="m596.8 479.8h-42.2c-5.5 0-10 4.4-10 9.9v20.5c0 5.5 4.5 10 10 10h11l8.3 18.9 11.8-18.9h11.1c5.4 0 9.9-4.5 9.9-10v-20.5c0-5.5-4.5-9.9-9.9-9.9z"/>
					</g>
				</g>
				<g id="&lt;Group&gt;">
					<path id="&lt;Compound Path&gt;" class="s7" d="m564.2 495v0.8h3.8v2.6h-3.7v11h-3.2v-11h-2.2v-2.6h2.2v-0.8c0-2.9 1.8-4.8 4.9-4.8 1.1 0 2.2 0.2 2.9 0.7l-0.9 2.5c-0.4-0.4-1.1-0.6-1.7-0.6q-2 0-2.1 2.2z"/>
					<path id="&lt;Compound Path&gt;" fill-rule="evenodd" class="s7" d="m568.8 502.6c0-4.1 3.1-7 7.3-7 4.3 0 7.4 2.9 7.4 7 0 4.1-3.1 7-7.4 7-4.2 0-7.3-2.9-7.3-7zm11.4 0c0-2.6-1.7-4.3-4.1-4.3-2.3 0-4 1.7-4 4.3 0 2.6 1.7 4.3 4 4.3 2.4 0 4.1-1.7 4.1-4.3z"/>
					<path id="&lt;Compound Path&gt;" class="s7" d="m594.5 495.6v3q-0.4-0.1-0.8-0.1c-2.4 0-4 1.5-4 4.3v6.6h-3.2v-13.7h3.1v2c0.9-1.4 2.6-2.1 4.9-2.1z"/>
				</g>
			</g>
			<g id="&lt;Group&gt;">
				<g id="&lt;Group&gt;">
					<g id="&lt;Group&gt;">
						<path id="&lt;Path&gt;" class="s11" d="m719.5 478.1h-42.2c-5.5 0-9.9 4.5-9.9 10v20.5c0 5.5 4.4 9.9 9.9 9.9h11l8.4 18.9 11.7-18.9h11.1c5.5 0 9.9-4.4 9.9-9.9v-20.5c0-5.5-4.4-10-9.9-10z"/>
					</g>
				</g>
				<g id="&lt;Group&gt;">
					<path id="&lt;Compound Path&gt;" class="s7" d="m692.9 493.4h11.8v2.6h-11.8zm0 6.2h11.8v2.5h-11.8z"/>
				</g>
			</g>
			<g id="&lt;Group&gt;">
				<g id="&lt;Group&gt;">
					<g id="&lt;Group&gt;">
						<path id="&lt;Path&gt;" class="s11" d="m408.1 454.4h-42.2c-5.5 0-9.9 4.4-9.9 9.9v20.5c0 5.5 4.4 9.9 9.9 9.9h11.1l8.3 19 11.8-19h11c5.5 0 9.9-4.4 9.9-9.9v-20.5c0-5.5-4.4-9.9-9.9-9.9z"/>
					</g>
				</g>
				<g id="&lt;Group&gt;">
					<path id="&lt;Compound Path&gt;" class="s7" d="m377.1 462.9h6.1v2.6h-2.9v18.9h2.9v2.6h-6.1z"/>
					<path id="&lt;Compound Path&gt;" class="s7" d="m391.2 487v-2.6h2.9v-18.9h-2.9v-2.6h6.1v24.1z"/>
				</g>
			</g>
			<g id="&lt;Group&gt;">
				<g id="&lt;Group&gt;">
					<g id="&lt;Group&gt;">
						<path id="&lt;Path&gt;" class="s11" d="m533.6 452.3h-42.2c-5.5 0-10 4.4-10 9.9v20.5c0 5.5 4.5 9.9 10 9.9h11l8.4 19 11.7-19h11.1c5.4 0 9.9-4.4 9.9-9.9v-20.5c0-5.5-4.5-9.9-9.9-9.9z"/>
					</g>
				</g>
				<g id="&lt;Group&gt;">
					<path id="&lt;Compound Path&gt;" class="s7" d="m503.9 472.8c1 0.3 1.5 1 1.5 2.6v4.9c0 1.2 0.6 1.9 1.9 1.9h0.5v2.6h-1.3c-2.9 0-4.3-1.5-4.3-4.2v-5.3c0-0.9-0.5-1.2-1.2-1.2h-0.8v-2.7h0.8c0.7 0 1.2-0.3 1.2-1.2v-5.3c0-2.7 1.4-4.2 4.3-4.2h1.3v2.6h-0.5c-1.3 0-1.9 0.7-1.9 1.9v4.9c0 1.6-0.5 2.3-1.5 2.6z"/>
					<path id="&lt;Compound Path&gt;" class="s7" d="m523.5 471.4v2.7h-0.9c-0.7 0-1.1 0.3-1.1 1.2v5.3c0 2.7-1.5 4.2-4.4 4.2h-1.3v-2.6h0.5c1.3 0 2-0.7 2-1.9v-4.9c0-1.6 0.4-2.3 1.4-2.6-1-0.4-1.4-1.1-1.4-2.7v-4.9c0-1.2-0.7-1.9-2-1.9h-0.5v-2.6h1.3c2.9 0 4.4 1.5 4.4 4.2v5.3c0 0.9 0.4 1.2 1.1 1.2z"/>
				</g>
			</g>
			<g id="&lt;Group&gt;">
				<g id="&lt;Group&gt;">
					<g id="&lt;Group&gt;">
						<path id="&lt;Path&gt;" class="s11" d="m657.7 448.1h-42.2c-5.5 0-9.9 4.5-9.9 9.9v20.6c0 5.4 4.4 9.9 9.9 9.9h11l8.4 18.9 11.7-18.9h11.1c5.4 0 9.9-4.5 9.9-9.9v-20.6c0-5.4-4.5-9.9-9.9-9.9z"/>
					</g>
				</g>
				<g id="&lt;Group&gt;">
					<path id="&lt;Compound Path&gt;" class="s7" d="m634.9 463.3c0-1.3 0.9-2.1 2.1-2.1 1.2 0 2.1 0.8 2.1 2.1 0 1.2-0.9 2.1-2.1 2.1-1.2 0-2.1-0.9-2.1-2.1zm4.2 9.8c0 0.6-0.1 1-0.6 2.2l-1.3 3.6h-2.1l1.1-3.9c-0.8-0.3-1.3-1-1.3-1.9 0-1.3 0.9-2.1 2.1-2.1 1.2 0 2.1 0.8 2.1 2.1z"/>
				</g>
			</g>
			<g id="&lt;Group&gt;">
				<g id="&lt;Group&gt;">
					<g id="&lt;Group&gt;">
						<path id="&lt;Path&gt;" class="s11" d="m492.7 807h42.2c5.5 0 9.9-4.4 9.9-9.9v-20.5c0-5.5-4.4-10-9.9-10h-11l-3.2-18.9-17 18.9h-11c-5.5 0-9.9 4.5-9.9 10v20.5c0 5.5 4.4 9.9 9.9 9.9z"/>
					</g>
				</g>
				<g id="&lt;Group&gt;">
					<path id="&lt;Compound Path&gt;" class="s7" d="m507.5 782.6l-8.8 3.3 8.8 3.3v2.7l-11.8-4.6v-2.8l11.8-4.6z"/>
					<path id="&lt;Compound Path&gt;" class="s7" d="m516.9 773.3h2.9l-8.5 24.2h-2.9z"/>
					<path id="&lt;Compound Path&gt;" class="s7" d="m532.2 784.5v2.8l-11.8 4.6v-2.7l8.8-3.3-8.8-3.3v-2.7z"/>
				</g>
			</g>
			<g id="&lt;Group&gt;">
				<g id="&lt;Group&gt;">
					<g id="&lt;Group&gt;">
						<g id="&lt;Group&gt;">
							<path id="&lt;Path&gt;" class="s11" d="m224.5 657.5h42.2c5.4 0 9.9-4.4 9.9-9.9v-20.5c0-5.5-4.5-10-9.9-10h-11.1l2.4-18.9-22.5 18.9h-11c-5.5 0-9.9 4.5-9.9 10v20.5c0 5.5 4.4 9.9 9.9 9.9z"/>
						</g>
					</g>
				</g>
				<g id="&lt;Group&gt;">
					<path id="&lt;Compound Path&gt;" class="s7" d="m237 644.5c0-1.1 0.9-2 2.1-2 1.1 0 2 0.9 2 2 0 1.1-0.9 2-2 2-1.2 0-2.1-0.9-2.1-2zm0.2-16.2h3.8l-0.7 12.1h-2.5z"/>
					<path id="&lt;Compound Path&gt;" class="s7" d="m244.3 632.9h11.8v2.6h-11.8zm0 6.2h11.8v2.6h-11.8z"/>
				</g>
			</g>
		</g>
	</g>
	<g id="Mouse">
		<g id="&lt;Group&gt;">
			<g id="&lt;Group&gt;">
				<g id="&lt;Group&gt;">
					<g id="&lt;Clip Group&gt;" clip-path="url(#cp3)">
						<g id="&lt;Group&gt;">
							<path id="&lt;Path&gt;" class="s0" d="m882.9 634.8c1.7 24.7-2.5 49.6-9.7 73.4 17.9-14.7 26.1-37.8 33.6-59.7 5.4-15.9 10.8-32.3 9.9-49-1-16.8-10-34.3-25.7-40.1-7.7-2.9-16.7-2.7-24.3 0.4-13.2 5.3-5.9 9.5-0.4 19 9.9 17 15.2 36.5 16.6 56z"/>
							<path id="&lt;Path&gt;" class="s8" d="m882.9 634.8c1.7 24.7-2.5 49.6-9.7 73.4 17.9-14.7 26.1-37.8 33.6-59.7 5.4-15.9 10.8-32.3 9.9-49-1-16.8-10-34.3-25.7-40.1-7.7-2.9-16.7-2.7-24.3 0.4-13.2 5.3-5.9 9.5-0.4 19 9.9 17 15.2 36.5 16.6 56z"/>
						</g>
						<path id="&lt;Path&gt;" class="s4" d="m900.1 634.2c0 8.3-0.7 16.3-2 23.8-5.8 34.6-24 59.8-45.5 59.8-1.9 0-3.9-0.2-5.7-0.6-23.5-5-41.7-40.2-41.7-83 0-46.1 21.2-62.5 47.4-62.5 26.2 0 47.5 16.4 47.5 62.5z"/>
					</g>
					<g id="&lt;Group&gt;">
						<path id="&lt;Path&gt;" class="s4" d="m878.1 676.7c-3.2 10.7-8.4 20.7-15.6 29.2"/>
						<path id="&lt;Path&gt;" class="s9" d="m879.6 670.9q-0.4 1.7-0.8 3.4"/>
						<path id="&lt;Path&gt;" class="s4" d="m879.5 634.1c2.5 10.7 2.8 21.8 0.9 32.6"/>
					</g>
					<path id="&lt;Path&gt;" class="s9" d="m805.1 634.2c0 0 54-21.3 95 0"/>
					<path id="&lt;Path&gt;" class="s4" d="m852.6 571.7c0 0 5.4 20 6 52.6"/>
					<path id="&lt;Path&gt;" class="s14" d="m860.1 596.1c0.7 6.2-0.4 11.5-2.4 11.8-2 0.3-4.2-4.5-4.9-10.7-0.7-6.2 0.4-11.5 2.4-11.8 2-0.3 4.2 4.5 4.9 10.7z"/>
				</g>
			</g>
			<path id="&lt;Path&gt;" class="s9" d="m831.3 733.8h-63.2c-7.9 0-14.4-5.8-15.4-13.4-0.1-0.7-0.2-1.4-0.2-2.1v-149.2q0-1.1 0.2-2.2c1-7.6 7.5-13.4 15.4-13.4h179.4c2.7 0 5.3 0.7 7.5 1.9"/>
		</g>
	</g>
</svg>