<svg version="1.2" xmlns="http://www.w3.org/2000/svg" viewBox="0 0 1000 1000" width="1000" height="1000">
	<title>11436094_4707120-ai</title>
	<style>
		tspan { white-space:pre } 
		.s0 { fill: #f5f5f5 } 
		.s1 { fill: #e6e6e6 } 
		.s2 { fill: #ba68c8 } 
		.s3 { opacity: .4;fill: #000000 } 
		.s4 { fill: #ffffff } 
		.s5 { fill: #37474f } 
		.s6 { fill: #455a64 } 
		.s7 { fill: #263238 } 
		.s8 { fill: #e0e0e0 } 
		.s9 { opacity: .2;fill: #000000 } 
		.s10 { fill: #fafafa } 
		.s11 { fill: #ebebeb } 
		.s12 { opacity: .5;fill: #000000 } 
		.s13 { opacity: .6;fill: #000000 } 
		.s14 { opacity: .7;fill: #000000 } 
		.s15 { fill: #ffa8a7 } 
		.s16 { fill: #f28f8f } 
		.s17 { fill: #f0f0f0 } 
		.s18 { fill: none;stroke: #ffffff;stroke-miterlimit:10;stroke-width: 2.3 } 
		.s19 { opacity: .3;fill: #000000 } 
		.t20 { font-size: 26px;fill: #fafafa;font-weight: 700;font-family: "Montserrat-Bold", "Montserrat" } 
	</style>
	<g id="Floor">
		<path id="&lt;Path&gt;" class="s0" d="m814.7 535.3c173.8 100.3 173.8 263 0 363.4-173.8 100.3-455.6 100.3-629.4 0-173.8-100.4-173.8-263.1 0-363.4 173.8-100.3 455.6-100.3 629.4 0z"/>
	</g>
	<g id="Shadows">
		<path id="&lt;Path&gt;" class="s1" d="m226 719.4c19.2 11.1 19.2 29.1 0 40.2-19.2 11.1-50.4 11.1-69.7 0-19.2-11.1-19.2-29.1 0-40.2 19.3-11.1 50.5-11.1 69.7 0z"/>
		<path id="&lt;Path&gt;" class="s1" d="m570.5 587.1l-323.7 186.9c-5.4 3.1-5.4 10.8 0 13.9l190.2 109.9c9.8 5.6 21.8 5.6 31.5 0l323.8-186.9c5.3-3.1 5.3-10.9 0-14l-190.3-109.8c-9.8-5.7-21.7-5.7-31.5 0z"/>
		<path id="&lt;Path&gt;" class="s1" d="m473.3 588.9l-129.6 74.8c-11.4 6.6-11.4 23.1 0 29.7l65.3 37.6c8.7 5.1 19.6 5.1 28.4 0l129.6-74.8c11.4-6.6 11.4-23 0-29.6l-65.3-37.7c-8.8-5.1-19.6-5.1-28.4 0z"/>
	</g>
	<g id="Plant">
		<g id="&lt;Group&gt;">
			<g id="&lt;Group&gt;">
				<path id="&lt;Path&gt;" class="s2" d="m193.8 665.9c0 0-30.5-29.7-13.2-79.5 9.7-27.9 41.9-48.4 60.2-50.3 0 0-9.9 11.4-14.3 24.1l-23.1 15.3 21.3-6.6-4.6 18.2c0 0-19.7 11.9-22.6 14.5l21.3-5.6c0 0-1.7 51.4-25 69.9z"/>
				<path id="&lt;Path&gt;" class="s3" d="m193.8 665.9c0 0-30.5-29.7-13.2-79.5 9.7-27.9 41.9-48.4 60.2-50.3 0 0-9.9 11.4-14.3 24.1l-23.1 15.3 21.3-6.6-4.6 18.2c0 0-19.7 11.9-22.6 14.5l21.3-5.6c0 0-1.7 51.4-25 69.9z"/>
				<path id="&lt;Path&gt;" class="s4" d="m193.8 665.9c0 0-15.8-62.2 7.5-98.5 0 0-27.3 32-7.5 98.5z"/>
			</g>
			<path id="&lt;Path&gt;" class="s5" d="m228.6 674.3l-37.3-0.4h-0.1-0.2l-37.3 0.4c0 0-0.4 45.9 13.7 64.6 3.9 5 13.1 8.4 23.8 8.4 10.6 0 19.8-3.5 23.7-8.4 14.1-18.7 13.7-64.6 13.7-64.6z"/>
			<path id="&lt;Path&gt;" class="s6" d="m228.6 674.3c0 11.1-16.8 20.1-37.4 20.1-20.7 0-37.5-9-37.5-20.1 0-11.1 16.8-20.1 37.5-20.1 20.6 0 37.4 9 37.4 20.1z"/>
			<g id="&lt;Group&gt;">
				<path id="&lt;Path&gt;" class="s7" d="m191.2 669c12.8 0 23.7 4.1 27.6 9.9 0.9-1.5 1.5-3 1.5-4.6 0-7.9-13.1-14.3-29.1-14.3-16.1 0-29.2 6.4-29.2 14.3 0 1.6 0.6 3.1 1.5 4.6 3.9-5.8 14.8-9.9 27.7-9.9z"/>
				<g id="&lt;Group&gt;">
					<path id="&lt;Path&gt;" class="s8" d="m191.2 669c-12.9 0-23.8 4.1-27.7 9.9 3.9 5.7 14.8 9.8 27.7 9.8 12.8 0 23.7-4.1 27.6-9.8-3.9-5.8-14.8-9.9-27.6-9.9z"/>
				</g>
			</g>
			<g id="&lt;Group&gt;">
				<path id="&lt;Path&gt;" class="s2" d="m191.6 681.3c0 0-14.4-0.5-26.8-19.7-5.1-7.9-7.6-12-7.6-12l20.1-1.5-22.5-5.7-10.6-16.2 18.7-1.4c0 0-13.9-4.9-23.9-5 0 0-17.2-30.4-22.3-34.8 0 0 39.8 0.3 68.2 33.9 28.3 33.5 10.9 63.3 6.7 62.4z"/>
				<path id="&lt;Path&gt;" class="s4" d="m191.6 681.3c0 0 9-54.3-48.5-87 0 0 59.7 28.7 48.5 87z"/>
			</g>
			<g id="&lt;Group&gt;">
				<path id="&lt;Path&gt;" class="s2" d="m191.6 681.3c0 0 13.1 0.9 26.1-15.2 5.3-6.7 7.9-10.2 7.9-10.2l-18-3.2 20.9-3 11.1-13.7-16.7-3c0 0 13-3.1 22-2.2 0 0 18.4-25.9 23.4-29.3 0 0-36-3.5-64.7 24.1-28.7 27.6-15.9 56.1-12 55.7z"/>
				<path id="&lt;Path&gt;" class="s9" d="m191.6 681.3c0 0 13.1 0.9 26.1-15.2 5.3-6.7 7.9-10.2 7.9-10.2l-18-3.2 20.9-3 11.1-13.7-16.7-3c0 0 13-3.1 22-2.2 0 0 18.4-25.9 23.4-29.3 0 0-36-3.5-64.7 24.1-28.7 27.6-15.9 56.1-12 55.7z"/>
				<path id="&lt;Path&gt;" class="s4" d="m191.6 681.3c0 0-3-49.8 52-73.9 0 0-56.6 20.3-52 73.9z"/>
			</g>
		</g>
	</g>
	<g id="Pictures">
		<g id="&lt;Group&gt;">
			<path id="&lt;Path&gt;" class="s10" d="m257.8 238.8v99.4l-86 49.6v-99.3z"/>
			<path id="&lt;Compound Path&gt;" fill-rule="evenodd" class="s8" d="m257.8 238.8v99.4l-86 49.6-4.7-2.7v-99.3l86.1-49.7zm-86.1 49.7v88.6l76.7-44.3v-88.6z"/>
			<path id="&lt;Compound Path&gt;" fill-rule="evenodd" class="s11" d="m257.8 338.2l-86 49.6v-99.3l86-49.7zm-81.4-47v88.6l76.8-44.3v-88.6z"/>
			<g id="&lt;Group&gt;">
				<path id="&lt;Path&gt;" class="s8" d="m245.2 315.4l-65.1 37.6 19.2-50 13.3 15.8 13.7-19.4z"/>
				<path id="&lt;Path&gt;" class="s8" d="m222.6 284.2c0 3.8-2.7 8.4-5.9 10.3-3.3 1.9-6 0.4-6-3.4 0-3.8 2.7-8.4 6-10.3 3.2-1.9 5.9-0.4 5.9 3.4z"/>
			</g>
		</g>
		<g id="&lt;Group&gt;">
			<path id="&lt;Path&gt;" class="s10" d="m286.5 115.1v79.1l-68.5 39.6v-79.1z"/>
			<path id="&lt;Compound Path&gt;" fill-rule="evenodd" class="s8" d="m286.5 115.1v79.1l-68.5 39.6-3.7-2.1v-79.2l68.5-39.6zm-68.5 39.6v70.6l61.1-35.3v-70.6z"/>
			<path id="&lt;Compound Path&gt;" fill-rule="evenodd" class="s11" d="m286.5 194.2l-68.5 39.6v-79.1l68.5-39.6zm-64.8-37.4v70.5l61.1-35.3v-70.5z"/>
			<g id="&lt;Group&gt;">
				<path id="&lt;Path&gt;" class="s8" d="m276.5 176.1l-51.9 30 15.3-39.9 10.6 12.6 10.9-15.4z"/>
				<path id="&lt;Path&gt;" class="s8" d="m258.5 151.3c0 3-2.1 6.7-4.8 8.2-2.6 1.5-4.7 0.2-4.7-2.8 0-3 2.1-6.7 4.7-8.2 2.7-1.5 4.8-0.2 4.8 2.8z"/>
			</g>
		</g>
	</g>
	<g id="Character">
		<g id="&lt;Group&gt;">
			<g id="&lt;Group&gt;">
				<g id="&lt;Group&gt;">
					<path id="&lt;Path&gt;" class="s7" d="m432.3 572.7l27.8 169.7c0.4 2.6 2.7 4.5 5.3 4.5 3.1 0 5.6-2.8 5.2-5.9l-19.5-175.2z"/>
					<path id="&lt;Path&gt;" class="s7" d="m528.3 515.6l27.9 169.7c0.4 2.6 2.6 4.5 5.2 4.5 3.2 0 5.6-2.8 5.3-5.9l-19.6-175.2z"/>
					<path id="&lt;Path&gt;" class="s7" d="m389.6 533l-27.5 146.3c-0.3 2.1-2.2 3.6-4.3 3.6-2.8 0-4.8-2.4-4.5-5.1l20.3-135.6z"/>
					<path id="&lt;Path&gt;" class="s7" d="m486.7 478.4l-27.3 145.4c-0.4 2.1-2.2 3.6-4.4 3.6-2.7 0-4.8-2.4-4.4-5.1l20.1-134.7z"/>
					<path id="&lt;Path&gt;" class="s2" d="m478.8 467.3c-12.8-5.7-21.6-17.8-23-31.7-4.4-44.6-20.1-136.4-73.3-105.8-65.6 37.7-42.1 147.2-32.6 182.3 2.2 8 6.3 15.2 12.1 21 11.9 12 36.4 32.5 78.2 50 5.1 2.2 10.8 2.5 16.1 1 20.8-5.9 74.9-24 102-58.6 3.1-4.1 2.5-10-1.6-13.2-10.9-8.7-35.7-26.2-77.9-45z"/>
					<path id="&lt;Path&gt;" class="s12" d="m478.8 467.3c-12.8-5.7-21.6-17.8-23-31.7-4.4-44.6-20.1-136.4-73.3-105.8-65.6 37.7-42.1 147.2-32.6 182.3 2.2 8 6.3 15.2 12.1 21 11.9 12 36.4 32.5 78.2 50 5.1 2.2 10.8 2.5 16.1 1 20.8-5.9 74.9-24 102-58.6 3.1-4.1 2.5-10-1.6-13.2-10.9-8.7-35.7-26.2-77.9-45z"/>
					<path id="&lt;Path&gt;" class="s2" d="m560.2 519.2c0.1 2.2-0.5 4.4-1.9 6.3q-2.2 2.8-4.6 5.4 0 0 0 0-1.3 1.4-2.7 2.8 0 0.1 0 0.1-1.4 1.4-2.8 2.7 0 0-0.1 0.1-1.4 1.3-2.8 2.6 0 0-0.1 0.1-1.4 1.3-3 2.5 0 0.1 0 0.1c-15.3 12.8-33.9 22.6-50.5 29.7q-0.1 0-0.1 0-1.5 0.7-3.1 1.3-0.1 0.1-0.3 0.1-1.4 0.6-2.8 1.2-0.3 0.1-0.5 0.2-1.4 0.5-2.7 1-0.3 0.1-0.6 0.3-1.2 0.4-2.4 0.9-0.4 0.1-0.7 0.2-1.2 0.5-2.3 0.9-0.4 0.1-0.8 0.3-1.1 0.4-2.1 0.7-0.5 0.2-0.9 0.3-1 0.4-1.9 0.7-0.5 0.1-1 0.3-0.9 0.3-1.7 0.6-0.6 0.2-1 0.3-0.8 0.3-1.6 0.5-0.6 0.2-1.1 0.4-0.7 0.2-1.4 0.4-0.5 0.2-1.1 0.3-0.6 0.2-1.2 0.4-0.7 0.2-1.4 0.4-0.3 0.1-0.7 0.2-1 0.3-2 0.6c-5.3 1.5-11 1.2-16.1-1-41.8-17.5-66.3-38-78.2-50-5.8-5.8-9.9-13-12.1-21-9.5-35.1-33-144.6 32.6-182.3q1.8-1 3.5-1.8 0.3-0.2 0.7-0.4 1.7-0.8 3.3-1.4 0.1-0.1 0.3-0.1 1.5-0.6 3-1 0.3-0.1 0.5-0.2 1.6-0.4 3.2-0.7 0.1 0 0.3-0.1 3.2-0.5 6.2-0.4 0.1 0 0.2 0 3.1 0.1 5.9 0.9 0 0 0 0c-10.5-4.6-23.3-4.4-35.9 2.9-65.7 37.7-42.2 147.3-32.6 182.4l1.6 6c3.2 12.2 10.4 23 20.5 30.6l17 13c13.8 10.6 33.3 23 59.9 34.1 5.1 2.2 10.8 2.6 16.2 1 20.7-5.9 74.9-24 102-58.6 1.2-1.5 1.8-3.3 1.9-5.1v-11.7z"/>
					<path id="&lt;Path&gt;" class="s13" d="m560.2 519.2c0.1 2.2-0.5 4.4-1.9 6.3q-2.2 2.8-4.6 5.4 0 0 0 0-1.3 1.4-2.7 2.8 0 0.1 0 0.1-1.4 1.4-2.8 2.7 0 0-0.1 0.1-1.4 1.3-2.8 2.6 0 0-0.1 0.1-1.4 1.3-3 2.5 0 0.1 0 0.1c-15.3 12.8-33.9 22.6-50.5 29.7q-0.1 0-0.1 0-1.5 0.7-3.1 1.3-0.1 0.1-0.3 0.1-1.4 0.6-2.8 1.2-0.3 0.1-0.5 0.2-1.4 0.5-2.7 1-0.3 0.1-0.6 0.3-1.2 0.4-2.4 0.9-0.4 0.1-0.7 0.2-1.2 0.5-2.3 0.9-0.4 0.1-0.8 0.3-1.1 0.4-2.1 0.7-0.5 0.2-0.9 0.3-1 0.4-1.9 0.7-0.5 0.1-1 0.3-0.9 0.3-1.7 0.6-0.6 0.2-1 0.3-0.8 0.3-1.6 0.5-0.6 0.2-1.1 0.4-0.7 0.2-1.4 0.4-0.5 0.2-1.1 0.3-0.6 0.2-1.2 0.4-0.7 0.2-1.4 0.4-0.3 0.1-0.7 0.2-1 0.3-2 0.6c-5.3 1.5-11 1.2-16.1-1-41.8-17.5-66.3-38-78.2-50-5.8-5.8-9.9-13-12.1-21-9.5-35.1-33-144.6 32.6-182.3q1.8-1 3.5-1.8 0.3-0.2 0.7-0.4 1.7-0.8 3.3-1.4 0.1-0.1 0.3-0.1 1.5-0.6 3-1 0.3-0.1 0.5-0.2 1.6-0.4 3.2-0.7 0.1 0 0.3-0.1 3.2-0.5 6.2-0.4 0.1 0 0.2 0 3.1 0.1 5.9 0.9 0 0 0 0c-10.5-4.6-23.3-4.4-35.9 2.9-65.7 37.7-42.2 147.3-32.6 182.4l1.6 6c3.2 12.2 10.4 23 20.5 30.6l17 13c13.8 10.6 33.3 23 59.9 34.1 5.1 2.2 10.8 2.6 16.2 1 20.7-5.9 74.9-24 102-58.6 1.2-1.5 1.8-3.3 1.9-5.1v-11.7z"/>
				</g>
				<g id="&lt;Group&gt;">
					<g id="&lt;Group&gt;">
						<path id="&lt;Path&gt;" class="s2" d="m596.4 644.6c-4.5-28.6-10.2-74.3-13.5-101.3q-0.3-2.7-0.9-5.3c-3.3-15.1-13.1-27.9-26.4-35.8l-67.3-40-45.7-24.1c0 0-12.2 35.3 1.9 56.8 11.8 17.9 63.7 40.2 79.2 47.7 15.4 7.5 15.7 9.5 15.4 19.5-0.3 10-0.3 22.8 18.6 62.8 5.5 11.4 9.3 20 11.9 26.6 6.6 0.6 16.4-0.2 26.8-6.9z"/>
						<path id="&lt;Path&gt;" class="s14" d="m596.4 644.6c-4.5-28.6-10.2-74.3-13.5-101.3q-0.5-4-1.5-7.9c-3.8-13.9-13.3-25.7-25.7-33.1l-67.4-40.1-45.7-24.1c0 0-12.2 35.3 1.9 56.8 11.8 17.9 63.7 40.2 79.2 47.7 15.4 7.5 15.7 9.5 15.4 19.5-0.3 10-0.3 22.8 18.6 62.8 5.5 11.4 9.3 20 11.9 26.6 6.6 0.6 16.4-0.2 26.8-6.9z"/>
						<path id="&lt;Path&gt;" class="s15" d="m575.6 674.8c0 1.2 0.2 2.4 0.8 3.4 1.3 2.3 4.1 6.7 10.1 12.1 9.1 8.1 39.2 40.2 49.7 20.3 0 0-31-29.8-35.1-42-1.2-3.5-2.8-12.3-4.7-24-10.4 6.7-20.2 7.5-26.8 6.9 5.8 14.5 6.1 19.2 6 23.3z"/>
						<g id="&lt;Group&gt;">
							<path id="&lt;Path&gt;" class="s6" d="m607.9 672.9l-0.8-2.6c-0.7-2-2.9-3.1-4.9-2.5l-12.6 3.9c-1.6 0.5-2.7 2-2.7 3.7v1.2c0 1.3-1 2.3-2.2 2.3-2.7 0-5.3-0.9-7.3-2.6l-1.8-1.5v-4.4c-2.3 1.5-3.6 4.1-3.5 6.9 0.2 3 0.3 6.6 0.2 8.1-0.2 2.6-2.7 13.6 0.3 16.9 2.9 3.2 9.5 3.6 17.7 2.7 8.1-0.9 17 7.2 24.6 10.1 7.6 3 38.9 9.4 38.8-10.6 0-5.1-5.1-7.2-10-9-5-1.8-22.8-8.1-27.4-11.9-2.1-1.7-3.9-3.5-5.1-5-1.5-1.7-2.6-3.6-3.3-5.7z"/>
							<g id="&lt;Group&gt;">
								<path id="&lt;Path&gt;" class="s7" d="m614.9 715.1c-7.6-2.9-16.5-11-24.6-10.1-8.2 0.9-14.8 0.5-17.7-2.7-0.9-1-1.3-2.7-1.4-4.7-0.2 3.1 0.1 6.1 1.4 7.5 2.9 3.3 9.5 3.7 17.7 2.8 8.1-0.9 17 7.1 24.6 10.1 7.6 3 38.9 9.4 38.8-10.6 0-0.3-0.1-0.6-0.1-0.9-2 17.6-31.4 11.5-38.7 8.6z"/>
							</g>
						</g>
					</g>
					<g id="&lt;Group&gt;">
						<path id="&lt;Path&gt;" class="s2" d="m535.3 679.2c-4.5-28.5-10.2-74.2-13.5-101.2-1.8-14.2-8.8-27.2-19.7-36.5l-80.8-68.7-43.1-0.7c0 0-8.9 36 5.2 57.5 11.8 17.9 63.7 40.2 79.1 47.7 15.4 7.4 15.8 9.5 15.4 19.5-0.3 10-0.3 22.8 18.7 62.7 5.4 11.5 9.2 20.1 11.9 26.7 6.6 0.6 16.4-0.2 26.8-7z"/>
						<path id="&lt;Path&gt;" class="s14" d="m535.3 679.2c-4.5-28.5-10.2-74.2-13.5-101.2-1.8-14.2-8.8-27.2-19.7-36.5l-80.8-68.7-43.1-0.7c0 0-8.9 36 5.2 57.5 11.8 17.9 63.7 40.2 79.1 47.7 15.4 7.4 15.8 9.5 15.4 19.5-0.3 10-0.3 22.8 18.7 62.7 5.4 11.5 9.2 20.1 11.9 26.7 6.6 0.6 16.4-0.2 26.8-7z"/>
						<path id="&lt;Path&gt;" class="s15" d="m514.4 706.9c0 1.2-0.8 4.8 0.9 6 2.1 1.6 4.1 6.6 10.1 12.1 9.1 8.1 18.6-9.5 14.5-21.7-1.2-3.5-2.8-12.3-4.6-24.1-10.4 6.8-20.2 7.6-26.8 7 5.8 14.5 6 16.6 5.9 20.7z"/>
					</g>
				</g>
				<g id="&lt;Group&gt;">
					<path id="&lt;Path&gt;" class="s15" d="m461 323c12.8-1.9 25.2 5.5 29.3 17.8 2.4 7.3 4.6 16.3 5.4 26.4 2.4 27.7 3 41.5 3 41.5l27.8 12.7c0 0-15 0.7-14 21.9l-34.6-8.7z"/>
					<path id="&lt;Path&gt;" class="s2" d="m499.7 392c-4.1-30-5.7-45.7-9.2-53.1-5.5-11.7-16.7-17.8-29.5-15.9l10.5 82.4 1.4-0.1c9.2-0.9 18-4.8 24.9-11z"/>
					<path id="&lt;Path&gt;" class="s9" d="m499.7 392c-4.1-30-5.7-45.7-9.2-53.1-5.5-11.7-16.7-17.8-29.5-15.9l10.5 82.4 1.4-0.1c9.2-0.9 18-4.8 24.9-11z"/>
					<path id="&lt;Path&gt;" class="s16" d="m498.7 408.7c0 0-5.3 1.6-8.2 5.1 0 0 3.3-6.4 8-8.4z"/>
				</g>
				<path id="&lt;Path&gt;" class="s2" d="m394.2 347.3l31.1-15 25.7-8.9c0 0 20.5-6.5 25.8 20.8 4.3 22.5 4.9 108.1 4.9 108.1l-0.5 9.3c0 0-11.9 33.2-54.2 36-42.4 2.7-50.7-15.1-50.7-15.1 0 0-4.3-113.2 17.9-135.2z"/>
				<path id="&lt;Path&gt;" class="s7" d="m492.3 255.9c0 0 9.6 24.7-3.7 35.5-13.3 10.9-8.7-32.7-8.7-32.7z"/>
				<g id="&lt;Group&gt;">
					<g id="&lt;Group&gt;">
						<path id="&lt;Path&gt;" class="s6" d="m468.8 890.8c-3 1.8-7.9 1.8-10.9 0-3-1.7-3-4.5 0-6.3 3-1.7 7.9-1.7 10.9 0 3 1.8 3 4.6 0 6.3z"/>
						<path id="&lt;Path&gt;" class="s5" d="m471.1 701.6h-15.4v185.9h15.4z"/>
					</g>
					<g id="&lt;Group&gt;">
						<path id="&lt;Path&gt;" class="s6" d="m293.2 787.7c-3 1.7-7.9 1.7-10.9 0-3-1.7-3-4.6 0-6.3 3-1.8 7.9-1.8 10.9 0 3 1.7 3 4.6 0 6.3z"/>
						<path id="&lt;Path&gt;" class="s7" d="m295.5 598.5h-15.5v185.9h15.5z"/>
					</g>
					<g id="&lt;Group&gt;">
						<path id="&lt;Path&gt;" class="s6" d="m756.7 724c-3 1.8-7.9 1.8-10.9 0-3-1.7-3-4.5 0-6.3 3-1.7 7.9-1.7 10.9 0 3 1.8 3 4.6 0 6.3z"/>
						<path id="&lt;Path&gt;" class="s5" d="m759 534.8h-15.4v185.9h15.4z"/>
					</g>
					<g id="&lt;Group&gt;">
						<path id="&lt;Path&gt;" class="s6" d="m567.9 583.3c-2.7 1.6-7.1 1.6-9.8 0-2.7-1.5-2.7-4.1 0-5.6 2.7-1.6 7.1-1.6 9.8 0 2.7 1.5 2.7 4.1 0 5.6z"/>
						<path id="&lt;Path&gt;" class="s6" d="m570 425.2h-13.9v155.1h13.9z"/>
					</g>
					<g id="&lt;Group&gt;">
						<path id="&lt;Path&gt;" class="s7" d="m280 567.7v36.9l183.4 105.9v-37z"/>
						<path id="&lt;Path&gt;" class="s5" d="m759 502.9l-295.6 170.6v37l295.6-170.7z"/>
						<path id="&lt;Path&gt;" class="s6" d="m575.6 397l-295.6 170.7 183.4 105.8 295.6-170.6z"/>
					</g>
				</g>
				<path id="&lt;Path&gt;" class="s11" d="m427.3 512.2l67.3 38.8 111.7-64.7-67.2-39.6z"/>
				<path id="&lt;Path&gt;" class="s8" d="m487.3 501.1l25.2-14.6-15.8-9.1-25.2 14.6z"/>
				<path id="&lt;Path&gt;" class="s8" d="m497.4 541.3l-34-20 66.4-40.2z"/>
				<g id="&lt;Group&gt;">
					<path id="&lt;Path&gt;" class="s15" d="m516.4 416.6l26.9 12.6c10.8 2.5 23.8 7.3 23.8 7.3 0 0 18.7 7.7 19.6 12.7 0.8 5-14.1 17.1-27.2 11.2-2.6-1.2-7.4-3.6-10.9-3.9-3.5-0.4-13.9-2.1-21.5-9.3l-31.4-8.1c0 0-1.5-19.4 20.7-22.5z"/>
					<path id="&lt;Path&gt;" class="s15" d="m533.9 454.1c3.1 3.3 11.9 11.7 13.9 14.2 1.9 2.4 6.5-3.8-1.5-13.2 0 0-10.7-3.7-19.4-10.5 0 0 3.8 6.2 7 9.5z"/>
				</g>
				<g id="&lt;Group&gt;">
					<g id="&lt;Group&gt;">
						<g id="&lt;Group&gt;">
							<path id="&lt;Path&gt;" class="s15" d="m425.3 332.3h32v-38.7h-32z"/>
						</g>
					</g>
					<path id="&lt;Path&gt;" class="s16" d="m457.3 332.3c-11.3-4.4-23.1-13.1-29.4-27.9v-10.8h29.4z"/>
					<path id="&lt;Path&gt;" class="s15" d="m468 242.6c0 0 29 3.5 22.4 53.1-3.1 23-9.2 34.6-26.9 32.6-20.1-2.2-47.8-17.8-43.5-57.1 4.3-39.3 48-28.6 48-28.6z"/>
					<path id="&lt;Path&gt;" class="s16" d="m469.6 286.8l-1 17.2 10.2-2.5z"/>
					<g id="&lt;Group&gt;">
						<path id="&lt;Path&gt;" class="s7" d="m454.4 285.3c-0.1 1.9 1.4 3.6 3.3 3.7 1.9 0.1 3.6-1.3 3.7-3.3 0.1-1.9-1.3-3.6-3.3-3.7-1.9-0.1-3.6 1.4-3.7 3.3z"/>
						<path id="&lt;Path&gt;" class="s7" d="m477.5 284.3c-0.1 1.9 1.4 3.6 3.3 3.7 1.9 0.1 3.6-1.4 3.7-3.3 0.1-1.9-1.3-3.6-3.3-3.7-1.9-0.1-3.6 1.3-3.7 3.3z"/>
						<path id="&lt;Path&gt;" class="s7" d="m485.7 277.5l-6.6-4.5c0 0 2.8-2.6 5.3-0.8 2.5 1.8 1.3 5.3 1.3 5.3z"/>
						<path id="&lt;Path&gt;" class="s7" d="m456.8 276.7l-7.1 3.6c0 0-0.8-3.7 1.9-5 2.8-1.3 5.2 1.4 5.2 1.4z"/>
					</g>
					<path id="&lt;Path&gt;" class="s16" d="m469.1 310.9c0 0-6.7 0.2-11.1-3.7 0 0-1.1 5.9 3.8 7.3 4.9 1.5 7.3-3.6 7.3-3.6z"/>
					<path id="&lt;Path&gt;" class="s7" d="m425 286.4c0 0 4.4 9.3 7.2 9 2.7-0.3 0-35.6 5.7-35.8 5.8-0.2 32.7 13.2 56.6-4.1 9.2-6.7 11-23.6 5.5-22-5.5 1.6-12.9 6.4-22.9 5.7-10.1-0.7-45.1-17-53.8 5.9 0 0-19.5-1.5-12.2 37 1.9 9.6 7.6 33.3 14.2 35.6z"/>
					<path id="&lt;Path&gt;" class="s15" d="m426.6 294.9c0-2.9-0.4-5.8-1.6-8.5-1.4-2.9-3.7-5.9-7.8-6-9-0.3-10.2 8.4-10.1 11.4 0.4 8.1 6.9 16.8 19.1 17.2z"/>
				</g>
				<path id="&lt;Path&gt;" class="s15" d="m429.3 467.8l22.9 18.1c0 0 7.2 0.7 11.6 2.1 4.4 1.3 15.9 5.5 18.9 6.1 3 0.7-0.9 5.9-8.8 4 0 0 16.6 11.5 16.4 16.5-0.2 5.1-17.3 13.8-28.9 5.3-2.3-1.7-6.5-5.1-9.8-6.2-3.4-1.1-13.2-4.9-19.1-13.5l-20-10.5c0 0-5.6-23.5 16.8-21.9z"/>
				<g id="&lt;Group&gt;">
					<path id="&lt;Path&gt;" class="s15" d="m404.4 342.4c0 0 13.3 10.4 5.1 42.5-8.2 32.1-12.6 59.8-12.6 59.8l32.4 23.1c0 0-13.7 4.9-16.8 21.9 0 0-51.1-20-52.1-32.9-1-12.9 10.7-68.7 12.4-79 1.8-10.3 10.9-30.5 31.6-35.4z"/>
					<path id="&lt;Path&gt;" class="s16" d="m396.9 444.7c0 0-6.6-1.4-12.2 0.2 0 0 5-3.1 12.5-3.1z"/>
				</g>
				<path id="&lt;Path&gt;" class="s10" d="m621.9 412.3l-11.7 76.5q0 0 0 0.1l-116.2 67.3c-0.1 0.1-0.2 0-0.2-0.1l11.3-74.2c0.5-3.2 2.4-6.1 5.1-7.8l106.6-65.3c2.4-1.5 5.6 0.6 5.1 3.5z"/>
				<path id="&lt;Path&gt;" class="s8" d="m494 556.2l-62-35.9c-2.9-1.7-4.7-4.8-4.7-8.1l67.3 38.8z"/>
				<path id="&lt;Path&gt;" class="s8" d="m554.7 486c0 5.5 3.9 7.7 8.6 4.9 4.7-2.7 8.6-9.3 8.6-14.8 0-5.5-3.9-7.7-8.6-5-4.7 2.8-8.6 9.4-8.6 14.9z"/>
				<path id="&lt;Path&gt;" class="s7" d="m426.3 256.4c0 0-5.2-7.8-2-10.3 3.2-2.5 5.7 5.5 2 10.3z"/>
				<path id="&lt;Path&gt;" class="s7" d="m427.2 258c0 0-9.3-1.1-9.1-5.2 0.2-4.1 7.9-0.7 9.1 5.2z"/>
				<path id="&lt;Path&gt;" class="s15" d="m425.3 332.3c0 0 6.9 18 22.7 15.7 15.8-2.3 9.3-15.7 9.3-15.7z"/>
				<path id="&lt;Path&gt;" class="s2" d="m404.4 342.4c0 0 10.4 5 8.8 25.9-1.6 21-9.9 63.1-9.9 63.1 0 0-37.2 15.1-40.8-6.2-0.9-5.5 8.5-56.3 16.5-67.1 8-10.8 17.1-14.2 25.4-15.7z"/>
				<path id="&lt;Path&gt;" class="s9" d="m404.4 342.4c0 0 10.4 5 8.8 25.9-1.6 21-9.9 63.1-9.9 63.1 0 0-37.2 15.1-40.8-6.2-0.9-5.5 8.5-56.3 16.5-67.1 8-10.8 17.1-14.2 25.4-15.7z"/>
				<g id="&lt;Group&gt;">
					<path id="&lt;Path&gt;" class="s6" d="m515.3 708c0 0 2.3 3.6 6 4.2 2.3 0.4-2.3-5.5 3.2-7.9 5.4-2.3 17.9-5.5 19-0.9l1.4 5.9c1.3 5.5 3.9 10.6 7.7 14.9 3.7 4.2 8.5 9.3 12.3 11.8 7.1 4.5 18.8 15.6 3.8 25.1-15 9.4-33.5 1.5-37.1-9.3-3.6-10.7-7.4-13.8-9.4-15.6-1.9-1.8-6.4-4.6-8.1-11.9-1.1-4.7-1.7-10.7-2-14.4-0.2-1.9 0.8-3.9 2.5-4.9z"/>
					<path id="&lt;Path&gt;" class="s7" d="m568.7 761.1c-15 9.4-33.5 1.5-37.1-9.3-3.6-10.7-7.4-13.8-9.4-15.6-1.7-1.6-5.5-4.1-7.5-9.8q0.1 0.5 0.1 0.9c0.6 9.3 6.3 11.5 8.2 13.3 2 1.8 5.1 4.7 8.7 15.5 3.6 10.7 22.7 17.4 37.7 8 7.3-4.6 8.3-9.6 6.5-14 0.3 3.6-1.5 7.4-7.2 11z"/>
				</g>
			</g>
			<g id="&lt;Group&gt;">
				<g id="&lt;Group&gt;">
					<path id="&lt;Path&gt;" class="s2" d="m496.5 618.3l-47.8 27.7-60.4-34.9 47.9-27.7c1.3-0.7 2.9-0.7 4.1 0l56.2 32.4c1 0.6 1 2 0 2.5z"/>
					<path id="&lt;Path&gt;" class="s14" d="m496.5 618.3l-47.8 27.7-60.4-34.9 47.9-27.7c1.3-0.7 2.9-0.7 4.1 0l56.2 32.4c1 0.6 1 2 0 2.5z"/>
					<g id="&lt;Group&gt;">
						<path id="&lt;Path&gt;" class="s4" d="m493.2 617.3l-44.5 25.7-56.2-32.4 44.6-25.8c1.2-0.7 2.6-0.7 3.8 0l52.3 30.2c0.9 0.5 0.9 1.8 0 2.3z"/>
						<path id="&lt;Path&gt;" class="s4" d="m448.7 643v-5l45.2-26.1v4.3z"/>
					</g>
					<path id="&lt;Path&gt;" class="s8" d="m448.7 643v-5l-56.2-32.4v5z"/>
					<path id="&lt;Path&gt;" class="s2" d="m496.5 610.4l-47.8 27.6-60.4-34.9 47.9-27.6c1.3-0.8 2.9-0.8 4.1 0l56.2 32.4c1 0.6 1 1.9 0 2.5z"/>
					<path id="&lt;Path&gt;" class="s12" d="m496.5 610.4l-47.8 27.6-60.4-34.9 47.9-27.6c1.3-0.8 2.9-0.8 4.1 0l56.2 32.4c1 0.6 1 1.9 0 2.5z"/>
					<g id="&lt;Group&gt;">
						<path id="&lt;Path&gt;" class="s4" d="m442.4 642.3c-0.3 0.2-0.6 0.2-0.9 0-0.3-0.2-0.5-0.6-0.5-1v-4.5c0-2.1 1.1-4 2.9-5.1l0.1-0.1c0.3-0.1 0.5 0 0.6 0 0.1 0.1 0.2 0.2 0.2 0.5 0 0.5 0.5 0.9 1 0.9 0.5 0 0.9-0.4 0.9-0.9 0-0.9-0.4-1.7-1.2-2.1-0.8-0.5-1.7-0.5-2.4 0l-0.2 0.1c-2.4 1.4-3.8 4-3.8 6.7v4.5c0 1.1 0.6 2.1 1.5 2.7q0.7 0.3 1.4 0.3c0.6 0 1.2-0.2 1.7-0.5q0.3-0.2 0.4-0.5z"/>
						<path id="&lt;Path&gt;" class="s4" d="m433.5 637.2c-0.3 0.1-0.6 0.1-0.9-0.1-0.4-0.2-0.6-0.5-0.6-0.9v-4.6c0-2 1.1-4 2.9-5.1l0.2-0.1c0.2-0.1 0.5 0 0.5 0 0.1 0.1 0.3 0.2 0.3 0.5 0 0.5 0.4 1 0.9 1 0.6 0 1-0.5 1-1 0-0.9-0.5-1.7-1.2-2.1-0.8-0.4-1.7-0.4-2.5 0l-0.1 0.1c-2.4 1.4-3.9 4-3.9 6.7v4.6c0 1.1 0.6 2.1 1.6 2.6q0.7 0.3 1.4 0.3c0.6 0 1.2-0.1 1.7-0.5q0.2-0.2 0.3-0.5z"/>
						<path id="&lt;Path&gt;" class="s4" d="m424.5 632c-0.2 0.1-0.6 0.1-0.8 0-0.4-0.2-0.6-0.6-0.6-1v-4.5c0-2.1 1.1-4 2.9-5.1l0.2-0.1c0.2-0.2 0.4-0.1 0.5 0 0.1 0 0.3 0.2 0.3 0.4 0 0.6 0.4 1 0.9 1 0.5 0 0.9-0.4 0.9-1 0-0.8-0.4-1.6-1.2-2-0.7-0.5-1.6-0.5-2.4 0l-0.2 0.1c-2.3 1.4-3.8 3.9-3.8 6.7v4.5c0 1.1 0.6 2.1 1.6 2.6q0.6 0.4 1.4 0.4c0.5 0 1.1-0.2 1.6-0.5q0.3-0.2 0.4-0.5z"/>
						<path id="&lt;Path&gt;" class="s4" d="m415.6 626.9c-0.3 0.1-0.6 0.1-0.9-0.1-0.3-0.2-0.6-0.5-0.6-0.9v-4.6c0-2.1 1.2-4 2.9-5.1l0.2-0.1c0.3-0.1 0.5 0 0.6 0 0 0.1 0.2 0.2 0.2 0.5 0 0.5 0.4 0.9 1 0.9 0.5 0 0.9-0.4 0.9-0.9 0-0.9-0.5-1.7-1.2-2.1-0.8-0.4-1.7-0.4-2.4 0l-0.2 0.1c-2.4 1.4-3.8 4-3.8 6.7v4.6c0 1.1 0.6 2.1 1.5 2.6q0.7 0.3 1.4 0.3c0.6 0 1.2-0.1 1.7-0.5q0.3-0.2 0.3-0.5z"/>
						<path id="&lt;Path&gt;" class="s4" d="m406.7 621.7c-0.3 0.1-0.6 0.1-0.9 0-0.4-0.2-0.6-0.6-0.6-1v-4.5c0-2.1 1.1-4.1 2.9-5.1l0.2-0.1c0.2-0.2 0.4-0.1 0.5 0 0.1 0 0.3 0.1 0.3 0.4 0 0.5 0.4 1 0.9 1 0.5 0 1-0.5 1-1 0-0.8-0.5-1.6-1.3-2.1-0.7-0.4-1.6-0.4-2.4 0l-0.2 0.2c-2.3 1.3-3.8 3.9-3.8 6.7v4.5c0 1.1 0.6 2.1 1.6 2.6q0.7 0.4 1.4 0.4c0.6 0 1.1-0.2 1.6-0.5q0.3-0.2 0.4-0.6z"/>
						<path id="&lt;Path&gt;" class="s4" d="m397.7 616.5c-0.3 0.2-0.6 0.1-0.9 0-0.3-0.2-0.5-0.6-0.5-1v-4.5c0-2.1 1.1-4 2.9-5.1l0.1-0.1c0.3-0.1 0.5 0 0.6 0 0.1 0 0.2 0.2 0.2 0.5 0 0.5 0.5 0.9 1 0.9 0.5 0 0.9-0.4 0.9-0.9 0-0.9-0.4-1.7-1.2-2.1-0.8-0.5-1.7-0.5-2.4 0l-0.2 0.1c-2.4 1.4-3.8 4-3.8 6.7v4.5c0 1.1 0.6 2.1 1.5 2.7q0.7 0.3 1.4 0.3c0.6 0 1.2-0.2 1.7-0.5q0.3-0.2 0.4-0.5z"/>
					</g>
				</g>
				<path id="&lt;Path&gt;" class="s1" d="m502.7 597.9l-51.7 29.9-67.4-38.9 51.8-29.9z"/>
				<g id="&lt;Group&gt;">
					<path id="&lt;Path&gt;" class="s10" d="m505.7 596.9l-54.1 25.5-63.8-44.4 54-25.4z"/>
				</g>
			</g>
			<g id="&lt;Group&gt;">
				<path id="&lt;Path&gt;" class="s2" d="m385 517.5h-21.9-22l3.9 46.5h0.1c0.2 2.4 1.9 4.9 5.2 6.8 7 4 18.5 4 25.5 0 3.3-1.9 5-4.4 5.3-6.8z"/>
				<g id="&lt;Group&gt;">
					<path id="&lt;Path&gt;" class="s8" d="m387.8 515v-3.7h-0.9c-1-2.4-3.2-4.6-6.3-6.4-9.7-5.6-25.4-5.6-35 0-3.2 1.8-5.3 4-6.4 6.4h-0.9v3.7c0 3.6 2.4 7.3 7.3 10.1 9.6 5.6 25.3 5.6 35 0 4.8-2.8 7.2-6.5 7.2-10.1z"/>
					<path id="&lt;Path&gt;" class="s11" d="m380.6 521.6c-9.7 5.6-25.4 5.6-35 0-9.7-5.6-9.7-14.6 0-20.2 9.6-5.6 25.3-5.6 35 0 9.6 5.6 9.6 14.6 0 20.2z"/>
					<path id="&lt;Path&gt;" class="s8" d="m382.9 510v-3h-0.7c-0.9-1.9-2.6-3.6-5.1-5.1-7.8-4.5-20.3-4.5-28.1 0-2.5 1.5-4.2 3.2-5.1 5.1h-0.7v3c0 2.9 2 5.9 5.8 8.1 7.8 4.5 20.3 4.5 28.1 0 3.9-2.3 5.8-5.2 5.8-8.1z"/>
					<path id="&lt;Path&gt;" class="s0" d="m377.1 515.3c-7.8 4.5-20.3 4.5-28.1 0-7.7-4.5-7.7-11.7 0-16.2 7.8-4.5 20.3-4.5 28.1 0 7.7 4.5 7.7 11.7 0 16.2z"/>
					<path id="&lt;Path&gt;" class="s17" d="m373.8 512.9c-5.9 3.5-15.6 3.5-21.5 0-5.8-3.3-6-8.6-0.6-12.1q0.3-0.2 0.6-0.3c1.2-0.8 2.6-1.3 4.1-1.8 5.7-1.5 12.7-1 17.4 1.8 6 3.4 6 9 0 12.4z"/>
					<path id="&lt;Path&gt;" class="s8" d="m352.3 502.2c5.9-3.4 15.6-3.4 21.6 0 2.5 1.5 4 3.4 4.3 5.4 0.5-2.6-1-5.2-4.3-7.1-6-3.5-15.7-3.5-21.6 0-3.4 1.9-4.9 4.5-4.4 7.1 0.3-2 1.8-3.9 4.4-5.4z"/>
					<path id="&lt;Path&gt;" class="s8" d="m360.4 502.8l-4.4 2.8-4.3-3.1v-1.7q0.3-0.2 0.6-0.3c1.2-0.8 2.6-1.3 4.1-1.8v1.3z"/>
				</g>
			</g>
		</g>
	</g>
	<g id="Screen">
		<path id="&lt;Path&gt;" class="s18" d=""/>
		<g id="&lt;Group&gt;">
			<g id="&lt;Group&gt;">
				<g id="&lt;Group&gt;">
					<path id="&lt;Path&gt;" class="s2" d="m881.7 229.9l-248.9-143.7c-2.9-1.7-5.5-1.6-7.3-0.1l-8.6 6 5.9 7.3v200.7c0 7.4 4.5 15.9 10 19.1l246.5 142.3 0.4 7.9 9.1-6.3c1.8-1.3 2.9-4 2.9-7.7v-206.4c0-7.4-4.5-15.9-10-19.1z"/>
					<path id="&lt;Path&gt;" class="s19" d="m881.7 229.9l-248.9-143.7c-2.9-1.7-5.5-1.6-7.3-0.1l-8.6 6 5.9 7.3v200.7c0 7.4 4.5 15.9 10 19.1l246.5 142.3 0.4 7.9 9.1-6.3c1.8-1.3 2.9-4 2.9-7.7v-206.4c0-7.4-4.5-15.9-10-19.1z"/>
					<path id="&lt;Path&gt;" class="s2" d="m873.2 468.8l-248.9-143.7c-5.5-3.2-10-11.8-10-19.1v-206.5c0-7.3 4.5-10.7 10-7.5l248.9 143.7c5.6 3.2 10 11.8 10 19.1v206.4c0 7.4-4.4 10.8-10 7.6z"/>
					<path id="&lt;Path&gt;" class="s2" d="m873.2 468.8l-248.9-143.7c-5.5-3.2-10-11.8-10-19.1v-206.5c0-7.3 4.5-10.7 10-7.5l248.9 143.7c5.6 3.2 10 11.8 10 19.1v206.4c0 7.4-4.4 10.8-10 7.6z"/>
					<path id="&lt;Path&gt;" class="s6" d="m873.2 235.7l-248.9-143.7c-5.5-3.2-10 0.2-10 7.5v10.1l268.9 155.3v-10.1c0-7.3-4.4-15.9-10-19.1z"/>
					<path id="&lt;Compound Path&gt;" fill-rule="evenodd" class="s2" d="m624.3 92l248.9 143.7c5.6 3.2 10 11.8 10 19.1v206.4c0 5.5-2.4 8.8-6 8.8-1.2 0-2.5-0.4-4-1.2l-248.9-143.7c-5.5-3.2-10-11.8-10-19.1v-206.5c0-5.4 2.5-8.7 6-8.7 1.2 0 2.6 0.4 4 1.2zm-8 7.5v206.5c0 6.6 4.1 14.5 9 17.3l248.9 143.8q1.7 0.9 3 0.9c2.5 0 4-2.7 4-6.8v-206.4c0-6.6-4.1-14.5-9-17.3l-248.9-143.8c-1.1-0.6-2.1-0.9-3-0.9-2.4 0-4 2.6-4 6.7z"/>
				</g>
			</g>
			<g id="&lt;Group&gt;">
				<path id="&lt;Path&gt;" class="s4" d="m729.7 200.1q-0.5 0-1-0.3l-94.8-54.7c-1-0.6-1.4-1.9-0.8-2.9 0.6-1 1.9-1.4 2.9-0.8l94.8 54.7c1 0.6 1.3 1.9 0.7 2.9-0.3 0.7-1.1 1.1-1.8 1.1z"/>
				<path id="&lt;Path&gt;" class="s4" d="m863.1 277.1q-0.6 0-1.1-0.3l-70.2-40.5c-1-0.6-1.4-1.9-0.8-2.9 0.6-1 1.9-1.4 2.9-0.8l70.2 40.5c1 0.6 1.4 1.9 0.8 2.9-0.4 0.7-1.1 1.1-1.8 1.1z"/>
				<path id="&lt;Path&gt;" class="s4" d="m777.6 227.8q-0.5 0-1-0.3l-28.5-16.5c-1-0.6-1.4-1.9-0.8-2.9 0.6-1 1.9-1.3 2.9-0.8l28.5 16.5c1 0.6 1.4 1.9 0.8 2.9-0.4 0.7-1.1 1.1-1.9 1.1z"/>
				<path id="&lt;Path&gt;" class="s4" d="m729.7 332.8q-0.5 0-1-0.3l-94.8-54.7c-1-0.6-1.4-1.9-0.8-2.9 0.6-1 1.9-1.3 2.9-0.7l94.8 54.7c1 0.6 1.3 1.8 0.7 2.9-0.3 0.6-1.1 1-1.8 1z"/>
				<path id="&lt;Path&gt;" class="s4" d="m863.1 409.8q-0.6 0-1.1-0.3l-70.2-40.5c-1-0.6-1.4-1.9-0.8-2.9 0.6-1 1.9-1.4 2.9-0.8l70.2 40.6c1 0.5 1.4 1.8 0.8 2.8-0.4 0.7-1.1 1.1-1.8 1.1z"/>
				<path id="&lt;Path&gt;" class="s4" d="m777.6 360.5q-0.5 0-1-0.3l-28.5-16.5c-1-0.5-1.4-1.8-0.8-2.9 0.6-1 1.9-1.3 2.9-0.7l28.5 16.4c1 0.6 1.4 1.9 0.8 2.9-0.4 0.7-1.1 1.1-1.9 1.1z"/>
				<path id="&lt;Path&gt;" class="s4" d="m729.7 364q-0.5 0-1-0.3l-94.8-54.7c-1-0.6-1.4-1.8-0.8-2.9 0.6-1 1.9-1.3 2.9-0.7l94.8 54.7c1 0.6 1.3 1.9 0.7 2.9-0.3 0.6-1.1 1-1.8 1z"/>
				<path id="&lt;Path&gt;" class="s4" d="m833.2 423.8q-0.6 0-1.1-0.3l-40.3-23.3c-1-0.6-1.4-1.9-0.8-2.9 0.6-1 1.9-1.4 2.9-0.8l40.3 23.3c1.1 0.6 1.4 1.9 0.8 2.9-0.4 0.7-1.1 1.1-1.8 1.1z"/>
				<path id="&lt;Path&gt;" class="s4" d="m777.6 391.7q-0.5 0-1-0.3l-28.5-16.4c-1-0.6-1.4-1.9-0.8-2.9 0.6-1.1 1.9-1.4 2.9-0.8l28.5 16.4c1 0.6 1.4 1.9 0.8 2.9-0.4 0.7-1.1 1.1-1.9 1.1z"/>
				<path id="&lt;Path&gt;" class="s4" d="m682.5 189.3q-0.6 0-1.1-0.3l-47.5-27.4c-1-0.6-1.4-1.9-0.8-2.9 0.6-1 1.9-1.4 2.9-0.8l47.5 27.4c1 0.6 1.4 1.9 0.8 2.9-0.4 0.7-1.1 1.1-1.8 1.1z"/>
				<path id="&lt;Path&gt;" class="s4" d="m819.3 268.3q-0.5 0-1-0.3l-70.2-40.5c-1-0.6-1.4-1.9-0.8-2.9 0.6-1 1.9-1.4 2.9-0.8l70.2 40.6c1 0.5 1.3 1.8 0.8 2.9-0.4 0.6-1.1 1-1.9 1z"/>
				<path id="&lt;Path&gt;" class="s4" d="m730.4 217q-0.6 0-1.1-0.3l-28.5-16.5c-1-0.6-1.4-1.9-0.8-2.9 0.6-1 1.9-1.3 2.9-0.8l28.5 16.5c1 0.6 1.4 1.9 0.8 2.9-0.4 0.7-1.1 1.1-1.8 1.1z"/>
				<path id="&lt;Path&gt;" class="s4" d="m729.7 233.1q-0.5 0-1-0.3l-94.8-54.7c-1-0.6-1.4-1.9-0.8-2.9 0.6-1 1.9-1.4 2.9-0.8l94.8 54.7c1 0.6 1.3 1.9 0.7 2.9-0.3 0.7-1.1 1.1-1.8 1.1z"/>
				<path id="&lt;Path&gt;" class="s4" d="m811.6 280.3q-0.6 0-1.1-0.3l-18.7-10.8c-1-0.5-1.4-1.8-0.8-2.9 0.6-1 1.9-1.3 2.9-0.7l18.7 10.8c1 0.6 1.4 1.9 0.8 2.9-0.4 0.6-1.1 1-1.8 1z"/>
				<path id="&lt;Path&gt;" class="s4" d="m691.8 227.7q-0.5 0-1.1-0.3l-18.7-10.8c-1-0.6-1.3-1.9-0.7-2.9 0.6-1 1.8-1.4 2.9-0.8l18.7 10.8c1 0.6 1.3 1.9 0.7 2.9-0.4 0.7-1.1 1.1-1.8 1.1z"/>
				<path id="&lt;Path&gt;" class="s4" d="m777.6 260.7q-0.5 0-1-0.2l-28.5-16.5c-1-0.6-1.4-1.9-0.8-2.9 0.6-1 1.9-1.4 2.9-0.8l28.5 16.5c1 0.6 1.4 1.9 0.8 2.9-0.4 0.7-1.1 1-1.9 1z"/>
				<path id="&lt;Path&gt;" class="s4" d="m665.3 212.4q-0.5 0-1-0.3l-30.4-17.5c-1-0.6-1.4-1.9-0.8-2.9 0.6-1 1.9-1.4 2.9-0.8l30.4 17.5c1 0.6 1.3 1.9 0.8 2.9-0.4 0.7-1.1 1.1-1.9 1.1z"/>
				<path id="&lt;Path&gt;" class="s4" d="m730.4 249.9q-0.6 0-1.1-0.2l-28.5-16.5c-1-0.6-1.4-1.9-0.8-2.9 0.6-1 1.9-1.4 2.9-0.8l28.5 16.5c1 0.6 1.4 1.9 0.8 2.9-0.4 0.7-1.1 1-1.8 1z"/>
				<path id="&lt;Path&gt;" class="s4" d="m729.7 267.3q-0.5 0-1-0.3l-94.8-54.7c-1-0.6-1.4-1.9-0.8-2.9 0.6-1 1.9-1.4 2.9-0.8l94.8 54.7c1 0.6 1.3 1.9 0.7 2.9-0.3 0.7-1.1 1.1-1.8 1.1z"/>
				<path id="&lt;Path&gt;" class="s4" d="m863.1 344.2q-0.6 0-1.1-0.2l-70.2-40.6c-1-0.6-1.4-1.8-0.8-2.9 0.6-1 1.9-1.3 2.9-0.7l70.2 40.5c1 0.6 1.4 1.9 0.8 2.9-0.4 0.7-1.1 1-1.8 1z"/>
				<path id="&lt;Path&gt;" class="s4" d="m777.6 294.9q-0.5 0-1-0.3l-28.5-16.4c-1-0.6-1.4-1.9-0.8-2.9 0.6-1 1.9-1.4 2.9-0.8l28.5 16.5c1 0.6 1.4 1.9 0.8 2.9-0.4 0.6-1.1 1-1.9 1z"/>
				<path id="&lt;Path&gt;" class="s4" d="m682.5 256.5q-0.6 0-1.1-0.3l-47.5-27.4c-1-0.6-1.4-1.9-0.8-2.9 0.6-1 1.9-1.4 2.9-0.8l47.5 27.4c1 0.6 1.4 1.9 0.8 2.9-0.4 0.7-1.1 1.1-1.8 1.1z"/>
				<path id="&lt;Path&gt;" class="s4" d="m819.3 335.5q-0.5 0-1-0.3l-70.2-40.5c-1-0.6-1.4-1.9-0.8-2.9 0.6-1 1.9-1.4 2.9-0.8l70.2 40.5c1 0.6 1.3 1.9 0.8 2.9-0.4 0.7-1.1 1.1-1.9 1.1z"/>
				<path id="&lt;Path&gt;" class="s4" d="m730.4 284.1q-0.6 0-1.1-0.2l-28.5-16.5c-1-0.6-1.4-1.9-0.8-2.9 0.6-1 1.9-1.4 2.9-0.8l28.5 16.5c1 0.6 1.4 1.9 0.8 2.9-0.4 0.7-1.1 1-1.8 1z"/>
				<path id="&lt;Path&gt;" class="s4" d="m729.7 300.2q-0.5 0-1-0.2l-94.8-54.7c-1-0.6-1.4-1.9-0.8-2.9 0.6-1.1 1.9-1.4 2.9-0.8l94.8 54.7c1 0.6 1.3 1.9 0.7 2.9-0.3 0.7-1.1 1-1.8 1z"/>
				<path id="&lt;Path&gt;" class="s4" d="m811.6 347.5q-0.6 0-1.1-0.3l-18.7-10.8c-1-0.6-1.4-1.9-0.8-2.9 0.6-1 1.9-1.3 2.9-0.7l18.7 10.7c1 0.6 1.4 1.9 0.8 2.9-0.4 0.7-1.1 1.1-1.8 1.1z"/>
				<path id="&lt;Path&gt;" class="s4" d="m691.8 294.9q-0.5 0-1.1-0.3l-18.7-10.8c-1-0.6-1.3-1.9-0.7-2.9 0.6-1 1.8-1.4 2.9-0.8l18.7 10.8c1 0.6 1.3 1.9 0.7 2.9-0.4 0.7-1.1 1.1-1.8 1.1z"/>
				<path id="&lt;Path&gt;" class="s4" d="m777.6 327.9q-0.5 0-1-0.3l-28.5-16.4c-1-0.6-1.4-1.9-0.8-2.9 0.6-1 1.9-1.4 2.9-0.8l28.5 16.5c1 0.5 1.4 1.8 0.8 2.9-0.4 0.6-1.1 1-1.9 1z"/>
				<path id="&lt;Path&gt;" class="s4" d="m665.3 279.6q-0.5 0-1-0.3l-30.4-17.6c-1-0.5-1.4-1.8-0.8-2.9 0.6-1 1.9-1.3 2.9-0.7l30.4 17.5c1 0.6 1.3 1.9 0.8 2.9-0.4 0.7-1.1 1.1-1.9 1.1z"/>
				<path id="&lt;Path&gt;" class="s4" d="m730.4 317.1q-0.6 0-1.1-0.3l-28.5-16.4c-1-0.6-1.4-1.9-0.8-2.9 0.6-1 1.9-1.4 2.9-0.8l28.5 16.5c1 0.6 1.4 1.8 0.8 2.9-0.4 0.6-1.1 1-1.8 1z"/>
				<path id="&lt;Path&gt;" class="s4" d="m691.8 326.5q-0.5 0-1.1-0.3l-18.7-10.8c-1-0.6-1.3-1.9-0.7-2.9 0.6-1 1.8-1.4 2.9-0.8l18.7 10.8c1 0.6 1.3 1.9 0.7 2.9-0.4 0.7-1.1 1.1-1.8 1.1z"/>
				<path id="&lt;Path&gt;" class="s4" d="m665.3 311.2q-0.5 0-1-0.3l-30.4-17.5c-1-0.6-1.4-1.9-0.8-2.9 0.6-1 1.9-1.4 2.9-0.8l30.4 17.5c1 0.6 1.3 1.9 0.8 2.9-0.4 0.7-1.1 1.1-1.9 1.1z"/>
				<path id="&lt;Path&gt;" class="s4" d="m730.4 348.7q-0.6 0-1.1-0.2l-28.5-16.5c-1-0.6-1.4-1.9-0.8-2.9 0.6-1 1.9-1.4 2.9-0.8l28.5 16.5c1 0.6 1.4 1.9 0.8 2.9-0.4 0.7-1.1 1-1.8 1z"/>
			</g>
			<g id="&lt;Group&gt;">
				<g id="&lt;Group&gt;">
					<path id="&lt;Path&gt;" class="s7" d="m653.7 165.7v76.6c0 1.3-0.4 2.1-1.1 2.4h-0.1l-2.9 1.6v-2.6l-0.4-78.9 3.8-1.9c0.5 0.9 0.7 1.8 0.7 2.8z"/>
					<path id="&lt;Path&gt;" class="s5" d="m653 162.9l-3.8 1.9-93-54.5-2.2-1.3 3.1-1.7h0.1c0.4-0.3 1.1-0.3 1.8 0.1l91.9 53c0.9 0.5 1.6 1.4 2.1 2.5z"/>
					<path id="&lt;Path&gt;" class="s6" d="m650.4 167.3v76.2c0 1.1-0.4 1.8-0.9 2.2l-0.2 0.1c-0.4 0.2-1 0.2-1.7-0.2l-91.4-52.7c-1.5-0.9-2.7-3.2-2.7-5.2v-76.2c0-1 0.3-1.8 0.8-2.1q0.1-0.1 0.3-0.2c0.4-0.2 1-0.1 1.6 0.2l91.4 52.7c0.8 0.4 1.6 1.3 2.1 2.4 0.4 0.9 0.7 1.9 0.7 2.8z"/>
					<text id="&lt;/&gt;
" style="transform: matrix(-1.732,-1,0,2,633.901,216.696)" >
						<tspan x="0" y="0" class="t20">&lt;/&gt;
</tspan>
					</text>
				</g>
				<path id="&lt;Compound Path&gt;" fill-rule="evenodd" class="s5" d="m555.9 109.1l91.9 53c0.8 0.5 1.6 1.3 2.1 2.4 0.4 0.9 0.7 1.9 0.7 2.9v76.6c0 1.1-0.4 1.8-0.9 2.2l-0.2 0.1q-0.3 0.1-0.6 0.1-0.5 0-1.1-0.3l-91.9-53c-1.6-0.9-2.8-3.2-2.8-5.3v-76.6c0-1 0.3-1.8 0.8-2.2q0.2-0.1 0.3-0.1 0.3-0.1 0.6-0.1 0.5 0 1.1 0.3zm-1.5 0.3q-0.1 0-0.2 0c-0.4 0.3-0.6 1-0.6 1.8v76.6c0 1.9 1.2 4.1 2.5 4.9l92 53q0.4 0.2 0.8 0.2 0.2 0 0.4-0.1l0.2-0.1c0.3-0.2 0.6-0.8 0.6-1.7v-76.6c0-0.9-0.3-1.8-0.7-2.7-0.5-1-1.1-1.8-1.8-2.2l-92-53q-0.5-0.2-0.8-0.2-0.2 0-0.4 0.1z"/>
			</g>
			<g id="&lt;Group&gt;">
				<path id="&lt;Path&gt;" class="s4" d="m638.9 111.3c0 2.1-1.5 3-3.4 1.9-1.9-1.1-3.4-3.7-3.4-5.9 0-2.2 1.5-3.1 3.4-2 1.9 1.1 3.4 3.8 3.4 6z"/>
				<path id="&lt;Path&gt;" class="s4" d="m651.6 119.1c0 2.2-1.5 3.1-3.4 2-1.9-1.1-3.4-3.8-3.4-5.9 0-2.2 1.5-3.1 3.4-2 1.9 1.1 3.4 3.7 3.4 5.9z"/>
				<path id="&lt;Path&gt;" class="s4" d="m664.3 127c0 2.1-1.5 3-3.4 1.9-1.9-1.1-3.4-3.7-3.4-5.9 0-2.2 1.5-3.1 3.4-2 1.9 1.1 3.4 3.8 3.4 6z"/>
			</g>
		</g>
	</g>
</svg>