<svg version="1.2" xmlns="http://www.w3.org/2000/svg" viewBox="0 0 1000 1000" width="1000" height="1000">
	<title>11638003_4667616-ai</title>
	<defs>
		<clipPath clipPathUnits="userSpaceOnUse" id="cp1">
			<path d="m317.51 99.94l-3.12 7.17c-2.23 5.13-7.29 8.46-12.89 8.46l-80.43-0.01c-5.6 0-10.67-3.32-12.9-8.45l-3.11-7.17c-2.23-5.14-7.3-8.46-12.9-8.46h-55.62c-5.65 0-10.23 4.58-10.23 10.23v524.12c0 5.65 4.58 10.23 10.23 10.23h249.48c5.65 0 10.23-4.58 10.23-10.24v-524.11c0-5.65-4.58-10.23-10.23-10.23h-55.62c-5.6 0-10.66 3.32-12.89 8.46z"/>
		</clipPath>
		<clipPath clipPathUnits="userSpaceOnUse" id="cp2">
			<path d="m318.36 864.4h-25.67c-12.28 0-22.52-9.41-23.55-21.65l-5.07-51.27h82.92l-5.08 51.27c-1.03 12.24-11.26 21.65-23.55 21.65z"/>
		</clipPath>
		<clipPath clipPathUnits="userSpaceOnUse" id="cp3">
			<path d="m435.76 632.93c0 0-30.27 83.36-20.65 118.99 9.61 35.62 59.68 24.7 71.93 2.85 12.24-21.85 36.14-101.18 36.14-101.18l-24.69-47.5-54.72 12.35-5.16 7.6z"/>
		</clipPath>
		<clipPath clipPathUnits="userSpaceOnUse" id="cp4">
			<path d="m831.56 512.43c0 0-31.95 168.06-36.79 370.5h-287.85c0 0 32.63-171.86-3.95-396.06 0 0 148.42-105.63 328.59 25.56z"/>
		</clipPath>
		<clipPath clipPathUnits="userSpaceOnUse" id="cp5">
			<path d="m874.31 652.8c0 0 4.46 117.6-37.06 158.34 0 0-49.87 11.4-195.69-99.44 0 0-14.48 1.27-22.06-7.6 0 0-23.49 8.24-35.82-5.06 0 0-15.79 0.63-19.34-13.94 0 0-10.05 1.27-13.53-3.16 0 0-11.99 0.63-13.69-5.7-1.71-6.34 11.86-11.44 11.86-11.44 0 0 0.25-14.53 6.28-18.96 6.02-4.44 11.59-6.34 11.59-6.34 0 0-39.85-24.06-35-37.36 4.85-13.3 11.56 10.13 49.44 26.6 0 0 19.05 0.63 22.7 7.6l46.12 38.63c0 0 13.47 3.59 17.9 5.07 28.64 9.57 68.83 26.6 116.55 29.76l9.25-76c0 0 57.93-13.93 80.5 19z"/>
		</clipPath>
		<clipPath clipPathUnits="userSpaceOnUse" id="cp6">
			<path d="m716.92 459.79c0 0-22.32-34.67-16.15-94.52l-91.29 6.02c0 0-0.81 79.15-30.05 83.35l23.84 30.5 21.03 1.56 36.34 0.17 52.96-17.1z"/>
		</clipPath>
		<clipPath clipPathUnits="userSpaceOnUse" id="cp7">
			<path d="m459.51 632.93c0 0-45.81 85.26-44.4 118.99 1.41 33.72 22.63 45.12 22.63 45.12 0 0 57.27-2.85 58.22-70.77l7.74-66.03c0 0 19.95-6.8 28-20.74 0 0 19.95-6.81 26.27-18.21 6.33-11.4 10.05-26.12 3.71-28.5-6.34-2.37-10.7 18.41-16.17 22.33-3.68 2.63-9.54 6.01-13 7.95-1.48 0.83-3.44 0.09-4.15-1.55-0.53-1.23-0.2-2.59 0.83-3.34 2.73-1.99 8.16-6.31 12.52-12.09 6.09-8.07 22.98-31.35 14.54-36.57-8.44-5.23-22.32 20.42-27.72 24.7-3.35 2.65-7.94 5.66-10.96 7.57-1.82 1.15-4.27 0.87-5.97-0.67l-0.34-0.31c-1.71-1.54-2.23-3.96-1.28-5.9 1.61-3.28 4.03-8.05 5.28-9.7 3.65-4.84 8.5-9.47 16.05-18.13 7.83-8.97 14.76-15.3 9.48-19.41-10.38-8.08-37.23 22.32-40.76 26.12-2.22 2.38-4.31 6.44-5.57 9.14-0.7 1.49-2.52 2.03-4.06 1.21-0.99-0.53-1.65-1.51-1.74-2.6-0.32-3.77-0.93-12.57-0.12-15.82 1.17-4.71 4.54-8.09 9.41-16.72 4.27-7.58 9.23-15.58 5.67-18.91-7.62-7.12-22.73 14.73-22.73 14.73l-10.98 19.47c0 0 4.53-9.97-1.03-14.72-5.55-4.75-5.25 6.17-10.08 11.87-4.84 5.7-0.21 17.58-1.51 26.13-1.3 8.55-1.31 15.2-1.31 15.2z"/>
		</clipPath>
	</defs>
	<style>
		.s0 { fill: #92e3a9 } 
		.s1 { opacity: .7;fill: #ffffff } 
		.s2 { fill: none;stroke: #263238;stroke-linecap: round;stroke-linejoin: round;stroke-width: 2 } 
		.s3 { fill: #263238;stroke: #263238;stroke-linecap: round;stroke-linejoin: round;stroke-width: 2 } 
		.s4 { fill: #92e3a9;stroke: #263238;stroke-linecap: round;stroke-linejoin: round;stroke-width: 2 } 
		.s5 { opacity: .5;fill: #ffffff;stroke: #263238;stroke-linecap: round;stroke-linejoin: round;stroke-width: 2 } 
		.s6 { fill: #ffffff;stroke: #263238;stroke-linecap: round;stroke-linejoin: round;stroke-width: 1.5 } 
		.s7 { fill: #263238 } 
		.s8 { fill: #263238;stroke: #263238;stroke-linecap: round;stroke-linejoin: round;stroke-width: 1.5 } 
		.s9 { fill: #92e3a9;stroke: #263238;stroke-linecap: round;stroke-linejoin: round;stroke-width: 1.5 } 
		.s10 { fill: #ffffff } 
		.s11 { opacity: .5;fill: #ffffff } 
		.s12 { fill: #ffffff;stroke: #263238;stroke-linecap: round;stroke-linejoin: round;stroke-width: 2 } 
		.s13 { opacity: .2;fill: #000000 } 
		.s14 { fill: #858585;stroke: #263238;stroke-linecap: round;stroke-linejoin: round;stroke-width: 2 } 
		.s15 { fill: none;stroke: #7f7f7f;stroke-linecap: round;stroke-linejoin: round;stroke-width: 1.5 } 
		.s16 { fill: none;stroke: #263238;stroke-linecap: round;stroke-linejoin: round;stroke-width: 8 } 
		.s17 { fill: none;stroke: #263238;stroke-linecap: round;stroke-linejoin: round;stroke-width: 1.5 } 
		.s18 { fill: #000000 } 
		.s19 { fill: #858585;stroke: #263238;stroke-linecap: round;stroke-linejoin: round;stroke-width: 1.5 } 
	</style>
	<g id="Background Simple">
		<g id="&lt;Group&gt;">
			<path id="&lt;Path&gt;" class="s0" d="m942 555.3c-12.6 241.7-172.1 238.2-357.2 292.3-85.8 25.1-174.3 73.9-249.9 73.9-238.6 0-296.5-210.2-271-447.5 26.3-244.5 171.4-391.2 422-366.3 237.4 23.7 469.8 183.5 456.1 447.6z"/>
			<path id="&lt;Path&gt;" class="s1" d="m942 555.3c-12.6 241.7-172.1 238.2-357.2 292.3-85.8 25.1-174.3 73.9-249.9 73.9-238.6 0-296.5-210.2-271-447.5 26.3-244.5 171.4-391.2 422-366.3 237.4 23.7 469.8 183.5 456.1 447.6z"/>
		</g>
	</g>
	<g id="Table">
		<g id="freepik--Table--inject-4 1 ">
			<path id="&lt;Path&gt;" class="s2" d="m80 882.9h840"/>
		</g>
	</g>
	<g id="Interface">
		<g id="&lt;Group&gt;">
			<path id="&lt;Path&gt;" class="s3" d="m393 652.8h-263.4c-11.1 0-20-9-20-20v-538c0-11.1 8.9-20.1 20-20.1h263.4c11 0 20 9 20 20.1v538c0 11-9 20-20 20z"/>
			<path id="&lt;Path&gt;" class="s4" d="m266.3 97.8c0 2.8-2.2 5.1-5 5.1-2.8 0-5-2.3-5-5.1 0-2.7 2.2-5 5-5 2.8 0 5 2.3 5 5z"/>
			<g id="&lt;Clip Group&gt;" clip-path="url(#cp1)">
				<path id="&lt;Path&gt;" class="s5" d="m317.5 99.9l-3.1 7.2c-2.2 5.1-7.3 8.5-12.9 8.5h-80.4c-5.6 0-10.7-3.4-12.9-8.5l-3.1-7.2c-2.3-5.1-7.3-8.4-12.9-8.4h-55.7c-5.6 0-10.2 4.6-10.2 10.2v524.1c0 5.7 4.6 10.3 10.2 10.3h249.5c5.7 0 10.3-4.6 10.3-10.3v-524.1c0-5.6-4.6-10.2-10.3-10.2h-55.6c-5.6 0-10.7 3.3-12.9 8.4z"/>
				<path id="&lt;Path&gt;" class="s4" d="m317.5 99.9l-3.1 7.2c-2.2 5.1-7.3 8.5-12.9 8.5h-80.4c-5.6 0-10.7-3.4-12.9-8.5l-3.1-7.2c-2.3-5.1-7.3-8.4-12.9-8.4h-55.7c-5.6 0-10.2 4.6-10.2 10.2v524.1c0 5.7 4.6 10.3 10.2 10.3h249.5c5.7 0 10.3-4.6 10.3-10.3v-524.1c0-5.6-4.6-10.2-10.3-10.2h-55.6c-5.6 0-10.7 3.3-12.9 8.4z"/>
			</g>
			<g id="&lt;Group&gt;">
				<path id="&lt;Path&gt;" class="s6" d="m378.8 174.5h-235.1c-5 0-9-4-9-9v-28c0-5 4-9 9-9h235.1c5 0 9.1 4 9.1 9v28c0 5-4.1 9-9.1 9z"/>
				<path id="&lt;Compound Path&gt;" fill-rule="evenodd" class="s7" d="m260.5 154q-0.1 0.3-0.3 0.5l-6.8 6.7c-0.5 0.6-1.4 0.6-1.9 0-0.5-0.5-0.5-1.3 0-1.8l6.8-6.8q0.2-0.2 0.5-0.3c-2-2.7-1.7-6.5 0.7-8.9 2.7-2.7 7.2-2.7 9.9 0 2.7 2.7 2.7 7.1 0 9.8-2.5 2.5-6.2 2.7-8.9 0.8zm7.7-2c2-2 2-5.3 0-7.4-2.1-2-5.4-2-7.5 0-2 2.1-2 5.4 0 7.4 2.1 2.1 5.4 2.1 7.5 0z"/>
				<g id="&lt;Group&gt;">
					<path id="&lt;Path&gt;" class="s8" d="m175.5 142.2h-27.1c-0.9 0-1.7-0.8-1.7-1.8 0-0.9 0.8-1.7 1.7-1.7h27.1c1 0 1.8 0.8 1.8 1.7 0 1-0.8 1.8-1.8 1.8z"/>
					<path id="&lt;Path&gt;" class="s8" d="m172 152.2h-23.6c-0.9 0-1.7-0.8-1.7-1.7 0-1 0.8-1.8 1.7-1.8h23.6c1 0 1.8 0.8 1.8 1.8 0 0.9-0.8 1.7-1.8 1.7z"/>
					<path id="&lt;Path&gt;" class="s8" d="m168.5 162.2h-20.1c-0.9 0-1.7-0.8-1.7-1.7 0-1 0.8-1.8 1.7-1.8h20.1c1 0 1.8 0.8 1.8 1.8 0 0.9-0.8 1.7-1.8 1.7z"/>
				</g>
			</g>
			<g id="&lt;Group&gt;">
				<path id="&lt;Path&gt;" class="s6" d="m378.8 331.1h-235.1c-5 0-9-4.1-9-9.1v-124.8c0-5 4-9 9-9h235.1c5 0 9.1 4 9.1 9v124.8c0 5-4.1 9.1-9.1 9.1z"/>
				<path id="&lt;Path&gt;" class="s9" d="m356 313.1h-189.5v-107h189.5z"/>
				<path id="&lt;Path&gt;" class="s8" d="m298.3 270.9h-116.2c-1.7 0-3.1-1.4-3.1-3.1 0-1.7 1.4-3.1 3.1-3.1h116.2c1.8 0 3.2 1.4 3.2 3.1 0 1.7-1.4 3.1-3.2 3.1z"/>
				<path id="&lt;Path&gt;" class="s8" d="m289.2 284.1h-107.1c-1.7 0-3.1-1.4-3.1-3.1 0-1.7 1.4-3.1 3.1-3.1h107.1c1.7 0 3.1 1.4 3.1 3.1 0 1.7-1.4 3.1-3.1 3.1z"/>
				<g id="&lt;Group&gt;">
					<path id="&lt;Path&gt;" class="s10" d="m240.2 301.8c0 1.5-1.2 2.7-2.7 2.7-1.5 0-2.7-1.2-2.7-2.7 0-1.5 1.2-2.7 2.7-2.7 1.5 0 2.7 1.2 2.7 2.7z"/>
					<path id="&lt;Path&gt;" class="s10" d="m256.1 301.8c0 1.5-1.2 2.7-2.7 2.7-1.5 0-2.8-1.2-2.8-2.7 0-1.5 1.3-2.7 2.8-2.7 1.5 0 2.7 1.2 2.7 2.7z"/>
					<path id="&lt;Path&gt;" class="s10" d="m271.9 301.8c0 1.5-1.2 2.7-2.7 2.7-1.5 0-2.7-1.2-2.7-2.7 0-1.5 1.2-2.7 2.7-2.7 1.5 0 2.7 1.2 2.7 2.7z"/>
					<path id="&lt;Path&gt;" class="s10" d="m287.8 301.8c0 1.5-1.2 2.7-2.7 2.7-1.5 0-2.8-1.2-2.8-2.7 0-1.5 1.3-2.7 2.8-2.7 1.5 0 2.7 1.2 2.7 2.7z"/>
				</g>
				<g id="&lt;Group&gt;">
					<g id="&lt;Group&gt;">
						<path id="&lt;Path&gt;" class="s0" d="m366.5 272.8c-0.5 0-0.9-0.1-1.3-0.5-0.9-0.7-1-2-0.3-2.9l7.9-9.8-7.9-9.8c-0.7-0.9-0.6-2.2 0.3-2.9 0.9-0.7 2.2-0.6 2.9 0.3l9 11.1c0.7 0.8 0.7 1.9 0 2.6l-9 11.1c-0.4 0.5-1 0.8-1.6 0.8z"/>
					</g>
				</g>
				<g id="&lt;Group&gt;">
					<g id="&lt;Group&gt;">
						<path id="&lt;Path&gt;" class="s0" d="m156.1 272.8c-0.7 0-1.3-0.3-1.7-0.8l-9-11.1c-0.6-0.7-0.6-1.8 0-2.6l9-11.1c0.8-0.9 2.1-1 3-0.3 0.9 0.7 1 2 0.3 2.9l-8 9.8 8 9.8c0.7 0.9 0.6 2.2-0.3 2.9-0.4 0.4-0.9 0.5-1.3 0.5z"/>
					</g>
				</g>
			</g>
			<g id="&lt;Group&gt;">
				<g id="&lt;Group&gt;">
					<path id="&lt;Path&gt;" class="s9" d="m177.6 402.8h-22.6c-8.9 0-16.1-7.2-16.1-16.1v-22.6c0-8.9 7.2-16.1 16.1-16.1h22.6c8.9 0 16.1 7.2 16.1 16.1v22.6c0 8.9-7.2 16.1-16.1 16.1z"/>
					<path id="&lt;Path&gt;" class="s11" d="m166.3 392.3c-9.3 0-16.9-7.6-16.9-16.9 0-9.3 7.6-16.9 16.9-16.9 9.3 0 16.9 7.6 16.9 16.9 0 9.3-7.6 16.9-16.9 16.9z"/>
				</g>
				<path id="&lt;Path&gt;" class="s8" d="m190.6 419.3h-48.6c-1.7 0-3.1-1.4-3.1-3.1 0-1.7 1.4-3.1 3.1-3.1h48.6c1.7 0 3.1 1.4 3.1 3.1 0 1.7-1.4 3.1-3.1 3.1z"/>
			</g>
			<g id="&lt;Group&gt;">
				<g id="&lt;Group&gt;">
					<path id="&lt;Path&gt;" class="s6" d="m378.8 519.8h-235.1c-5 0-9-4.1-9-9.1v-61.2c0-5.1 4-9.1 9-9.1h235.1c5 0 9.1 4 9.1 9.1v61.2c0 5-4.1 9.1-9.1 9.1z"/>
				</g>
				<path id="&lt;Path&gt;" class="s9" d="m229.6 507.2v-54.3h-82.4v54.3z"/>
				<path id="&lt;Path&gt;" class="s8" d="m358.5 459.4h-116.2c-1.8 0-3.2-1.4-3.2-3.2 0-1.7 1.4-3.1 3.2-3.1h116.2c1.7 0 3.1 1.4 3.1 3.1 0 1.8-1.4 3.2-3.1 3.2z"/>
				<path id="&lt;Path&gt;" class="s8" d="m349.3 472.6h-107c-1.8 0-3.2-1.4-3.2-3.2 0-1.7 1.4-3.1 3.2-3.1h107c1.8 0 3.2 1.4 3.2 3.1 0 1.8-1.4 3.2-3.2 3.2z"/>
				<path id="&lt;Path&gt;" class="s8" d="m355.3 485.7h-113c-1.8 0-3.2-1.4-3.2-3.1 0-1.7 1.4-3.1 3.2-3.1h113c1.8 0 3.2 1.4 3.2 3.1 0 1.7-1.4 3.1-3.2 3.1z"/>
				<path id="&lt;Path&gt;" class="s8" d="m335.5 498.9h-93.2c-1.8 0-3.2-1.4-3.2-3.1 0-1.7 1.4-3.1 3.2-3.1h93.2c1.7 0 3.1 1.4 3.1 3.1 0 1.7-1.4 3.1-3.1 3.1z"/>
			</g>
			<g id="&lt;Group&gt;">
				<g id="&lt;Group&gt;">
					<path id="&lt;Path&gt;" class="s6" d="m378.8 611.5h-235.1c-5 0-9-4.1-9-9.1v-61.2c0-5 4-9.1 9-9.1h235.1c5 0 9.1 4.1 9.1 9.1v61.2c0 5-4.1 9.1-9.1 9.1z"/>
				</g>
				<path id="&lt;Path&gt;" class="s9" d="m229.6 598.9v-54.3h-82.4v54.3z"/>
				<path id="&lt;Path&gt;" class="s8" d="m358.5 551.1h-116.2c-1.8 0-3.2-1.4-3.2-3.1 0-1.8 1.4-3.2 3.2-3.2h116.2c1.7 0 3.1 1.4 3.1 3.2 0 1.7-1.4 3.1-3.1 3.1z"/>
				<path id="&lt;Path&gt;" class="s8" d="m366.1 564.3h-123.8c-1.8 0-3.2-1.4-3.2-3.2 0-1.7 1.4-3.1 3.2-3.1h123.8c1.7 0 3.1 1.4 3.1 3.1 0 1.8-1.4 3.2-3.1 3.2z"/>
				<path id="&lt;Path&gt;" class="s8" d="m342.8 590.6h-100.5c-1.8 0-3.2-1.4-3.2-3.1 0-1.7 1.4-3.1 3.2-3.1h100.5c1.7 0 3.1 1.4 3.1 3.1 0 1.7-1.4 3.1-3.1 3.1z"/>
				<path id="&lt;Path&gt;" class="s8" d="m356.4 577.6h-114.1c-1.8 0-3.2-1.4-3.2-3.1 0-1.7 1.4-3.1 3.2-3.1h114.1c1.7 0 3.1 1.4 3.1 3.1 0 1.7-1.4 3.1-3.1 3.1z"/>
			</g>
			<g id="&lt;Group&gt;">
				<path id="&lt;Path&gt;" class="s9" d="m304.2 402.8h-22.6c-8.9 0-16.1-7.2-16.1-16.1v-22.6c0-8.9 7.2-16.1 16.1-16.1h22.6c8.9 0 16.1 7.2 16.1 16.1v22.6c0 8.9-7.2 16.1-16.1 16.1z"/>
				<path id="&lt;Path&gt;" class="s11" d="m292.9 392.3c-9.3 0-16.9-7.6-16.9-16.9 0-9.3 7.6-16.9 16.9-16.9 9.3 0 16.9 7.6 16.9 16.9 0 9.3-7.6 16.9-16.9 16.9z"/>
				<path id="&lt;Path&gt;" class="s8" d="m317.2 419.3h-48.6c-1.7 0-3.1-1.4-3.1-3.1 0-1.7 1.4-3.1 3.1-3.1h48.6c1.7 0 3.1 1.4 3.1 3.1 0 1.7-1.4 3.1-3.1 3.1z"/>
			</g>
			<g id="&lt;Group&gt;">
				<path id="&lt;Path&gt;" class="s9" d="m367.4 402.8h-22.5c-8.9 0-16.1-7.2-16.1-16.1v-22.6c0-8.9 7.2-16.1 16.1-16.1h22.5c9 0 16.2 7.2 16.2 16.1v22.6c0 8.9-7.2 16.1-16.1 16.1z"/>
				<path id="&lt;Path&gt;" class="s11" d="m356.2 392.3c-9.3 0-16.9-7.6-16.9-16.9 0-9.3 7.6-16.9 16.9-16.9 9.3 0 16.9 7.6 16.9 16.9 0 9.3-7.6 16.9-16.9 16.9z"/>
				<path id="&lt;Path&gt;" class="s8" d="m380.5 419.3h-48.6c-1.7 0-3.1-1.4-3.1-3.1 0-1.7 1.4-3.1 3.1-3.1h48.6c1.7 0 3.1 1.4 3.1 3.1 0 1.7-1.4 3.1-3.1 3.1z"/>
			</g>
			<g id="&lt;Group&gt;">
				<path id="&lt;Path&gt;" class="s9" d="m240.9 402.8h-22.6c-8.9 0-16.1-7.2-16.1-16.1v-22.6c0-8.9 7.2-16.1 16.1-16.1h22.6c8.9 0 16.1 7.2 16.1 16.1v22.6c0 8.9-7.2 16.1-16.1 16.1z"/>
				<path id="&lt;Path&gt;" class="s8" d="m253.9 419.3h-48.6c-1.7 0-3.1-1.4-3.1-3.1 0-1.7 1.4-3.1 3.1-3.1h48.6c1.7 0 3.1 1.4 3.1 3.1 0 1.7-1.4 3.1-3.1 3.1z"/>
				<path id="&lt;Path&gt;" class="s11" d="m229.6 392.3c-9.3 0-16.9-7.6-16.9-16.9 0-9.3 7.6-16.9 16.9-16.9 9.3 0 16.9 7.6 16.9 16.9 0 9.3-7.6 16.9-16.9 16.9z"/>
			</g>
		</g>
	</g>
	<g id="Coffee">
		<g id="&lt;Group&gt;">
			<g id="&lt;Group&gt;">
				<g id="&lt;Group&gt;">
					<g id="&lt;Clip Group&gt;" clip-path="url(#cp2)">
						<path id="&lt;Path&gt;" class="s0" d="m355.6 827.9h-95.4v-13.9h95.4z"/>
						<path id="&lt;Path&gt;" class="s12" d="m318.4 864.4h-25.7c-12.3 0-22.5-9.4-23.6-21.7l-5-51.2h82.9l-5.1 51.2c-1 12.3-11.3 21.7-23.5 21.7z"/>
					</g>
					<path id="&lt;Path&gt;" class="s12" d="m318.4 864.4h-25.7c-4.4 0-8.5-1.2-12-3.3l-0.7 8.2h51.1l-0.7-8.2c-3.6 2.1-7.7 3.3-12 3.3z"/>
				</g>
				<path id="&lt;Path&gt;" class="s12" d="m356.1 798.9c-3.7-0.9-7.1 0.7-10.2 3.6l-1 10.3c2.8-4.7 6.2-7.9 9.7-7.1 7.6 1.8 10.2 11.4 7.8 21.4-2.4 10-10.4 16.6-17.9 14.8q-1.4-0.4-2.4-0.6l-0.2 1.4q-0.2 2.3-0.8 4.4 0.5 0.1 1 0.2c11.7 2.8 23.8-5.7 27.1-19.1 3.2-13.3-1.4-26.5-13.1-29.3z"/>
			</g>
			<path id="&lt;Path&gt;" class="s12" d="m305.7 857.8c-8.4 1.3-17.6 8.2-16.6 14.7 1 6.6 11.9 10.4 20.2 9.2 6.7-1.1 8-6.7 11.7-10.3 10.7-10.3 51.9-10.2 67.3-9.7 3 0.1 5.3-2.6 4.9-5.6-0.4-2.5-2.8-4.4-5.4-4.1-12.7 1.5-48.3 5.8-64.9 10-5 1.3-10.5-5.2-17.2-4.2z"/>
			<path id="&lt;Path&gt;" class="s12" d="m333.3 883.8h-59.1c-8.9 0-17.8-1.7-26.2-5.1l-19.2-7.6c-2.2-0.9-1.5-4.1 0.8-4.1h148.4c2.3 0 2.9 3.2 0.8 4.1l-19.2 7.6c-8.4 3.4-17.3 5.1-26.3 5.1z"/>
			<g id="&lt;Group&gt;">
				<path id="&lt;Path&gt;" class="s2" d="m307 687.2c-3.1-5.1-7-7.3-7-7.3"/>
				<path id="&lt;Path&gt;" class="s2" d="m304.6 724.2c6.3-12.6 7-22.2 5.5-29.1"/>
				<path id="&lt;Path&gt;" class="s2" d="m294.4 761.8c-1.6-8.6-0.3-19.4 7.2-32.2"/>
				<path id="&lt;Path&gt;" class="s2" d="m309.7 785.8c0 0-9.5-6.3-13.8-18.5"/>
				<path id="&lt;Path&gt;" class="s2" d="m328.8 709.7c-2.5-4.9-6.1-7-6.1-7"/>
				<path id="&lt;Path&gt;" class="s2" d="m327.1 735.7c4.1-8.7 4.6-15.4 3.6-20.5"/>
				<path id="&lt;Path&gt;" class="s2" d="m330.3 785.8c0 0-23.2-15.5-6.3-44.1"/>
				<path id="&lt;Path&gt;" class="s2" d="m286.9 733.6c0-1.9-0.3-3.7-0.7-5.2"/>
				<path id="&lt;Path&gt;" class="s2" d="m281.3 751.1c2.7-4.6 4.2-8.5 5-12"/>
				<path id="&lt;Path&gt;" class="s2" d="m286.3 785.8c0 0-15.7-10.4-7.5-29.9"/>
			</g>
		</g>
	</g>
	<g id="Character">
		<g id="&lt;Group&gt;">
			<g id="&lt;Clip Group&gt;" clip-path="url(#cp3)">
				<path id="&lt;Path&gt;" class="s13" d="m484.2 622c0 0-50.8 106.6-76 103.3-25.2-3.3 0 80.3 0 80.3h49.5l57.3-71.3 10.2-52.4 2.7-25-17.4-24z"/>
				<path id="&lt;Path&gt;" class="s14" d="m435.8 632.9c0 0-30.3 83.4-20.7 119 9.6 35.6 59.7 24.7 71.9 2.9 12.3-21.9 36.2-101.2 36.2-101.2l-24.7-47.5-54.7 12.3-5.2 7.6z"/>
			</g>
			<g id="&lt;Group&gt;">
				<path id="&lt;Path&gt;" class="s3" d="m719.5 325.8c0 0 11.6-10.6 2.9-21.6 0 0 11.6-8.3 3.2-22.5 0 0 12.7-16.2-3.2-26.9 0 0 8.1-16.8-10.5-16.5 0 0 3.1-17.7-15.6-11.1 0 0 1.3-17.7-14.5-9.8 0 0-7-15.8-15.2 0.6 0 0-7.9-20.9-21.9-13.6 0 0-26.9-12.3-30.7 3.5 0 0-17.4-4.4-22 7.6 0 0-19.5-2.5-20.4 14.2 0 0-18.4 6.4-12.7 20 0 0-8.2 10.8-1.1 21.5 0 0-6.8 7.3 1.1 20.6 0 0-3.5 13.6 6 23.4l115.6 19 5.4 26.3 22.4-8.8z"/>
				<g id="&lt;Group&gt;">
					<path id="&lt;Path&gt;" class="s15" d="m646.6 214.7c-4.3-5.5-12-10.2-25.6-4.3"/>
					<path id="&lt;Path&gt;" class="s15" d="m651.1 224c0 0-0.5-2-1.8-4.7"/>
				</g>
				<path id="&lt;Path&gt;" class="s15" d="m631.1 222.8c0 0-20.6 12.6-28.2-5.4"/>
				<path id="&lt;Path&gt;" class="s15" d="m664.1 238.4c0 0-23 7.5-26.1-11.9"/>
				<g id="&lt;Group&gt;">
					<path id="&lt;Path&gt;" class="s15" d="m645.7 254.5c-4-5.8-11.9-11.4-26.2-5.1"/>
					<path id="&lt;Path&gt;" class="s15" d="m649.6 263c0 0-0.4-2.1-1.7-4.8"/>
				</g>
				<g id="&lt;Group&gt;">
					<path id="&lt;Path&gt;" class="s15" d="m601.7 262.1c-1.1-1.3-2.1-2.9-2.9-4.8"/>
					<path id="&lt;Path&gt;" class="s15" d="m627 262.7c0 0-13.6 8.3-22.8 1.8"/>
				</g>
				<path id="&lt;Path&gt;" class="s15" d="m718.7 291.2c0 0 5.8-17.8-14.2-20.2"/>
				<path id="&lt;Path&gt;" class="s15" d="m682.7 283.6c0 0-7.5 13.3 8.1 18.4"/>
				<path id="&lt;Path&gt;" class="s15" d="m706.3 282.8c0 0-18.1 0.4-16.2-14.2"/>
				<path id="&lt;Path&gt;" class="s15" d="m704.5 310.5c0 0-12.9-12.8-1.2-21.5"/>
				<path id="&lt;Path&gt;" class="s15" d="m606.5 251.6c0 0 5.8-17.9-14.3-20.3"/>
				<path id="&lt;Path&gt;" class="s15" d="m570.5 243.9c0 0-7.5 13.3 8.1 18.5"/>
				<path id="&lt;Path&gt;" class="s15" d="m594.1 243.2c0 0-18.1 0.3-16.2-14.2"/>
				<path id="&lt;Path&gt;" class="s15" d="m592.2 270.8c0 0-12.9-12.7-1.1-21.5"/>
				<path id="&lt;Path&gt;" class="s15" d="m704.4 253.2c0 0 5.8-17.8-14.3-20.2"/>
				<path id="&lt;Path&gt;" class="s15" d="m668.3 245.6c0 0-7.4 13.3 8.2 18.4"/>
				<path id="&lt;Path&gt;" class="s15" d="m692 244.8c0 0-18.1 0.4-16.2-14.2"/>
			</g>
			<g id="&lt;Clip Group&gt;" clip-path="url(#cp4)">
				<path id="&lt;Path&gt;" class="s13" d="m820.2 528.7c0 0-36.7 59.2-43.1 115.4-6.3 56.2-6.3 93.6-6.3 93.6l-163.4-43c0 0 97.5 85.4 151.4 118.3 53.8 33 41 79.8 41 79.8l38.8-145.6v-97.9l-7-101.6z"/>
				<path id="&lt;Path&gt;" class="s13" d="m676.9 516.4l-34.5-26.4-36.3 25.1-11.1-36.5 34.8-13.6 45.4 5.4 15.2 20.3z"/>
				<path id="&lt;Path&gt;" class="s4" d="m831.6 512.4c0 0-32 168.1-36.8 370.5h-287.9c0 0 32.7-171.8-3.9-396 0 0 148.4-105.7 328.6 25.5z"/>
			</g>
			<g id="&lt;Clip Group&gt;" clip-path="url(#cp5)">
				<path id="&lt;Path&gt;" class="s13" d="m813.4 632.9l-13.6 77.5-15.2-0.6-6.5-10.8 4.4-55.7 15.8-25.6 11.8 2.5z"/>
				<path id="&lt;Path&gt;" class="s13" d="m867.8 740.2c0 0-14.4 46.9-31.8 64 0 0 15.9-24.7-53.8-42.5-69.7-17.7-136.5-59.7-136.5-59.7 0 0-24.1-19.1-34.8-15.6-10.8 3.5-6.4 9-3.5 8.3 2.9-0.7 7 0.4 7.2 4.3 0.2 4 0.4 6.8-4.3 7.2-4.8 0.4-0.9 14.1-0.9 14.1l84.8 76.7 63.3 14.5 88 16.1 28.9-30.6 9.1-40.2-9.1-18.5z"/>
				<path id="&lt;Path&gt;" class="s13" d="m601.6 706.6c0 0-4.3-3-3.9-7.6 0.5-4.6-9.2 2.2-14.6-5 0 0-11.3-0.7-18.8-14.8 0 0-12.3 2.2-14.1-3.3 0 0-0.9-16.8-2.3-16.1-1.5 0.7-5 3.1-5 3.1l3.5 22.2 20.4 16.7 23.8 9.5h11z"/>
				<path id="&lt;Path&gt;" class="s13" d="m562.1 639.5c0 0 5.1 0.5 17.7-4.4 0 0-18.5-4.7-30.5-14.3-12-9.6-14.8-20.2-17.9-15.7-3 4.6 9.6 18.6 9.6 18.6z"/>
				<path id="&lt;Path&gt;" class="s14" d="m874.3 652.8c0 0 4.5 117.6-37.1 158.3 0 0-49.8 11.4-195.6-99.4 0 0-14.5 1.3-22.1-7.6 0 0-23.5 8.2-35.8-5.1 0 0-15.8 0.7-19.4-13.9 0 0-10 1.3-13.5-3.2 0 0-12 0.7-13.7-5.7-1.7-6.3 11.9-11.4 11.9-11.4 0 0 0.2-14.5 6.3-19 6-4.4 11.5-6.3 11.5-6.3 0 0-39.8-24.1-34.9-37.4 4.8-13.3 11.5 10.2 49.4 26.6 0 0 19 0.7 22.7 7.6l46.1 38.7c0 0 13.5 3.6 17.9 5 28.7 9.6 68.8 26.6 116.6 29.8l9.2-76c0 0 57.9-13.9 80.5 19z"/>
			</g>
			<path id="&lt;Path&gt;" class="s2" d="m789.1 710.4c16.2 0.8 22.9-3.3 36.4 14.9"/>
			<path id="&lt;Path&gt;" class="s2" d="m590.6 649.3c0 0-23.3 10-24.6 15.9-1.2 6-1.7 19.9-1.7 19.9"/>
			<path id="&lt;Path&gt;" class="s2" d="m602.9 662.6c0 0-1.6 4.2-6.6 7.9-6.5 4.8-13.8 5.4-13.9 11.4-0.1 5.9 1.3 17.1 1.3 17.1"/>
			<path id="&lt;Path&gt;" class="s2" d="m549 664.8l1.8 17.1"/>
			<path id="&lt;Path&gt;" class="s2" d="m566.8 639.5l19.3-6.6"/>
			<path id="&lt;Path&gt;" class="s2" d="m613.2 684.3c0 0-6.4 6.2-11.6 8.4"/>
			<path id="&lt;Path&gt;" class="s4" d="m503 486.9c0 0-67.6 26.8-70.9 145.5-0.1 2.5 2.7 4.1 4.8 2.6 10.4-7.4 37.4-17.5 82.6 26.6 2.1 2.1 5.7 0.6 5.7-2.4v-0.1c0.1-12.7-0.1-38.8-2.8-69.4-2.8-32.9-8.4-70.8-19.4-102.8z"/>
			<g id="&lt;Group&gt;">
				<path id="&lt;Path&gt;" class="s2" d="m449.6 612.6c15.8-2.9 44.3-1.7 72.9 31.5"/>
				<path id="&lt;Path&gt;" class="s2" d="m437 616.5c0 0 2.7-1.4 7.3-2.7"/>
			</g>
			<g id="&lt;Clip Group&gt;" clip-path="url(#cp6)">
				<path id="&lt;Path&gt;" class="s3" d="m716.1 371.3c-4.3 6.1-10.3 8.6-17.8 3.5 0 0 0 33.9-21.4 55.5-21.3 21.7-54.5 32-71.7 32-17.2 0-43.1-51.9-47.5-78.5-0.4-2.6-0.7-5.5-1.1-8.7z"/>
				<path id="&lt;Path&gt;" class="s14" d="m716.9 459.8c0 0-22.3-34.7-16.1-94.5l-91.3 6c0 0-0.8 79.1-30.1 83.3l23.9 30.5 21 1.6 36.3 0.2 53-17.1z"/>
			</g>
			<path id="&lt;Path&gt;" class="s14" d="m699.7 333.9c0 0 5.3-20.9 17.2-18 11.9 2.8 4.3 70.7-20.9 53.6 0 0 0 33.9-21.4 55.6-21.3 21.7-45 28.2-62.2 28.2-17.2 0-43.1-51.9-47.4-78.5-4.4-26.6-2.9-87.9 3.2-95.5 6.2-7.6 82.2 1.4 99.1-5.7 16.8-7.1-2.2 30.4 6.9 39.4 9 9 15.7 1.9 13.8 38l7.5-7.1z"/>
			<path id="&lt;Path&gt;" class="s7" d="m629.8 351.2c0 3.4 2.1 6.1 4.8 6.1 2.6 0 4.8-2.7 4.8-6.1 0-3.4-2.2-6.1-4.8-6.1-2.7 0-4.8 2.7-4.8 6.1z"/>
			<path id="&lt;Path&gt;" class="s7" d="m580.1 351.2c0 3.4 2.2 6.1 4.8 6.1 2.6 0 4.8-2.7 4.8-6.1 0-3.4-2.2-6.1-4.8-6.1-2.6 0-4.8 2.7-4.8 6.1z"/>
			<path id="&lt;Path&gt;" class="s16" d="m660.6 329.2c0 0-14.3-14.9-36.1 0"/>
			<path id="&lt;Path&gt;" class="s16" d="m593.7 330.8c0 0-17.7-18.7-25.3-4.9"/>
			<path id="&lt;Path&gt;" class="s12" d="m650.7 401.2c0 0-42.6 14.2-60.8 2.1 0 0 23 39.7 60.8-2.1z"/>
			<path id="&lt;Path&gt;" class="s2" d="m627 371.3c0 0 6.9 6.3 2.5 11.7-1.9 2.3-5.2 3.1-8.1 2.2-2.4-0.7-5.5-1.1-7.7 1.3-3.8 4.1-13.6 3.2-16.8-1.9 0 0-2.4-0.9-4.5-1-2.2 0-4-1.6-4.3-3.7-0.4-2.6 0.4-6 5.6-8.6"/>
			<path id="&lt;Path&gt;" class="s2" d="m600.7 340.9c0 0 3.6 11.7 2.3 23.7"/>
			<path id="&lt;Path&gt;" class="s17" d="m641.9 400.5c0 0-18.4-4.4-29.4 0.9-1.3 0.6-2.8 0.6-4.1-0.2-2.3-1.5-7-3.4-14.7-1.7"/>
			<path id="&lt;Path&gt;" class="s4" d="m716.3 455.3c-8.4 7.4-37.7 23.4-77 31.6l17.8 2.8 22.5 30.4c0 0 46.5-25.2 57-59.8l-10.4-5.8c-3.3-1.9-7.3-1.6-9.9 0.8z"/>
			<path id="&lt;Path&gt;" class="s4" d="m584.4 453.3c7.1 8.9 17.3 25.7 55.9 33.6l-17.4 2.8-20.1 30.4c0 0-34.1-22.8-37.2-63.6l8.8-5.3c3.2-2 7.6-1.1 10 2.1z"/>
			<path id="&lt;Path&gt;" class="s17" d="m644.7 354.5c0 0-9.2 4.8-20.2 0"/>
			<path id="&lt;Path&gt;" class="s17" d="m595 354.5c0 0-9.2 4.8-20.2 0"/>
			<path id="&lt;Path&gt;" class="s4" d="m831.6 512.4c0 0 51.3 18.7 45.8 145.2-0.1 2.1-2.8 3-4.1 1.3-7.7-9.6-28.9-26.8-78.1-15.9-1.9 0.5-3.6-1.1-3.4-3.1 2-18.8 12.2-98.9 39.8-127.5z"/>
			<g id="&lt;Group&gt;">
				<path id="&lt;Path&gt;" class="s2" d="m799.8 625.8q-1.5 0.3-3 0.7"/>
				<path id="&lt;Path&gt;" class="s2" d="m823.6 623.1c-6.2 0-13.1 0.5-20.5 2"/>
				<path id="&lt;Path&gt;" class="s2" d="m863.2 634c-7.9-4.8-19.6-9.9-35.4-10.8"/>
				<path id="&lt;Path&gt;" class="s2" d="m873.2 641.7c-1.4-1.3-3.4-3.1-6.1-5"/>
			</g>
			<g id="&lt;Group&gt;">
				<path id="&lt;Path&gt;" class="s12" d="m549.3 620.8c-0.6 0.7-1.5 1.2-2.6 1.2h-46.3c-2.5 0-5.2-2-6.1-4.5l-36.3-101.7c-0.4-1.2-0.3-2.3 0.2-3.2l3.6-3.9c0.6-0.7 1.5-1.2 2.6-1.2h46.3c2.5 0 5.2 2 6.1 4.5l36.3 101.7c0.4 1.3 0.3 2.4-0.2 3.2z"/>
				<path id="&lt;Path&gt;" class="s3" d="m500.4 622h46.3c2.4 0 3.7-2 2.8-4.5l-36.2-101.7c-0.9-2.5-3.6-4.5-6.1-4.5h-46.3c-2.5 0-3.8 2-2.9 4.5l36.3 101.7c0.9 2.5 3.6 4.5 6.1 4.5z"/>
				<path id="&lt;Path&gt;" class="s14" d="m500.9 535.1h11c2.4 0 3.7-2 2.8-4.5l-3.9-11c-0.9-2.5-3.6-4.5-6.1-4.5h-10.9c-2.5 0-3.8 2-2.9 4.5l3.9 11c0.9 2.5 3.6 4.5 6.1 4.5z"/>
				<path id="&lt;Path&gt;" class="s18" d="m493.8 520.5c0.5 1.4 2.1 2.6 3.5 2.6 1.5 0 2.2-1.2 1.7-2.6-0.5-1.5-2.1-2.6-3.5-2.6-1.5 0-2.2 1.1-1.7 2.6z"/>
				<path id="&lt;Path&gt;" class="s18" d="m505.1 525.1c0.5 1.4 2.1 2.6 3.5 2.6 1.5 0 2.2-1.2 1.7-2.6-0.5-1.4-2.1-2.6-3.5-2.6-1.5 0-2.2 1.2-1.7 2.6z"/>
				<path id="&lt;Path&gt;" class="s18" d="m497.1 529.7c0.5 1.5 2.1 2.6 3.5 2.6 1.5 0 2.2-1.1 1.7-2.6-0.5-1.4-2.1-2.6-3.5-2.6-1.5 0-2.2 1.2-1.7 2.6z"/>
			</g>
			<g id="&lt;Clip Group&gt;" clip-path="url(#cp7)">
				<path id="&lt;Path&gt;" class="s13" d="m515 654.9c0 0 13.5-13.7 7.5-18.7-6-4.9-11.3-9.1-16.9-16.5-5.7-7.4-9.5-17.4-16.6-17.4-7.2 0-13.1-9.6-20.8-4.1-7.7 5.5 2 31 0 41.3-2 10.3 10.5 183.3-48.2 135.5-58.8-47.8 13.9 54.8 13.9 54.8l49.4-10.9 13.1-23.8 7.4-53.2 9.4-68.5z"/>
				<path id="&lt;Path&gt;" class="s13" d="m538.7 600.9c-1.2-1-2.8-2.4-4.1-4.1-1.1-1.4-3.2-1.3-4.2 0.1-2.5 3.5-6.8 8.7-11.5 11.1 0 0 4.3 9.5 8.5 7.6 3.1-1.4 8.7-7.5 11.7-10.8 1-1.2 0.8-2.9-0.4-3.9z"/>
				<path id="&lt;Path&gt;" class="s13" d="m511 581.6c-2.1-0.8-5.2-2.3-7.2-4.6-0.7-0.8-2-0.7-2.5 0.2l-4.9 9.4c0 0 3.5 5.5 8.5 6.9 0 0 3.3-5.6 6.7-9.5 0.7-0.8 0.4-2-0.6-2.4z"/>
				<path id="&lt;Path&gt;" class="s13" d="m486.3 563.3c0 0-5.8 7.6-11.4 5.5v13.5l11.4-0.7c0 0-2.1-6.9 0-18.3z"/>
				<path id="&lt;Path&gt;" class="s13" d="m552.4 624.9c0 0-9.6 4.1-16.7 4.3-1.5 0.1-2.8 1.1-3.2 2.5l-1.1 4.5c0 0 9.1-1.1 21-11.3z"/>
				<path id="&lt;Path&gt;" class="s13" d="m471 561.1c0 0-3.4 7.2-7.5 10.1-4 2.8 0.5 4.8 0 11.4 0 0 6.2-16.5 7.5-21.5z"/>
				<path id="&lt;Path&gt;" class="s14" d="m459.5 632.9c0 0-45.8 85.3-44.4 119 1.4 33.7 22.6 45.1 22.6 45.1 0 0 57.3-2.8 58.3-70.7l7.7-66.1c0 0 19.9-6.8 28-20.7 0 0 19.9-6.8 26.3-18.2 6.3-11.4 10-26.1 3.7-28.5-6.4-2.4-10.7 18.4-16.2 22.3-3.7 2.6-9.5 6-13 8-1.5 0.8-3.4 0.1-4.1-1.6-0.6-1.2-0.2-2.6 0.8-3.3 2.7-2 8.2-6.3 12.5-12.1 6.1-8.1 23-31.4 14.6-36.6-8.5-5.2-22.4 20.4-27.8 24.7-3.3 2.7-7.9 5.7-10.9 7.6-1.8 1.1-4.3 0.9-6-0.7l-0.3-0.3c-1.7-1.5-2.3-4-1.3-5.9 1.6-3.3 4-8 5.3-9.7 3.6-4.8 8.5-9.5 16-18.1 7.8-9 14.8-15.3 9.5-19.4-10.4-8.1-37.2 22.3-40.8 26.1-2.2 2.4-4.3 6.4-5.5 9.1-0.7 1.5-2.6 2.1-4.1 1.2-1-0.5-1.6-1.5-1.7-2.6-0.4-3.7-1-12.5-0.2-15.8 1.2-4.7 4.6-8.1 9.4-16.7 4.3-7.6 9.3-15.6 5.7-18.9-7.6-7.1-22.7 14.7-22.7 14.7l-11 19.5c0 0 4.5-10-1-14.7-5.6-4.8-5.3 6.1-10.1 11.8-4.8 5.7-0.2 17.6-1.5 26.2-1.3 8.5-1.3 15.2-1.3 15.2z"/>
			</g>
			<path id="&lt;Path&gt;" class="s2" d="m469.4 566.7c0 0-5.6 19-8.8 19.9"/>
			<g id="&lt;Group&gt;">
				<path id="&lt;Path&gt;" class="s2" d="m747 852.6q4 0.5 8 1"/>
				<path id="&lt;Path&gt;" class="s2" d="m631.4 831c26.2 7.2 60.6 14.3 105.7 20.3"/>
				<path id="&lt;Path&gt;" class="s2" d="m557.8 799.5c9.4 7.3 27.9 18 64.1 28.8"/>
				<path id="&lt;Path&gt;" class="s2" d="m549 790.2c0 0 0.9 1.9 4.1 5.2"/>
			</g>
			<path id="&lt;Path&gt;" class="s17" d="m649.6 496.4l-3.4 97.3c-9.8 0-17.5-8-17.2-17.8l2.8-79.5"/>
			<path id="&lt;Path&gt;" class="s9" d="m646.3 505.3c0 3.3-2.7 6-6 6-3.3 0-6-2.7-6-6 0-3.3 2.7-6 6-6 3.3 0 6 2.7 6 6z"/>
			<path id="&lt;Path&gt;" class="s9" d="m643.7 570.8c0 3.3-2.7 6-6 6-3.3 0-6-2.7-6-6 0-3.3 2.7-6 6-6 3.3 0 6 2.7 6 6z"/>
			<path id="&lt;Path&gt;" class="s19" d="m648.2 397.8c0 0 3.1 4.5 6.6 5.9"/>
			<path id="&lt;Path&gt;" class="s17" d="m596.3 411.1c0 0 2.9 3.5 10.4 3.7"/>
			<path id="&lt;Path&gt;" class="s19" d="m650.7 401.2c0 0-7.1 5.8-15.3 9.5"/>
			<path id="&lt;Path&gt;" class="s17" d="m592.3 411.6c0 0 6.6 22.1 27.5 19.4 20.9-2.7 28.4-22.8 28.4-22.8"/>
		</g>
	</g>
	<g id="Comment">
		<g id="&lt;Group&gt;">
			<g id="&lt;Group&gt;">
				<path id="&lt;Path&gt;" class="s8" d="m844.5 266.1h-62.6c-1.5 0-2.7-1.2-2.7-2.7 0-1.5 1.2-2.7 2.7-2.7h62.6c1.5 0 2.7 1.2 2.7 2.7 0 1.5-1.2 2.7-2.7 2.7z"/>
				<path id="&lt;Path&gt;" class="s8" d="m842.7 279.6h-60.8c-1.5 0-2.7-1.2-2.7-2.7 0-1.5 1.2-2.7 2.7-2.7h60.8c1.5 0 2.7 1.2 2.7 2.7 0 1.5-1.2 2.7-2.7 2.7z"/>
				<path id="&lt;Path&gt;" class="s8" d="m824.7 293.1h-42.8c-1.5 0-2.7-1.3-2.7-2.7 0-1.5 1.2-2.7 2.7-2.7h42.8c1.5 0 2.7 1.2 2.7 2.7 0 1.4-1.2 2.7-2.7 2.7z"/>
			</g>
			<g id="&lt;Group&gt;">
				<path id="&lt;Path&gt;" class="s17" d="m852.3 306c4.9 0 8.9-4 8.9-8.9v-34.3"/>
				<path id="&lt;Path&gt;" class="s17" d="m847.2 306h-34.1l-23.7 23.7v-23.7h-4.3"/>
				<path id="&lt;Path&gt;" class="s17" d="m765.3 262.8v34.3c0 4.9 3.9 8.9 8.8 8.9h5.1"/>
				<path id="&lt;Path&gt;" class="s17" d="m861.2 257.1c0-4.9-4-8.8-8.9-8.8h-78.2c-4.9 0-8.8 3.9-8.8 8.8"/>
			</g>
		</g>
	</g>
	<g id="Rating">
		<g id="&lt;Group&gt;">
			<g id="&lt;Group&gt;">
				<path id="&lt;Path&gt;" class="s17" d="m893.7 374.1c0-4.9-4-8.8-8.8-8.8h-130.9"/>
				<path id="&lt;Path&gt;" class="s17" d="m793 423h91.9c4.8 0 8.8-4 8.8-8.9v-33.9"/>
				<path id="&lt;Path&gt;" class="s17" d="m763.4 435.3v11.4l23.7-23.7"/>
				<path id="&lt;Path&gt;" class="s17" d="m739.3 414.1c0 4.9 3.9 8.9 8.8 8.9h15.3v7.4"/>
				<path id="&lt;Path&gt;" class="s17" d="m748.1 365.3c-4.9 0-8.8 3.9-8.8 8.8v33.9"/>
			</g>
			<g id="&lt;Group&gt;">
				<path id="&lt;Path&gt;" class="s17" d="m770.9 404.8l-10.7 5.7 2-12-8.7-8.6 12-1.7 5.4-10.9 5.4 10.9 12.1 1.7-8.7 8.6 2 12z"/>
				<path id="&lt;Path&gt;" class="s17" d="m816.5 404.8l-10.8 5.7 2.1-12-8.8-8.6 12.1-1.7 5.4-10.9 5.4 10.9 12 1.7-8.7 8.6 2.1 12z"/>
				<path id="&lt;Path&gt;" class="s17" d="m862 404.8l-10.8 5.7 2.1-12-8.7-8.6 12-1.7 5.4-10.9 5.4 10.9 12.1 1.7-8.7 8.6 2 12z"/>
			</g>
		</g>
	</g>
	<g id="Coding">
		<g id="&lt;Group&gt;">
			<path id="&lt;Compound Path&gt;" class="s17" d="m478 340.8v-37.2h8.1v40.9c0 8.5-4.3 13.4-12.6 13.4-8.3 0-12.5-4.9-12.5-13.4v-40.9h8.4v41.5c0 3.8 1.6 5.2 4.3 5.2 2.6 0 4.3-1.4 4.3-5.2"/>
			<path id="&lt;Compound Path&gt;" class="s17" d="m511.1 334.7l8 22.5h-8.9l-6.1-18.7h-0.2l-6.3 18.7h-7.9l9.7-27.4-9.3-26.2h8.9l5.7 17.3h0.1l5.9-17.3h7.9l-9.2 26.2"/>
		</g>
		<g id="&lt;Group&gt;">
			<path id="&lt;Compound Path&gt;" class="s17" d="m488.3 185.9l11.7-5v6.1l-16.1 6.8 16.1 6.8v6.2l-23.4-10.2v-5.6l7.5-3.2"/>
			<path id="&lt;Compound Path&gt;" class="s17" d="m512.7 200.8l13.3-33.8h7.3l-21.1 53.6h-7.3l5.5-13.8"/>
			<path id="&lt;Compound Path&gt;" class="s17" d="m542.2 205l-4.1 1.8v-6.2l16.2-6.8-16.2-6.8v-6.1l23.5 10.1v5.6l-13.5 5.9"/>
		</g>
	</g>
</svg>