<svg version="1.2" xmlns="http://www.w3.org/2000/svg" viewBox="0 0 1000 1000" width="1000" height="1000">
	<title>7441053_3657404-ai</title>
	<defs>
		<clipPath clipPathUnits="userSpaceOnUse" id="cp1">
			<path d="m425.5 391.63c0 0 0.77 13.93-1.55 20.51-2.33 6.58-5.42 10.83-5.42 13.93 0 3.1 5.03 6.97 5.03 13.16 0 6.19-11.22 35.99-14.32 41.79-3.09 5.81-1.93 7.74-5.8 8.13-3.87 0.38-13.55-4.26-13.55-4.26 0 0-5.8 0.77-6.58 3.1-0.77 2.32-2.7 10.45-2.7 10.45l-56.5-25.16c0 0 8.12-8.51 11.6-19.73 3.49-11.23-1.93-28.64-1.93-28.64 0 0-5.42-40.63 19.35-52.24 24.77-11.61 60.76-4.26 66.56 1.54 5.81 5.81 5.81 17.42 5.81 17.42z"/>
		</clipPath>
		<clipPath clipPathUnits="userSpaceOnUse" id="cp2">
			<path d="m312.5 481.02c0 0-0.51 0.34-1.42 0.97-5.44 3.75-25.52 17.67-40.77 29.6-17.8 13.93-18.96 39.86-19.73 59.98-0.77 20.13-13.76 145.42-16.85 160.9-3.1 15.48 24.59 19.44 51.29 23.31 26.7 3.87 61.14-0.39 77.78-8.13 16.64-7.74 20.51-7.35 20.51-15.86 0-8.52 0.39-27.87 0.39-29.42 0-1.54 12-96.35 11.22-124.22-0.77-27.86 1.55-42.95-5.03-56.88-6.58-13.93-23.22-24.77-45.27-32.12-22.06-7.36-32.12-8.13-32.12-8.13z"/>
		</clipPath>
		<clipPath clipPathUnits="userSpaceOnUse" id="cp3">
			<path d="m316.37 467.86l-10.45 17.42c0 0 31.34 7.35 47.6 13.93 16.25 6.58 37.92 23.99 37.92 23.99 0 0-3.48-19.73-6.58-24.77-3.09-5.03-35.21-22.05-48.37-27.08-13.16-5.03-20.12-3.49-20.12-3.49z"/>
		</clipPath>
		<clipPath clipPathUnits="userSpaceOnUse" id="cp4">
			<path d="m358.95 560.72c0 0-10.85 14.72-14.33 26.33-3.49 11.61 0.77 28.25 1.93 32.12 1.16 3.87 63.08 125.77 69.66 137.77 6.58 12 13.93 12.77 19.35 10.83 5.41-1.93 67.72-46.43 70.04-48.76 2.32-2.32 12.77-11.22 12.77-11.22 0 0 1.94-12.38-6.58-18.96-8.51-6.58-12.77-3.1-12.77-3.1l-54.18 14.71c0 0-30.57-105.26-34.05-125.38-3.48-20.13 1.93-18.96-8.9-29.8-10.84-10.84-23.99-19-23.99-19"/>
		</clipPath>
	</defs>
	<style>
		.s0 { fill: #c6ff00 } 
		.s1 { opacity: .7;fill: #ffffff } 
		.s2 { fill: #263238 } 
		.s3 { fill: none;stroke: #263238;stroke-miterlimit:10;stroke-width: 2 } 
		.s4 { fill: #ffffff;stroke: #263238;stroke-linecap: round;stroke-linejoin: round;stroke-width: 2 } 
		.s5 { fill: #263238;stroke: #263238;stroke-linecap: round;stroke-linejoin: round;stroke-width: 2 } 
		.s6 { fill: #c6ff00;stroke: #263238;stroke-linecap: round;stroke-linejoin: round;stroke-width: 2 } 
		.s7 { fill: none;stroke: #263238;stroke-linecap: round;stroke-linejoin: round;stroke-width: 2 } 
		.s8 { fill: none;stroke: #ffffff;stroke-linecap: round;stroke-linejoin: round } 
		.s9 { fill: none;stroke: #c6ff00;stroke-miterlimit:10;stroke-width: 2 } 
		.s10 { opacity: .4;fill: #000000 } 
		.s11 { fill: none;stroke: #707070;stroke-linecap: round;stroke-linejoin: round;stroke-width: 2 } 
	</style>
	<g id="Background Simple">
		<g id="&lt;Group&gt;">
			<path id="&lt;Path&gt;" class="s0" d="m168.6 567.3c0 0 28.7 115.4 141.8 170.7 113.1 55.3 248 30.3 357.8 12.8 109.9-17.4 179.8-98.1 172.3-194.1-7.4-96-96-104.4-163.6-200.1-67.7-95.7-71.2-131.4-180.1-174.9-109-43.4-248.9 30.7-302.8 160.2-53.9 129.5-25.4 225.4-25.4 225.4z"/>
			<path id="&lt;Path&gt;" class="s1" d="m168.6 567.3c0 0 28.7 115.4 141.8 170.7 113.1 55.3 248 30.3 357.8 12.8 109.9-17.4 179.8-98.1 172.3-194.1-7.4-96-96-104.4-163.6-200.1-67.7-95.7-71.2-131.4-180.1-174.9-109-43.4-248.9 30.7-302.8 160.2-53.9 129.5-25.4 225.4-25.4 225.4z"/>
		</g>
	</g>
	<g id="Plants">
		<path id="&lt;Compound Path&gt;" fill-rule="evenodd" class="s2" d="m872.9 658.8c0 0-10 21.9-21.3 29.2-8.9 5.7-28 8.6-35.8 9.6 7.9-2.7 28.4-10.8 43.6-26.5l-0.9-0.9c-19 19.4-46 27.1-46.3 27.1l0.4 1.3q0 0 0.4-0.1c-1 6-1.3 10.7-1.4 14.1h24.7v72.4h-43.2v-72.4h15.7c0.2-8.3 2-24 10.3-46.3q0.4-1.1 0.7-2.2c-3.5 0.3-25.4 1.1-37-12.7-12.6-15-14.7-60.8-14.7-60.8 0 0 26.4 38.8 39.5 50.9 10.5 9.6 12.4 18.2 12.7 21.3 5.2-16.2 4.9-33 1.8-49.1-4.5 0.1-17.5-0.3-24.9-9.5-8.9-11.1-5.6-25.3-5.6-25.3 0 0 7.3 10.3 15.4 16.2 5.5 4 11.3 11.3 14.4 15.4-3.1-14.6-8.3-28.6-13.6-40.9q-0.8-2-1.6-4.2c-4.3-1.2-16.7-5.3-21.1-16.3-5.3-13.2 2-25.9 2-25.9 0 0 4 12 10 20 3.4 4.5 6.4 11.2 8.3 16.1 0.1-2.7 0.6-7.4 2.3-13.3 2.8-9.5 12.9-24.4 12.9-24.4 0 0 5.6 10.7 1.8 22.6-2.6 8-9.4 13.2-13.5 15.7 2.5-4.3 11.6-20.4 11.6-25.8h-1.3c0 5.8-12 26-12.1 26.2l0.6 0.3c0.7 2.8 1.6 5.5 2.6 7.9 3.9 9.1 7.7 19 10.7 29.5 0.1-4.1 0.4-8.6 1.4-13.6 3.3-18 21.9-34.6 27.9-45.2 5.9-10.7 9.3-19.3 9.3-19.3 0 0 4.6 31.9 1.3 50.5-2.9 16.1-29 37.6-36.1 43.1 1.7 9 2.6 18.3 2.1 27.5 1.5-3.5 4.6-9.6 10.1-16.8 8.6-11.3 29.9-25.9 29.9-25.9 0 0 2 17.3-9.3 31.2-9.4 11.6-25.2 14.1-30.3 14.5 5.4-2.9 24.8-14.2 31.1-25.3l-1.1-0.7c-7 12.3-31.7 25.4-31.9 25.6l0.6 1.2q0.1-0.1 0.7-0.4c-0.7 7.6-2.3 15.3-5.1 22.8-4.3 11.6-6.8 21.4-8.2 29.2 1.5-2.3 5-7.3 12.3-16.4 10.6-13.2 47.2-21.2 47.2-21.2zm-67.2-97.7c-0.1 0-13.4-6.2-16.6-22.2l-1.3 0.3c3.3 16.6 17.2 23.1 17.3 23.2zm40.7 12.2l-1.3-0.4c-5 14-19.3 36.3-21.6 39.8-3-1.3-18.2-8.2-24.5-17.4l-1.2 0.8c7.2 10.5 24.9 17.7 25.7 18.1l0.5 0.2 0.3-0.5c0.2-0.3 16.6-25.3 22.1-40.6zm-27.9 88.9c-0.2 0-20.8-7.8-30-25.5l-1.2 0.6c9.4 18.2 30.5 26.1 30.7 26.2z"/>
	</g>
	<g id="Table">
		<g id="&lt;Group&gt;">
			<g id="&lt;Group&gt;">
				<path id="&lt;Path&gt;" class="s3" d="m396.1 431.8h311.6v353.2h-311.6z"/>
				<path id="&lt;Path&gt;" class="s3" d="m396.1 461.8h285.1v323.2h-285.1z"/>
				<path id="&lt;Path&gt;" class="s2" d="m681.2 461.8l26.5-30v353.2h-26.5z"/>
			</g>
			<g id="&lt;Group&gt;">
				<g id="&lt;Group&gt;">
					<g id="&lt;Group&gt;">
						<path id="&lt;Path&gt;" class="s4" d="m707.7 785v-65h-12.9v65z"/>
						<path id="&lt;Path&gt;" class="s5" d="m763.6 785v-110.1l-55.9 45.1v65z"/>
					</g>
					<g id="&lt;Group&gt;">
						<path id="&lt;Path&gt;" class="s4" d="m269.8 785v-65h-12.9v65z"/>
						<path id="&lt;Path&gt;" class="s5" d="m325.7 785v-110.1l-55.9 45.1v65z"/>
					</g>
					<g id="&lt;Group&gt;">
						<path id="&lt;Path&gt;" class="s4" d="m723.2 731.5h-515.9l-0.2-4.3 597.7-62.7v4.2z"/>
						<path id="&lt;Path&gt;" class="s4" d="m723.2 727.2h-515.9l130.1-62.7h467.4z"/>
						<path id="&lt;Path&gt;" class="s6" d="m693.1 716.6h-54.6l31.5-25.2h57.6z"/>
						<path id="&lt;Path&gt;" class="s5" d="m723.2 731.5v-4.3l81.6-62.7v4.2z"/>
					</g>
				</g>
				<g id="&lt;Group&gt;">
					<path id="&lt;Path&gt;" class="s7" d="m655.2 667.4h94.2c0 0 13.9-1.3 11.3 5.7-2.6 7-14.8 7.4-41.8 8.3-27.1 0.8-34 17.4-34 17.4"/>
					<g id="&lt;Group&gt;">
						<path id="&lt;Path&gt;" class="s2" d="m692.1 693.2c0 0-8.9-1.5-15.2 1.6-3.9 2-7.5 8.9-9.5 13.8-1.1 2.4 0.7 5 3.3 5h11.9c1 0 2-0.4 2.7-1.2l12-13.4c0 0-0.5-5.2-5.2-5.8z"/>
						<path id="&lt;Path&gt;" class="s8" d="m684.6 710c0 0-1.2-8.3 7.4-13.1"/>
					</g>
				</g>
			</g>
		</g>
		<g id="&lt;Group&gt;">
			<g id="&lt;Group&gt;">
				<path id="&lt;Path&gt;" class="s4" d="m621.3 720.2h-191.9l46.7-37.3h191.9z"/>
				<path id="&lt;Path&gt;" class="s7" d="m668 685.3v-2.4l-46.7 37.3v2.3z"/>
				<path id="&lt;Path&gt;" class="s4" d="m429.4 722.5v-2.3h191.9v2.3z"/>
			</g>
			<g id="&lt;Group&gt;">
				<path id="&lt;Path&gt;" class="s7" d="m492 704.1l-6.2 5h12.7l6.2-5z"/>
				<path id="&lt;Path&gt;" class="s7" d="m504.7 704.1l-6.2 5h12.7l6.1-5z"/>
				<path id="&lt;Path&gt;" class="s7" d="m479.3 704.1l-6.2 5h12.7l6.2-5z"/>
				<path id="&lt;Path&gt;" class="s7" d="m498.1 699.1h-12.6l-6.2 5h12.7z"/>
				<path id="&lt;Path&gt;" class="s7" d="m510.8 699.1l6.2-5h-12.7l-6.2 5z"/>
				<path id="&lt;Path&gt;" class="s7" d="m504.3 694.1h-12.7l-6.1 5h12.6z"/>
				<path id="&lt;Path&gt;" class="s7" d="m517.3 704.1l-6.1 5h12.6l6.2-5z"/>
				<path id="&lt;Path&gt;" class="s7" d="m580.7 704.1l-6.2 5h12.7l6.2-5z"/>
				<path id="&lt;Path&gt;" class="s7" d="m523.5 699.1l6.2-5h-12.7l-6.2 5z"/>
				<path id="&lt;Path&gt;" class="s7" d="m530 704.1l-6.2 5h12.7l6.2-5z"/>
				<path id="&lt;Path&gt;" class="s7" d="m599.9 709.1h12.6l6.2-5h-12.7z"/>
				<path id="&lt;Path&gt;" class="s7" d="m606 704.1h12.7l6.2-5h-12.7z"/>
				<path id="&lt;Path&gt;" class="s7" d="m593.4 704.1l-6.2 5h12.7l6.1-5z"/>
				<path id="&lt;Path&gt;" class="s7" d="m568 704.1l-6.1 5h12.6l6.2-5z"/>
				<path id="&lt;Path&gt;" class="s7" d="m542.7 704.1l-6.2 5h12.7l6.1-5z"/>
				<path id="&lt;Path&gt;" class="s7" d="m555.3 704.1l-6.1 5h12.7l6.1-5z"/>
				<path id="&lt;Path&gt;" class="s7" d="m574.2 699.1l6.2-5h-12.7l-6.2 5z"/>
				<path id="&lt;Path&gt;" class="s7" d="m586.9 699.1l-6.2 5h12.7l6.1-5z"/>
				<path id="&lt;Path&gt;" class="s7" d="m561.5 699.1l-6.2 5h12.7l6.2-5z"/>
				<path id="&lt;Path&gt;" class="s7" d="m536.2 699.1l-6.2 5h12.7l6.1-5z"/>
				<path id="&lt;Path&gt;" class="s7" d="m574.2 699.1l-6.2 5h12.7l6.2-5z"/>
				<path id="&lt;Path&gt;" class="s7" d="m536.2 699.1l6.1-5h-12.6l-6.2 5z"/>
				<path id="&lt;Path&gt;" class="s7" d="m498.1 699.1l-6.1 5h12.7l6.1-5z"/>
				<path id="&lt;Path&gt;" class="s7" d="m523.5 699.1l-6.2 5h12.7l6.2-5z"/>
				<path id="&lt;Path&gt;" class="s7" d="m510.8 699.1l-6.1 5h12.6l6.2-5z"/>
				<path id="&lt;Path&gt;" class="s7" d="m548.8 699.1l-6.1 5h12.6l6.2-5z"/>
				<path id="&lt;Path&gt;" class="s7" d="m561.5 699.1l6.2-5h-12.7l-6.2 5z"/>
				<path id="&lt;Path&gt;" class="s7" d="m612.2 699.1h12.7l6.2-5h-12.7z"/>
				<path id="&lt;Path&gt;" class="s7" d="m548.8 699.1l6.2-5h-12.7l-6.1 5z"/>
				<path id="&lt;Path&gt;" class="s7" d="m599.5 699.1l6.2-5h-12.7l-6.1 5z"/>
				<path id="&lt;Path&gt;" class="s7" d="m612.2 699.1l6.2-5h-12.7l-6.2 5z"/>
				<path id="&lt;Path&gt;" class="s7" d="m593.4 704.1h12.6l6.2-5h-12.7z"/>
				<path id="&lt;Path&gt;" class="s7" d="m586.9 699.1l6.1-5h-12.6l-6.2 5z"/>
				<path id="&lt;Path&gt;" class="s7" d="m549.2 709.1l-6.2 4.9h12.7l6.2-4.9z"/>
				<path id="&lt;Path&gt;" class="s7" d="m561.9 709.1l-6.2 4.9h12.7l6.1-4.9z"/>
				<path id="&lt;Path&gt;" class="s7" d="m536.5 709.1l-6.2 4.9h12.7l6.2-4.9z"/>
				<path id="&lt;Path&gt;" class="s7" d="m574.5 709.1l-6.1 4.9h12.6l6.2-4.9z"/>
				<path id="&lt;Path&gt;" class="s7" d="m523.8 709.1l-6.1 4.9h12.6l6.2-4.9z"/>
				<path id="&lt;Path&gt;" class="s7" d="m511.2 709.1l-6.2 4.9h12.7l6.1-4.9z"/>
				<path id="&lt;Path&gt;" class="s7" d="m587.2 709.1l-6.2 4.9h12.7l6.2-4.9z"/>
				<path id="&lt;Path&gt;" class="s7" d="m485.8 709.1l-6.2 4.9h12.7l6.2-4.9z"/>
				<path id="&lt;Path&gt;" class="s7" d="m498.5 709.1l-6.2 4.9h12.7l6.2-4.9z"/>
				<path id="&lt;Path&gt;" class="s7" d="m618.7 704.1h12.7l6.2-5h-12.7z"/>
				<path id="&lt;Path&gt;" class="s7" d="m637.2 689.1l-6.1 5h12.6l6.2-5z"/>
				<path id="&lt;Path&gt;" class="s7" d="m624.9 699.1h12.7l6.1-5h-12.6z"/>
				<path id="&lt;Path&gt;" class="s7" d="m473.1 709.1l-6.1 4.9h12.6l6.2-4.9z"/>
				<path id="&lt;Path&gt;" class="s7" d="m599.9 709.1l-6.2 4.9h12.7l6.1-4.9z"/>
				<path id="&lt;Path&gt;" class="s7" d="m606.4 714h12.7l6.1-4.9h-12.7z"/>
				<path id="&lt;Path&gt;" class="s7" d="m612.5 709.1h12.7l6.2-5h-12.7z"/>
				<path id="&lt;Path&gt;" class="s7" d="m485.5 699.1h-12.7l-6.2 5h12.7z"/>
				<path id="&lt;Path&gt;" class="s7" d="m567.7 694.1l6.2-5h-12.7l-6.2 5z"/>
				<path id="&lt;Path&gt;" class="s7" d="m580.4 694.1l6.1-5h-12.6l-6.2 5z"/>
				<path id="&lt;Path&gt;" class="s7" d="m555 694.1l6.2-5h-12.7l-6.2 5z"/>
				<path id="&lt;Path&gt;" class="s7" d="m593 694.1l6.2-5h-12.7l-6.1 5z"/>
				<path id="&lt;Path&gt;" class="s7" d="m618.4 694.1l6.1-5h-12.6l-6.2 5z"/>
				<path id="&lt;Path&gt;" class="s7" d="m605.7 694.1l6.2-5h-12.7l-6.2 5z"/>
				<path id="&lt;Path&gt;" class="s7" d="m542.3 694.1l6.2-5h-12.7l-6.1 5z"/>
				<path id="&lt;Path&gt;" class="s7" d="m479.3 704.1h-12.7l-6.1 5h12.6z"/>
				<path id="&lt;Path&gt;" class="s7" d="m491.6 694.1h-12.6l-6.2 5h12.7z"/>
				<path id="&lt;Path&gt;" class="s7" d="m631.1 694.1l6.1-5h-12.7l-6.1 5z"/>
				<path id="&lt;Path&gt;" class="s7" d="m460.5 709.1l-6.2 4.9h12.7l6.1-4.9z"/>
				<path id="&lt;Path&gt;" class="s7" d="m497.8 689.1h-12.7l-6.1 5h12.6z"/>
				<path id="&lt;Path&gt;" class="s7" d="m517 694.1l6.2-5h-12.7l-6.2 5z"/>
				<path id="&lt;Path&gt;" class="s7" d="m504.3 694.1l6.2-5h-12.7l-6.2 5z"/>
				<path id="&lt;Path&gt;" class="s7" d="m529.7 694.1l6.1-5h-12.6l-6.2 5z"/>
			</g>
		</g>
	</g>
	<g id="Device 3">
		<g id="&lt;Group&gt;">
			<g id="&lt;Group&gt;">
				<path id="&lt;Path&gt;" class="s5" d="m674.8 678.1h-66.1c-1.1 0-1.5-1.5-0.5-2l13.6-6.6q0.2-0.1 0.5-0.1h61.1c1 0 1.4 1.3 0.6 1.9l-8.5 6.6q-0.3 0.2-0.7 0.2z"/>
				<path id="&lt;Path&gt;" class="s4" d="m655.4 674.5h-12.1v-46.4h12.1z"/>
				<path id="&lt;Path&gt;" class="s5" d="m657.3 661.8h-15.9v-33.7h15.9z"/>
			</g>
			<path id="&lt;Path&gt;" class="s4" d="m752.9 631.5h-201.4v-157.5h201.4z"/>
			<path id="&lt;Path&gt;" class="s5" d="m742.1 623.1h-179.8v-140.7h179.8z"/>
			<g id="&lt;Group&gt;">
				<g id="&lt;Group&gt;">
					<path id="&lt;Compound Path&gt;" fill-rule="evenodd" class="s0" d="m579.4 492.1h-4.6c-0.6 0-1.2-0.5-1.2-1.2 0-0.6 0.6-1.1 1.2-1.1h4.6c0.6 0 1.2 0.5 1.2 1.1 0 0.7-0.6 1.2-1.2 1.2zm0 5.3h-4.6c-0.6 0-1.2-0.5-1.2-1.2 0-0.6 0.6-1.1 1.2-1.1h4.6c0.6 0 1.2 0.5 1.2 1.1 0 0.7-0.6 1.2-1.2 1.2zm0 5.3h-4.6c-0.6 0-1.2-0.5-1.2-1.2 0-0.6 0.6-1.1 1.2-1.1h4.6c0.6 0 1.2 0.5 1.2 1.1 0 0.7-0.6 1.2-1.2 1.2zm0 5.3h-4.6c-0.6 0-1.2-0.5-1.2-1.2 0-0.6 0.6-1.1 1.2-1.1h4.6c0.6 0 1.2 0.5 1.2 1.1 0 0.7-0.6 1.2-1.2 1.2zm0 5.3h-4.6c-0.6 0-1.2-0.5-1.2-1.2 0-0.6 0.6-1.1 1.2-1.1h4.6c0.6 0 1.2 0.5 1.2 1.1 0 0.7-0.6 1.2-1.2 1.2zm0 5.3h-4.6c-0.6 0-1.2-0.5-1.2-1.2 0-0.6 0.6-1.1 1.2-1.1h4.6c0.6 0 1.2 0.5 1.2 1.1 0 0.7-0.6 1.2-1.2 1.2zm0 5.3h-4.6c-0.6 0-1.2-0.5-1.2-1.2 0-0.6 0.6-1.1 1.2-1.1h4.6c0.6 0 1.2 0.5 1.2 1.1 0 0.7-0.6 1.2-1.2 1.2zm0 5.3h-4.6c-0.6 0-1.2-0.5-1.2-1.2 0-0.6 0.6-1.1 1.2-1.1h4.6c0.6 0 1.2 0.5 1.2 1.1 0 0.7-0.6 1.2-1.2 1.2zm17.4-37.1h-12.2c-0.6 0-1.2-0.5-1.2-1.2 0-0.6 0.6-1.1 1.2-1.1h12.2c0.6 0 1.1 0.5 1.1 1.1 0 0.7-0.5 1.2-1.1 1.2zm0 5.3h-12.2c-0.6 0-1.2-0.5-1.2-1.2 0-0.6 0.6-1.1 1.2-1.1h12.2c0.6 0 1.1 0.5 1.1 1.1 0 0.7-0.5 1.2-1.1 1.2zm0 5.3h-12.2c-0.6 0-1.2-0.5-1.2-1.2 0-0.6 0.6-1.1 1.2-1.1h12.2c0.6 0 1.1 0.5 1.1 1.1 0 0.7-0.5 1.2-1.1 1.2zm0 5.3h-12.2c-0.6 0-1.2-0.5-1.2-1.2 0-0.6 0.6-1.1 1.2-1.1h12.2c0.6 0 1.1 0.5 1.1 1.1 0 0.7-0.5 1.2-1.1 1.2zm0 5.3h-12.2c-0.6 0-1.2-0.5-1.2-1.2 0-0.6 0.6-1.1 1.2-1.1h12.2c0.6 0 1.1 0.5 1.1 1.1 0 0.7-0.5 1.2-1.1 1.2zm14.5 5.3h-12.1c-0.7 0-1.2-0.5-1.2-1.2 0-0.6 0.5-1.1 1.2-1.1h12.1c0.7 0 1.2 0.5 1.2 1.1 0 0.7-0.5 1.2-1.2 1.2zm0 5.3h-12.1c-0.7 0-1.2-0.5-1.2-1.2 0-0.6 0.5-1.1 1.2-1.1h12.1c0.7 0 1.2 0.5 1.2 1.1 0 0.7-0.5 1.2-1.2 1.2zm0 5.3h-12.1c-0.7 0-1.2-0.5-1.2-1.2 0-0.6 0.5-1.1 1.2-1.1h12.1c0.7 0 1.2 0.5 1.2 1.1 0 0.7-0.5 1.2-1.2 1.2zm-9.4-36.9c-0.7 0-1.3-0.6-1.3-1.4 0-0.7 0.6-1.3 1.3-1.3 0.8 0 1.4 0.6 1.4 1.3 0 0.8-0.6 1.4-1.4 1.4zm4 0c-0.7 0-1.3-0.6-1.3-1.4 0-0.7 0.6-1.3 1.3-1.3 0.7 0 1.3 0.6 1.3 1.3 0 0.8-0.6 1.4-1.3 1.4zm4 0c-0.8 0-1.3-0.6-1.3-1.4 0-0.7 0.5-1.3 1.3-1.3 0.7 0 1.3 0.6 1.3 1.3 0 0.8-0.6 1.4-1.3 1.4zm3.9 0c-0.7 0-1.3-0.6-1.3-1.4 0-0.7 0.6-1.3 1.3-1.3 0.8 0 1.4 0.6 1.4 1.3 0 0.8-0.6 1.4-1.4 1.4zm4 0c-0.7 0-1.3-0.6-1.3-1.4 0-0.7 0.6-1.3 1.3-1.3 0.8 0 1.3 0.6 1.3 1.3 0 0.8-0.5 1.4-1.3 1.4zm4 0c-0.7 0-1.3-0.6-1.3-1.4 0-0.7 0.6-1.3 1.3-1.3 0.7 0 1.3 0.6 1.3 1.3 0 0.8-0.6 1.4-1.3 1.4zm-19.9 10.6c-0.7 0-1.3-0.6-1.3-1.4 0-0.7 0.6-1.3 1.3-1.3 0.8 0 1.4 0.6 1.4 1.3 0 0.8-0.6 1.4-1.4 1.4zm4 0c-0.7 0-1.3-0.6-1.3-1.4 0-0.7 0.6-1.3 1.3-1.3 0.7 0 1.3 0.6 1.3 1.3 0 0.8-0.6 1.4-1.3 1.4zm4 0c-0.8 0-1.3-0.6-1.3-1.4 0-0.7 0.5-1.3 1.3-1.3 0.7 0 1.3 0.6 1.3 1.3 0 0.8-0.6 1.4-1.3 1.4zm3.9 0c-0.7 0-1.3-0.6-1.3-1.4 0-0.7 0.6-1.3 1.3-1.3 0.8 0 1.4 0.6 1.4 1.3 0 0.8-0.6 1.4-1.4 1.4zm4 0c-0.7 0-1.3-0.6-1.3-1.4 0-0.7 0.6-1.3 1.3-1.3 0.8 0 1.3 0.6 1.3 1.3 0 0.8-0.5 1.4-1.3 1.4zm4 0c-0.7 0-1.3-0.6-1.3-1.4 0-0.7 0.6-1.3 1.3-1.3 0.7 0 1.3 0.6 1.3 1.3 0 0.8-0.6 1.4-1.3 1.4zm-6.3 15.2c-0.7 0-1.3-0.6-1.3-1.3 0-0.8 0.6-1.4 1.3-1.4 0.7 0 1.3 0.6 1.3 1.4 0 0.7-0.6 1.3-1.3 1.3zm4 0c-0.8 0-1.3-0.6-1.3-1.3 0-0.8 0.5-1.4 1.3-1.4 0.7 0 1.3 0.6 1.3 1.4 0 0.7-0.6 1.3-1.3 1.3zm4 0c-0.8 0-1.4-0.6-1.4-1.3 0-0.8 0.6-1.4 1.4-1.4 0.7 0 1.3 0.6 1.3 1.4 0 0.7-0.6 1.3-1.3 1.3zm3.9 0c-0.7 0-1.3-0.6-1.3-1.3 0-0.8 0.6-1.4 1.3-1.4 0.8 0 1.3 0.6 1.3 1.4 0 0.7-0.5 1.3-1.3 1.3zm4 0c-0.7 0-1.3-0.6-1.3-1.3 0-0.8 0.6-1.4 1.3-1.4 0.7 0 1.3 0.6 1.3 1.4 0 0.7-0.6 1.3-1.3 1.3zm4 0c-0.8 0-1.4-0.6-1.4-1.3 0-0.8 0.6-1.4 1.4-1.4 0.7 0 1.3 0.6 1.3 1.4 0 0.7-0.6 1.3-1.3 1.3zm-19.9 10.9c-0.7 0-1.3-0.6-1.3-1.3 0-0.7 0.6-1.3 1.3-1.3 0.7 0 1.3 0.6 1.3 1.3 0 0.7-0.6 1.3-1.3 1.3zm4 0c-0.8 0-1.3-0.6-1.3-1.3 0-0.7 0.5-1.3 1.3-1.3 0.7 0 1.3 0.6 1.3 1.3 0 0.7-0.6 1.3-1.3 1.3zm4 0c-0.8 0-1.4-0.6-1.4-1.3 0-0.7 0.6-1.3 1.4-1.3 0.7 0 1.3 0.6 1.3 1.3 0 0.7-0.6 1.3-1.3 1.3zm3.9 0c-0.7 0-1.3-0.6-1.3-1.3 0-0.7 0.6-1.3 1.3-1.3 0.8 0 1.3 0.6 1.3 1.3 0 0.7-0.5 1.3-1.3 1.3zm4 0c-0.7 0-1.3-0.6-1.3-1.3 0-0.7 0.6-1.3 1.3-1.3 0.7 0 1.3 0.6 1.3 1.3 0 0.7-0.6 1.3-1.3 1.3zm4 0c-0.8 0-1.4-0.6-1.4-1.3 0-0.7 0.6-1.3 1.4-1.3 0.7 0 1.3 0.6 1.3 1.3 0 0.7-0.6 1.3-1.3 1.3z"/>
					<path id="&lt;Compound Path&gt;" fill-rule="evenodd" class="s0" d="m579.4 534.5h-4.6c-0.6 0-1.2-0.5-1.2-1.2 0-0.6 0.6-1.1 1.2-1.1h4.6c0.6 0 1.2 0.5 1.2 1.1 0 0.7-0.6 1.2-1.2 1.2zm0 5.3h-4.6c-0.6 0-1.2-0.5-1.2-1.2 0-0.6 0.6-1.1 1.2-1.1h4.6c0.6 0 1.2 0.5 1.2 1.1 0 0.7-0.6 1.2-1.2 1.2zm0 5.3h-4.6c-0.6 0-1.2-0.5-1.2-1.2 0-0.6 0.6-1.1 1.2-1.1h4.6c0.6 0 1.2 0.5 1.2 1.1 0 0.7-0.6 1.2-1.2 1.2zm0 5.3h-4.6c-0.6 0-1.2-0.5-1.2-1.2 0-0.6 0.6-1.1 1.2-1.1h4.6c0.6 0 1.2 0.5 1.2 1.1 0 0.7-0.6 1.2-1.2 1.2zm0 5.3h-4.6c-0.6 0-1.2-0.5-1.2-1.2 0-0.6 0.6-1.1 1.2-1.1h4.6c0.6 0 1.2 0.5 1.2 1.1 0 0.7-0.6 1.2-1.2 1.2zm0 5.3h-4.6c-0.6 0-1.2-0.5-1.2-1.2 0-0.6 0.6-1.1 1.2-1.1h4.6c0.6 0 1.2 0.5 1.2 1.1 0 0.7-0.6 1.2-1.2 1.2zm0 5.3h-4.6c-0.6 0-1.2-0.6-1.2-1.2 0-0.6 0.6-1.1 1.2-1.1h4.6c0.6 0 1.2 0.5 1.2 1.1 0 0.6-0.6 1.2-1.2 1.2zm0 5.3h-4.6c-0.6 0-1.2-0.6-1.2-1.2 0-0.6 0.6-1.1 1.2-1.1h4.6c0.6 0 1.2 0.5 1.2 1.1 0 0.6-0.6 1.2-1.2 1.2zm17.4-37.1h-12.2c-0.6 0-1.2-0.5-1.2-1.2 0-0.6 0.6-1.1 1.2-1.1h12.2c0.6 0 1.1 0.5 1.1 1.1 0 0.7-0.5 1.2-1.1 1.2zm0 5.3h-12.2c-0.6 0-1.2-0.5-1.2-1.2 0-0.6 0.6-1.1 1.2-1.1h12.2c0.6 0 1.1 0.5 1.1 1.1 0 0.7-0.5 1.2-1.1 1.2zm0 5.3h-12.2c-0.6 0-1.2-0.5-1.2-1.2 0-0.6 0.6-1.1 1.2-1.1h12.2c0.6 0 1.1 0.5 1.1 1.1 0 0.7-0.5 1.2-1.1 1.2zm0 5.3h-12.2c-0.6 0-1.2-0.5-1.2-1.2 0-0.6 0.6-1.1 1.2-1.1h12.2c0.6 0 1.1 0.5 1.1 1.1 0 0.7-0.5 1.2-1.1 1.2zm0 5.3h-12.2c-0.6 0-1.2-0.5-1.2-1.2 0-0.6 0.6-1.1 1.2-1.1h12.2c0.6 0 1.1 0.5 1.1 1.1 0 0.7-0.5 1.2-1.1 1.2zm14.5 5.3h-12.1c-0.7 0-1.2-0.5-1.2-1.2 0-0.6 0.5-1.1 1.2-1.1h12.1c0.7 0 1.2 0.5 1.2 1.1 0 0.7-0.5 1.2-1.2 1.2zm0 5.3h-12.1c-0.7 0-1.2-0.6-1.2-1.2 0-0.6 0.5-1.1 1.2-1.1h12.1c0.7 0 1.2 0.5 1.2 1.1 0 0.6-0.5 1.2-1.2 1.2zm0 5.3h-12.1c-0.7 0-1.2-0.6-1.2-1.2 0-0.6 0.5-1.1 1.2-1.1h12.1c0.7 0 1.2 0.5 1.2 1.1 0 0.6-0.5 1.2-1.2 1.2zm-9.4-36.9c-0.7 0-1.3-0.6-1.3-1.4 0-0.7 0.6-1.3 1.3-1.3 0.8 0 1.4 0.6 1.4 1.3 0 0.8-0.6 1.4-1.4 1.4zm4 0c-0.7 0-1.3-0.6-1.3-1.4 0-0.7 0.6-1.3 1.3-1.3 0.7 0 1.3 0.6 1.3 1.3 0 0.8-0.6 1.4-1.3 1.4zm4 0c-0.8 0-1.3-0.6-1.3-1.4 0-0.7 0.5-1.3 1.3-1.3 0.7 0 1.3 0.6 1.3 1.3 0 0.8-0.6 1.4-1.3 1.4zm3.9 0c-0.7 0-1.3-0.6-1.3-1.4 0-0.7 0.6-1.3 1.3-1.3 0.8 0 1.4 0.6 1.4 1.3 0 0.8-0.6 1.4-1.4 1.4zm4 0c-0.7 0-1.3-0.6-1.3-1.4 0-0.7 0.6-1.3 1.3-1.3 0.8 0 1.3 0.6 1.3 1.3 0 0.8-0.5 1.4-1.3 1.4zm4 0c-0.7 0-1.3-0.6-1.3-1.4 0-0.7 0.6-1.3 1.3-1.3 0.7 0 1.3 0.6 1.3 1.3 0 0.8-0.6 1.4-1.3 1.4zm-19.9 10.6c-0.7 0-1.3-0.6-1.3-1.4 0-0.7 0.6-1.3 1.3-1.3 0.8 0 1.4 0.6 1.4 1.3 0 0.8-0.6 1.4-1.4 1.4zm4 0c-0.7 0-1.3-0.6-1.3-1.4 0-0.7 0.6-1.3 1.3-1.3 0.7 0 1.3 0.6 1.3 1.3 0 0.8-0.6 1.4-1.3 1.4zm4 0c-0.8 0-1.3-0.6-1.3-1.4 0-0.7 0.5-1.3 1.3-1.3 0.7 0 1.3 0.6 1.3 1.3 0 0.8-0.6 1.4-1.3 1.4zm3.9 0c-0.7 0-1.3-0.6-1.3-1.4 0-0.7 0.6-1.3 1.3-1.3 0.8 0 1.4 0.6 1.4 1.3 0 0.8-0.6 1.4-1.4 1.4zm4 0c-0.7 0-1.3-0.6-1.3-1.4 0-0.7 0.6-1.3 1.3-1.3 0.8 0 1.3 0.6 1.3 1.3 0 0.8-0.5 1.4-1.3 1.4zm4 0c-0.7 0-1.3-0.6-1.3-1.4 0-0.7 0.6-1.3 1.3-1.3 0.7 0 1.3 0.6 1.3 1.3 0 0.8-0.6 1.4-1.3 1.4zm-6.3 15.2c-0.7 0-1.3-0.6-1.3-1.3 0-0.8 0.6-1.4 1.3-1.4 0.7 0 1.3 0.6 1.3 1.4 0 0.7-0.6 1.3-1.3 1.3zm4 0c-0.8 0-1.3-0.6-1.3-1.3 0-0.8 0.5-1.4 1.3-1.4 0.7 0 1.3 0.6 1.3 1.4 0 0.7-0.6 1.3-1.3 1.3zm4 0c-0.8 0-1.4-0.6-1.4-1.3 0-0.8 0.6-1.4 1.4-1.4 0.7 0 1.3 0.6 1.3 1.4 0 0.7-0.6 1.3-1.3 1.3zm3.9 0c-0.7 0-1.3-0.6-1.3-1.3 0-0.8 0.6-1.4 1.3-1.4 0.8 0 1.3 0.6 1.3 1.4 0 0.7-0.5 1.3-1.3 1.3zm4 0c-0.7 0-1.3-0.6-1.3-1.3 0-0.8 0.6-1.4 1.3-1.4 0.7 0 1.3 0.6 1.3 1.4 0 0.7-0.6 1.3-1.3 1.3zm4 0c-0.8 0-1.4-0.6-1.4-1.3 0-0.8 0.6-1.4 1.4-1.4 0.7 0 1.3 0.6 1.3 1.4 0 0.7-0.6 1.3-1.3 1.3zm-19.9 10.9c-0.7 0-1.3-0.6-1.3-1.3 0-0.8 0.6-1.3 1.3-1.3 0.7 0 1.3 0.5 1.3 1.3 0 0.7-0.6 1.3-1.3 1.3zm4 0c-0.8 0-1.3-0.6-1.3-1.3 0-0.8 0.5-1.3 1.3-1.3 0.7 0 1.3 0.5 1.3 1.3 0 0.7-0.6 1.3-1.3 1.3zm4 0c-0.8 0-1.4-0.6-1.4-1.3 0-0.8 0.6-1.3 1.4-1.3 0.7 0 1.3 0.5 1.3 1.3 0 0.7-0.6 1.3-1.3 1.3zm3.9 0c-0.7 0-1.3-0.6-1.3-1.3 0-0.8 0.6-1.3 1.3-1.3 0.8 0 1.3 0.5 1.3 1.3 0 0.7-0.5 1.3-1.3 1.3zm4 0c-0.7 0-1.3-0.6-1.3-1.3 0-0.8 0.6-1.3 1.3-1.3 0.7 0 1.3 0.5 1.3 1.3 0 0.7-0.6 1.3-1.3 1.3zm4 0c-0.8 0-1.4-0.6-1.4-1.3 0-0.8 0.6-1.3 1.4-1.3 0.7 0 1.3 0.5 1.3 1.3 0 0.7-0.6 1.3-1.3 1.3z"/>
					<path id="&lt;Compound Path&gt;" fill-rule="evenodd" class="s0" d="m579.4 577.9h-4.6c-0.6 0-1.2-0.5-1.2-1.2 0-0.6 0.6-1.1 1.2-1.1h4.6c0.6 0 1.2 0.5 1.2 1.1 0 0.7-0.6 1.2-1.2 1.2zm0 5.3h-4.6c-0.6 0-1.2-0.5-1.2-1.2 0-0.6 0.6-1.1 1.2-1.1h4.6c0.6 0 1.2 0.5 1.2 1.1 0 0.7-0.6 1.2-1.2 1.2zm0 5.3h-4.6c-0.6 0-1.2-0.5-1.2-1.2 0-0.6 0.6-1.1 1.2-1.1h4.6c0.6 0 1.2 0.5 1.2 1.1 0 0.7-0.6 1.2-1.2 1.2zm0 5.3h-4.6c-0.6 0-1.2-0.5-1.2-1.2 0-0.6 0.6-1.1 1.2-1.1h4.6c0.6 0 1.2 0.5 1.2 1.1 0 0.7-0.6 1.2-1.2 1.2zm0 5.3h-4.6c-0.6 0-1.2-0.5-1.2-1.2 0-0.6 0.6-1.1 1.2-1.1h4.6c0.6 0 1.2 0.5 1.2 1.1 0 0.7-0.6 1.2-1.2 1.2zm0 5.3h-4.6c-0.6 0-1.2-0.5-1.2-1.2 0-0.6 0.6-1.1 1.2-1.1h4.6c0.6 0 1.2 0.5 1.2 1.1 0 0.7-0.6 1.2-1.2 1.2zm0 5.3h-4.6c-0.6 0-1.2-0.5-1.2-1.2 0-0.6 0.6-1.1 1.2-1.1h4.6c0.6 0 1.2 0.5 1.2 1.1 0 0.7-0.6 1.2-1.2 1.2zm0 5.3h-4.6c-0.6 0-1.2-0.5-1.2-1.2 0-0.6 0.6-1.1 1.2-1.1h4.6c0.6 0 1.2 0.5 1.2 1.1 0 0.7-0.6 1.2-1.2 1.2zm17.4-37.1h-12.2c-0.6 0-1.2-0.5-1.2-1.2 0-0.6 0.6-1.1 1.2-1.1h12.2c0.6 0 1.1 0.5 1.1 1.1 0 0.7-0.5 1.2-1.1 1.2zm0 5.3h-12.2c-0.6 0-1.2-0.5-1.2-1.2 0-0.6 0.6-1.1 1.2-1.1h12.2c0.6 0 1.1 0.5 1.1 1.1 0 0.7-0.5 1.2-1.1 1.2zm0 5.3h-12.2c-0.6 0-1.2-0.5-1.2-1.2 0-0.6 0.6-1.1 1.2-1.1h12.2c0.6 0 1.1 0.5 1.1 1.1 0 0.7-0.5 1.2-1.1 1.2zm0 5.3h-12.2c-0.6 0-1.2-0.5-1.2-1.2 0-0.6 0.6-1.1 1.2-1.1h12.2c0.6 0 1.1 0.5 1.1 1.1 0 0.7-0.5 1.2-1.1 1.2zm0 5.3h-12.2c-0.6 0-1.2-0.5-1.2-1.2 0-0.6 0.6-1.1 1.2-1.1h12.2c0.6 0 1.1 0.5 1.1 1.1 0 0.7-0.5 1.2-1.1 1.2zm14.5 5.3h-12.1c-0.7 0-1.2-0.5-1.2-1.2 0-0.6 0.5-1.1 1.2-1.1h12.1c0.7 0 1.2 0.5 1.2 1.1 0 0.7-0.5 1.2-1.2 1.2zm0 5.3h-12.1c-0.7 0-1.2-0.5-1.2-1.2 0-0.6 0.5-1.1 1.2-1.1h12.1c0.7 0 1.2 0.5 1.2 1.1 0 0.7-0.5 1.2-1.2 1.2zm0 5.3h-12.1c-0.7 0-1.2-0.5-1.2-1.2 0-0.6 0.5-1.1 1.2-1.1h12.1c0.7 0 1.2 0.5 1.2 1.1 0 0.7-0.5 1.2-1.2 1.2zm-9.4-36.9c-0.7 0-1.3-0.6-1.3-1.4 0-0.7 0.6-1.3 1.3-1.3 0.8 0 1.4 0.6 1.4 1.3 0 0.8-0.6 1.4-1.4 1.4zm4 0c-0.7 0-1.3-0.6-1.3-1.4 0-0.7 0.6-1.3 1.3-1.3 0.7 0 1.3 0.6 1.3 1.3 0 0.8-0.6 1.4-1.3 1.4zm4 0c-0.8 0-1.3-0.6-1.3-1.4 0-0.7 0.5-1.3 1.3-1.3 0.7 0 1.3 0.6 1.3 1.3 0 0.8-0.6 1.4-1.3 1.4zm3.9 0c-0.7 0-1.3-0.6-1.3-1.4 0-0.7 0.6-1.3 1.3-1.3 0.8 0 1.4 0.6 1.4 1.3 0 0.8-0.6 1.4-1.4 1.4zm4 0c-0.7 0-1.3-0.6-1.3-1.4 0-0.7 0.6-1.3 1.3-1.3 0.8 0 1.3 0.6 1.3 1.3 0 0.8-0.5 1.4-1.3 1.4zm4 0c-0.7 0-1.3-0.6-1.3-1.4 0-0.7 0.6-1.3 1.3-1.3 0.7 0 1.3 0.6 1.3 1.3 0 0.8-0.6 1.4-1.3 1.4zm-19.9 10.6c-0.7 0-1.3-0.6-1.3-1.4 0-0.7 0.6-1.3 1.3-1.3 0.8 0 1.4 0.6 1.4 1.3 0 0.8-0.6 1.4-1.4 1.4zm4 0c-0.7 0-1.3-0.6-1.3-1.4 0-0.7 0.6-1.3 1.3-1.3 0.7 0 1.3 0.6 1.3 1.3 0 0.8-0.6 1.4-1.3 1.4zm4 0c-0.8 0-1.3-0.6-1.3-1.4 0-0.7 0.5-1.3 1.3-1.3 0.7 0 1.3 0.6 1.3 1.3 0 0.8-0.6 1.4-1.3 1.4zm3.9 0c-0.7 0-1.3-0.6-1.3-1.4 0-0.7 0.6-1.3 1.3-1.3 0.8 0 1.4 0.6 1.4 1.3 0 0.8-0.6 1.4-1.4 1.4zm4 0c-0.7 0-1.3-0.6-1.3-1.4 0-0.7 0.6-1.3 1.3-1.3 0.8 0 1.3 0.6 1.3 1.3 0 0.8-0.5 1.4-1.3 1.4zm4 0c-0.7 0-1.3-0.6-1.3-1.4 0-0.7 0.6-1.3 1.3-1.3 0.7 0 1.3 0.6 1.3 1.3 0 0.8-0.6 1.4-1.3 1.4zm-6.3 15.2c-0.7 0-1.3-0.6-1.3-1.3 0-0.8 0.6-1.4 1.3-1.4 0.7 0 1.3 0.6 1.3 1.4 0 0.7-0.6 1.3-1.3 1.3zm4 0c-0.8 0-1.3-0.6-1.3-1.3 0-0.8 0.5-1.4 1.3-1.4 0.7 0 1.3 0.6 1.3 1.4 0 0.7-0.6 1.3-1.3 1.3zm4 0c-0.8 0-1.4-0.6-1.4-1.3 0-0.8 0.6-1.4 1.4-1.4 0.7 0 1.3 0.6 1.3 1.4 0 0.7-0.6 1.3-1.3 1.3zm3.9 0c-0.7 0-1.3-0.6-1.3-1.3 0-0.8 0.6-1.4 1.3-1.4 0.8 0 1.3 0.6 1.3 1.4 0 0.7-0.5 1.3-1.3 1.3zm4 0c-0.7 0-1.3-0.6-1.3-1.3 0-0.8 0.6-1.4 1.3-1.4 0.7 0 1.3 0.6 1.3 1.4 0 0.7-0.6 1.3-1.3 1.3zm4 0c-0.8 0-1.4-0.6-1.4-1.3 0-0.8 0.6-1.4 1.4-1.4 0.7 0 1.3 0.6 1.3 1.4 0 0.7-0.6 1.3-1.3 1.3zm-19.9 10.9c-0.7 0-1.3-0.6-1.3-1.3 0-0.7 0.6-1.3 1.3-1.3 0.7 0 1.3 0.6 1.3 1.3 0 0.7-0.6 1.3-1.3 1.3zm4 0c-0.8 0-1.3-0.6-1.3-1.3 0-0.7 0.5-1.3 1.3-1.3 0.7 0 1.3 0.6 1.3 1.3 0 0.7-0.6 1.3-1.3 1.3zm4 0c-0.8 0-1.4-0.6-1.4-1.3 0-0.7 0.6-1.3 1.4-1.3 0.7 0 1.3 0.6 1.3 1.3 0 0.7-0.6 1.3-1.3 1.3zm3.9 0c-0.7 0-1.3-0.6-1.3-1.3 0-0.7 0.6-1.3 1.3-1.3 0.8 0 1.3 0.6 1.3 1.3 0 0.7-0.5 1.3-1.3 1.3zm4 0c-0.7 0-1.3-0.6-1.3-1.3 0-0.7 0.6-1.3 1.3-1.3 0.7 0 1.3 0.6 1.3 1.3 0 0.7-0.6 1.3-1.3 1.3zm4 0c-0.8 0-1.4-0.6-1.4-1.3 0-0.7 0.6-1.3 1.4-1.3 0.7 0 1.3 0.6 1.3 1.3 0 0.7-0.6 1.3-1.3 1.3z"/>
					<path id="&lt;Compound Path&gt;" fill-rule="evenodd" class="s0" d="m650.6 492.1h-4.7c-0.6 0-1.1-0.5-1.1-1.2 0-0.6 0.5-1.1 1.1-1.1h4.7c0.6 0 1.1 0.5 1.1 1.1 0 0.7-0.5 1.2-1.1 1.2zm0 5.3h-4.7c-0.6 0-1.1-0.5-1.1-1.2 0-0.6 0.5-1.1 1.1-1.1h4.7c0.6 0 1.1 0.5 1.1 1.1 0 0.7-0.5 1.2-1.1 1.2zm0 5.3h-4.7c-0.6 0-1.1-0.5-1.1-1.2 0-0.6 0.5-1.1 1.1-1.1h4.7c0.6 0 1.1 0.5 1.1 1.1 0 0.7-0.5 1.2-1.1 1.2zm0 5.3h-4.7c-0.6 0-1.1-0.5-1.1-1.2 0-0.6 0.5-1.1 1.1-1.1h4.7c0.6 0 1.1 0.5 1.1 1.1 0 0.7-0.5 1.2-1.1 1.2zm0 5.3h-4.7c-0.6 0-1.1-0.5-1.1-1.2 0-0.6 0.5-1.1 1.1-1.1h4.7c0.6 0 1.1 0.5 1.1 1.1 0 0.7-0.5 1.2-1.1 1.2zm0 5.3h-4.7c-0.6 0-1.1-0.5-1.1-1.2 0-0.6 0.5-1.1 1.1-1.1h4.7c0.6 0 1.1 0.5 1.1 1.1 0 0.7-0.5 1.2-1.1 1.2zm0 5.3h-4.7c-0.6 0-1.1-0.5-1.1-1.2 0-0.6 0.5-1.1 1.1-1.1h4.7c0.6 0 1.1 0.5 1.1 1.1 0 0.7-0.5 1.2-1.1 1.2zm0 5.3h-4.7c-0.6 0-1.1-0.5-1.1-1.2 0-0.6 0.5-1.1 1.1-1.1h4.7c0.6 0 1.1 0.5 1.1 1.1 0 0.7-0.5 1.2-1.1 1.2zm17.3-37.1h-12.1c-0.7 0-1.2-0.5-1.2-1.2 0-0.6 0.5-1.1 1.2-1.1h12.1c0.7 0 1.2 0.5 1.2 1.1 0 0.7-0.5 1.2-1.2 1.2zm0 5.3h-12.1c-0.7 0-1.2-0.5-1.2-1.2 0-0.6 0.5-1.1 1.2-1.1h12.1c0.7 0 1.2 0.5 1.2 1.1 0 0.7-0.5 1.2-1.2 1.2zm0 5.3h-12.1c-0.7 0-1.2-0.5-1.2-1.2 0-0.6 0.5-1.1 1.2-1.1h12.1c0.7 0 1.2 0.5 1.2 1.1 0 0.7-0.5 1.2-1.2 1.2zm0 5.3h-12.1c-0.7 0-1.2-0.5-1.2-1.2 0-0.6 0.5-1.1 1.2-1.1h12.1c0.7 0 1.2 0.5 1.2 1.1 0 0.7-0.5 1.2-1.2 1.2zm0 5.3h-12.1c-0.7 0-1.2-0.5-1.2-1.2 0-0.6 0.5-1.1 1.2-1.1h12.1c0.7 0 1.2 0.5 1.2 1.1 0 0.7-0.5 1.2-1.2 1.2zm14.6 5.3h-12.2c-0.6 0-1.1-0.5-1.1-1.2 0-0.6 0.5-1.1 1.1-1.1h12.2c0.6 0 1.1 0.5 1.1 1.1 0 0.7-0.5 1.2-1.1 1.2zm0 5.3h-12.2c-0.6 0-1.1-0.5-1.1-1.2 0-0.6 0.5-1.1 1.1-1.1h12.2c0.6 0 1.1 0.5 1.1 1.1 0 0.7-0.5 1.2-1.1 1.2zm0 5.3h-12.2c-0.6 0-1.1-0.5-1.1-1.2 0-0.6 0.5-1.1 1.1-1.1h12.2c0.6 0 1.1 0.5 1.1 1.1 0 0.7-0.5 1.2-1.1 1.2zm-9.4-36.9c-0.7 0-1.3-0.6-1.3-1.4 0-0.7 0.6-1.3 1.3-1.3 0.7 0 1.3 0.6 1.3 1.3 0 0.8-0.6 1.4-1.3 1.4zm4 0c-0.8 0-1.4-0.6-1.4-1.4 0-0.7 0.6-1.3 1.4-1.3 0.7 0 1.3 0.6 1.3 1.3 0 0.8-0.6 1.4-1.3 1.4zm3.9 0c-0.7 0-1.3-0.6-1.3-1.4 0-0.7 0.6-1.3 1.3-1.3 0.8 0 1.4 0.6 1.4 1.3 0 0.8-0.6 1.4-1.4 1.4zm4 0c-0.7 0-1.3-0.6-1.3-1.4 0-0.7 0.6-1.3 1.3-1.3 0.7 0 1.3 0.6 1.3 1.3 0 0.8-0.6 1.4-1.3 1.4zm4 0c-0.7 0-1.3-0.6-1.3-1.4 0-0.7 0.6-1.3 1.3-1.3 0.7 0 1.3 0.6 1.3 1.3 0 0.8-0.6 1.4-1.3 1.4zm4 0c-0.8 0-1.4-0.6-1.4-1.4 0-0.7 0.6-1.3 1.4-1.3 0.7 0 1.3 0.6 1.3 1.3 0 0.8-0.6 1.4-1.3 1.4zm-19.9 10.6c-0.7 0-1.3-0.6-1.3-1.4 0-0.7 0.6-1.3 1.3-1.3 0.7 0 1.3 0.6 1.3 1.3 0 0.8-0.6 1.4-1.3 1.4zm4 0c-0.8 0-1.4-0.6-1.4-1.4 0-0.7 0.6-1.3 1.4-1.3 0.7 0 1.3 0.6 1.3 1.3 0 0.8-0.6 1.4-1.3 1.4zm3.9 0c-0.7 0-1.3-0.6-1.3-1.4 0-0.7 0.6-1.3 1.3-1.3 0.8 0 1.4 0.6 1.4 1.3 0 0.8-0.6 1.4-1.4 1.4zm4 0c-0.7 0-1.3-0.6-1.3-1.4 0-0.7 0.6-1.3 1.3-1.3 0.7 0 1.3 0.6 1.3 1.3 0 0.8-0.6 1.4-1.3 1.4zm4 0c-0.7 0-1.3-0.6-1.3-1.4 0-0.7 0.6-1.3 1.3-1.3 0.7 0 1.3 0.6 1.3 1.3 0 0.8-0.6 1.4-1.3 1.4zm4 0c-0.8 0-1.4-0.6-1.4-1.4 0-0.7 0.6-1.3 1.4-1.3 0.7 0 1.3 0.6 1.3 1.3 0 0.8-0.6 1.4-1.3 1.4zm-6.3 15.2c-0.8 0-1.4-0.6-1.4-1.3 0-0.8 0.6-1.4 1.4-1.4 0.7 0 1.3 0.6 1.3 1.4 0 0.7-0.6 1.3-1.3 1.3zm3.9 0c-0.7 0-1.3-0.6-1.3-1.3 0-0.8 0.6-1.4 1.3-1.4 0.8 0 1.4 0.6 1.4 1.4 0 0.7-0.6 1.3-1.4 1.3zm4 0c-0.7 0-1.3-0.6-1.3-1.3 0-0.8 0.6-1.4 1.3-1.4 0.7 0 1.3 0.6 1.3 1.4 0 0.7-0.6 1.3-1.3 1.3zm4 0c-0.7 0-1.3-0.6-1.3-1.3 0-0.8 0.6-1.4 1.3-1.4 0.7 0 1.3 0.6 1.3 1.4 0 0.7-0.6 1.3-1.3 1.3zm4 0c-0.8 0-1.4-0.6-1.4-1.3 0-0.8 0.6-1.4 1.4-1.4 0.7 0 1.3 0.6 1.3 1.4 0 0.7-0.6 1.3-1.3 1.3zm3.9 0c-0.7 0-1.3-0.6-1.3-1.3 0-0.8 0.6-1.4 1.3-1.4 0.8 0 1.4 0.6 1.4 1.4 0 0.7-0.6 1.3-1.4 1.3zm-19.8 10.9c-0.8 0-1.4-0.6-1.4-1.3 0-0.7 0.6-1.3 1.4-1.3 0.7 0 1.3 0.6 1.3 1.3 0 0.7-0.6 1.3-1.3 1.3zm3.9 0c-0.7 0-1.3-0.6-1.3-1.3 0-0.7 0.6-1.3 1.3-1.3 0.8 0 1.4 0.6 1.4 1.3 0 0.7-0.6 1.3-1.4 1.3zm4 0c-0.7 0-1.3-0.6-1.3-1.3 0-0.7 0.6-1.3 1.3-1.3 0.7 0 1.3 0.6 1.3 1.3 0 0.7-0.6 1.3-1.3 1.3zm4 0c-0.7 0-1.3-0.6-1.3-1.3 0-0.7 0.6-1.3 1.3-1.3 0.7 0 1.3 0.6 1.3 1.3 0 0.7-0.6 1.3-1.3 1.3zm4 0c-0.8 0-1.4-0.6-1.4-1.3 0-0.7 0.6-1.3 1.4-1.3 0.7 0 1.3 0.6 1.3 1.3 0 0.7-0.6 1.3-1.3 1.3zm3.9 0c-0.7 0-1.3-0.6-1.3-1.3 0-0.7 0.6-1.3 1.3-1.3 0.8 0 1.4 0.6 1.4 1.3 0 0.7-0.6 1.3-1.4 1.3z"/>
					<path id="&lt;Compound Path&gt;" fill-rule="evenodd" class="s0" d="m650.6 535.5h-4.7c-0.6 0-1.1-0.5-1.1-1.1 0-0.7 0.5-1.2 1.1-1.2h4.7c0.6 0 1.1 0.5 1.1 1.2 0 0.6-0.5 1.1-1.1 1.1zm0 5.3h-4.7c-0.6 0-1.1-0.5-1.1-1.1 0-0.7 0.5-1.2 1.1-1.2h4.7c0.6 0 1.1 0.5 1.1 1.2 0 0.6-0.5 1.1-1.1 1.1zm0 5.3h-4.7c-0.6 0-1.1-0.5-1.1-1.2 0-0.6 0.5-1.1 1.1-1.1h4.7c0.6 0 1.1 0.5 1.1 1.1 0 0.7-0.5 1.2-1.1 1.2zm0 5.3h-4.7c-0.6 0-1.1-0.5-1.1-1.2 0-0.6 0.5-1.1 1.1-1.1h4.7c0.6 0 1.1 0.5 1.1 1.1 0 0.7-0.5 1.2-1.1 1.2zm0 5.3h-4.7c-0.6 0-1.1-0.5-1.1-1.2 0-0.6 0.5-1.1 1.1-1.1h4.7c0.6 0 1.1 0.5 1.1 1.1 0 0.7-0.5 1.2-1.1 1.2zm0 5.3h-4.7c-0.6 0-1.1-0.5-1.1-1.2 0-0.6 0.5-1.1 1.1-1.1h4.7c0.6 0 1.1 0.5 1.1 1.1 0 0.7-0.5 1.2-1.1 1.2zm0 5.3h-4.7c-0.6 0-1.1-0.5-1.1-1.2 0-0.6 0.5-1.1 1.1-1.1h4.7c0.6 0 1.1 0.5 1.1 1.1 0 0.7-0.5 1.2-1.1 1.2zm0 5.3h-4.7c-0.6 0-1.1-0.5-1.1-1.2 0-0.6 0.5-1.1 1.1-1.1h4.7c0.6 0 1.1 0.5 1.1 1.1 0 0.7-0.5 1.2-1.1 1.2zm17.3-37.1h-12.1c-0.7 0-1.2-0.5-1.2-1.1 0-0.7 0.5-1.2 1.2-1.2h12.1c0.7 0 1.2 0.5 1.2 1.2 0 0.6-0.5 1.1-1.2 1.1zm0 5.3h-12.1c-0.7 0-1.2-0.5-1.2-1.1 0-0.7 0.5-1.2 1.2-1.2h12.1c0.7 0 1.2 0.5 1.2 1.2 0 0.6-0.5 1.1-1.2 1.1zm0 5.3h-12.1c-0.7 0-1.2-0.5-1.2-1.2 0-0.6 0.5-1.1 1.2-1.1h12.1c0.7 0 1.2 0.5 1.2 1.1 0 0.7-0.5 1.2-1.2 1.2zm0 5.3h-12.1c-0.7 0-1.2-0.5-1.2-1.2 0-0.6 0.5-1.1 1.2-1.1h12.1c0.7 0 1.2 0.5 1.2 1.1 0 0.7-0.5 1.2-1.2 1.2zm0 5.3h-12.1c-0.7 0-1.2-0.5-1.2-1.2 0-0.6 0.5-1.1 1.2-1.1h12.1c0.7 0 1.2 0.5 1.2 1.1 0 0.7-0.5 1.2-1.2 1.2zm14.6 5.3h-12.2c-0.6 0-1.1-0.5-1.1-1.2 0-0.6 0.5-1.1 1.1-1.1h12.2c0.6 0 1.1 0.5 1.1 1.1 0 0.7-0.5 1.2-1.1 1.2zm0 5.3h-12.2c-0.6 0-1.1-0.5-1.1-1.2 0-0.6 0.5-1.1 1.1-1.1h12.2c0.6 0 1.1 0.5 1.1 1.1 0 0.7-0.5 1.2-1.1 1.2zm0 5.3h-12.2c-0.6 0-1.1-0.5-1.1-1.2 0-0.6 0.5-1.1 1.1-1.1h12.2c0.6 0 1.1 0.5 1.1 1.1 0 0.7-0.5 1.2-1.1 1.2zm-9.4-36.9c-0.7 0-1.3-0.6-1.3-1.3 0-0.8 0.6-1.4 1.3-1.4 0.7 0 1.3 0.6 1.3 1.4 0 0.7-0.6 1.3-1.3 1.3zm4 0c-0.8 0-1.4-0.6-1.4-1.3 0-0.8 0.6-1.4 1.4-1.4 0.7 0 1.3 0.6 1.3 1.4 0 0.7-0.6 1.3-1.3 1.3zm3.9 0c-0.7 0-1.3-0.6-1.3-1.3 0-0.8 0.6-1.4 1.3-1.4 0.8 0 1.4 0.6 1.4 1.4 0 0.7-0.6 1.3-1.4 1.3zm4 0c-0.7 0-1.3-0.6-1.3-1.3 0-0.8 0.6-1.4 1.3-1.4 0.7 0 1.3 0.6 1.3 1.4 0 0.7-0.6 1.3-1.3 1.3zm4 0c-0.7 0-1.3-0.6-1.3-1.3 0-0.8 0.6-1.4 1.3-1.4 0.7 0 1.3 0.6 1.3 1.4 0 0.7-0.6 1.3-1.3 1.3zm4 0c-0.8 0-1.4-0.6-1.4-1.3 0-0.8 0.6-1.4 1.4-1.4 0.7 0 1.3 0.6 1.3 1.4 0 0.7-0.6 1.3-1.3 1.3zm-19.9 10.6c-0.7 0-1.3-0.6-1.3-1.4 0-0.7 0.6-1.3 1.3-1.3 0.7 0 1.3 0.6 1.3 1.3 0 0.8-0.6 1.4-1.3 1.4zm4 0c-0.8 0-1.4-0.6-1.4-1.4 0-0.7 0.6-1.3 1.4-1.3 0.7 0 1.3 0.6 1.3 1.3 0 0.8-0.6 1.4-1.3 1.4zm3.9 0c-0.7 0-1.3-0.6-1.3-1.4 0-0.7 0.6-1.3 1.3-1.3 0.8 0 1.4 0.6 1.4 1.3 0 0.8-0.6 1.4-1.4 1.4zm4 0c-0.7 0-1.3-0.6-1.3-1.4 0-0.7 0.6-1.3 1.3-1.3 0.7 0 1.3 0.6 1.3 1.3 0 0.8-0.6 1.4-1.3 1.4zm4 0c-0.7 0-1.3-0.6-1.3-1.4 0-0.7 0.6-1.3 1.3-1.3 0.7 0 1.3 0.6 1.3 1.3 0 0.8-0.6 1.4-1.3 1.4zm4 0c-0.8 0-1.4-0.6-1.4-1.4 0-0.7 0.6-1.3 1.4-1.3 0.7 0 1.3 0.6 1.3 1.3 0 0.8-0.6 1.4-1.3 1.4zm-6.3 15.2c-0.8 0-1.4-0.6-1.4-1.3 0-0.8 0.6-1.3 1.4-1.3 0.7 0 1.3 0.5 1.3 1.3 0 0.7-0.6 1.3-1.3 1.3zm3.9 0c-0.7 0-1.3-0.6-1.3-1.3 0-0.8 0.6-1.3 1.3-1.3 0.8 0 1.4 0.5 1.4 1.3 0 0.7-0.6 1.3-1.4 1.3zm4 0c-0.7 0-1.3-0.6-1.3-1.3 0-0.8 0.6-1.3 1.3-1.3 0.7 0 1.3 0.5 1.3 1.3 0 0.7-0.6 1.3-1.3 1.3zm4 0c-0.7 0-1.3-0.6-1.3-1.3 0-0.8 0.6-1.3 1.3-1.3 0.7 0 1.3 0.5 1.3 1.3 0 0.7-0.6 1.3-1.3 1.3zm4 0c-0.8 0-1.4-0.6-1.4-1.3 0-0.8 0.6-1.3 1.4-1.3 0.7 0 1.3 0.5 1.3 1.3 0 0.7-0.6 1.3-1.3 1.3zm3.9 0c-0.7 0-1.3-0.6-1.3-1.3 0-0.8 0.6-1.3 1.3-1.3 0.8 0 1.4 0.5 1.4 1.3 0 0.7-0.6 1.3-1.4 1.3zm-19.8 10.9c-0.8 0-1.4-0.6-1.4-1.3 0-0.7 0.6-1.3 1.4-1.3 0.7 0 1.3 0.6 1.3 1.3 0 0.7-0.6 1.3-1.3 1.3zm3.9 0c-0.7 0-1.3-0.6-1.3-1.3 0-0.7 0.6-1.3 1.3-1.3 0.8 0 1.4 0.6 1.4 1.3 0 0.7-0.6 1.3-1.4 1.3zm4 0c-0.7 0-1.3-0.6-1.3-1.3 0-0.7 0.6-1.3 1.3-1.3 0.7 0 1.3 0.6 1.3 1.3 0 0.7-0.6 1.3-1.3 1.3zm4 0c-0.7 0-1.3-0.6-1.3-1.3 0-0.7 0.6-1.3 1.3-1.3 0.7 0 1.3 0.6 1.3 1.3 0 0.7-0.6 1.3-1.3 1.3zm4 0c-0.8 0-1.4-0.6-1.4-1.3 0-0.7 0.6-1.3 1.4-1.3 0.7 0 1.3 0.6 1.3 1.3 0 0.7-0.6 1.3-1.3 1.3zm3.9 0c-0.7 0-1.3-0.6-1.3-1.3 0-0.7 0.6-1.3 1.3-1.3 0.8 0 1.4 0.6 1.4 1.3 0 0.7-0.6 1.3-1.4 1.3z"/>
				</g>
			</g>
		</g>
	</g>
	<g id="Device 2">
		<g id="&lt;Group&gt;">
			<g id="&lt;Group&gt;">
				<path id="&lt;Path&gt;" class="s5" d="m574.5 448.4h-66.1c-1.1 0-1.5-1.5-0.5-2l13.6-6.5q0.2-0.1 0.5-0.1h61.1c1 0 1.4 1.2 0.6 1.8l-8.5 6.6q-0.3 0.2-0.7 0.2z"/>
				<path id="&lt;Path&gt;" class="s4" d="m555.1 444.8h-12.1v-46.3h12.1z"/>
				<path id="&lt;Path&gt;" class="s5" d="m557 432.1h-15.9v-33.6h15.9z"/>
			</g>
			<path id="&lt;Path&gt;" class="s4" d="m652.6 401.8h-201.3v-157.5h201.3z"/>
			<path id="&lt;Path&gt;" class="s5" d="m641.8 393.4h-179.8v-140.7h179.8z"/>
			<path id="&lt;Path&gt;" class="s9" d="m549.4 301h-73.3v-32.5h73.3z"/>
			<g id="&lt;Group&gt;">
				<g id="&lt;Group&gt;">
					<path id="&lt;Path&gt;" class="s9" d="m485.6 323.6h17.1c7.7 0 15.3 1.7 22.3 5l8 3.7c9 4.3 19.6 3.9 28.3-0.9l2.3-1.3c7.8-4.2 16.5-6.5 25.4-6.5h20.2"/>
					<path id="&lt;Path&gt;" class="s9" d="m485.6 335.6h17.1c7.7 0 15.3 1.6 22.3 4.9l8 3.7c9 4.3 19.6 3.9 28.3-0.9l2.3-1.2c7.8-4.3 16.5-6.5 25.4-6.5h20.2"/>
					<path id="&lt;Path&gt;" class="s9" d="m485.6 373.9h17.1c7.7 0 15.3-1.7 22.3-5l8-3.7c9-4.3 19.6-3.9 28.3 0.9l2.3 1.3c7.8 4.2 16.5 6.5 25.4 6.5h20.2"/>
					<path id="&lt;Path&gt;" class="s9" d="m485.6 361.9h17.1c7.7 0 15.3-1.7 22.3-4.9l8-3.8c9-4.2 19.6-3.9 28.3 1l2.3 1.2c7.8 4.3 16.5 6.5 25.4 6.5h20.2"/>
				</g>
				<g id="&lt;Group&gt;">
					<path id="&lt;Path&gt;" class="s0" d="m622.6 327.1h-11.4v-11.4h11.4z"/>
					<path id="&lt;Path&gt;" class="s0" d="m622.6 341.3h-11.4v-11.5h11.4z"/>
				</g>
				<g id="&lt;Group&gt;">
					<path id="&lt;Path&gt;" class="s0" d="m622.6 365.5h-11.4v-11.5h11.4z"/>
					<path id="&lt;Path&gt;" class="s0" d="m622.6 379.6h-11.4v-11.5h11.4z"/>
				</g>
				<g id="&lt;Group&gt;">
					<path id="&lt;Path&gt;" class="s0" d="m483.4 327.1h-11.5v-11.4h11.5z"/>
					<path id="&lt;Path&gt;" class="s0" d="m483.4 341.3h-11.5v-11.5h11.5z"/>
				</g>
				<g id="&lt;Group&gt;">
					<path id="&lt;Path&gt;" class="s0" d="m483.4 365.5h-11.5v-11.5h11.5z"/>
					<path id="&lt;Path&gt;" class="s0" d="m483.4 379.6h-11.5v-11.5h11.5z"/>
				</g>
			</g>
			<path id="&lt;Compound Path&gt;" fill-rule="evenodd" class="s0" d="m565.6 267.9h-4.6c-0.7 0-1.2-0.5-1.2-1.1 0-0.7 0.5-1.2 1.2-1.2h4.6c0.6 0 1.1 0.5 1.1 1.2 0 0.6-0.5 1.1-1.1 1.1zm0 5.3h-4.6c-0.7 0-1.2-0.5-1.2-1.1 0-0.7 0.5-1.2 1.2-1.2h4.6c0.6 0 1.1 0.5 1.1 1.2 0 0.6-0.5 1.1-1.1 1.1zm0 5.3h-4.6c-0.7 0-1.2-0.5-1.2-1.1 0-0.7 0.5-1.2 1.2-1.2h4.6c0.6 0 1.1 0.5 1.1 1.2 0 0.6-0.5 1.1-1.1 1.1zm0 5.3h-4.6c-0.7 0-1.2-0.5-1.2-1.1 0-0.7 0.5-1.2 1.2-1.2h4.6c0.6 0 1.1 0.5 1.1 1.2 0 0.6-0.5 1.1-1.1 1.1zm0 5.3h-4.6c-0.7 0-1.2-0.5-1.2-1.2 0-0.6 0.5-1.1 1.2-1.1h4.6c0.6 0 1.1 0.5 1.1 1.1 0 0.7-0.5 1.2-1.1 1.2zm0 5.3h-4.6c-0.7 0-1.2-0.5-1.2-1.2 0-0.6 0.5-1.1 1.2-1.1h4.6c0.6 0 1.1 0.5 1.1 1.1 0 0.7-0.5 1.2-1.1 1.2zm0 5.3h-4.6c-0.7 0-1.2-0.5-1.2-1.2 0-0.6 0.5-1.1 1.2-1.1h4.6c0.6 0 1.1 0.5 1.1 1.1 0 0.7-0.5 1.2-1.1 1.2zm0 5.3h-4.6c-0.7 0-1.2-0.5-1.2-1.2 0-0.6 0.5-1.1 1.2-1.1h4.6c0.6 0 1.1 0.5 1.1 1.1 0 0.7-0.5 1.2-1.1 1.2zm17.3-37.1h-12.1c-0.7 0-1.2-0.5-1.2-1.1 0-0.7 0.5-1.2 1.2-1.2h12.1c0.7 0 1.2 0.5 1.2 1.2 0 0.6-0.5 1.1-1.2 1.1zm0 5.3h-12.1c-0.7 0-1.2-0.5-1.2-1.1 0-0.7 0.5-1.2 1.2-1.2h12.1c0.7 0 1.2 0.5 1.2 1.2 0 0.6-0.5 1.1-1.2 1.1zm0 5.3h-12.1c-0.7 0-1.2-0.5-1.2-1.1 0-0.7 0.5-1.2 1.2-1.2h12.1c0.7 0 1.2 0.5 1.2 1.2 0 0.6-0.5 1.1-1.2 1.1zm0 5.3h-12.1c-0.7 0-1.2-0.5-1.2-1.1 0-0.7 0.5-1.2 1.2-1.2h12.1c0.7 0 1.2 0.5 1.2 1.2 0 0.6-0.5 1.1-1.2 1.1zm0 5.3h-12.1c-0.7 0-1.2-0.5-1.2-1.2 0-0.6 0.5-1.1 1.2-1.1h12.1c0.7 0 1.2 0.5 1.2 1.1 0 0.7-0.5 1.2-1.2 1.2zm14.6 5.3h-12.2c-0.6 0-1.1-0.5-1.1-1.2 0-0.6 0.5-1.1 1.1-1.1h12.2c0.6 0 1.2 0.5 1.2 1.1 0 0.7-0.6 1.2-1.2 1.2zm0 5.3h-12.2c-0.6 0-1.1-0.5-1.1-1.2 0-0.6 0.5-1.1 1.1-1.1h12.2c0.6 0 1.2 0.5 1.2 1.1 0 0.7-0.6 1.2-1.2 1.2zm0 5.3h-12.2c-0.6 0-1.1-0.5-1.1-1.2 0-0.6 0.5-1.1 1.1-1.1h12.2c0.6 0 1.2 0.5 1.2 1.1 0 0.7-0.6 1.2-1.2 1.2zm-9.4-36.9c-0.7 0-1.3-0.6-1.3-1.3 0-0.8 0.6-1.4 1.3-1.4 0.8 0 1.3 0.6 1.3 1.4 0 0.7-0.5 1.3-1.3 1.3zm4 0c-0.7 0-1.3-0.6-1.3-1.3 0-0.8 0.6-1.4 1.3-1.4 0.7 0 1.3 0.6 1.3 1.4 0 0.7-0.6 1.3-1.3 1.3zm4 0c-0.8 0-1.4-0.6-1.4-1.3 0-0.8 0.6-1.4 1.4-1.4 0.7 0 1.3 0.6 1.3 1.4 0 0.7-0.6 1.3-1.3 1.3zm3.9 0c-0.7 0-1.3-0.6-1.3-1.3 0-0.8 0.6-1.4 1.3-1.4 0.8 0 1.4 0.6 1.4 1.4 0 0.7-0.6 1.3-1.4 1.3zm4 0c-0.7 0-1.3-0.6-1.3-1.3 0-0.8 0.6-1.4 1.3-1.4 0.7 0 1.3 0.6 1.3 1.4 0 0.7-0.6 1.3-1.3 1.3zm4 0c-0.7 0-1.3-0.6-1.3-1.3 0-0.8 0.6-1.4 1.3-1.4 0.7 0 1.3 0.6 1.3 1.4 0 0.7-0.6 1.3-1.3 1.3zm-19.9 10.6c-0.7 0-1.3-0.6-1.3-1.3 0-0.8 0.6-1.4 1.3-1.4 0.8 0 1.3 0.6 1.3 1.4 0 0.7-0.5 1.3-1.3 1.3zm4 0c-0.7 0-1.3-0.6-1.3-1.3 0-0.8 0.6-1.4 1.3-1.4 0.7 0 1.3 0.6 1.3 1.4 0 0.7-0.6 1.3-1.3 1.3zm4 0c-0.8 0-1.4-0.6-1.4-1.3 0-0.8 0.6-1.4 1.4-1.4 0.7 0 1.3 0.6 1.3 1.4 0 0.7-0.6 1.3-1.3 1.3zm3.9 0c-0.7 0-1.3-0.6-1.3-1.3 0-0.8 0.6-1.4 1.3-1.4 0.8 0 1.4 0.6 1.4 1.4 0 0.7-0.6 1.3-1.4 1.3zm4 0c-0.7 0-1.3-0.6-1.3-1.3 0-0.8 0.6-1.4 1.3-1.4 0.7 0 1.3 0.6 1.3 1.4 0 0.7-0.6 1.3-1.3 1.3zm4 0c-0.7 0-1.3-0.6-1.3-1.3 0-0.8 0.6-1.4 1.3-1.4 0.7 0 1.3 0.6 1.3 1.4 0 0.7-0.6 1.3-1.3 1.3zm-6.3 15.2c-0.7 0-1.3-0.6-1.3-1.3 0-0.7 0.6-1.3 1.3-1.3 0.7 0 1.3 0.6 1.3 1.3 0 0.7-0.6 1.3-1.3 1.3zm4 0c-0.8 0-1.4-0.6-1.4-1.3 0-0.7 0.6-1.3 1.4-1.3 0.7 0 1.3 0.6 1.3 1.3 0 0.7-0.6 1.3-1.3 1.3zm3.9 0c-0.7 0-1.3-0.6-1.3-1.3 0-0.7 0.6-1.3 1.3-1.3 0.8 0 1.4 0.6 1.4 1.3 0 0.7-0.6 1.3-1.4 1.3zm4 0c-0.7 0-1.3-0.6-1.3-1.3 0-0.7 0.6-1.3 1.3-1.3 0.7 0 1.3 0.6 1.3 1.3 0 0.7-0.6 1.3-1.3 1.3zm4 0c-0.7 0-1.3-0.6-1.3-1.3 0-0.7 0.6-1.3 1.3-1.3 0.7 0 1.3 0.6 1.3 1.3 0 0.7-0.6 1.3-1.3 1.3zm4 0c-0.8 0-1.4-0.6-1.4-1.3 0-0.7 0.6-1.3 1.4-1.3 0.7 0 1.3 0.6 1.3 1.3 0 0.7-0.6 1.3-1.3 1.3zm-19.9 10.9c-0.7 0-1.3-0.6-1.3-1.3 0-0.7 0.6-1.3 1.3-1.3 0.7 0 1.3 0.6 1.3 1.3 0 0.7-0.6 1.3-1.3 1.3zm4 0c-0.8 0-1.4-0.6-1.4-1.3 0-0.7 0.6-1.3 1.4-1.3 0.7 0 1.3 0.6 1.3 1.3 0 0.7-0.6 1.3-1.3 1.3zm3.9 0c-0.7 0-1.3-0.6-1.3-1.3 0-0.7 0.6-1.3 1.3-1.3 0.8 0 1.4 0.6 1.4 1.3 0 0.7-0.6 1.3-1.4 1.3zm4 0c-0.7 0-1.3-0.6-1.3-1.3 0-0.7 0.6-1.3 1.3-1.3 0.7 0 1.3 0.6 1.3 1.3 0 0.7-0.6 1.3-1.3 1.3zm4 0c-0.7 0-1.3-0.6-1.3-1.3 0-0.7 0.6-1.3 1.3-1.3 0.7 0 1.3 0.6 1.3 1.3 0 0.7-0.6 1.3-1.3 1.3zm4 0c-0.8 0-1.4-0.6-1.4-1.3 0-0.7 0.6-1.3 1.4-1.3 0.7 0 1.3 0.6 1.3 1.3 0 0.7-0.6 1.3-1.3 1.3z"/>
		</g>
	</g>
	<g id="Device 1">
		<g id="&lt;Group&gt;">
			<g id="&lt;Group&gt;">
				<path id="&lt;Path&gt;" class="s5" d="m439 678.1h-66.1c-1.1 0-1.5-1.5-0.5-2l13.6-6.6q0.2-0.1 0.5-0.1h61.1c1 0 1.4 1.3 0.6 1.9l-8.5 6.6q-0.3 0.2-0.7 0.2z"/>
				<path id="&lt;Path&gt;" class="s4" d="m419.6 674.5h-12.1v-46.4h12.1z"/>
				<path id="&lt;Path&gt;" class="s5" d="m421.5 661.8h-15.9v-33.7h15.9z"/>
			</g>
			<path id="&lt;Path&gt;" class="s4" d="m517.1 631.5h-201.4v-157.5h201.4z"/>
			<path id="&lt;Path&gt;" class="s5" d="m506.3 623.1h-179.8v-140.7h179.8z"/>
			<g id="&lt;Group&gt;">
				<g id="&lt;Group&gt;">
					<path id="&lt;Compound Path&gt;" fill-rule="evenodd" class="s0" d="m366.4 492.1h-4.6c-0.6 0-1.2-0.5-1.2-1.2 0-0.6 0.6-1.1 1.2-1.1h4.6c0.7 0 1.2 0.5 1.2 1.1 0 0.7-0.5 1.2-1.2 1.2zm0 5.3h-4.6c-0.6 0-1.2-0.5-1.2-1.2 0-0.6 0.6-1.1 1.2-1.1h4.6c0.7 0 1.2 0.5 1.2 1.1 0 0.7-0.5 1.2-1.2 1.2zm0 5.3h-4.6c-0.6 0-1.2-0.5-1.2-1.2 0-0.6 0.6-1.1 1.2-1.1h4.6c0.7 0 1.2 0.5 1.2 1.1 0 0.7-0.5 1.2-1.2 1.2zm0 5.3h-4.6c-0.6 0-1.2-0.5-1.2-1.2 0-0.6 0.6-1.1 1.2-1.1h4.6c0.7 0 1.2 0.5 1.2 1.1 0 0.7-0.5 1.2-1.2 1.2zm0 5.3h-4.6c-0.6 0-1.2-0.5-1.2-1.2 0-0.6 0.6-1.1 1.2-1.1h4.6c0.7 0 1.2 0.5 1.2 1.1 0 0.7-0.5 1.2-1.2 1.2zm0 5.3h-4.6c-0.6 0-1.2-0.5-1.2-1.2 0-0.6 0.6-1.1 1.2-1.1h4.6c0.7 0 1.2 0.5 1.2 1.1 0 0.7-0.5 1.2-1.2 1.2zm0 5.3h-4.6c-0.6 0-1.2-0.5-1.2-1.2 0-0.6 0.6-1.1 1.2-1.1h4.6c0.7 0 1.2 0.5 1.2 1.1 0 0.7-0.5 1.2-1.2 1.2zm0 5.3h-4.6c-0.6 0-1.2-0.5-1.2-1.2 0-0.6 0.6-1.1 1.2-1.1h4.6c0.7 0 1.2 0.5 1.2 1.1 0 0.7-0.5 1.2-1.2 1.2zm17.4-37.1h-12.2c-0.6 0-1.1-0.5-1.1-1.2 0-0.6 0.5-1.1 1.1-1.1h12.2c0.6 0 1.1 0.5 1.1 1.1 0 0.7-0.5 1.2-1.1 1.2zm0 5.3h-12.2c-0.6 0-1.1-0.5-1.1-1.2 0-0.6 0.5-1.1 1.1-1.1h12.2c0.6 0 1.1 0.5 1.1 1.1 0 0.7-0.5 1.2-1.1 1.2zm0 5.3h-12.2c-0.6 0-1.1-0.5-1.1-1.2 0-0.6 0.5-1.1 1.1-1.1h12.2c0.6 0 1.1 0.5 1.1 1.1 0 0.7-0.5 1.2-1.1 1.2zm0 5.3h-12.2c-0.6 0-1.1-0.5-1.1-1.2 0-0.6 0.5-1.1 1.1-1.1h12.2c0.6 0 1.1 0.5 1.1 1.1 0 0.7-0.5 1.2-1.1 1.2zm0 5.3h-12.2c-0.6 0-1.1-0.5-1.1-1.2 0-0.6 0.5-1.1 1.1-1.1h12.2c0.6 0 1.1 0.5 1.1 1.1 0 0.7-0.5 1.2-1.1 1.2zm14.5 5.3h-12.1c-0.7 0-1.2-0.5-1.2-1.2 0-0.6 0.5-1.1 1.2-1.1h12.1c0.7 0 1.2 0.5 1.2 1.1 0 0.7-0.5 1.2-1.2 1.2zm0 5.3h-12.1c-0.7 0-1.2-0.5-1.2-1.2 0-0.6 0.5-1.1 1.2-1.1h12.1c0.7 0 1.2 0.5 1.2 1.1 0 0.7-0.5 1.2-1.2 1.2zm0 5.3h-12.1c-0.7 0-1.2-0.5-1.2-1.2 0-0.6 0.5-1.1 1.2-1.1h12.1c0.7 0 1.2 0.5 1.2 1.1 0 0.7-0.5 1.2-1.2 1.2zm-9.4-36.9c-0.7 0-1.3-0.6-1.3-1.4 0-0.7 0.6-1.3 1.3-1.3 0.8 0 1.4 0.6 1.4 1.3 0 0.8-0.6 1.4-1.4 1.4zm4 0c-0.7 0-1.3-0.6-1.3-1.4 0-0.7 0.6-1.3 1.3-1.3 0.7 0 1.3 0.6 1.3 1.3 0 0.8-0.6 1.4-1.3 1.4zm4 0c-0.7 0-1.3-0.6-1.3-1.4 0-0.7 0.6-1.3 1.3-1.3 0.7 0 1.3 0.6 1.3 1.3 0 0.8-0.6 1.4-1.3 1.4zm4 0c-0.8 0-1.4-0.6-1.4-1.4 0-0.7 0.6-1.3 1.4-1.3 0.7 0 1.3 0.6 1.3 1.3 0 0.8-0.6 1.4-1.3 1.4zm3.9 0c-0.7 0-1.3-0.6-1.3-1.4 0-0.7 0.6-1.3 1.3-1.3 0.8 0 1.4 0.6 1.4 1.3 0 0.8-0.6 1.4-1.4 1.4zm4 0c-0.7 0-1.3-0.6-1.3-1.4 0-0.7 0.6-1.3 1.3-1.3 0.7 0 1.3 0.6 1.3 1.3 0 0.8-0.6 1.4-1.3 1.4zm-19.9 10.6c-0.7 0-1.3-0.6-1.3-1.4 0-0.7 0.6-1.3 1.3-1.3 0.8 0 1.4 0.6 1.4 1.3 0 0.8-0.6 1.4-1.4 1.4zm4 0c-0.7 0-1.3-0.6-1.3-1.4 0-0.7 0.6-1.3 1.3-1.3 0.7 0 1.3 0.6 1.3 1.3 0 0.8-0.6 1.4-1.3 1.4zm4 0c-0.7 0-1.3-0.6-1.3-1.4 0-0.7 0.6-1.3 1.3-1.3 0.7 0 1.3 0.6 1.3 1.3 0 0.8-0.6 1.4-1.3 1.4zm4 0c-0.8 0-1.4-0.6-1.4-1.4 0-0.7 0.6-1.3 1.4-1.3 0.7 0 1.3 0.6 1.3 1.3 0 0.8-0.6 1.4-1.3 1.4zm3.9 0c-0.7 0-1.3-0.6-1.3-1.4 0-0.7 0.6-1.3 1.3-1.3 0.8 0 1.4 0.6 1.4 1.3 0 0.8-0.6 1.4-1.4 1.4zm4 0c-0.7 0-1.3-0.6-1.3-1.4 0-0.7 0.6-1.3 1.3-1.3 0.7 0 1.3 0.6 1.3 1.3 0 0.8-0.6 1.4-1.3 1.4zm-6.3 15.2c-0.7 0-1.3-0.6-1.3-1.3 0-0.8 0.6-1.4 1.3-1.4 0.7 0 1.3 0.6 1.3 1.4 0 0.7-0.6 1.3-1.3 1.3zm4 0c-0.7 0-1.3-0.6-1.3-1.3 0-0.8 0.6-1.4 1.3-1.4 0.7 0 1.3 0.6 1.3 1.4 0 0.7-0.6 1.3-1.3 1.3zm4 0c-0.8 0-1.4-0.6-1.4-1.3 0-0.8 0.6-1.4 1.4-1.4 0.7 0 1.3 0.6 1.3 1.4 0 0.7-0.6 1.3-1.3 1.3zm3.9 0c-0.7 0-1.3-0.6-1.3-1.3 0-0.8 0.6-1.4 1.3-1.4 0.8 0 1.4 0.6 1.4 1.4 0 0.7-0.6 1.3-1.4 1.3zm4 0c-0.7 0-1.3-0.6-1.3-1.3 0-0.8 0.6-1.4 1.3-1.4 0.7 0 1.3 0.6 1.3 1.4 0 0.7-0.6 1.3-1.3 1.3zm4 0c-0.8 0-1.3-0.6-1.3-1.3 0-0.8 0.5-1.4 1.3-1.4 0.7 0 1.3 0.6 1.3 1.4 0 0.7-0.6 1.3-1.3 1.3zm-19.9 10.9c-0.7 0-1.3-0.6-1.3-1.3 0-0.7 0.6-1.3 1.3-1.3 0.7 0 1.3 0.6 1.3 1.3 0 0.7-0.6 1.3-1.3 1.3zm4 0c-0.7 0-1.3-0.6-1.3-1.3 0-0.7 0.6-1.3 1.3-1.3 0.7 0 1.3 0.6 1.3 1.3 0 0.7-0.6 1.3-1.3 1.3zm4 0c-0.8 0-1.4-0.6-1.4-1.3 0-0.7 0.6-1.3 1.4-1.3 0.7 0 1.3 0.6 1.3 1.3 0 0.7-0.6 1.3-1.3 1.3zm3.9 0c-0.7 0-1.3-0.6-1.3-1.3 0-0.7 0.6-1.3 1.3-1.3 0.8 0 1.4 0.6 1.4 1.3 0 0.7-0.6 1.3-1.4 1.3zm4 0c-0.7 0-1.3-0.6-1.3-1.3 0-0.7 0.6-1.3 1.3-1.3 0.7 0 1.3 0.6 1.3 1.3 0 0.7-0.6 1.3-1.3 1.3zm4 0c-0.8 0-1.3-0.6-1.3-1.3 0-0.7 0.5-1.3 1.3-1.3 0.7 0 1.3 0.6 1.3 1.3 0 0.7-0.6 1.3-1.3 1.3z"/>
					<path id="&lt;Compound Path&gt;" fill-rule="evenodd" class="s0" d="m366.4 534.5h-4.6c-0.6 0-1.2-0.5-1.2-1.2 0-0.6 0.6-1.1 1.2-1.1h4.6c0.7 0 1.2 0.5 1.2 1.1 0 0.7-0.5 1.2-1.2 1.2zm0 5.3h-4.6c-0.6 0-1.2-0.5-1.2-1.2 0-0.6 0.6-1.1 1.2-1.1h4.6c0.7 0 1.2 0.5 1.2 1.1 0 0.7-0.5 1.2-1.2 1.2zm0 5.3h-4.6c-0.6 0-1.2-0.5-1.2-1.2 0-0.6 0.6-1.1 1.2-1.1h4.6c0.7 0 1.2 0.5 1.2 1.1 0 0.7-0.5 1.2-1.2 1.2zm0 5.3h-4.6c-0.6 0-1.2-0.5-1.2-1.2 0-0.6 0.6-1.1 1.2-1.1h4.6c0.7 0 1.2 0.5 1.2 1.1 0 0.7-0.5 1.2-1.2 1.2zm0 5.3h-4.6c-0.6 0-1.2-0.5-1.2-1.2 0-0.6 0.6-1.1 1.2-1.1h4.6c0.7 0 1.2 0.5 1.2 1.1 0 0.7-0.5 1.2-1.2 1.2zm0 5.3h-4.6c-0.6 0-1.2-0.5-1.2-1.2 0-0.6 0.6-1.1 1.2-1.1h4.6c0.7 0 1.2 0.5 1.2 1.1 0 0.7-0.5 1.2-1.2 1.2zm0 5.3h-4.6c-0.6 0-1.2-0.6-1.2-1.2 0-0.6 0.6-1.1 1.2-1.1h4.6c0.7 0 1.2 0.5 1.2 1.1 0 0.6-0.5 1.2-1.2 1.2zm0 5.3h-4.6c-0.6 0-1.2-0.6-1.2-1.2 0-0.6 0.6-1.1 1.2-1.1h4.6c0.7 0 1.2 0.5 1.2 1.1 0 0.6-0.5 1.2-1.2 1.2zm17.4-37.1h-12.2c-0.6 0-1.1-0.5-1.1-1.2 0-0.6 0.5-1.1 1.1-1.1h12.2c0.6 0 1.1 0.5 1.1 1.1 0 0.7-0.5 1.2-1.1 1.2zm0 5.3h-12.2c-0.6 0-1.1-0.5-1.1-1.2 0-0.6 0.5-1.1 1.1-1.1h12.2c0.6 0 1.1 0.5 1.1 1.1 0 0.7-0.5 1.2-1.1 1.2zm0 5.3h-12.2c-0.6 0-1.1-0.5-1.1-1.2 0-0.6 0.5-1.1 1.1-1.1h12.2c0.6 0 1.1 0.5 1.1 1.1 0 0.7-0.5 1.2-1.1 1.2zm0 5.3h-12.2c-0.6 0-1.1-0.5-1.1-1.2 0-0.6 0.5-1.1 1.1-1.1h12.2c0.6 0 1.1 0.5 1.1 1.1 0 0.7-0.5 1.2-1.1 1.2zm0 5.3h-12.2c-0.6 0-1.1-0.5-1.1-1.2 0-0.6 0.5-1.1 1.1-1.1h12.2c0.6 0 1.1 0.5 1.1 1.1 0 0.7-0.5 1.2-1.1 1.2zm14.5 5.3h-12.1c-0.7 0-1.2-0.5-1.2-1.2 0-0.6 0.5-1.1 1.2-1.1h12.1c0.7 0 1.2 0.5 1.2 1.1 0 0.7-0.5 1.2-1.2 1.2zm0 5.3h-12.1c-0.7 0-1.2-0.6-1.2-1.2 0-0.6 0.5-1.1 1.2-1.1h12.1c0.7 0 1.2 0.5 1.2 1.1 0 0.6-0.5 1.2-1.2 1.2zm0 5.3h-12.1c-0.7 0-1.2-0.6-1.2-1.2 0-0.6 0.5-1.1 1.2-1.1h12.1c0.7 0 1.2 0.5 1.2 1.1 0 0.6-0.5 1.2-1.2 1.2zm-9.4-36.9c-0.7 0-1.3-0.6-1.3-1.4 0-0.7 0.6-1.3 1.3-1.3 0.8 0 1.4 0.6 1.4 1.3 0 0.8-0.6 1.4-1.4 1.4zm4 0c-0.7 0-1.3-0.6-1.3-1.4 0-0.7 0.6-1.3 1.3-1.3 0.7 0 1.3 0.6 1.3 1.3 0 0.8-0.6 1.4-1.3 1.4zm4 0c-0.7 0-1.3-0.6-1.3-1.4 0-0.7 0.6-1.3 1.3-1.3 0.7 0 1.3 0.6 1.3 1.3 0 0.8-0.6 1.4-1.3 1.4zm4 0c-0.8 0-1.4-0.6-1.4-1.4 0-0.7 0.6-1.3 1.4-1.3 0.7 0 1.3 0.6 1.3 1.3 0 0.8-0.6 1.4-1.3 1.4zm3.9 0c-0.7 0-1.3-0.6-1.3-1.4 0-0.7 0.6-1.3 1.3-1.3 0.8 0 1.4 0.6 1.4 1.3 0 0.8-0.6 1.4-1.4 1.4zm4 0c-0.7 0-1.3-0.6-1.3-1.4 0-0.7 0.6-1.3 1.3-1.3 0.7 0 1.3 0.6 1.3 1.3 0 0.8-0.6 1.4-1.3 1.4zm-19.9 10.6c-0.7 0-1.3-0.6-1.3-1.4 0-0.7 0.6-1.3 1.3-1.3 0.8 0 1.4 0.6 1.4 1.3 0 0.8-0.6 1.4-1.4 1.4zm4 0c-0.7 0-1.3-0.6-1.3-1.4 0-0.7 0.6-1.3 1.3-1.3 0.7 0 1.3 0.6 1.3 1.3 0 0.8-0.6 1.4-1.3 1.4zm4 0c-0.7 0-1.3-0.6-1.3-1.4 0-0.7 0.6-1.3 1.3-1.3 0.7 0 1.3 0.6 1.3 1.3 0 0.8-0.6 1.4-1.3 1.4zm4 0c-0.8 0-1.4-0.6-1.4-1.4 0-0.7 0.6-1.3 1.4-1.3 0.7 0 1.3 0.6 1.3 1.3 0 0.8-0.6 1.4-1.3 1.4zm3.9 0c-0.7 0-1.3-0.6-1.3-1.4 0-0.7 0.6-1.3 1.3-1.3 0.8 0 1.4 0.6 1.4 1.3 0 0.8-0.6 1.4-1.4 1.4zm4 0c-0.7 0-1.3-0.6-1.3-1.4 0-0.7 0.6-1.3 1.3-1.3 0.7 0 1.3 0.6 1.3 1.3 0 0.8-0.6 1.4-1.3 1.4zm-6.3 15.2c-0.7 0-1.3-0.6-1.3-1.3 0-0.8 0.6-1.4 1.3-1.4 0.7 0 1.3 0.6 1.3 1.4 0 0.7-0.6 1.3-1.3 1.3zm4 0c-0.7 0-1.3-0.6-1.3-1.3 0-0.8 0.6-1.4 1.3-1.4 0.7 0 1.3 0.6 1.3 1.4 0 0.7-0.6 1.3-1.3 1.3zm4 0c-0.8 0-1.4-0.6-1.4-1.3 0-0.8 0.6-1.4 1.4-1.4 0.7 0 1.3 0.6 1.3 1.4 0 0.7-0.6 1.3-1.3 1.3zm3.9 0c-0.7 0-1.3-0.6-1.3-1.3 0-0.8 0.6-1.4 1.3-1.4 0.8 0 1.4 0.6 1.4 1.4 0 0.7-0.6 1.3-1.4 1.3zm4 0c-0.7 0-1.3-0.6-1.3-1.3 0-0.8 0.6-1.4 1.3-1.4 0.7 0 1.3 0.6 1.3 1.4 0 0.7-0.6 1.3-1.3 1.3zm4 0c-0.8 0-1.3-0.6-1.3-1.3 0-0.8 0.5-1.4 1.3-1.4 0.7 0 1.3 0.6 1.3 1.4 0 0.7-0.6 1.3-1.3 1.3zm-19.9 10.9c-0.7 0-1.3-0.6-1.3-1.3 0-0.8 0.6-1.3 1.3-1.3 0.7 0 1.3 0.5 1.3 1.3 0 0.7-0.6 1.3-1.3 1.3zm4 0c-0.7 0-1.3-0.6-1.3-1.3 0-0.8 0.6-1.3 1.3-1.3 0.7 0 1.3 0.5 1.3 1.3 0 0.7-0.6 1.3-1.3 1.3zm4 0c-0.8 0-1.4-0.6-1.4-1.3 0-0.8 0.6-1.3 1.4-1.3 0.7 0 1.3 0.5 1.3 1.3 0 0.7-0.6 1.3-1.3 1.3zm3.9 0c-0.7 0-1.3-0.6-1.3-1.3 0-0.8 0.6-1.3 1.3-1.3 0.8 0 1.4 0.5 1.4 1.3 0 0.7-0.6 1.3-1.4 1.3zm4 0c-0.7 0-1.3-0.6-1.3-1.3 0-0.8 0.6-1.3 1.3-1.3 0.7 0 1.3 0.5 1.3 1.3 0 0.7-0.6 1.3-1.3 1.3zm4 0c-0.8 0-1.3-0.6-1.3-1.3 0-0.8 0.5-1.3 1.3-1.3 0.7 0 1.3 0.5 1.3 1.3 0 0.7-0.6 1.3-1.3 1.3z"/>
					<path id="&lt;Compound Path&gt;" fill-rule="evenodd" class="s0" d="m366.4 577.9h-4.6c-0.6 0-1.2-0.5-1.2-1.2 0-0.6 0.6-1.1 1.2-1.1h4.6c0.7 0 1.2 0.5 1.2 1.1 0 0.7-0.5 1.2-1.2 1.2zm0 5.3h-4.6c-0.6 0-1.2-0.5-1.2-1.2 0-0.6 0.6-1.1 1.2-1.1h4.6c0.7 0 1.2 0.5 1.2 1.1 0 0.7-0.5 1.2-1.2 1.2zm0 5.3h-4.6c-0.6 0-1.2-0.5-1.2-1.2 0-0.6 0.6-1.1 1.2-1.1h4.6c0.7 0 1.2 0.5 1.2 1.1 0 0.7-0.5 1.2-1.2 1.2zm0 5.3h-4.6c-0.6 0-1.2-0.5-1.2-1.2 0-0.6 0.6-1.1 1.2-1.1h4.6c0.7 0 1.2 0.5 1.2 1.1 0 0.7-0.5 1.2-1.2 1.2zm0 5.3h-4.6c-0.6 0-1.2-0.5-1.2-1.2 0-0.6 0.6-1.1 1.2-1.1h4.6c0.7 0 1.2 0.5 1.2 1.1 0 0.7-0.5 1.2-1.2 1.2zm0 5.3h-4.6c-0.6 0-1.2-0.5-1.2-1.2 0-0.6 0.6-1.1 1.2-1.1h4.6c0.7 0 1.2 0.5 1.2 1.1 0 0.7-0.5 1.2-1.2 1.2zm0 5.3h-4.6c-0.6 0-1.2-0.5-1.2-1.2 0-0.6 0.6-1.1 1.2-1.1h4.6c0.7 0 1.2 0.5 1.2 1.1 0 0.7-0.5 1.2-1.2 1.2zm0 5.3h-4.6c-0.6 0-1.2-0.5-1.2-1.2 0-0.6 0.6-1.1 1.2-1.1h4.6c0.7 0 1.2 0.5 1.2 1.1 0 0.7-0.5 1.2-1.2 1.2zm17.4-37.1h-12.2c-0.6 0-1.1-0.5-1.1-1.2 0-0.6 0.5-1.1 1.1-1.1h12.2c0.6 0 1.1 0.5 1.1 1.1 0 0.7-0.5 1.2-1.1 1.2zm0 5.3h-12.2c-0.6 0-1.1-0.5-1.1-1.2 0-0.6 0.5-1.1 1.1-1.1h12.2c0.6 0 1.1 0.5 1.1 1.1 0 0.7-0.5 1.2-1.1 1.2zm0 5.3h-12.2c-0.6 0-1.1-0.5-1.1-1.2 0-0.6 0.5-1.1 1.1-1.1h12.2c0.6 0 1.1 0.5 1.1 1.1 0 0.7-0.5 1.2-1.1 1.2zm0 5.3h-12.2c-0.6 0-1.1-0.5-1.1-1.2 0-0.6 0.5-1.1 1.1-1.1h12.2c0.6 0 1.1 0.5 1.1 1.1 0 0.7-0.5 1.2-1.1 1.2zm0 5.3h-12.2c-0.6 0-1.1-0.5-1.1-1.2 0-0.6 0.5-1.1 1.1-1.1h12.2c0.6 0 1.1 0.5 1.1 1.1 0 0.7-0.5 1.2-1.1 1.2zm14.5 5.3h-12.1c-0.7 0-1.2-0.5-1.2-1.2 0-0.6 0.5-1.1 1.2-1.1h12.1c0.7 0 1.2 0.5 1.2 1.1 0 0.7-0.5 1.2-1.2 1.2zm0 5.3h-12.1c-0.7 0-1.2-0.5-1.2-1.2 0-0.6 0.5-1.1 1.2-1.1h12.1c0.7 0 1.2 0.5 1.2 1.1 0 0.7-0.5 1.2-1.2 1.2zm0 5.3h-12.1c-0.7 0-1.2-0.5-1.2-1.2 0-0.6 0.5-1.1 1.2-1.1h12.1c0.7 0 1.2 0.5 1.2 1.1 0 0.7-0.5 1.2-1.2 1.2zm-9.4-36.9c-0.7 0-1.3-0.6-1.3-1.4 0-0.7 0.6-1.3 1.3-1.3 0.8 0 1.4 0.6 1.4 1.3 0 0.8-0.6 1.4-1.4 1.4zm4 0c-0.7 0-1.3-0.6-1.3-1.4 0-0.7 0.6-1.3 1.3-1.3 0.7 0 1.3 0.6 1.3 1.3 0 0.8-0.6 1.4-1.3 1.4zm4 0c-0.7 0-1.3-0.6-1.3-1.4 0-0.7 0.6-1.3 1.3-1.3 0.7 0 1.3 0.6 1.3 1.3 0 0.8-0.6 1.4-1.3 1.4zm4 0c-0.8 0-1.4-0.6-1.4-1.4 0-0.7 0.6-1.3 1.4-1.3 0.7 0 1.3 0.6 1.3 1.3 0 0.8-0.6 1.4-1.3 1.4zm3.9 0c-0.7 0-1.3-0.6-1.3-1.4 0-0.7 0.6-1.3 1.3-1.3 0.8 0 1.4 0.6 1.4 1.3 0 0.8-0.6 1.4-1.4 1.4zm4 0c-0.7 0-1.3-0.6-1.3-1.4 0-0.7 0.6-1.3 1.3-1.3 0.7 0 1.3 0.6 1.3 1.3 0 0.8-0.6 1.4-1.3 1.4zm-19.9 10.6c-0.7 0-1.3-0.6-1.3-1.4 0-0.7 0.6-1.3 1.3-1.3 0.8 0 1.4 0.6 1.4 1.3 0 0.8-0.6 1.4-1.4 1.4zm4 0c-0.7 0-1.3-0.6-1.3-1.4 0-0.7 0.6-1.3 1.3-1.3 0.7 0 1.3 0.6 1.3 1.3 0 0.8-0.6 1.4-1.3 1.4zm4 0c-0.7 0-1.3-0.6-1.3-1.4 0-0.7 0.6-1.3 1.3-1.3 0.7 0 1.3 0.6 1.3 1.3 0 0.8-0.6 1.4-1.3 1.4zm4 0c-0.8 0-1.4-0.6-1.4-1.4 0-0.7 0.6-1.3 1.4-1.3 0.7 0 1.3 0.6 1.3 1.3 0 0.8-0.6 1.4-1.3 1.4zm3.9 0c-0.7 0-1.3-0.6-1.3-1.4 0-0.7 0.6-1.3 1.3-1.3 0.8 0 1.4 0.6 1.4 1.3 0 0.8-0.6 1.4-1.4 1.4zm4 0c-0.7 0-1.3-0.6-1.3-1.4 0-0.7 0.6-1.3 1.3-1.3 0.7 0 1.3 0.6 1.3 1.3 0 0.8-0.6 1.4-1.3 1.4zm-6.3 15.2c-0.7 0-1.3-0.6-1.3-1.3 0-0.8 0.6-1.4 1.3-1.4 0.7 0 1.3 0.6 1.3 1.4 0 0.7-0.6 1.3-1.3 1.3zm4 0c-0.7 0-1.3-0.6-1.3-1.3 0-0.8 0.6-1.4 1.3-1.4 0.7 0 1.3 0.6 1.3 1.4 0 0.7-0.6 1.3-1.3 1.3zm4 0c-0.8 0-1.4-0.6-1.4-1.3 0-0.8 0.6-1.4 1.4-1.4 0.7 0 1.3 0.6 1.3 1.4 0 0.7-0.6 1.3-1.3 1.3zm3.9 0c-0.7 0-1.3-0.6-1.3-1.3 0-0.8 0.6-1.4 1.3-1.4 0.8 0 1.4 0.6 1.4 1.4 0 0.7-0.6 1.3-1.4 1.3zm4 0c-0.7 0-1.3-0.6-1.3-1.3 0-0.8 0.6-1.4 1.3-1.4 0.7 0 1.3 0.6 1.3 1.4 0 0.7-0.6 1.3-1.3 1.3zm4 0c-0.8 0-1.3-0.6-1.3-1.3 0-0.8 0.5-1.4 1.3-1.4 0.7 0 1.3 0.6 1.3 1.4 0 0.7-0.6 1.3-1.3 1.3zm-19.9 10.9c-0.7 0-1.3-0.6-1.3-1.3 0-0.7 0.6-1.3 1.3-1.3 0.7 0 1.3 0.6 1.3 1.3 0 0.7-0.6 1.3-1.3 1.3zm4 0c-0.7 0-1.3-0.6-1.3-1.3 0-0.7 0.6-1.3 1.3-1.3 0.7 0 1.3 0.6 1.3 1.3 0 0.7-0.6 1.3-1.3 1.3zm4 0c-0.8 0-1.4-0.6-1.4-1.3 0-0.7 0.6-1.3 1.4-1.3 0.7 0 1.3 0.6 1.3 1.3 0 0.7-0.6 1.3-1.3 1.3zm3.9 0c-0.7 0-1.3-0.6-1.3-1.3 0-0.7 0.6-1.3 1.3-1.3 0.8 0 1.4 0.6 1.4 1.3 0 0.7-0.6 1.3-1.4 1.3zm4 0c-0.7 0-1.3-0.6-1.3-1.3 0-0.7 0.6-1.3 1.3-1.3 0.7 0 1.3 0.6 1.3 1.3 0 0.7-0.6 1.3-1.3 1.3zm4 0c-0.8 0-1.3-0.6-1.3-1.3 0-0.7 0.5-1.3 1.3-1.3 0.7 0 1.3 0.6 1.3 1.3 0 0.7-0.6 1.3-1.3 1.3z"/>
					<path id="&lt;Compound Path&gt;" fill-rule="evenodd" class="s0" d="m437.6 492.1h-4.7c-0.6 0-1.1-0.5-1.1-1.2 0-0.6 0.5-1.1 1.1-1.1h4.7c0.6 0 1.1 0.5 1.1 1.1 0 0.7-0.5 1.2-1.1 1.2zm0 5.3h-4.7c-0.6 0-1.1-0.5-1.1-1.2 0-0.6 0.5-1.1 1.1-1.1h4.7c0.6 0 1.1 0.5 1.1 1.1 0 0.7-0.5 1.2-1.1 1.2zm0 5.3h-4.7c-0.6 0-1.1-0.5-1.1-1.2 0-0.6 0.5-1.1 1.1-1.1h4.7c0.6 0 1.1 0.5 1.1 1.1 0 0.7-0.5 1.2-1.1 1.2zm0 5.3h-4.7c-0.6 0-1.1-0.5-1.1-1.2 0-0.6 0.5-1.1 1.1-1.1h4.7c0.6 0 1.1 0.5 1.1 1.1 0 0.7-0.5 1.2-1.1 1.2zm0 5.3h-4.7c-0.6 0-1.1-0.5-1.1-1.2 0-0.6 0.5-1.1 1.1-1.1h4.7c0.6 0 1.1 0.5 1.1 1.1 0 0.7-0.5 1.2-1.1 1.2zm0 5.3h-4.7c-0.6 0-1.1-0.5-1.1-1.2 0-0.6 0.5-1.1 1.1-1.1h4.7c0.6 0 1.1 0.5 1.1 1.1 0 0.7-0.5 1.2-1.1 1.2zm0 5.3h-4.7c-0.6 0-1.1-0.5-1.1-1.2 0-0.6 0.5-1.1 1.1-1.1h4.7c0.6 0 1.1 0.5 1.1 1.1 0 0.7-0.5 1.2-1.1 1.2zm0 5.3h-4.7c-0.6 0-1.1-0.5-1.1-1.2 0-0.6 0.5-1.1 1.1-1.1h4.7c0.6 0 1.1 0.5 1.1 1.1 0 0.7-0.5 1.2-1.1 1.2zm17.3-37.1h-12.1c-0.7 0-1.2-0.5-1.2-1.2 0-0.6 0.5-1.1 1.2-1.1h12.1c0.7 0 1.2 0.5 1.2 1.1 0 0.7-0.5 1.2-1.2 1.2zm0 5.3h-12.1c-0.7 0-1.2-0.5-1.2-1.2 0-0.6 0.5-1.1 1.2-1.1h12.1c0.7 0 1.2 0.5 1.2 1.1 0 0.7-0.5 1.2-1.2 1.2zm0 5.3h-12.1c-0.7 0-1.2-0.5-1.2-1.2 0-0.6 0.5-1.1 1.2-1.1h12.1c0.7 0 1.2 0.5 1.2 1.1 0 0.7-0.5 1.2-1.2 1.2zm0 5.3h-12.1c-0.7 0-1.2-0.5-1.2-1.2 0-0.6 0.5-1.1 1.2-1.1h12.1c0.7 0 1.2 0.5 1.2 1.1 0 0.7-0.5 1.2-1.2 1.2zm0 5.3h-12.1c-0.7 0-1.2-0.5-1.2-1.2 0-0.6 0.5-1.1 1.2-1.1h12.1c0.7 0 1.2 0.5 1.2 1.1 0 0.7-0.5 1.2-1.2 1.2zm14.6 5.3h-12.2c-0.6 0-1.1-0.5-1.1-1.2 0-0.6 0.5-1.1 1.1-1.1h12.2c0.6 0 1.1 0.5 1.1 1.1 0 0.7-0.5 1.2-1.1 1.2zm0 5.3h-12.2c-0.6 0-1.1-0.5-1.1-1.2 0-0.6 0.5-1.1 1.1-1.1h12.2c0.6 0 1.1 0.5 1.1 1.1 0 0.7-0.5 1.2-1.1 1.2zm0 5.3h-12.2c-0.6 0-1.1-0.5-1.1-1.2 0-0.6 0.5-1.1 1.1-1.1h12.2c0.6 0 1.1 0.5 1.1 1.1 0 0.7-0.5 1.2-1.1 1.2zm-9.4-36.9c-0.7 0-1.3-0.6-1.3-1.4 0-0.7 0.6-1.3 1.3-1.3 0.7 0 1.3 0.6 1.3 1.3 0 0.8-0.6 1.4-1.3 1.4zm4 0c-0.8 0-1.4-0.6-1.4-1.4 0-0.7 0.6-1.3 1.4-1.3 0.7 0 1.3 0.6 1.3 1.3 0 0.8-0.6 1.4-1.3 1.4zm3.9 0c-0.7 0-1.3-0.6-1.3-1.4 0-0.7 0.6-1.3 1.3-1.3 0.8 0 1.4 0.6 1.4 1.3 0 0.8-0.6 1.4-1.4 1.4zm4 0c-0.7 0-1.3-0.6-1.3-1.4 0-0.7 0.6-1.3 1.3-1.3 0.7 0 1.3 0.6 1.3 1.3 0 0.8-0.6 1.4-1.3 1.4zm4 0c-0.7 0-1.3-0.6-1.3-1.4 0-0.7 0.6-1.3 1.3-1.3 0.7 0 1.3 0.6 1.3 1.3 0 0.8-0.6 1.4-1.3 1.4zm4 0c-0.8 0-1.4-0.6-1.4-1.4 0-0.7 0.6-1.3 1.4-1.3 0.7 0 1.3 0.6 1.3 1.3 0 0.8-0.6 1.4-1.3 1.4zm-19.9 10.6c-0.7 0-1.3-0.6-1.3-1.4 0-0.7 0.6-1.3 1.3-1.3 0.7 0 1.3 0.6 1.3 1.3 0 0.8-0.6 1.4-1.3 1.4zm4 0c-0.8 0-1.4-0.6-1.4-1.4 0-0.7 0.6-1.3 1.4-1.3 0.7 0 1.3 0.6 1.3 1.3 0 0.8-0.6 1.4-1.3 1.4zm3.9 0c-0.7 0-1.3-0.6-1.3-1.4 0-0.7 0.6-1.3 1.3-1.3 0.8 0 1.4 0.6 1.4 1.3 0 0.8-0.6 1.4-1.4 1.4zm4 0c-0.7 0-1.3-0.6-1.3-1.4 0-0.7 0.6-1.3 1.3-1.3 0.7 0 1.3 0.6 1.3 1.3 0 0.8-0.6 1.4-1.3 1.4zm4 0c-0.7 0-1.3-0.6-1.3-1.4 0-0.7 0.6-1.3 1.3-1.3 0.7 0 1.3 0.6 1.3 1.3 0 0.8-0.6 1.4-1.3 1.4zm4 0c-0.8 0-1.4-0.6-1.4-1.4 0-0.7 0.6-1.3 1.4-1.3 0.7 0 1.3 0.6 1.3 1.3 0 0.8-0.6 1.4-1.3 1.4zm-6.3 15.2c-0.8 0-1.4-0.6-1.4-1.3 0-0.8 0.6-1.4 1.4-1.4 0.7 0 1.3 0.6 1.3 1.4 0 0.7-0.6 1.3-1.3 1.3zm3.9 0c-0.7 0-1.3-0.6-1.3-1.3 0-0.8 0.6-1.4 1.3-1.4 0.8 0 1.4 0.6 1.4 1.4 0 0.7-0.6 1.3-1.4 1.3zm4 0c-0.7 0-1.3-0.6-1.3-1.3 0-0.8 0.6-1.4 1.3-1.4 0.7 0 1.3 0.6 1.3 1.4 0 0.7-0.6 1.3-1.3 1.3zm4 0c-0.7 0-1.3-0.6-1.3-1.3 0-0.8 0.6-1.4 1.3-1.4 0.7 0 1.3 0.6 1.3 1.4 0 0.7-0.6 1.3-1.3 1.3zm4 0c-0.8 0-1.4-0.6-1.4-1.3 0-0.8 0.6-1.4 1.4-1.4 0.7 0 1.3 0.6 1.3 1.4 0 0.7-0.6 1.3-1.3 1.3zm3.9 0c-0.7 0-1.3-0.6-1.3-1.3 0-0.8 0.6-1.4 1.3-1.4 0.8 0 1.4 0.6 1.4 1.4 0 0.7-0.6 1.3-1.4 1.3zm-19.8 10.9c-0.8 0-1.4-0.6-1.4-1.3 0-0.7 0.6-1.3 1.4-1.3 0.7 0 1.3 0.6 1.3 1.3 0 0.7-0.6 1.3-1.3 1.3zm3.9 0c-0.7 0-1.3-0.6-1.3-1.3 0-0.7 0.6-1.3 1.3-1.3 0.8 0 1.4 0.6 1.4 1.3 0 0.7-0.6 1.3-1.4 1.3zm4 0c-0.7 0-1.3-0.6-1.3-1.3 0-0.7 0.6-1.3 1.3-1.3 0.7 0 1.3 0.6 1.3 1.3 0 0.7-0.6 1.3-1.3 1.3zm4 0c-0.7 0-1.3-0.6-1.3-1.3 0-0.7 0.6-1.3 1.3-1.3 0.7 0 1.3 0.6 1.3 1.3 0 0.7-0.6 1.3-1.3 1.3zm4 0c-0.8 0-1.4-0.6-1.4-1.3 0-0.7 0.6-1.3 1.4-1.3 0.7 0 1.3 0.6 1.3 1.3 0 0.7-0.6 1.3-1.3 1.3zm3.9 0c-0.7 0-1.3-0.6-1.3-1.3 0-0.7 0.6-1.3 1.3-1.3 0.8 0 1.4 0.6 1.4 1.3 0 0.7-0.6 1.3-1.4 1.3z"/>
					<path id="&lt;Compound Path&gt;" fill-rule="evenodd" class="s0" d="m437.6 535.5h-4.7c-0.6 0-1.1-0.5-1.1-1.1 0-0.7 0.5-1.2 1.1-1.2h4.7c0.6 0 1.1 0.5 1.1 1.2 0 0.6-0.5 1.1-1.1 1.1zm0 5.3h-4.7c-0.6 0-1.1-0.5-1.1-1.1 0-0.7 0.5-1.2 1.1-1.2h4.7c0.6 0 1.1 0.5 1.1 1.2 0 0.6-0.5 1.1-1.1 1.1zm0 5.3h-4.7c-0.6 0-1.1-0.5-1.1-1.2 0-0.6 0.5-1.1 1.1-1.1h4.7c0.6 0 1.1 0.5 1.1 1.1 0 0.7-0.5 1.2-1.1 1.2zm0 5.3h-4.7c-0.6 0-1.1-0.5-1.1-1.2 0-0.6 0.5-1.1 1.1-1.1h4.7c0.6 0 1.1 0.5 1.1 1.1 0 0.7-0.5 1.2-1.1 1.2zm0 5.3h-4.7c-0.6 0-1.1-0.5-1.1-1.2 0-0.6 0.5-1.1 1.1-1.1h4.7c0.6 0 1.1 0.5 1.1 1.1 0 0.7-0.5 1.2-1.1 1.2zm0 5.3h-4.7c-0.6 0-1.1-0.5-1.1-1.2 0-0.6 0.5-1.1 1.1-1.1h4.7c0.6 0 1.1 0.5 1.1 1.1 0 0.7-0.5 1.2-1.1 1.2zm0 5.3h-4.7c-0.6 0-1.1-0.5-1.1-1.2 0-0.6 0.5-1.1 1.1-1.1h4.7c0.6 0 1.1 0.5 1.1 1.1 0 0.7-0.5 1.2-1.1 1.2zm0 5.3h-4.7c-0.6 0-1.1-0.5-1.1-1.2 0-0.6 0.5-1.1 1.1-1.1h4.7c0.6 0 1.1 0.5 1.1 1.1 0 0.7-0.5 1.2-1.1 1.2zm17.3-37.1h-12.1c-0.7 0-1.2-0.5-1.2-1.1 0-0.7 0.5-1.2 1.2-1.2h12.1c0.7 0 1.2 0.5 1.2 1.2 0 0.6-0.5 1.1-1.2 1.1zm0 5.3h-12.1c-0.7 0-1.2-0.5-1.2-1.1 0-0.7 0.5-1.2 1.2-1.2h12.1c0.7 0 1.2 0.5 1.2 1.2 0 0.6-0.5 1.1-1.2 1.1zm0 5.3h-12.1c-0.7 0-1.2-0.5-1.2-1.2 0-0.6 0.5-1.1 1.2-1.1h12.1c0.7 0 1.2 0.5 1.2 1.1 0 0.7-0.5 1.2-1.2 1.2zm0 5.3h-12.1c-0.7 0-1.2-0.5-1.2-1.2 0-0.6 0.5-1.1 1.2-1.1h12.1c0.7 0 1.2 0.5 1.2 1.1 0 0.7-0.5 1.2-1.2 1.2zm0 5.3h-12.1c-0.7 0-1.2-0.5-1.2-1.2 0-0.6 0.5-1.1 1.2-1.1h12.1c0.7 0 1.2 0.5 1.2 1.1 0 0.7-0.5 1.2-1.2 1.2zm14.6 5.3h-12.2c-0.6 0-1.1-0.5-1.1-1.2 0-0.6 0.5-1.1 1.1-1.1h12.2c0.6 0 1.1 0.5 1.1 1.1 0 0.7-0.5 1.2-1.1 1.2zm0 5.3h-12.2c-0.6 0-1.1-0.5-1.1-1.2 0-0.6 0.5-1.1 1.1-1.1h12.2c0.6 0 1.1 0.5 1.1 1.1 0 0.7-0.5 1.2-1.1 1.2zm0 5.3h-12.2c-0.6 0-1.1-0.5-1.1-1.2 0-0.6 0.5-1.1 1.1-1.1h12.2c0.6 0 1.1 0.5 1.1 1.1 0 0.7-0.5 1.2-1.1 1.2zm-9.4-36.9c-0.7 0-1.3-0.6-1.3-1.3 0-0.8 0.6-1.4 1.3-1.4 0.7 0 1.3 0.6 1.3 1.4 0 0.7-0.6 1.3-1.3 1.3zm4 0c-0.8 0-1.4-0.6-1.4-1.3 0-0.8 0.6-1.4 1.4-1.4 0.7 0 1.3 0.6 1.3 1.4 0 0.7-0.6 1.3-1.3 1.3zm3.9 0c-0.7 0-1.3-0.6-1.3-1.3 0-0.8 0.6-1.4 1.3-1.4 0.8 0 1.4 0.6 1.4 1.4 0 0.7-0.6 1.3-1.4 1.3zm4 0c-0.7 0-1.3-0.6-1.3-1.3 0-0.8 0.6-1.4 1.3-1.4 0.7 0 1.3 0.6 1.3 1.4 0 0.7-0.6 1.3-1.3 1.3zm4 0c-0.7 0-1.3-0.6-1.3-1.3 0-0.8 0.6-1.4 1.3-1.4 0.7 0 1.3 0.6 1.3 1.4 0 0.7-0.6 1.3-1.3 1.3zm4 0c-0.8 0-1.4-0.6-1.4-1.3 0-0.8 0.6-1.4 1.4-1.4 0.7 0 1.3 0.6 1.3 1.4 0 0.7-0.6 1.3-1.3 1.3zm-19.9 10.6c-0.7 0-1.3-0.6-1.3-1.4 0-0.7 0.6-1.3 1.3-1.3 0.7 0 1.3 0.6 1.3 1.3 0 0.8-0.6 1.4-1.3 1.4zm4 0c-0.8 0-1.4-0.6-1.4-1.4 0-0.7 0.6-1.3 1.4-1.3 0.7 0 1.3 0.6 1.3 1.3 0 0.8-0.6 1.4-1.3 1.4zm3.9 0c-0.7 0-1.3-0.6-1.3-1.4 0-0.7 0.6-1.3 1.3-1.3 0.8 0 1.4 0.6 1.4 1.3 0 0.8-0.6 1.4-1.4 1.4zm4 0c-0.7 0-1.3-0.6-1.3-1.4 0-0.7 0.6-1.3 1.3-1.3 0.7 0 1.3 0.6 1.3 1.3 0 0.8-0.6 1.4-1.3 1.4zm4 0c-0.7 0-1.3-0.6-1.3-1.4 0-0.7 0.6-1.3 1.3-1.3 0.7 0 1.3 0.6 1.3 1.3 0 0.8-0.6 1.4-1.3 1.4zm4 0c-0.8 0-1.4-0.6-1.4-1.4 0-0.7 0.6-1.3 1.4-1.3 0.7 0 1.3 0.6 1.3 1.3 0 0.8-0.6 1.4-1.3 1.4zm-6.3 15.2c-0.8 0-1.4-0.6-1.4-1.3 0-0.8 0.6-1.3 1.4-1.3 0.7 0 1.3 0.5 1.3 1.3 0 0.7-0.6 1.3-1.3 1.3zm3.9 0c-0.7 0-1.3-0.6-1.3-1.3 0-0.8 0.6-1.3 1.3-1.3 0.8 0 1.4 0.5 1.4 1.3 0 0.7-0.6 1.3-1.4 1.3zm4 0c-0.7 0-1.3-0.6-1.3-1.3 0-0.8 0.6-1.3 1.3-1.3 0.7 0 1.3 0.5 1.3 1.3 0 0.7-0.6 1.3-1.3 1.3zm4 0c-0.7 0-1.3-0.6-1.3-1.3 0-0.8 0.6-1.3 1.3-1.3 0.7 0 1.3 0.5 1.3 1.3 0 0.7-0.6 1.3-1.3 1.3zm4 0c-0.8 0-1.4-0.6-1.4-1.3 0-0.8 0.6-1.3 1.4-1.3 0.7 0 1.3 0.5 1.3 1.3 0 0.7-0.6 1.3-1.3 1.3zm3.9 0c-0.7 0-1.3-0.6-1.3-1.3 0-0.8 0.6-1.3 1.3-1.3 0.8 0 1.4 0.5 1.4 1.3 0 0.7-0.6 1.3-1.4 1.3zm-19.8 10.9c-0.8 0-1.4-0.6-1.4-1.3 0-0.7 0.6-1.3 1.4-1.3 0.7 0 1.3 0.6 1.3 1.3 0 0.7-0.6 1.3-1.3 1.3zm3.9 0c-0.7 0-1.3-0.6-1.3-1.3 0-0.7 0.6-1.3 1.3-1.3 0.8 0 1.4 0.6 1.4 1.3 0 0.7-0.6 1.3-1.4 1.3zm4 0c-0.7 0-1.3-0.6-1.3-1.3 0-0.7 0.6-1.3 1.3-1.3 0.7 0 1.3 0.6 1.3 1.3 0 0.7-0.6 1.3-1.3 1.3zm4 0c-0.7 0-1.3-0.6-1.3-1.3 0-0.7 0.6-1.3 1.3-1.3 0.7 0 1.3 0.6 1.3 1.3 0 0.7-0.6 1.3-1.3 1.3zm4 0c-0.8 0-1.4-0.6-1.4-1.3 0-0.7 0.6-1.3 1.4-1.3 0.7 0 1.3 0.6 1.3 1.3 0 0.7-0.6 1.3-1.3 1.3zm3.9 0c-0.7 0-1.3-0.6-1.3-1.3 0-0.7 0.6-1.3 1.3-1.3 0.8 0 1.4 0.6 1.4 1.3 0 0.7-0.6 1.3-1.4 1.3z"/>
				</g>
			</g>
		</g>
	</g>
	<g id="Character">
		<g id="&lt;Group&gt;">
			<g id="&lt;Group&gt;">
				<path id="&lt;Path&gt;" class="s7" d="m431.3 430.7c-0.6 7.5-4.2 13.4-8 13.1-3.9-0.3-6.5-6.6-5.9-14.2 0.6-7.6 4.2-13.5 8-13.2 3.8 0.3 6.5 6.7 5.9 14.3z"/>
				<g id="&lt;Clip Group&gt;" clip-path="url(#cp1)">
					<path id="&lt;Path&gt;" class="s10" d="m389.4 455.9c0.7-18.1-4.2-41-4.2-41 0 0 0.7-5.6-9.7-22.9-3.9-6.5-8.3-14.8-14.1-22.4-2.9 0.8-5.6 1.8-8.3 3.1-24.7 11.6-19.3 52.2-19.3 52.2 0 0 5.4 17.4 1.9 28.6-3.5 11.3-11.6 19.8-11.6 19.8l32.8 14.6 26.2-3.6c0 0 1.4 0.6 3.3 1.4 1.7-0.6 3.5-0.8 3.5-0.8 0 0 9.7 4.6 13.5 4.2 2.6-3.1-14.7-15.2-14-33.2z"/>
					<path id="&lt;Path&gt;" class="s10" d="m394.2 396.1l13.9-0.7c0 0-8.3 9.1 1.4 9.1 9.7 0 16-2.5 16-7.7 0-5.2 4.8-13.2-13.9-13.2-18.8 0-22.9 7.7-17.4 12.5z"/>
					<path id="&lt;Path&gt;" class="s4" d="m425.5 391.6c0 0 0.8 14-1.6 20.5-2.3 6.6-5.4 10.9-5.4 14 0 3.1 5.1 6.9 5.1 13.1 0 6.2-11.3 36-14.4 41.8-3.1 5.8-1.9 7.8-5.8 8.1-3.8 0.4-13.5-4.2-13.5-4.2 0 0-5.8 0.8-6.6 3.1-0.8 2.3-2.7 10.4-2.7 10.4l-56.5-25.1c0 0 8.1-8.5 11.6-19.8 3.5-11.2-1.9-28.6-1.9-28.6 0 0-5.4-40.6 19.3-52.2 24.8-11.6 60.8-4.3 66.6 1.5 5.8 5.8 5.8 17.4 5.8 17.4z"/>
				</g>
				<g id="&lt;Group&gt;">
					<path id="&lt;Path&gt;" class="s5" d="m378.7 427.6c0 0 9.3 2.7 10.4 0 1.2-2.7-2.3-3.5 2-5 4.2-1.6 14.3-7.8 14.3-13.9 0-6.2-11.6-16.7-5.8-18.2 5.8-1.6 23.6-0.8 23.6-0.8 0 0-12.4 5.8-6.2 8.5 6.2 2.7 21.3-0.8 27.1-9.3 5.8-8.5-2.4-22-13.6-29.4-11.2-7.3-33.6-13.5-55.7-12.8-22.1 0.8-38.3 8.6-43 21.3-4.6 12.8 2.8 57.7 3.1 69.7 0.4 12 7.8 15.5 16.3 15.5 8.5 0 15.9-7.4 17.8-14 1.9-6.6 2.7-13.1 3.9-14.7 1.1-1.5 5.8 3.1 5.8 3.1z"/>
					<g id="&lt;Group&gt;">
						<path id="&lt;Path&gt;" class="s11" d="m352.9 426c-1.2 1.4-2.8 2.8-4.7 4.2"/>
						<path id="&lt;Path&gt;" class="s11" d="m441.8 375.9c0 0-2.5 3.9-12.9 6.5-10.3 2.6-32.3-8.4-56.2 2.6-16.2 7.4-12.1 18.8-14.4 30"/>
						<path id="&lt;Path&gt;" class="s11" d="m396.6 395.3c0 0-8.4 1.3-14.8 12.3-6.5 10.9-5.8 27.7-25.2 32.9"/>
					</g>
				</g>
				<path id="&lt;Path&gt;" class="s7" d="m375.2 421l55.3 5.8"/>
				<path id="&lt;Path&gt;" class="s4" d="m382.9 433.4c0 0 0.8-13.5-4.2-20.1-5.1-6.6-9.3-1.9-11.6 11.2-2.4 13.2-2.4 20.1 2.7 22.1 5 1.9 10-0.4 10-0.4"/>
			</g>
			<g id="&lt;Group&gt;">
				<path id="&lt;Path&gt;" class="s5" d="m524.1 785c-4.7-4.6-17-15.4-32.5-19.1-19.8-4.7-106.5-14.6-106.5-14.6l-4.3-17.5c0 0-12.2-3.8-15.1-3.8-2.8 0-15.5 4.3-43.8 10.4-28.3 6.2-79-8.9-79-8.9 0 0-13.8 10.3-13.8 29.4 0 12 1.2 22 2.5 24.1z"/>
				<g id="&lt;Group&gt;">
					<g id="&lt;Clip Group&gt;" clip-path="url(#cp2)">
						<path id="&lt;Path&gt;" class="s10" d="m377.2 537.2c-6.5-13.3-27.6-37.2-27.6-37.2 0 0 16-4.7-38.5-18q0 0 0 0c-5.5 3.7-25.5 17.7-40.8 29.6-17.8 13.9-18.9 39.9-19.7 60-0.8 20.1-13.8 145.4-16.9 160.9-3.1 15.4 24.6 19.4 51.3 23.3 6.8 1 14 1.4 21.3 1.4l77.8-63.8q0 0 0.5 0.6c2.1-17.8 7.2-60.4 9.3-90.6-5.6-26.1-12.1-57.1-16.7-66.2z"/>
						<path id="&lt;Path&gt;" class="s7" d="m286.2 561.4c0 0 3.5 34.3 20.1 56.3"/>
						<path id="&lt;Path&gt;" class="s7" d="m335.9 618.8c0 0 3.6 8.3 21.4 22"/>
						<path id="&lt;Path&gt;" class="s7" d="m321.7 643.7c0 0 19 6.5 37.3 3"/>
						<path id="&lt;Path&gt;" class="s7" d="m315.8 756.9c0 0 39.1-20.2 54.5-39.7"/>
						<path id="&lt;Path&gt;" class="s6" d="m312.5 481c0 0-0.5 0.4-1.4 1-5.5 3.7-25.5 17.7-40.8 29.6-17.8 13.9-18.9 39.9-19.7 60-0.8 20.1-13.8 145.4-16.9 160.9-3.1 15.4 24.6 19.4 51.3 23.3 26.7 3.8 61.2-0.4 77.8-8.1 16.6-7.8 20.5-7.4 20.5-15.9 0-8.5 0.4-27.9 0.4-29.4 0-1.6 12-96.4 11.2-124.2-0.8-27.9 1.6-43-5-56.9-6.6-14-23.2-24.8-45.3-32.2-22-7.3-32.1-8.1-32.1-8.1z"/>
					</g>
					<g id="&lt;Clip Group&gt;" clip-path="url(#cp3)">
						<path id="&lt;Path&gt;" class="s10" d="m364.7 504.8c1.7-0.7 2.7-1.8 2.9-3.3 1.1-9.2-14.5-22.3-15.3-23-6.1-3-11.8-5.6-15.8-7.2-13.2-5-20.1-3.4-20.1-3.4l-10.5 17.4c0 0 31.4 7.3 47.6 13.9 3.6 1.4 7.4 3.4 11.2 5.6z"/>
						<path id="&lt;Path&gt;" class="s6" d="m316.4 467.9l-10.5 17.4c0 0 31.4 7.3 47.6 13.9 16.3 6.6 37.9 24 37.9 24 0 0-3.4-19.7-6.5-24.8-3.1-5-35.3-22-48.4-27.1-13.2-5-20.1-3.4-20.1-3.4z"/>
					</g>
					<g id="&lt;Group&gt;">
						<path id="&lt;Path&gt;" class="s4" d="m502.5 686.9c0 0 10.1-8.5 14.7-17 4.7-8.5 7.7-10.9 11.2-10.1 3.5 0.8 6.2 0.8 6.2 0.8 0 0 12.4-7.4 16.3-8.1 3.8-0.8 11.6 8.5 11.6 8.5 0 0 13.1 10 11.6 12.4-1.6 2.3-3.9 1.1-5.4 1.1-1.6 0-5.1-2.7-7-1.9-1.9 0.8-10.4 6.2-10.4 6.2 0 0 10 0 12.7 1.1 2.7 1.2 12.8 10.1 10.9 11.3-2 1.1-2 1.5-4.3 1.1-2.3-0.4-7.7-3.9-7.7-3.9l-10.5 2c0 0 6.2 6.6 8.2 8.1 1.9 1.6 9.2 3.9 6.1 5.8-3.1 1.9-5.4 1.2-9.2-1.5-3.9-2.7-12.4-7-14-7-1.5 0-5.8 5.4-12.7 7.7-7 2.4-17.5 2.4-17.5 2.4l-1.9 1.9-11.6-13.9-2.3-2z"/>
						<path id="&lt;Path&gt;" class="s7" d="m562.5 661c0 0-3.5-2-5.8-0.8-2.3 1.2-17 9.7-17 9.7"/>
						<path id="&lt;Path&gt;" class="s7" d="m534.6 660.6l-6.9 4.6"/>
					</g>
					<g id="&lt;Group&gt;">
						<path id="&lt;Path&gt;" class="s4" d="m432.8 693.1c0 0 25.6-0.4 29.5-2.7 3.8-2.3 13.1-8.9 13.5-11.6 0.4-2.7-1.9-4.3-5.8-2.7-3.9 1.5-13.9 5.4-15.5 5.4-1.5 0-8.1-2.3-8.1-2.3 0 0 11.2-10.1 15.9-12.8 4.6-2.7 9.6-1.6 12.3 0 2.8 1.5 7-3.5 3.5-6.2-3.5-2.7-8.5-4.7-12.4-4.3-3.8 0.4-5.4 1.2-5.4 1.2 0 0-4.2-7-7.3-6.2-3.1 0.8-5.4 3.1-5.4 3.1 0 0-3.5-1.9-7 0.4-3.5 2.3-7 3.1-10.8 6.2-3.9 3.1-15.1 10.4-16.7 13.1-1.5 2.7 19.7 19.4 19.7 19.4z"/>
						<path id="&lt;Path&gt;" class="s7" d="m460.3 657.1l-10.8 6.2"/>
						<path id="&lt;Path&gt;" class="s7" d="m447.6 654l-7.8 5.4"/>
					</g>
					<g id="&lt;Group&gt;">
						<g id="&lt;Clip Group&gt;" clip-path="url(#cp4)">
							<path id="&lt;Path&gt;" class="s10" d="m505.6 719c2.3-2.3 12.8-11.2 12.8-11.2 0 0 0.6-4.2-0.5-9-21.8 8.6-66.4 26.5-69 29.1-3.5 3.4-1.8-2.6-1.8-9.5 0-6.9-10.3 12.1-12 16.4-1.8 4.3-5.7-12.3-7-19-1.2-6.7-21.5-58.7-27.6-82.9-6-24.1-16.7-82.5-23.3-95.7-1-2.1-2.3-4.3-3.9-6.7l-16.3 29.1c0 0-8.9 15.8-12.4 27.5-3.5 11.6 0.8 28.2 2 32.1 0.6 2.1 19.2 39.2 37.1 74.5l0.4-0.3c0 0 32.8 83 49 74.9 15.8-10 70.5-47.3 72.5-49.3z"/>
							<path id="&lt;Path&gt;" class="s6" d="m358.9 560.7c0 0-10.8 14.7-14.3 26.4-3.5 11.6 0.8 28.2 2 32.1 1.1 3.8 63 125.7 69.6 137.7 6.6 12 13.9 12.8 19.4 10.9 5.4-2 67.7-46.5 70-48.8 2.3-2.3 12.8-11.2 12.8-11.2 0 0 1.9-12.4-6.6-19-8.5-6.5-12.8-3.1-12.8-3.1l-54.2 14.7c0 0-30.5-105.2-34-125.3-3.5-20.2 1.9-19-8.9-29.8-10.8-10.9-24-19-24-19"/>
						</g>
						<path id="&lt;Path&gt;" class="s7" d="m491.7 689.2c0 0 17.5 2.2 18.5 25.6"/>
					</g>
				</g>
			</g>
		</g>
	</g>
	<g id="Chair">
		<g id="&lt;Group&gt;">
			<g id="&lt;Group&gt;">
				<path id="&lt;Path&gt;" class="s4" d="m303 785h9c-13.8-25.6-89.6-167.4-92.2-173.8-2.8-7.1-7.1-7.1-8.5-9.9-1.4-2.8 0.5-15.1 0-23.1-0.5-8-26.4-82.5-33.5-94.8-7-12.2-17.9-10.8-17.9-10.8l-2.8 7.5 44.8 122.2z"/>
				<path id="&lt;Path&gt;" class="s5" d="m127.4 609.8c18.6 43 71.5 163.4 75.9 175.2h99.7c-11.7-21-81.3-146.8-95.9-186.5-16.1-43.4-41.1-120.7-47.2-125.9-6.1-5.2-36.8-5.2-49-1.4-12.3 3.7-12.8 5.1-12.3 13.2 0.5 8 10.3 82.6 28.8 125.4z"/>
			</g>
			<path id="&lt;Path&gt;" class="s4" d="m163.1 785h721.2"/>
		</g>
	</g>
</svg>