<svg version="1.2" xmlns="http://www.w3.org/2000/svg" viewBox="0 0 1000 1000" width="1000" height="1000">
	<title>9233855_4110954-ai</title>
	<style>
		.s0 { fill: #92e3a9 } 
		.s1 { opacity: .7;fill: #ffffff } 
		.s2 { fill: none;stroke: #263238;stroke-linecap: round;stroke-linejoin: round;stroke-width: 2 } 
		.s3 { fill: #ffffff;stroke: #263238;stroke-linecap: round;stroke-linejoin: round;stroke-width: 2 } 
		.s4 { fill: none;stroke: #263238;stroke-linecap: round;stroke-linejoin: round;stroke-width: 4 } 
		.s5 { fill: none;stroke: #92e3a9;stroke-linecap: round;stroke-linejoin: round;stroke-width: 4 } 
		.s6 { fill: #263238;stroke: #263238;stroke-linecap: round;stroke-linejoin: round;stroke-width: 2 } 
		.s7 { fill: #263238 } 
		.s8 { fill: #ffffff } 
		.s9 { fill: #bfbfbf } 
		.s10 { fill: #92e3a9;stroke: #263238;stroke-linecap: round;stroke-linejoin: round;stroke-width: 2 } 
		.s11 { fill: none;stroke: #707070;stroke-linecap: round;stroke-linejoin: round;stroke-width: 2 } 
		.s12 { fill: #757575;stroke: #263238;stroke-linecap: round;stroke-linejoin: round;stroke-width: 2 } 
	</style>
	<g id="Background Simple">
		<g id="&lt;Group&gt;">
			<path id="&lt;Path&gt;" class="s0" d="m668 69.2c0 0-154.8-55.1-306.8 32.6-151.9 87.6-228.6 261.5-294.4 400.9-65.9 139.3-28 281.1 88 345.7 116 64.6 194.9-30.6 357.6-35.3 162.7-4.6 206.5 18.6 341.5-73.3 135-91.9 159.4-309 52.9-469.6-106.5-160.7-238.8-201-238.8-201z"/>
			<path id="&lt;Path&gt;" class="s1" d="m668 69.2c0 0-154.8-55.1-306.8 32.6-151.9 87.6-228.6 261.5-294.4 400.9-65.9 139.3-28 281.1 88 345.7 116 64.6 194.9-30.6 357.6-35.3 162.7-4.6 206.5 18.6 341.5-73.3 135-91.9 159.4-309 52.9-469.6-106.5-160.7-238.8-201-238.8-201z"/>
		</g>
	</g>
	<g id="Plants">
		<g id="&lt;Group&gt;">
			<g id="&lt;Group&gt;">
				<g id="&lt;Group&gt;">
					<path id="&lt;Path&gt;" class="s0" d="m81.9 566.6c0 0 3.7 7.1 0.4 13.7-3.3 6.6-7.5 13.2-5 16.6 2.5 3.3 9.9 7.4 9.1 14.5-0.8 7-10.8 21.1-4.5 29 6.2 7.9 16.5 7.4 17 16.1 0.4 8.7-10 15.8-7.1 23.7 2.9 7.8 19.9 9.5 19.9 14.9 0 5.4-6.6 11.2-1.2 17 5.3 5.8 31.4 20.9 35.1 14.7 3.8-6.2 11.3-23.4 6.3-47.8-0.8-4.1-6.6-5.1-7.5-10.9-0.8-5.8 1.7-16.1-2.4-21.9-4.2-5.8-17.5-7.9-18.3-12.5-0.8-4.5 5-15.7-0.8-22.7-5.8-7.1-19.5-10.4-19.5-15 0-4.5 4.2-10.3-1.6-16.5-5.9-6.3-19.9-12.9-19.9-12.9z"/>
					<path id="&lt;Path&gt;" class="s2" d="m101.7 615.4c8.6 26.1 23.8 61.4 29.9 78.4 7.5 20.8 13.9 35.8 17.3 56.5 3.3 20.7 5.1 159.5 5.1 159.5"/>
					<path id="&lt;Path&gt;" class="s2" d="m83.9 569.1c0 0 7.1 5.8 13.3 31.1q0.6 2.4 1.4 5.1"/>
				</g>
			</g>
			<g id="&lt;Group&gt;">
				<g id="&lt;Group&gt;">
					<path id="&lt;Path&gt;" class="s0" d="m211.4 613.8c0 0-3 5.7-0.3 11 2.6 5.3 5.9 10.6 4 13.2-2 2.7-8 6-7.3 11.6 0.6 5.7 8.6 17 3.6 23.3-5 6.3-13.3 5.9-13.6 12.9-0.3 7 8 12.6 5.6 18.9-2.3 6.3-15.9 7.6-15.9 11.9 0 4.4 5.3 9 1 13.6-4.3 4.7-25.2 16.8-28.1 11.8-3-5-9-18.7-5.1-38.3 0.7-3.2 5.4-4 6-8.6 0.7-4.7-1.3-13 2-17.6 3.3-4.6 13.9-6.3 14.6-9.9 0.7-3.7-4-12.6 0.7-18.3 4.6-5.6 15.6-8.3 15.6-11.9 0-3.7-3.4-8.3 1.3-13.3 4.6-5 15.9-10.3 15.9-10.3z"/>
					<path id="&lt;Path&gt;" class="s2" d="m195.5 652.9c-6.9 20.9-19 49.1-23.9 62.7-6 16.6-11.2 28.6-13.8 45.2-2.7 16.6-4.1 127.7-4.1 127.7"/>
					<path id="&lt;Path&gt;" class="s2" d="m209.7 615.8c0 0-5.6 4.7-10.6 24.9q-0.4 1.9-1.1 4.1"/>
				</g>
			</g>
			<g id="&lt;Group&gt;">
				<g id="&lt;Group&gt;">
					<path id="&lt;Path&gt;" class="s0" d="m97.4 707.7c0 0 2.4 4.7 0.2 9.2-2.2 4.4-5 8.8-3.3 11.1 1.7 2.2 6.7 5 6.1 9.7-0.6 4.7-7.2 14.1-3 19.4 4.1 5.2 11 4.9 11.3 10.8 0.3 5.8-6.6 10.5-4.7 15.8 1.9 5.2 13.3 6.3 13.3 9.9 0 3.6-4.4 7.5-0.8 11.4 3.6 3.9 21 14 23.5 9.8 2.5-4.1 7.5-15.6 4.2-31.9-0.5-2.8-4.4-3.4-5-7.3-0.6-3.9 1.1-10.8-1.7-14.7-2.7-3.8-11.6-5.2-12.2-8.3-0.5-3 3.4-10.5-0.5-15.2-3.9-4.7-13-6.9-13-10 0-3 2.7-6.9-1.1-11.1-3.9-4.1-13.3-8.6-13.3-8.6z"/>
					<path id="&lt;Path&gt;" class="s2" d="m110.6 740.4c5.8 17.4 15.9 41 20 52.4 5 13.9 9.3 23.9 11.5 37.7 2.3 13.9 3.5 65.3 3.5 65.3"/>
					<path id="&lt;Path&gt;" class="s2" d="m98.7 709.4c0 0 4.8 3.9 8.9 20.8q0.4 1.6 0.9 3.4"/>
				</g>
			</g>
			<g id="&lt;Group&gt;">
				<g id="&lt;Group&gt;">
					<path id="&lt;Path&gt;" class="s0" d="m240.1 700.8c0 0-3.5 4.1-2.4 8.9 1.2 4.8 2.9 9.7 0.7 11.5-2.1 1.8-7.6 3.4-8.1 8.1-0.6 4.7 3.8 15.4-1.5 19.6-5.3 4.1-11.9 2.3-13.5 7.9-1.6 5.6 4 11.7 0.9 16.4-3.1 4.7-14.4 3.2-15.2 6.7-0.8 3.5 2.6 8.3-1.8 11.2-4.4 3-23.7 8.9-25.1 4.2-1.5-4.6-3.8-16.9 3.2-32.1 1.2-2.5 5.1-2.2 6.5-5.9 1.4-3.6 1.4-10.7 5-13.9 3.6-3.1 12.5-2.4 13.8-5.3 1.2-2.8-0.9-11 4-14.7 4.9-3.7 14.3-3.7 15-6.7 0.7-3-1.2-7.4 3.6-10.5 4.7-3.2 14.9-5.4 14.9-5.4z"/>
					<path id="&lt;Path&gt;" class="s2" d="m219.7 729.6c-9.6 15.6-24.8 36.3-31.4 46.4-8.1 12.4-17.7 20.3-19.9 34.1-2.2 13.9-3.4 65.3-3.4 65.3"/>
					<path id="&lt;Path&gt;" class="s2" d="m238.4 702.1c0 0-5.5 2.7-13.4 18.2q-0.8 1.5-1.7 3.2"/>
				</g>
			</g>
			<g id="&lt;Group&gt;">
				<path id="&lt;Path&gt;" class="s3" d="m141.7 925.4h30.8c16.2-8.4 27.7-29.5 27.7-54.3 0-16.3-4.9-31-12.9-41.6h-60.4c-8 10.6-13 25.3-13 41.6 0 24.8 11.5 45.9 27.8 54.3z"/>
				<path id="&lt;Path&gt;" class="s3" d="m173 930h-31.3v-4.6h31.3z"/>
			</g>
		</g>
	</g>
	<g id="Board">
		<g id="&lt;Group&gt;">
			<path id="&lt;Path&gt;" class="s2" d="m600.8 521.8h-491.3v-371.8h491.3z"/>
			<path id="&lt;Path&gt;" class="s2" d="m589.3 512h-468.4v-352.2h468.4z"/>
			<path id="&lt;Path&gt;" class="s4" d="m263.7 211.5c0 0-76.5-5.5-83 6.5-6.4 12-1.8 231.4 1.9 234.1 3.7 2.8 106.9 4.6 117.1 1 10.1-3.7-3.7-226.8-3.7-233.3 0-6.4-24-9.2-24-9.2"/>
			<path id="&lt;Path&gt;" class="s4" d="m188.6 393.1c0.2 29 0.8 50.2 2.3 50.7 4.6 1.9 102.3 10.2 105.1 1 2.7-9.3-7.4-217.6-7.4-217.6"/>
			<path id="&lt;Path&gt;" class="s4" d="m284.9 226.3c0 0-93.1-3.7-94 0.9-0.6 2.9-2.3 89.3-2.3 152.1"/>
			<path id="&lt;Path&gt;" class="s4" d="m193.6 242.9h90.4"/>
			<path id="&lt;Path&gt;" class="s5" d="m275.7 238.7c-5.5 5.8 0 0 3.7-8.3 3.7-8.4-3.7 1.6-12 8.3-8.3 6.7-3.7 1.7-0.9-7.5 2.7-9.2-2.8 0-10.2 5.8-7.4 5.9-3.7 3.4-0.9-6.6 2.8-10.1 0 0-11.1 6.6-11 6.7-5.5 6.7 0-3.3 5.6-10-3.6 0-13.8 3.3-10.1 3.4 0 0 3.7-9.1 3.7-9.2-6.5 2.5-13.8 7.5-7.4 5 0 0 1.8-5.9 1.9-5.8-4.6 1.7-12 9.2-7.3 7.5 0 0 1-6.7 0.9-6.7-8.3 10.9-8.3 10.9 0 0 2.7-16.7 0.9-12.5-1.9 4.1-4.6 7.5-4.6 7.5"/>
			<g id="&lt;Group&gt;">
				<path id="&lt;Path&gt;" class="s5" d="m243.4 305.6h-45.2v-47.1h45.2z"/>
				<path id="&lt;Path&gt;" class="s5" d="m207.5 258.5l-7.4 8.3 15.7-5.5-15.7 14.8 25.8-16.6-25.8 27.6 35-25.8-36.9 34.1 44.3-30.4-44.3 40.6 44.3-29.5-31.3 27.6 32.2-17.5-20.3 16.6 19.4-6.5-3.7 6.5"/>
			</g>
			<g id="&lt;Group&gt;">
				<path id="&lt;Path&gt;" class="s5" d="m282.4 438.3h-34.6v-35.9h34.6z"/>
				<path id="&lt;Path&gt;" class="s5" d="m254.9 402.4l-5.7 6.3 12-4.2-12 11.3 19.8-12.7-19.8 21.1 26.8-19.7-28.2 26.1 33.8-23.3-33.8 31 33.8-22.5-23.9 21.1 24.7-13.4-15.6 12.7 14.8-4.9-2.8 4.9"/>
			</g>
			<path id="&lt;Path&gt;" class="s4" d="m197.3 323.1h88.5"/>
			<path id="&lt;Path&gt;" class="s4" d="m196.4 331.4l87.6 0.9"/>
			<path id="&lt;Path&gt;" class="s4" d="m252.6 261.3h28.6"/>
			<path id="&lt;Path&gt;" class="s4" d="m252.6 272.4h28.6"/>
			<path id="&lt;Path&gt;" class="s4" d="m252.6 283.4h28.6"/>
			<path id="&lt;Path&gt;" class="s4" d="m252.6 294.5h28.6"/>
			<path id="&lt;Path&gt;" class="s5" d="m284 378.4h-85.8v-41.5h85.8z"/>
			<path id="&lt;Path&gt;" class="s5" d="m197.3 345.2l12-7.4-13.8 21.2 23-21.2-20.3 30.4 36-31.3-31.3 36.9 38.7-36-29.5 36 42.4-36.9-34.1 40.6 42.4-39.7-32.3 37.8 43.3-38.7-33.1 40.6 43.3-40.6-31.4 39.6 29.5-25.8-19.3 24 19.3-12.9-3.8 6.2-3.5 5.8"/>
			<path id="&lt;Path&gt;" class="s4" d="m201.9 389.5h79.3"/>
			<path id="&lt;Path&gt;" class="s4" d="m200.1 399.6h25.8"/>
			<path id="&lt;Path&gt;" class="s4" d="m299.7 231.8l63.2-7.8"/>
			<path id="&lt;Path&gt;" class="s4" d="m289.5 277h66.4"/>
			<path id="&lt;Path&gt;" class="s4" d="m184.4 360.9l-28.6 10.1"/>
			<path id="&lt;Path&gt;" class="s4" d="m265.5 444.8c0 0-5.5 28.5 32.3 35.9"/>
			<path id="&lt;Path&gt;" class="s4" d="m292.3 473.3l9.2 8.3-12.9 3.7"/>
			<path id="&lt;Path&gt;" class="s4" d="m347.6 268.7l14.7 9.2-12.9 5.5"/>
			<path id="&lt;Path&gt;" class="s4" d="m351 221.3l15.6 1.8-11 10.2"/>
			<path id="&lt;Path&gt;" class="s4" d="m159.5 361.8l-15.6 12.9 19.3 0.9"/>
			<g id="&lt;Group&gt;">
				<path id="&lt;Path&gt;" class="s0" d="m402 305.6h-35.1v-36.9h35.1z"/>
				<path id="&lt;Path&gt;" class="s4" d="m375.2 277l20.3 0.9"/>
				<path id="&lt;Path&gt;" class="s4" d="m375.2 284.4l20.3 0.9"/>
				<path id="&lt;Path&gt;" class="s4" d="m375.2 291.7l20.3 1"/>
			</g>
			<g id="&lt;Group&gt;">
				<path id="&lt;Path&gt;" class="s0" d="m350.6 355l-34.8 4.1-4.4-36.6 34.8-4.1z"/>
				<path id="&lt;Path&gt;" class="s4" d="m320.7 329.8l20.2-1.5"/>
				<path id="&lt;Path&gt;" class="s4" d="m321.5 337.1l20.3-1.5"/>
				<path id="&lt;Path&gt;" class="s4" d="m322.4 344.4l20.2-1.5"/>
			</g>
			<g id="&lt;Group&gt;">
				<path id="&lt;Path&gt;" class="s0" d="m168.9 417.7l-34.7 4.1-4.4-36.6 34.8-4.1z"/>
				<path id="&lt;Path&gt;" class="s4" d="m139 392.4l20.3-1.4"/>
				<path id="&lt;Path&gt;" class="s4" d="m139.9 399.8l20.3-1.5"/>
				<path id="&lt;Path&gt;" class="s4" d="m140.8 407.1l20.2-1.5"/>
			</g>
			<g id="&lt;Group&gt;">
				<path id="&lt;Path&gt;" class="s0" d="m341.9 494.4l-34.9-3.7 3.9-36.6 34.9 3.7z"/>
				<path id="&lt;Path&gt;" class="s4" d="m318.3 463.2l20.1 3.1"/>
				<path id="&lt;Path&gt;" class="s4" d="m317.5 470.5l20.1 3.1"/>
				<path id="&lt;Path&gt;" class="s4" d="m316.7 477.9l20.1 3"/>
			</g>
			<path id="&lt;Path&gt;" class="s6" d="m600.7 534.4h-491.2v-12.6h491.2z"/>
		</g>
	</g>
	<g id="Device">
		<g id="&lt;Group&gt;">
			<g id="&lt;Group&gt;">
				<path id="&lt;Path&gt;" class="s6" d="m797.9 611.9v-23.5h-70.6v23.5c0 7.6-2.6 15-7.5 21l-3 3.9h91.7l-3.1-3.9c-4.9-6-7.5-13.4-7.5-21z"/>
				<path id="&lt;Path&gt;" class="s3" d="m793.9 611.9v-23.5h-70.6v23.5c0 7.6-2.6 15-7.5 21l-3 3.9h91.7l-3.1-3.9c-4.9-6-7.5-13.4-7.5-21z"/>
				<path id="&lt;Path&gt;" class="s7" d="m794.5 602.2h-70.9v-7.2h70.9z"/>
				<path id="&lt;Path&gt;" class="s6" d="m883.4 595.8h-249.6c-9.4 0-17-7.6-17-17v-174.2c0-9.4 7.6-17 17-17h249.6c9.4 0 17 7.6 17 17v174.2c0 9.4-7.6 17-17 17z"/>
				<path id="&lt;Path&gt;" class="s6" d="m891 595.8h-249.6c-9.4 0-16.9-7.6-16.9-17v-174.2c0-9.4 7.5-17 16.9-17h249.6c9.4 0 17 7.6 17 17v174.2c0 9.4-7.6 17-17 17z"/>
				<path id="&lt;Path&gt;" class="s3" d="m883.4 595.8h-249.6c-9.4 0-17-7.6-17-17v-15.4h283.6v15.4c0 9.4-7.6 17-17 17z"/>
				<path id="&lt;Path&gt;" class="s8" d="m886.1 547.7h-255v-147.1h255z"/>
				<g id="&lt;Group&gt;">
					<g id="&lt;Group&gt;">
						<g id="&lt;Group&gt;">
							<path id="&lt;Path&gt;" class="s7" d="m719.9 531.6h-50.2c-3.4 0-6.1-2.7-6.1-6v-103.6c0-3.4 2.7-6.1 6.1-6.1h50.2c3.3 0 6 2.7 6 6.1v103.6c0 3.3-2.7 6-6 6z"/>
							<path id="&lt;Path&gt;" class="s0" d="m720.7 521.9h-51.9v-96.3h51.9z"/>
							<path id="&lt;Path&gt;" class="s7" d="m789.1 432.1h-47v-4.9h47z"/>
							<path id="&lt;Path&gt;" class="s0" d="m764.8 460.4h-21.9v-22.6h21.9z"/>
							<path id="&lt;Path&gt;" class="s0" d="m785.8 519.5h-11.7v-12.1h11.7z"/>
							<path id="&lt;Path&gt;" class="s0" d="m788 499.3h-44.5v-22.7h44.5z"/>
							<path id="&lt;Path&gt;" class="s2" d="m768.8 439.4h17.8"/>
							<path id="&lt;Path&gt;" class="s2" d="m768.8 445h17.8"/>
							<path id="&lt;Path&gt;" class="s2" d="m768.8 450.7h17.8"/>
							<path id="&lt;Path&gt;" class="s2" d="m768.8 456.4h17.8"/>
							<path id="&lt;Path&gt;" class="s2" d="m744.3 469.3h42.9"/>
							<path id="&lt;Path&gt;" class="s2" d="m744.3 504.9h42.9"/>
						</g>
						<path id="&lt;Path&gt;" class="s2" d="m793.1 524.4h-55v-102h55z"/>
					</g>
					<g id="&lt;Group&gt;">
						<path id="&lt;Path&gt;" class="s9" d="m860.3 460.4h-51.8v-38h51.8z"/>
						<path id="&lt;Path&gt;" class="s7" d="m860.3 430.5h-51.8v-8.1h51.8z"/>
						<path id="&lt;Path&gt;" class="s2" d="m826.1 449.5h-13.6v-13.1h13.6z"/>
						<path id="&lt;Path&gt;" class="s2" d="m853.1 449.5h-13.5v-13.1h13.5z"/>
						<path id="&lt;Path&gt;" class="s8" d="m855.3 427c0 1.1-0.9 1.9-1.9 1.9-1.1 0-2-0.8-2-1.9 0-1.1 0.9-2 2-2 1 0 1.9 0.9 1.9 2z"/>
						<path id="&lt;Path&gt;" class="s8" d="m845.9 427c0 1.1-0.8 1.9-1.9 1.9-1.1 0-2-0.8-2-1.9 0-1.1 0.9-2 2-2 1.1 0 1.9 0.9 1.9 2z"/>
					</g>
					<g id="&lt;Group&gt;">
						<path id="&lt;Path&gt;" class="s9" d="m856.2 510.2h-39.7v-29.2h39.7z"/>
						<path id="&lt;Path&gt;" class="s7" d="m856.2 487.2h-39.7v-6.2h39.7z"/>
						<path id="&lt;Path&gt;" class="s8" d="m852.4 484.6c0 0.8-0.7 1.5-1.6 1.5-0.8 0-1.5-0.7-1.5-1.5 0-0.9 0.7-1.5 1.5-1.5 0.9 0 1.6 0.6 1.6 1.5z"/>
						<path id="&lt;Path&gt;" class="s8" d="m845.2 484.6c0 0.8-0.7 1.5-1.5 1.5-0.9 0-1.5-0.7-1.5-1.5 0-0.9 0.6-1.5 1.5-1.5 0.8 0 1.5 0.6 1.5 1.5z"/>
					</g>
					<g id="&lt;Group&gt;">
						<path id="&lt;Path&gt;" class="s9" d="m639.5 539h16.7v-130.7h-16.7z"/>
						<path id="&lt;Path&gt;" class="s7" d="m639.5 414.3h16.7v-6h-16.7z"/>
						<path id="&lt;Path&gt;" class="s2" d="m651.5 427.6h-8v-9.3h8z"/>
						<path id="&lt;Path&gt;" class="s2" d="m651.5 443h-8v-9.4h8z"/>
						<path id="&lt;Path&gt;" class="s2" d="m651.5 458.3h-8v-9.3h8z"/>
						<path id="&lt;Path&gt;" class="s2" d="m651.5 473.6h-8v-9.3h8z"/>
						<path id="&lt;Path&gt;" class="s2" d="m651.5 489h-8v-9.4h8z"/>
						<path id="&lt;Path&gt;" class="s2" d="m651.5 504.3h-8v-9.3h8z"/>
						<path id="&lt;Path&gt;" class="s2" d="m651.5 519.6h-8v-9.3h8z"/>
						<path id="&lt;Path&gt;" class="s2" d="m651.5 535h-8v-9.4h8z"/>
					</g>
					<path id="&lt;Path&gt;" class="s9" d="m878.8 407h-212v5.3h212z"/>
					<path id="&lt;Path&gt;" class="s9" d="m878.8 536.3h-212v5.3h212z"/>
				</g>
				<path id="&lt;Path&gt;" class="s6" d="m804.5 641h-91.7v-4.2h91.7z"/>
			</g>
			<path id="&lt;Path&gt;" class="s3" d="m864.4 633.3h-212.9v7.7h212.9z"/>
		</g>
	</g>
	<g id="Desk">
		<g id="&lt;Group&gt;">
			<g id="&lt;Group&gt;">
				<path id="&lt;Path&gt;" class="s3" d="m460.7 930h-8.7l-4.3-265.3h17.3z"/>
				<path id="&lt;Path&gt;" class="s6" d="m460.7 930h-3.8l0.5-265.3h7.6z"/>
			</g>
			<g id="&lt;Group&gt;">
				<path id="&lt;Path&gt;" class="s3" d="m584.1 930h-8.6l-4.4-265.3h17.4z"/>
				<path id="&lt;Path&gt;" class="s6" d="m584.1 930h-3.8l0.5-265.3h7.7z"/>
			</g>
			<g id="&lt;Group&gt;">
				<path id="&lt;Path&gt;" class="s6" d="m539.9 930h-8.6l-4.4-265.3h17.4z"/>
				<path id="&lt;Path&gt;" class="s6" d="m539.9 930h-3.8l0.5-265.3h7.7z"/>
			</g>
			<g id="&lt;Group&gt;">
				<path id="&lt;Path&gt;" class="s6" d="m623.4 930h-8.7l-4.3-265.3h17.3z"/>
				<path id="&lt;Path&gt;" class="s6" d="m623.4 930h-3.9l0.5-265.3h7.7z"/>
			</g>
			<path id="&lt;Path&gt;" class="s6" d="m493.9 834.7h136v-166h-136z"/>
			<path id="&lt;Path&gt;" class="s3" d="m456.4 834.7h135.9v-166h-135.9z"/>
			<g id="&lt;Group&gt;">
				<path id="&lt;Path&gt;" class="s3" d="m866.9 930h-8.6l-4.4-265.3h17.4z"/>
				<path id="&lt;Path&gt;" class="s6" d="m866.9 930h-3.8l0.5-265.3h7.7z"/>
			</g>
			<g id="&lt;Group&gt;">
				<path id="&lt;Path&gt;" class="s6" d="m946.2 930h-8.7l-4.3-265.3h17.3z"/>
				<path id="&lt;Path&gt;" class="s6" d="m946.2 930h-3.9l0.6-265.3h7.6z"/>
			</g>
			<path id="&lt;Path&gt;" class="s3" d="m956 672.9h-519.7v-18.2h519.7z"/>
			<path id="&lt;Path&gt;" class="s6" d="m956 663.8h-519.7v-9.1h519.7z"/>
			<path id="&lt;Path&gt;" class="s6" d="m956 672.9h-76.7v-18.2h76.7z"/>
			<path id="&lt;Path&gt;" class="s3" d="m972.8 658.2h-550.6v-18.2h550.6z"/>
			<path id="&lt;Path&gt;" class="s6" d="m972.8 658.2h-76.7v-18.2h76.7z"/>
			<g id="&lt;Group&gt;">
				<path id="&lt;Path&gt;" class="s3" d="m584 742.7h-119v-58h119z"/>
				<path id="&lt;Path&gt;" class="s6" d="m537.5 716.7h-26v-9h26z"/>
			</g>
			<g id="&lt;Group&gt;">
				<path id="&lt;Path&gt;" class="s3" d="m584 815.7h-119v-58h119z"/>
				<path id="&lt;Path&gt;" class="s6" d="m537.5 789.7h-26v-9h26z"/>
			</g>
		</g>
	</g>
	<g id="Chair">
		<g id="&lt;Group&gt;">
			<path id="&lt;Path&gt;" class="s7" d="m767.2 774.9h35.5v-71.5h-35.5z"/>
			<path id="&lt;Path&gt;" class="s7" d="m776.1 848.6h17.8v-99.1h-17.8z"/>
			<path id="&lt;Path&gt;" class="s7" d="m792.2 841c0 0 14.9 16.9 53.3 22.8 20.3 3.1 41.4 7 59.8 16.7 11.7 6.3 35.2 19.9 35.2 35.5 0 7.7-6.3 14-14 14-7.7 0-13.9-6.3-13.9-14 0-3.7 1.4-7 3.7-9.5-1.9-3.2-14.6-22.3-41.4-28.1-29.2-6.4-50.5-3.8-91.6-31.1z"/>
			<path id="&lt;Path&gt;" class="s7" d="m779.5 841c0 0-14.9 16.9-53.3 22.8-20.3 3.1-41.4 7-59.8 16.7-11.8 6.3-35.2 19.9-35.2 35.5 0 7.7 6.2 14 14 14 7.7 0 13.9-6.3 13.9-14 0-3.7-1.4-7-3.8-9.5 2-3.2 14.7-22.3 41.5-28.1 29.2-6.4 50.5-3.8 91.6-31.1z"/>
			<path id="&lt;Path&gt;" class="s7" d="m778.9 903.8h13.4c0.8 0 1.3 0.6 1.3 1.3v23.6c0 0.7-0.5 1.3-1.3 1.3h-13.4c-0.7 0-1.3-0.6-1.3-1.3v-23.6c0-0.7 0.6-1.3 1.3-1.3z"/>
			<path id="&lt;Path&gt;" class="s7" d="m781.8 930h7.6v-86.7h-7.6z"/>
			<path id="&lt;Path&gt;" class="s7" d="m871.1 496.9c-4.1 22.5-7.3 47.1-8 71.7-0.6 18.6-0.9 34.5-1.2 48.5-0.8 43.6-1.3 67.8-8.2 74.3-0.8 0.6-6.5 4.1-18.4 5.1-3.3 0.2-13.9 0.4-28.2 0.5-45.6-0.2-93.4-0.6-94.2-0.6h-2.8q-0.2 0.2-0.3 0.4c-27.4-0.2-34.4-0.4-34.9-0.4h-2.8c-5.7 5-2.3 11.4 2.7 11.5 3.7 0 68.9 0.5 113.5 0.5 7.9 0 15.3 0 21.9 0 10.8 0 21.2 0 30.1 0 23.3 0 42.7-0.1 47.9-0.6 16.5-1.3 23.9-6.9 24.7-7.5 11-9.8 11.4-31.2 12.5-82.9 0.2-14 0.5-29.9 1.1-48.4 0.7-24.8 4-49.5 8.2-72.1z"/>
		</g>
	</g>
	<g id="Character">
		<g id="&lt;Group&gt;">
			<g id="&lt;Group&gt;">
				<path id="&lt;Path&gt;" class="s3" d="m517.5 870.3l4.5 23.5c0 0-4 8.5-19.5 15.5-15.5 7-23 10-23 12 0 2-1 6.5 3 8 4 1.5 89 0 89 0 0 0 4.5-2 4.5-11.5 0-9.5-4-27-4-31 0-4-2.8-13.6-2.8-15 0-1.3-34.2 0.5-34.2 0.5 0 0-10-9.5-17.5-2z"/>
				<path id="&lt;Path&gt;" class="s3" d="m535 872.3c0 0 2.5 22.5 4 24 1.5 1.5 33 1.5 33 1.5"/>
				<path id="&lt;Path&gt;" class="s3" d="m572 886.8l-35 0.5"/>
				<path id="&lt;Path&gt;" class="s3" d="m479.5 925.3h95.5"/>
			</g>
			<path id="&lt;Path&gt;" class="s6" d="m580 588.5c0 0-27.7 93.3-31.1 106.2-3.4 12.8 16.2 125.8 16.2 127.8 0 2 2.7 8.1 2.7 14.9 0 6.7-2.7 8.7-1.3 10.8 1.3 2 6.1 6.7 5.4 10.8-0.7 4.1-1.4 5.4-4.1 8.1-2.7 2.7-5.4 3.4-5.4 3.4h-16.2c0 0-4.1-30.4-14.9-110.9-10.8-80.5 6.8-126.5 10.2-141.3 3.3-14.9 10.1-27.8 10.1-27.8z"/>
			<g id="&lt;Group&gt;">
				<path id="&lt;Path&gt;" class="s3" d="m494.5 870.3l4.5 23.5c0 0-4 8.5-19.5 15.5-15.5 7-23 10-23 12 0 2-1 6.5 3 8 4 1.5 89 0 89 0 0 0 4.5-2 4.5-11.5 0-9.5-4-27-4-31 0-4-2.8-13.6-2.8-15 0-1.3-34.2 0.5-34.2 0.5 0 0-10-9.5-17.5-2z"/>
				<path id="&lt;Path&gt;" class="s3" d="m512 872.3c0 0 2.5 22.5 4 24 1.5 1.5 33 1.5 33 1.5"/>
				<path id="&lt;Path&gt;" class="s3" d="m549 886.8l-35 0.5"/>
				<path id="&lt;Path&gt;" class="s3" d="m456.5 925.3h95.5"/>
			</g>
			<g id="&lt;Group&gt;">
				<path id="&lt;Path&gt;" class="s10" d="m468.4 588.5c0 0-0.7 58.8 2.7 83.9 3.4 25 16.3 83.1 18.3 114.9 2 31.8 5.4 46.7 5.4 46.7 0 0-4.7 4-4.7 8.1 0 4 2.7 4 2 10.1-0.7 6.1-3.4 8.1-1.4 10.9 2.1 2.7 3.4 8.1 10.2 9.4 6.7 1.4 38.5 0.7 45.3-0.7 6.7-1.3 10.1-8.1 10.1-13.5 0-5.4-2-9.4-2-15.5 0-6.1 3.4-11.5 3.4-15.6 0-4-1.4-6.1-1.4-10.1 0-4.1-8.8-69-8.8-82.5 0-13.6-0.6-59.5 1.4-71 2-11.5 12.2-66.3 12.2-66.3z"/>
				<path id="&lt;Path&gt;" class="s6" d="m511.3 608.3c0 0 11.5 4.3 24.9 4.9 13.3 0.6 19.4 1.8 19.4 1.8l3.6-17z"/>
				<path id="&lt;Path&gt;" class="s2" d="m503.9 611.3c0 0 3.3 92.9 9.9 123.9 6.7 30.9 15.5 81.8 13.3 88.5-2.2 6.6-5.5 22.1-5.5 22.1 0 0 12.1-2.2 12.1 4.4 0 6.6-17.7 11.1-13.2 14.4 4.4 3.3 8.8 7 8.8 7"/>
				<path id="&lt;Path&gt;" class="s6" d="m543.2 848.7c0 0-36.8 6-26.3 8 10.4 2 30.2-0.5 31.2-3 1-2.5-2-5.5-4.9-5z"/>
			</g>
			<path id="&lt;Path&gt;" class="s0" d="m381.1 206.3l-1 41.5 39.1-0.3 0.4-41.5z"/>
			<path id="&lt;Path&gt;" class="s3" d="m425.6 282.9c0 0-8.4-8.4-12.1-16.2-3.7-7.7-9.1-12.5-9.1-17.9 0-5.4 2.3-17.9 1.3-22.9-1-5.1 0-15.5 3.4-15.5 3.4 0 5.7 3 5.1 6.4-0.7 3.3 2 15.2 2 15.2 0 0 2.7-22.7 3-24 0.4-1.4 5.1-1.4 7.1-0.3 2 1 4.4 0.6 4.4 5 0 4.4-1 9.5-1 10.5 0 1 9.4 6.4 9.8 10.4 0.3 4.1-0.7 13.9-3.1 17.9q-3.5 6.1-4 8.1c-0.4 1.4 9.1 15.6 9.1 15.6z"/>
			<path id="&lt;Path&gt;" class="s6" d="m441.4 268.7l-23 17.5c0 0 39.2 81.2 40.6 83.9 1.3 2.7 29.7 20.3 29.7 20.3l42.6-52.8c0 0-53.4-16.9-54.8-18.9-1.3-2-35.1-50-35.1-50z"/>
			<path id="&lt;Path&gt;" class="s3" d="m468.5 566.8l-2 31.5c0 0 26 11 54 10.5 28-0.5 65.5-11.5 65.5-11.5l5.5-31c0 0-67.5 5.5-88 3.5-20.5-2-35-3-35-3z"/>
			<path id="&lt;Path&gt;" class="s6" d="m448.5 556.8l-1.5 9c0 0 21.2 11.6 68 16 47.5 4.5 85.5-9 85.5-9l0.5-15.5c0 0-37 9.5-76 9-39-0.5-76.5-9.5-76.5-9.5z"/>
			<path id="&lt;Path&gt;" class="s6" d="m486.5 370.8c0 0-16.5 29-22 51.5-5.5 22.5-16.5 126.5-18 132.5-1.5 6 33.5 18 56.5 18.5 23 0.5 74.5 1.5 83.5-2 9-3.5 17.5-8.5 17.5-14 0-5.5 0.5-26 0.5-42.5 0-16.5-5-103.5-9.5-123.5-4.5-20-7.5-34-9-36.5-1.5-2.5-12.5-14.5-35-13-22.5 1.5-41.5 10-50 15-8.5 5-14.5 14-14.5 14z"/>
			<g id="&lt;Group&gt;">
				<g id="&lt;Group&gt;">
					<path id="&lt;Path&gt;" class="s3" d="m335.7 403.2c0 0-8.1 3.3-8.8 11.5-0.7 8.1 14.2 16.2 23 28.4 8.8 12.1 20.3 25 20.3 25l17.6 24.3 20.9-17.6-54.1-62.8c0 0 2.7-6.1-0.6-8.2-3.4-2-12.2-3.3-18.3-0.6z"/>
					<path id="&lt;Path&gt;" class="s3" d="m337.1 422.1l60.8-20.3c0 0 4.1 16.9 22.3 34.5 18.3 17.6 35.2 29.1 35.2 29.1l-54.8 31.1z"/>
					<path id="&lt;Path&gt;" class="s3" d="m337.1 422.1c0 0 4-4.1 4.7-10.8 0.7-6.8-6.1-8.1-6.1-8.1l60.2-17.6c0 0 11.5 4 2 16.2z"/>
				</g>
				<path id="&lt;Path&gt;" class="s3" d="m417.7 486.4c0 0-13.5-2-14.2-6.1-0.7-4-3.4-12.8-6.1-16.2-2.7-3.4-15.5-10.2-19.6-14.9-4.1-4.7-6.8-11.5-9.5-10.8-2.7 0.7-6.7 3.4-5.4 6.1 1.4 2.7 7.5 14.2 7.5 14.2l1.3 4.7c0 0-12.2-2-14.2-2.7-2-0.7-4.7 0.7-4.7 4.1 0 3.3-2.7 3.3 0.7 5.4 3.3 2 7.4 4.7 7.4 4.7 0 0 4.7 10.8 6.1 12.8 1.3 2.1 12.2 6.8 14.2 8.2 2 1.3 12.8 4.7 18.2 6 5.5 1.4 17.6 6.1 17.6 6.1l3.4-15.5z"/>
				<g id="&lt;Group&gt;">
					<path id="&lt;Path&gt;" class="s6" d="m561.1 393.1c0 0-1.4 57.5-1.4 60.2 0 2.7 2 58.1-4 62.8-6.1 4.8-35.9 10.9-79.2 9.5-43.2-1.3-62.2-10.8-62.2-10.8l3.4-28.4 82.5-6.1c0 0-8.8-62.9-7.4-84.5 1.3-21.7 18.9-33.2 18.9-33.2"/>
					<path id="&lt;Path&gt;" class="s11" d="m470 528.1c0 0 81.9 2.9 86.2-7.2 4.3-10 4.3-109.1 4.3-109.1"/>
					<path id="&lt;Path&gt;" class="s11" d="m505.9 374.4c0 0-17.2 18.7-14.3 43.1 2.8 24.4 8.6 62.8 8.6 62.8l-31.6 1.9"/>
				</g>
			</g>
			<g id="&lt;Group&gt;">
				<path id="&lt;Path&gt;" class="s3" d="m471.1 218.2c0 0-11.4 19.7-9.2 22.3 2.2 2.6 0.4 7.4 0.4 7.4 0 0-11.3 8.7-10.4 11.7 0.8 3.1 10 11.4 10 11.4 0 0 1.7 23.5 3.9 25.7 2.2 2.2 17 4.8 20.1 5.2 3 0.5 4.8 1.3 4.8 1.3l8.7 47.1 48.8-44-7.8-20.9c0 0-4.4-27.9-4-41 0.5-13.1-22.2-28.8-35.7-32.7-13.5-3.9-29.6 6.5-29.6 6.5z"/>
				<path id="&lt;Path&gt;" class="s6" d="m480.2 191.7c0 0-11.3-11.8-24.8-2.7-13.5 9.2-9.6 24 2.6 29.2 12.2 5.3 26.6 1.3 21.8 6.6-4.8 5.2-6.1 16.5 1.3 18.7 7.4 2.2 6.1 10.5 6.1 14 0 3.5 6.1 3 7.4 0 1.3-3.1 4.8-11.4 13.1-7.9 8.3 3.5 7.8 22.7 4.8 27.5-3.1 4.8-6.1 4.3-6.1 4.3 0 0 4.8 1.8 1.7 7.4-3 5.7-3 5.7-3 5.7 0 0 6.9 8.3 24.4 5.2 17.4-3 21.3-10.9 18.7-17.4-2.6-6.5-8.7-7.4-2.2-17 6.6-9.6 22.7-20.9 21.4-42.7-0.9-14.4-34.9-27.9-34.9-27.9 0 0 7.9-13.1-10-21.4-17.9-8.2-38.4 1.4-37.1 10.1 1.3 8.7-5.2 8.3-5.2 8.3z"/>
				<g id="&lt;Group&gt;">
					<path id="&lt;Path&gt;" class="s2" d="m461.8 238.9c0 0-5.6-1.5-6 1.1-0.4 2.6 0 15.7 0 15.7 0 0 3.5 2.2 6.5 1.3 3.1-0.8 1.3-11.7 1.3-11.7"/>
					<path id="&lt;Path&gt;" class="s6" d="m496.3 253.5l-40.1-6.6v-2.5z"/>
				</g>
			</g>
			<g id="&lt;Group&gt;">
				<path id="&lt;Path&gt;" class="s12" d="m553.9 292.8c0 0-22.3 16.1-37.5 32.7-15.3 16.5-33.6 34.8-34.4 40.5-0.9 5.7 0.8 14.4 9.5 5.2 8.8-9.1 24.9-21.3 37.1-22.2 12.2-0.9 30.9 5.2 40.5 6.5 9.6 1.3 15.7 4 19.2-1.3 3.5-5.2-5.7-17-5.7-23.1 0-6.1 1.3-16.5-3-23.9-4.4-7.5-18.3-16.6-25.7-14.4z"/>
				<path id="&lt;Path&gt;" class="s6" d="m582.4 314.4c0 0-2.6 8.4-5.1 12.2-2.5 3.7-38.3 10.9-38.3 10.9 0 0 29.5-1.7 34.9-1.7 5.5 0 11.8 5.1 11.8 5.1l-2.9-8c0 0 1.2-14.7-0.4-18.5z"/>
			</g>
		</g>
	</g>
	<g id="Floor">
		<path id="&lt;Path&gt;" class="s2" d="m64 930h914"/>
	</g>
</svg>